<?xml version="1.0" encoding="utf-8"?>
<!-- Generator: Adobe Illustrator 18.1.1, SVG Export Plug-In . SVG Version: 6.00 Build 0)  -->
<svg version="1.1" xmlns="http://www.w3.org/2000/svg" xmlns:xlink="http://www.w3.org/1999/xlink" x="0px" y="0px"
	 viewBox="0 0 61.2 59" enable-background="new 0 0 61.2 59" xml:space="preserve">
<g id="レイヤー_2" display="none">
	<g display="inline">
		<circle fill="#EAA139" stroke="#FFFFFF" stroke-miterlimit="10" cx="29.7" cy="55.2" r="3.2"/>
		<path fill="#040000" stroke="#FFFFFF" stroke-miterlimit="10" d="M34.8,54.2H24.6c-1.1,0-2-0.9-2-2v-7.6c0-1.1,0.9-2,2-2h10.2
			c1.1,0,2,0.9,2,2v7.6C36.7,53.3,35.8,54.2,34.8,54.2z"/>
		<path fill="#EAA139" d="M34.8,54.2H24.6c-1.1,0-2-0.9-2-2v-7.6c0-1.1,0.9-2,2-2h10.2c1.1,0,2,0.9,2,2v7.6
			C36.7,53.3,35.8,54.2,34.8,54.2z"/>
		<circle fill="#040000" stroke="#FFFFFF" stroke-width="2" stroke-miterlimit="10" cx="29.7" cy="29.2" r="16.2"/>
		<rect x="22.6" y="47.8" fill="#FFFFFF" width="14.5" height="1.6"/>
		<rect x="22.5" y="50.4" fill="#FFFFFF" width="14.4" height="1.6"/>
		<circle fill="#EAA139" stroke="#FFFFFF" stroke-width="2" stroke-miterlimit="10" cx="29.7" cy="29.2" r="15.4"/>
		<circle fill="#EAA139" stroke="#FFFFFF" stroke-miterlimit="10" cx="29.7" cy="33.1" r="5.2"/>
		<line fill="none" stroke="#FFFFFF" stroke-miterlimit="10" x1="24.4" y1="32.8" x2="24.4" y2="43.9"/>
		<line fill="none" stroke="#FFFFFF" stroke-miterlimit="10" x1="34.9" y1="32.8" x2="34.9" y2="43.9"/>
		
			<rect x="16.9" y="6.1" transform="matrix(0.7071 -0.7071 0.7071 0.7071 -1.5004 15.5393)" fill="#F5A519" stroke="#FFFFFF" stroke-miterlimit="10" width="2.2" height="6.9"/>
		<rect x="28.7" y="3" fill="#F5A519" stroke="#FFFFFF" stroke-miterlimit="10" width="2.2" height="6.9"/>
		
			<rect x="40.6" y="6.1" transform="matrix(0.7071 0.7071 -0.7071 0.7071 18.9807 -26.6619)" fill="#F5A519" stroke="#FFFFFF" stroke-miterlimit="10" width="2.2" height="6.9"/>
	</g>
	<g display="inline">
		<g>
			<g>
				<path fill="#EAA139" stroke="#FFFFFF" stroke-width="2" stroke-miterlimit="10" d="M35.3,39.2l6.8-25.1c0,0,1.5-0.8,1.8,1.2
					s0,3.5,1.5,5.2s14.5,8.8,14.5,15.3c-1,4-2.5,7.2-7.8,9.2c-2.2,0-4.5,0-4.5,0s7-3.2,8-5s2.2-5.2-3.5-7.5s-9.9-3.1-9.9-3.1
					l-3.7,18.6"/>
				<ellipse fill="#EAA139" stroke="#FFFFFF" stroke-width="2" stroke-miterlimit="10" cx="25.3" cy="46.8" rx="13.2" ry="11"/>
				<path fill="#EAA139" stroke="#FFFFFF" stroke-width="2" stroke-miterlimit="10" d="M47.6,45.1"/>
			</g>
			<g>
				<g>
					<polygon fill="none" stroke="#FFFFFF" stroke-width="3" stroke-miterlimit="10" points="8,10.8 24.9,2.8 29.7,21.3 28.4,21.3 
						25.8,11.5 11.9,18.4 13.3,25.7 12.1,25.9 					"/>
					<polygon fill="#EAA139" points="8,10.8 24.9,2.8 29.7,21.3 28.4,21.3 25.8,11.5 11.9,18.4 13.3,25.7 12.1,25.9 					"/>
					<polygon fill="#EAA139" stroke="#FFFFFF" stroke-miterlimit="10" points="10.2,13.2 10.7,15.2 24.9,8.7 24.1,6.5 					"/>
					<ellipse fill="#EAA139" stroke="#FFFFFF" stroke-width="2" stroke-miterlimit="10" cx="9" cy="30.2" rx="6.9" ry="5.7"/>
					<ellipse fill="#EAA139" stroke="#FFFFFF" stroke-width="2" stroke-miterlimit="10" cx="24.1" cy="24.5" rx="6.8" ry="5.6"/>
				</g>
				<polygon fill="#EAA139" points="11.3,23.1 12.3,27.3 13.4,28.3 14,28.7 12.8,22.9 				"/>
				<polyline fill="#EAA139" points="27.6,18.4 28.9,24 30.4,23.8 29.3,19.6 28.9,18.1 				"/>
			</g>
			<polygon fill="#EAA139" points="36.7,38.1 34.9,44.6 37.4,47.2 38.6,42.5 39.3,38.9 			"/>
		</g>
		<path fill="#EAA139" d="M30.4,23.8c0.1,1.5-0.6,2.9-2,3.8s0.5-3.7,0.5-3.7"/>
	</g>
</g>
<g id="レイヤー_1">
	<g>
		<path fill="#F5A519" stroke="#FFFFFF" stroke-width="2" stroke-miterlimit="10" d="M29.7,57.7c-10.2,0-39.4-48,0-48
			S39.9,57.7,29.7,57.7z"/>
		<circle fill="#F5A519" stroke="#FFFFFF" stroke-width="2" stroke-miterlimit="10" cx="29.7" cy="21.5" r="16.3"/>
		<g>
			<g>
				<g>
					<path fill="#FFFFFF" d="M26.4,19.5l2.9-0.4c0.2,0,0.4,0,0.6,0c0.2,0,0.4,0.1,0.6,0.2c0.1,0.1,0.3,0.2,0.4,0.3
						c0.1,0.1,0.1,0.3,0.1,0.4c0,0.1,0,0.1,0,0.2c0,0.1-0.1,0.1-0.1,0.1l-3.2,0.5c-0.1,0-0.3,0-0.4,0c-0.1,0-0.3,0-0.4-0.1l-1.2-0.4
						C25.7,20.2,26.9,19,26.4,19.5z M26.7,21.6c1.2-0.2,2.5-0.3,3.8-0.4l0.4-0.3l0.8,0.2c0.1,0,0.1,0,0.2,0.1c0.1,0,0.1,0.1,0.2,0.1
						l0.9,0.5c0.1,0.1,0.2,0.1,0.2,0.3c0,0.1,0,0.2,0,0.3l-0.1,0.4c0,0.1-0.1,0.1-0.1,0.1c0,0-0.1,0-0.1,0c-0.6-0.2-1.2-0.3-1.8-0.3
						c-0.6-0.1-1.2-0.1-1.8,0l-1.3,0.2l-1.7,0.3l-0.4,0.2c-0.2,0.1-0.4,0.2-0.5,0.2c-0.2,0-0.4-0.1-0.6-0.2L23,22.4
						C24.3,22.1,25.5,21.8,26.7,21.6z"/>
				</g>
				<g>
					<path fill="#FFFFFF" d="M29.2,22l0.9,0.8c0.1,0.1,0.1,0.1,0.1,0.2c0,0.1,0,0.2,0,0.3l-0.1,0.4c0.1,0.7,0.1,1.5,0.1,2.2
						c0,0.7,0,1.5,0,2.2c0,0.3-0.1,0.5-0.2,0.7c-0.1,0.2-0.2,0.4-0.4,0.6c-0.1,0.1-0.2,0.2-0.3,0.4c-0.1,0.1-0.2,0.3-0.3,0.4
						c-0.1,0.1-0.1,0.1-0.2,0.2c-0.1,0-0.2,0.1-0.3,0.1c-0.1-0.3-0.3-0.5-0.5-0.7c-0.2-0.2-0.4-0.4-0.7-0.5
						c-0.2-0.1-0.4-0.2-0.6-0.3c-0.2-0.1-0.3-0.3-0.5-0.5c-0.3-0.3-0.5-0.6-0.8-1c-0.2-0.3-0.5-0.7-0.7-1c0,0,1,0.4,1.5,0.5
						c0.5,0.2,1,0.2,1.5,0.2c0.2-0.8,0.2-1.6,0.2-2.4c0-0.8-0.1-1.6-0.2-2.4l-0.3-0.4C27.6,22.3,29.9,21.9,29.2,22z"/>
				</g>
			</g>
			<path fill="#FFFFFF" d="M22.1,17.6c0.3,0.1,0.6,0.2,0.9,0.4c0,0,0.1,0,0.1,0.1c0,0,0.1,0.1,0.1,0.1c0.1,0.1,0.1,0.1,0.1,0.2
				c0.2,0.2,0.3,0.3,0.5,0.5c0.2,0.3,0.3,0.5,0.3,0.6c0,0.1,0,0.2,0,0.3s0,0.2-0.1,0.2c-0.2,0.1-0.3,0.2-0.5,0.2
				c-0.2,0-0.4-0.1-0.5-0.2c-0.2-0.2-0.5-0.6-0.9-1c0,0-0.1,0-0.1-0.1l0,0c-0.4-0.5-0.7-0.8-0.9-1.1c0,0,0,0,0-0.1c0,0,0-0.1,0-0.1
				c0,0,0,0,0.1,0h0h0C21.5,17.5,21.8,17.5,22.1,17.6z"/>
			
				<text transform="matrix(1 0 0 1 14.2687 24.5194)" fill="#FFFFFF" font-family="'DFKKaiShoA-W5-90pv-RKSJ-H'" font-size="18.6371">ク</text>
			<circle fill="#FFFFFF" cx="23.7" cy="15.7" r="1.4"/>
			<path fill="#FFFFFF" d="M33.4,18c1.5,1.6,2.8,2.8,4.1,3.8c1.3,1,2.6,1.7,4,2.2c0.6,0.1,0.9,0.3,1,0.6c0,0.3-0.2,0.5-0.7,0.5
				c-1.3,0.1-2.8-0.3-4.5-1.3c-1.7-1.3-3.3-2.8-4.8-4.5c-1.8-2.6-3.6-4.8-5.2-6.7c0-0.3,0-0.4,0.2-0.4c0.2,0,0.5,0,0.9,0.1
				C29.5,13.5,33.2,17.9,33.4,18z"/>
			<path fill="#FFFFFF" d="M33.2,24.7c0.7,0.2,1.4,0.5,2.1,0.8c0.5,0.2,0.9,0.5,1.2,0.8c0.4,0.3,0.6,0.7,0.8,1.1
				c0.1,0.3,0.2,0.5,0.3,0.8c0.1,0.3,0.1,0.5,0.2,0.8l-0.7,1c-0.2,0-0.3,0-0.5,0c-0.2,0-0.4,0-0.5-0.1c-0.2-0.1-0.4-0.1-0.6-0.3
				c-0.1-0.1-0.3-0.3-0.4-0.5c-0.2-0.4-0.4-0.8-0.7-1.1c-0.2-0.4-0.4-0.8-0.5-1.1c-0.5-0.5-1-1-1.5-1.4c-0.5-0.5-1-0.9-1.4-1.5
				C31.7,24.3,32.5,24.5,33.2,24.7z"/>
			<path fill="#FFFFFF" d="M22.4,28.7c-0.2,0.2-0.5,0.4-0.8,0.5c-0.3,0.1-0.7,0-1-0.1l-1.4-0.5c0.2,0,0.4,0,0.6-0.1
				c0.2-0.1,0.3-0.2,0.5-0.4l2.7-3.4c0-0.2-0.1-0.4-0.1-0.6c-0.1-0.2-0.2-0.4-0.3-0.5l0.4-0.2c0.3,0.1,0.7,0.2,1,0.4
				c0.3,0.2,0.6,0.3,0.9,0.5c0.1,0.1,0.3,0.3,0.4,0.4c0.1,0.1,0.2,0.3,0.2,0.5c-0.1,0-0.2,0.1-0.3,0.1c-0.1,0-0.2,0.1-0.2,0.2
				L22.4,28.7z"/>
			<text transform="matrix(1 0 0 1 28.7472 19.7802)" fill="#FFFFFF" font-family="'KFhimaji-83pv-RKSJ-H'" font-size="11.1932">フ</text>
		</g>
	</g>
</g>
</svg>
