<svg xmlns="http://www.w3.org/2000/svg" viewBox="0 0 61.2 59" enable-background="new 0 0 61.2 59"><g><path fill="#CC5146" stroke="#fff" stroke-width="2" stroke-miterlimit="10" d="M30.6 56.1c-10.2 0-39.4-48 0-48s10.2 48 0 48z"/><circle fill="#CC5146" stroke="#fff" stroke-width="2" stroke-miterlimit="10" cx="30.6" cy="21.2" r="18.6"/><path fill="#fff" d="M26.9 18.9l3.3-.4h.7c.2 0 .5.1.7.2.2.1.3.2.4.3.1.1.1.3.2.4v.2c0 .1-.1.1-.2.1l-3.6.6h-.5c-.2 0-.3 0-.5-.1l-1.4-.4.9-.9zm.3 2.4c1.4-.2 2.9-.4 4.3-.4l.5-.3.9.2c.1 0 .2 0 .2.1.1 0 .1.1.2.1l1 .6c.1.1.2.2.2.3v.4l-.1.5c0 .1-.1.1-.2.1H34c-.7-.2-1.4-.3-2.1-.4-.7-.1-1.4-.1-2.1 0l-1.5.2-2 .4-.3.2c-.2.1-.4.2-.6.2-.2 0-.5-.1-.6-.2l-1.8-1c1.4-.4 2.8-.7 4.2-1zM30 21.8l1.1.9c.1.1.1.2.2.3v.3l-.1.5c.1.8.1 1.7.1 2.5s0 1.7-.1 2.5c0 .3-.1.6-.2.8-.1.3-.2.5-.4.7-.1.1-.2.3-.3.5-.1.2-.2.3-.3.5-.1.1-.1.2-.2.2-.1.1-.2.1-.3.1-.2-.3-.4-.6-.6-.8-.2-.2-.5-.4-.8-.5-.2-.1-.5-.2-.7-.3-.2-.2-.4-.3-.6-.5-.3-.3-.6-.7-.9-1.1-.3-.4-.5-.8-.8-1.2 0 0 1.1.4 1.7.6.6.2 1.1.3 1.7.3.2-.9.3-1.8.3-2.7 0-.9-.1-1.8-.2-2.7l-.3-.5c-.1-.1 2.5-.5 1.7-.4zM22 16.8c.3.1.7.3 1 .4 0 0 .1 0 .1.1l.1.1c.1.1.1.1.1.2.2.2.4.4.5.6.2.3.3.5.4.7v.3s0 .2-.1.3c-.2.2-.4.2-.6.2-.2 0-.4-.1-.5-.2l-1.1-1.1s-.1 0-.1-.1c-.5-.5-.8-1-1.1-1.3v-.2h.1c.4-.1.8-.1 1.2 0z"/><text transform="translate(12.969 24.674)" fill="#fff" font-family="'DFKKaiShoA-W5-90pv-RKSJ-H'" font-size="21.299">ク</text><circle fill="#fff" cx="23.7" cy="14.6" r="1.6"/><path fill="#fff" d="M34.8 17.3c1.7 1.8 3.2 3.2 4.6 4.3 1.5 1.1 3 2 4.6 2.5.7.1 1.1.4 1.1.7 0 .4-.2.5-.8.6-1.5.1-3.2-.4-5.2-1.4-2-1.5-3.8-3.2-5.4-5.1-2.1-3-4.1-5.5-6-7.6 0-.3.1-.5.2-.5.2 0 .6 0 1.1.1 1.4 1.1 5.6 6.2 5.8 6.4zM34.6 24.9l2.4.9c.5.2 1 .5 1.4.9.4.4.7.8.9 1.3.1.3.3.6.3.9.1.3.2.6.2.9l-.7 1.2h-.5c-.2 0-.4 0-.6-.1l-.6-.3c-.2-.1-.3-.3-.5-.5-.3-.4-.5-.9-.8-1.3-.2-.4-.4-.9-.6-1.3-.6-.5-1.1-1.1-1.7-1.6-.6-.5-1.1-1.1-1.6-1.7.7.2 1.6.5 2.4.7zM22.3 29.5c-.3.3-.6.4-1 .5-.4.1-.8 0-1.1-.1l-1.6-.6c.2 0 .4 0 .7-.1.2-.1.4-.2.5-.4l3-3.9c0-.3-.1-.5-.1-.7l-.3-.6.4-.2c.4.1.8.2 1.1.4.4.2.7.4 1 .6.2.2.3.3.4.5.1.2.2.3.3.6-.1 0-.2.1-.3.1-.1 0-.2.1-.3.2l-2.7 3.7z"/><text transform="translate(29.515 19.259)" fill="#fff" font-family="'KFhimaji-83pv-RKSJ-H'" font-size="12.792">フ</text></g></svg>