<svg xmlns="http://www.w3.org/2000/svg" viewBox="0 0 61.2 59" enable-background="new 0 0 61.2 59"><g><path fill="#CC5146" stroke="#fff" stroke-width="2" stroke-miterlimit="10" d="M11.8 4.6h33v44h-33zM42.2 54.3H16.5v-44h33v36.4z"/><path fill="#fff" d="M46.7 28.6h-27c-.5 0-1-.4-1-1 0-.5.4-1 1-1h27.1c.5 0 1 .4 1 1-.1.5-.5 1-1.1 1zM46.7 31.6h-27c-.5 0-1-.4-1-1 0-.5.4-1 1-1h27.1c.5 0 1 .4 1 1-.1.6-.5 1-1.1 1zM46.7 34.7h-27c-.5 0-1-.4-1-1 0-.5.4-1 1-1h27.1c.5 0 1 .4 1 1-.1.6-.5 1-1.1 1zM46.7 37.8h-27c-.5 0-1-.4-1-1 0-.5.4-1 1-1h27.1c.5 0 1 .4 1 1-.1.6-.5 1-1.1 1zM46.7 40.9h-27c-.5 0-1-.4-1-1 0-.5.4-1 1-1h27.1c.5 0 1 .4 1 1-.1.6-.5 1-1.1 1z"/><path stroke="#fff" stroke-miterlimit="10" fill="none" d="M19.3 13.2h27.9v11.6H19.3z"/><path fill="#CC5146" stroke="#fff" stroke-miterlimit="10" d="M42.3 53.7v-6.6h6.6z"/></g></svg>