<svg xmlns="http://www.w3.org/2000/svg" viewBox="0 0 61.2 59" enable-background="new 0 0 61.2 59"><g fill="#CC5146" stroke="#fff" stroke-miterlimit="10"><path stroke-width="2" d="M7.1 13.7h47V49h-47z"/><path d="M20.3 21c-.8 0-1.5-.7-1.5-1.5v-8c0-.8.7-1.5 1.5-1.5s1.5.7 1.5 1.5v8c0 .8-.7 1.5-1.5 1.5zM41.1 21c-.8 0-1.5-.7-1.5-1.5v-8c0-.8.7-1.5 1.5-1.5s1.5.7 1.5 1.5v8c0 .8-.7 1.5-1.5 1.5zM9.9 26.2h6.5v6.5H9.9zM18.6 26.2h6.5v6.5h-6.5zM27.4 26.2h6.5v6.5h-6.5zM36.2 26.2h6.5v6.5h-6.5zM45 26.2h6.5v6.5H45zM9.9 35.4h6.5v6.5H9.9zM18.6 35.4h6.5v6.5h-6.5zM27.4 35.4h6.5v6.5h-6.5zM36.2 35.4h6.5v6.5h-6.5zM45 35.4h6.5v6.5H45z"/></g></svg>