<?xml version="1.0" encoding="utf-8"?>
<!-- Generator: Adobe Illustrator 19.1.0, SVG Export Plug-In . SVG Version: 6.00 Build 0)  -->
<svg version="1.1" id="レイヤー_1" xmlns="http://www.w3.org/2000/svg" xmlns:xlink="http://www.w3.org/1999/xlink" x="0px"
	 y="0px" viewBox="0 0 57.6 57.6" enable-background="new 0 0 57.6 57.6" xml:space="preserve">
<g>
	<g>
		<path fill="#3A9EC7" d="M28.8,57.6C12.9,57.6,0,44.7,0,28.8S12.9,0,28.8,0s28.8,12.9,28.8,28.8S44.7,57.6,28.8,57.6z M28.8,3.1
			C14.6,3.1,3,14.6,3,28.8s11.6,25.8,25.8,25.8S54.6,43,54.6,28.8S43,3.1,28.8,3.1z"/>
		<g>
			<g>
				<defs>
					<circle id="SVGID_1_" cx="28.8" cy="28.8" r="27.3"/>
				</defs>
				<clipPath id="SVGID_2_">
					<use xlink:href="#SVGID_1_"  overflow="visible"/>
				</clipPath>
				<g clip-path="url(#SVGID_2_)">
					<g>
						<path fill="#FFFFFF" d="M27.1,14.9c0,0-0.7-2.3-0.5-2.4s0.5-0.1,0.7,0.2s0.6,0.9,0.6,0.9s0.3,0.7,0.6,0.7
							c0.4,0.1,0.8,0.3,1.1,0.9c0.2,0.6,0.7,1,0.7,1s0.6,0.8,1.1,1.7c0.5,0.9,1.9,3.1,1.9,3.1l-1.5,6.6c0,0-2.7-7.3-3.1-7.7
							c-0.5-0.5-0.8-0.9-0.8-0.9s-2.5-0.7-3-1.2S24,17.2,24,17.2s-0.9-0.5-1.3-0.7s-1.7-1.2-0.5-1.2c1.2-0.1,2.1,0.7,2.1,0.7
							s-2.8-2.1-2.9-2.6c0-0.4,0-0.8,0.3-0.7s2.9,2.2,2.9,2.2s-3.3-2.5-3.2-2.7c0.1-0.3,0.3-0.6,0.7-0.4c0.4,0.2,3.2,2.2,3.2,2.2
							l-2.4-2.3c0,0-0.1-0.7,0-0.8c0.2-0.1,1.1-0.6,3.5,2.3C26.6,14.5,26.7,14.5,27.1,14.9c0,0.5-0.2,1.2,0.2,1.5
							c0.4,0.3,0.5,0.4,0.5,0.4"/>
						<path fill="#3A9EC7" d="M32,28.8l-0.4-1.1c-1.3-3.4-2.8-7.2-3-7.6c-0.3-0.3-0.6-0.7-0.7-0.8c-0.5-0.1-2.5-0.7-3-1.2
							c-0.5-0.4-0.8-0.6-0.8-0.6s-0.9-0.5-1.3-0.7c0,0-1.3-0.7-1.2-1.4c0-0.2,0.2-0.5,0.8-0.5c0.1,0,0.1,0,0.2,0
							c-1.3-1.1-1.3-1.4-1.3-1.5c0-0.4,0-0.7,0.2-0.9c-0.2-0.3-0.2-0.4-0.1-0.5c0.1-0.3,0.3-0.5,0.5-0.6c0.1-0.1,0.4-0.1,0.6,0
							c0.1,0,0.2,0.1,0.3,0.2c-0.1-0.5,0-0.9,0.2-1c0.4-0.3,1.4-0.5,3.5,1.8c0-0.2,0.1-0.2,0.2-0.3c0.3-0.1,0.8-0.1,1.1,0.4
							c0.2,0.3,0.6,0.9,0.6,0.9v0.1c0.1,0.3,0.3,0.5,0.4,0.5c0.5,0.1,1,0.4,1.3,1v0.1c0.1,0.5,0.6,0.8,0.6,0.8l0.1,0.1
							c0,0,0.7,0.8,1.2,1.8c0.5,0.9,1.9,3,1.9,3l0.1,0.1L32,28.8z M22.2,15.7c0.2,0.2,0.5,0.5,0.7,0.6c0.4,0.2,1.3,0.7,1.3,0.7
							s0.4,0.2,1,0.7c0.4,0.3,1.9,0.8,2.9,1.1h0.1l0.1,0.1c0,0,0.3,0.4,0.8,0.8c0.4,0.4,1.9,4.5,2.8,6.8l1.2-5.4
							c-0.3-0.5-1.4-2.2-1.8-3c-0.4-0.8-1-1.5-1.1-1.6s-0.6-0.5-0.8-1.1c-0.3-0.4-0.6-0.6-0.9-0.7c-0.5-0.1-0.8-0.7-0.9-0.9
							c-0.1-0.1-0.4-0.6-0.5-0.9c0,0,0-0.1-0.1-0.1c0.1,0.4,0.2,1.2,0.4,1.8l0.2,0.2V15c0,0.1,0,0.2,0,0.3c0,0.3-0.1,0.7,0.1,0.8
							c0.4,0.3,0.5,0.4,0.5,0.4l-0.4,0.6c0,0-0.2-0.1-0.6-0.4s-0.4-1-0.3-1.4v-0.1c-0.4-0.4-0.6-0.6-0.7-1.7
							c-1.9-2.3-2.7-2.2-2.9-2.2c0,0.1,0,0.3,0,0.4l2.3,2.2l-0.4,0.5c-1.1-0.8-2.9-2.1-3.2-2.2h-0.1c0,0,0,0-0.1,0.1
							c0.2,0.2,0.9,0.8,1.7,1.4c0.5,0.4,1.1,0.8,1.4,1.1l-0.4,0.5c-0.6-0.5-1.2-0.9-1.6-1.2s-0.8-0.6-1-0.8c0,0.1,0,0.1,0,0.2
							c0.2,0.3,1.4,1.3,2.5,2.2c0.2,0.1,0.3,0.2,0.3,0.2l-0.6,0.5c-0.1-0.1-0.2-0.1-0.2-0.2C23.6,16,23,15.7,22.2,15.7
							C22.3,15.7,22.2,15.7,22.2,15.7z"/>
					</g>
					<g>
						<path fill="#FFFFFF" d="M33.2,49.9c0.5,3.1,2,8.9,1.1,9.5C33.4,60,51,56.5,51,56.5s-1.5-10-2-10.2S32.7,46.8,33.2,49.9z"/>
						<path fill="#3A9EC7" d="M34.5,59.8c-0.4,0-0.4-0.1-0.5-0.2c-0.1-0.1,0-0.3,0.2-0.5c0.5-0.4-0.3-4.5-0.8-6.7
							c-0.2-0.9-0.3-1.7-0.5-2.4l0,0c-0.1-0.5,0.2-1,0.8-1.5c2.9-2.1,14.8-2.9,15.5-2.5c0.2,0.1,0.7,0.4,2.2,10.5v0.3l-0.3,0
							c0,0-4.2,0.8-8.3,1.6C37.2,59.5,35.2,59.8,34.5,59.8z M33.6,49.8c0.1,0.7,0.3,1.5,0.5,2.4c0.7,3.8,1.1,5.9,0.8,6.9
							c2.1-0.2,10.2-1.8,15.8-2.9c-0.6-4.3-1.5-8.9-1.8-9.6c-1.4-0.2-12.8,0.5-15,2.6C33.5,49.5,33.6,49.8,33.6,49.8L33.6,49.8z"/>
					</g>
					<path fill="#3A9EC7" d="M16.4,30.4l-0.6-0.8c-2.8-3.9-7-9.8-7.3-10.1c-0.2-0.2-0.8-0.8-1.5-1.6c-0.3-0.4-0.9-0.7-1.4-0.9
						c-0.5-0.2-0.9-0.4-1.2-0.7c0,0-1.3-1.3-1.6-1.7l0,0c-0.1-0.1-1.1-0.9-1.5-1.2c-0.3-0.2-0.9-0.9-0.9-1.6c0-0.4,0-0.5,0-0.7
						c0.1-0.2,0.3-0.3,0.4-0.3c-0.2-0.2-0.3-0.4-0.4-0.5l0.1-0.2C0.3,9.6,0.1,9,0.6,8.8h0.1C0.6,8.5,0.6,8.5,0.6,8.4
						c0-0.2,0.2-0.5,0.4-0.6c0.1-0.1,0.3-0.1,0.5,0c0.1,0,0.5,0.3,1,0.8C2.3,8.2,2.3,8.2,2.3,8.1c0-0.1-0.1-0.5,0.2-0.7
						c0.2-0.2,0.4-0.3,0.8-0.3c0.5,0,1.2,0.6,2.6,2.1C6,9.1,6,9.1,6.1,9.1c0.3,0,1.9,0.1,2.3,0.1h0.1l0.1,0.1c0,0,0.7,0.8,1,1.6
						c0.1,0.2,0.2,0.4,0.3,0.6c0.2,0.6,0.5,1.2,0.7,2.1c0.3,1.2,0.6,1.9,1.3,2.7c0.7,0.9,4.8,5.5,4.8,5.5l0.1,0.1L16.4,30.4z
						 M3.4,14.2c0.1,0.1,0.9,1.1,1.5,1.6c0.2,0.2,0.6,0.4,1,0.6c0.6,0.3,1.2,0.6,1.7,1.1C8.3,18.3,8.8,18.8,9,19s4.9,6.8,6.7,9.4
						l0.3-6c-0.6-0.7-4.1-4.6-4.8-5.4c-0.7-0.9-1.1-1.7-1.4-3c-0.2-0.9-0.4-1.4-0.7-2c-0.1-0.2-0.2-0.4-0.3-0.7
						C8.6,10.8,8.2,10.2,8,10c-0.4,0-0.9-0.1-1.2-0.1c0.2,0.2,0.5,0.4,0.8,0.6h0.1v0.1c0.2,0.3,0.4,0.6,0.6,0.9
						c0.3,0.2,0.5,0.5,0.5,0.7v0.3l-0.3,0.1c-0.2,0.1-0.3,0.1-0.8-0.6c-0.2-0.2-0.5-0.4-0.7-0.5c-0.4-0.2-1-0.8-1.4-1.2l-0.2-0.2
						C4,8.2,3.4,7.8,3.2,7.8c-0.1,0-0.2,0-0.2,0v0.1c0.2,0.3,1.4,1.7,2.4,3l-0.5,0.5c-1.5-1.3-3.2-2.7-3.6-3l0,0
						c0.3,0.3,1.2,1.3,2.1,2.2l1.3,1.3l-0.5,0.5c-0.8-0.8-1.4-1.4-1.9-1.9L1.1,9.3c-0.1,0-0.2,0-0.2,0C0.9,9.4,1,9.6,1,9.8L1.1,10
						c0.1,0.2,0.9,1,1.3,1.5c1,1.1,1.1,1.2,0.9,1.5l-0.1,0.2l-0.3-0.1c-0.3-0.1-1.1-1-1.6-1.6c-0.1-0.1-0.2-0.1-0.3-0.1
						c0,0,0,0.1,0,0.2c0.1,0.5,0.5,1,0.7,1.1C3.1,13.7,3.4,14,3.4,14.2L3.4,14.2z"/>
					<g>
						<path fill="#3A9EC7" d="M47.8,32l1.5,1.4c0,0,3.3,8.1-0.7,13.6h-0.7l-0.8,0.9l-3.7,0.4c0,0-0.9,0-1.3-3.3
							c-0.5-1-1.8-0.3-1.8-0.3l-0.4,2.2c0,0-3.7,0.3-6.5,2.6c0,0,0.2,0.7,0,0.7s-4.5-0.7-5-1.6s1.1,10.5,0,11.5
							c-1.3,0-15.8-4.5-20.2-5c-1-0.1-1.5-1.4-0.9-2.6c0.5-1.2,5.8-14.4,6-15.9s1-9.7,1-9.7s0.3-3.6,0.9-4.4
							c0.5-0.8,1.2-1.5,1.2-1.5l12.5,8.5c0,0,2.1-3.1,2.6-4.1C32.7,34,47.8,32,47.8,32z"/>
						<path fill="#FFFFFF" d="M28.5,60.5h-0.1c-0.5,0-2.7-0.6-6.6-1.7c-4.9-1.4-11-3.1-13.5-3.4c-0.5,0-0.9-0.3-1.2-0.7
							c-0.4-0.6-0.4-1.5,0-2.3c0.6-1.5,5.8-14.4,6-15.8c0.2-1.5,1-9.6,1-9.7c0-0.4,0.4-3.7,0.9-4.5s1.2-1.5,1.2-1.5l0.2-0.2
							l12.3,8.4l2.4-3.7c0.6-2.7,1.2-4,1.9-4c0.7,0.1,7.5,2.4,10.7,5.3c3,2.7,4.1,4.7,4.3,5.1l1.5,1.4v0.1c0,0.1,0.9,2.1,1.2,4.8
							c0.4,3.6-0.2,6.8-2,9.1l-0.1,0.1h-0.7l-0.8,0.8l-3.9,0.4c-0.3,0-1.3-0.3-1.6-3.5c-0.1-0.1-0.2-0.2-0.3-0.3
							c-0.3-0.1-0.6,0-0.8,0.1l-0.4,2.5h-0.3c0,0-3.5,0.3-6.2,2.4c0.1,0.5,0,0.7-0.1,0.7c-0.1,0.1-0.2,0.2-0.3,0.2
							c0,0-3.3-0.4-4.7-1.3c0,0.6,0.1,1.4,0.2,2.3C29.2,56.9,29.2,59.7,28.5,60.5L28.5,60.5z M16.4,21.5c-0.2,0.3-0.6,0.7-1,1.2
							c-0.3,0.5-0.7,2.9-0.8,4.2c0,0.1-0.9,8.2-1,9.7c-0.2,1.6-5.5,14.9-6,16c-0.3,0.6-0.3,1.2,0,1.7c0.1,0.2,0.3,0.4,0.7,0.4
							c2.6,0.3,8.7,2,13.7,3.4c2.8,0.8,5.5,1.5,6.3,1.7c0.5-0.9,0.1-5.9-0.1-8.1c-0.3-3.2-0.2-3.3,0.1-3.4c0,0,0.3-0.1,0.5,0.2
							c0.3,0.6,3.3,1.2,4.4,1.4c0-0.1,0-0.2,0-0.2l-0.1-0.2l0.2-0.1c2.5-2,5.5-2.5,6.4-2.6l0.4-2.1l0.1-0.1c0.1,0,0.8-0.5,1.5-0.3
							c0.3,0.1,0.6,0.3,0.8,0.7v0.1v0.1c0.3,2.5,0.9,2.9,1,2.9l3.5-0.4l0.8-0.9h0.7c3.6-5,0.9-12.3,0.6-13.1l-1.4-1.4v-0.1
							c0,0-0.2-1.2-3.3-4.1c-7.8,4.6-8.8,2.3-9.7,2.2c-0.3,0.2-2.3-2.4-2.7-3.8l-0.2-0.6l-2.9,4.2L16.4,21.5z"/>
					</g>
					<g>
						<path fill="#FFFFFF" d="M34.1,17.7c0,0-6.4,6.7,0.4,12.9c1,0,2.1,0,2.1,0s0.9,0.5,0.5,0.9c-0.3,0.4,1.9-3.1,6.6-1.8
							s2.8,0.5,2.8,0.5l1.6-5.2c0,0-0.7-8.4-4.8-8.9C39.3,15.6,36.9,15.1,34.1,17.7z"/>
						<path fill="#3A9EC7" d="M37.1,32c-0.1,0-0.2,0-0.2,0l-0.3-0.2l0.1-0.3c0,0,0-0.1,0.1-0.1c0-0.1-0.2-0.3-0.3-0.4h-2.1l-0.1-0.1
							c-2.1-1.9-3.2-4.1-3.3-6.4c-0.1-3.9,2.7-6.9,2.8-7.1l0,0c2.7-2.5,5.1-2.2,8.7-1.7l0.8,0.1c4.3,0.5,5.1,8.9,5.1,9.2v0.1l-1.6,5
							c0.2,0.1,0.4,0.3,0.3,0.5c0.1,0.4,0,0.5-3.4-0.5c-3.7-1-5.8,1.1-6.2,1.6c0,0,0,0.1-0.1,0.1C37.3,31.9,37.2,32,37.1,32z
							 M34.7,30.3h2h0.1c0.1,0,0.4,0.2,0.5,0.5c1-0.9,3.2-2.3,6.5-1.4c1.3,0.3,2,0.5,2.4,0.6l1.6-5c-0.1-0.8-0.9-8.1-4.5-8.5
							l-0.8-0.1c-3.6-0.5-5.7-0.7-8.2,1.5c-0.1,0.1-2.7,3-2.6,6.6C31.8,26.6,32.8,28.5,34.7,30.3z"/>
					</g>
					<g>
						<path fill="#3A9EC7" d="M42.7,29.6c0,0-0.5-1.6-1.1-2.2c-0.5-0.6-2.6-0.9-1.8-1s1-1.5,1.2-3.6s-2.1-0.9-2.1-0.9l-1.6,1.8
							c0,0-0.2-1.4,0-1.9s-1.6-1.5-2.6-2.2c-0.9-0.8,0-3.8,0-3.8s4.2-2,7.9-0.6c0.6-0.9-0.5-1.3,0.7-1.8c1.3-0.5,2.4-0.3,2.7,0.5
							s0.9,0.1,0.9,0.1s5.7,0.6,2.7,7.4c0.1,1.4,0.8,6.3-1.5,8.3S42.7,29.6,42.7,29.6z"/>
						<path fill="#3A9EC7" d="M45.7,30.8c-1.7,0-3.2-0.9-3.3-0.9l-0.1-0.1v-0.1c-0.1-0.4-0.6-1.6-1-2.1c-0.2-0.2-0.8-0.5-1.2-0.6
							c-0.5-0.2-0.8-0.3-0.8-0.6c0-0.3,0.4-0.3,0.5-0.4c0.6-0.1,0.8-2.3,0.9-3.3c0-0.3,0-0.7-0.2-0.8c-0.3-0.2-1,0.1-1.3,0.2
							l-2.1,2.4L37,23.8c0-0.1-0.2-1.4,0-2c-0.1-0.2-0.9-0.8-1.4-1.1c-0.4-0.3-0.8-0.5-1.1-0.8c-1.1-0.9-0.3-3.7-0.1-4.2v-0.1
							l0.1-0.1c0.2-0.1,4.1-1.9,7.9-0.7c0-0.2,0-0.3,0-0.4c-0.1-0.5,0-0.9,0.8-1.3c1.4-0.6,2.7-0.3,3.2,0.7c0.1,0.1,0.1,0.2,0.1,0.2
							c0.1,0,0.2-0.1,0.3-0.2l0.1-0.1h0.2c0.1,0,2.3,0.3,3.4,2.1c0.8,1.4,0.7,3.3-0.4,5.7c0,0.1,0,0.3,0,0.5c0.2,2,0.5,6.1-1.7,8
							C47.6,30.5,46.6,30.8,45.7,30.8z M42.9,29.3c0.6,0.3,3.2,1.5,5,0c1.9-1.6,1.6-5.7,1.5-7.4c0-0.2,0-0.4,0-0.6v-0.1v-0.1
							c1-2.2,1.1-3.9,0.5-5.1c-0.7-1.3-2.2-1.7-2.7-1.7c-0.2,0.1-0.4,0.3-0.7,0.3c-0.2,0-0.5-0.1-0.6-0.6c-0.3-0.6-1.2-0.8-2.3-0.3
							c-0.5,0.1-0.5,0.2-0.5,0.4c0.1,0.3,0.1,0.7-0.2,1.2l-0.1,0.2l-0.3-0.1c-3.2-1.2-6.8,0.2-7.5,0.5c-0.3,1.2-0.6,2.9-0.1,3.3
							c0.3,0.2,0.7,0.5,1,0.7c1,0.7,1.9,1.3,1.7,1.9c-0.1,0.2-0.1,0.6,0,1l1.2-1.3c0.1-0.1,1.3-0.7,2.1-0.3c0.4,0.3,0.6,0.7,0.5,1.4
							c-0.1,1.6-0.3,3-0.9,3.6c0.6,0.2,1.1,0.4,1.4,0.8C42.3,27.7,42.8,28.9,42.9,29.3z"/>
					</g>
					<g>
						<path fill="#FFFFFF" d="M47.5,33.6c0,0,0.6-1.8,0.9-3c-8.3-3.6-12.3,2.2-12.3,2.2"/>
						<path fill="#3A9EC7" d="M47.8,33.7l-0.6-0.2c0,0,0.5-1.5,0.8-2.6c-3.2-1.4-6.2-1.4-8.7-0.2c-1.9,1-2.9,2.3-2.9,2.3l-0.6-0.4
							c0-0.1,4.3-6,12.8-2.3l0.3,0.1l-0.1,0.3C48.4,31.9,47.9,33.6,47.8,33.7z"/>
					</g>
					<path fill="none" stroke="#070001" stroke-width="2" stroke-miterlimit="10" d="M38.9,35.5"/>
					<path fill="#FFFFFF" d="M38.5,37.5c0,0-0.2-3.7-3.1-4.8c-3.1-1.3-6.7-2.8-6.8-2.8l0.3-0.6c0,0,3.6,1.5,6.7,2.8
						c3.3,1.4,3.5,5.3,3.6,5.4L38.5,37.5z"/>
					<path fill="#FFFFFF" d="M28.6,60.3L28,60.1c0,0,0.5-1.4,0.4-2.9s-0.4-8.4-0.5-8.5l0,0l0,0c0-0.1,0.4-3.2,1.2-4.6l0.6,0.3
						c-0.6,1.2-1,4-1.1,4.3c0,0.5,0.3,7,0.5,8.4C29.2,58.7,28.7,60.2,28.6,60.3z"/>
					<g>
						<path fill="#FFFFFF" d="M43.3,46.8c-0.9-1.8-1.1-2.9-2.4-3.2c-7.5-0.5-5,12.6-3.7,13.6c1.3,0.9,4.4,1.6,6.1,0.5
							c1.7-1.1,2.8-1.6,2.8-1.6S44.2,48.6,43.3,46.8z"/>
						<path fill="#3A9EC7" d="M40.9,58.6c-1.5,0-3.1-0.5-3.9-1.1c-1-0.7-2.4-6.9-1-10.9c0.8-2.3,2.5-3.5,4.9-3.3l0,0
							c1.2,0.2,1.6,1.1,2.1,2.3c0.2,0.3,0.3,0.7,0.5,1.1l0,0c0.9,1.8,2.8,9,2.9,9.3l0.1,0.3l-0.3,0.1c0,0-1.1,0.5-2.8,1.6
							C42.8,58.4,41.9,58.6,40.9,58.6z M40.5,44c-1.8,0-3.1,1-3.8,2.9c-1.4,3.8,0.1,9.6,0.7,10.1c1.2,0.9,4.1,1.5,5.7,0.5
							c1.3-0.8,2.2-1.3,2.6-1.5c-0.4-1.4-2-7.4-2.8-8.9l0,0c-0.2-0.4-0.4-0.8-0.5-1.1c-0.5-1.2-0.8-1.7-1.6-1.9
							C40.7,44,40.6,44,40.5,44z"/>
					</g>
					<g>
						<path fill="#FFFFFF" d="M47.4,46.6c0,0,2-1.6,3-3.2c2-1.4,4.3,5.1,4.4,6.6s0.2,6-1.1,6.3c-1.2,0.3-4.1,1.5-5.7,0.5
							c-1.6-1-2.7-1.5-2.7-1.5S45.4,47.7,47.4,46.6z"/>
						<path fill="#3A9EC7" d="M49.7,57.6c-0.7,0-1.3-0.1-1.9-0.5c-1.6-1-2.6-1.5-2.6-1.5L45,55.5v-0.2c0-0.8,0.2-7.8,2.3-9
							c0.2-0.2,2-1.7,2.9-3.1v-0.1h0.1c0.4-0.3,0.9-0.3,1.4-0.1c1.8,0.9,3.4,5.7,3.5,7c0.3,5.6-0.8,6.6-1.3,6.7
							c-0.2,0-0.4,0.1-0.6,0.2C52.3,57.2,50.9,57.6,49.7,57.6z M45.6,55.1c0.4,0.2,1.3,0.6,2.5,1.4c1.3,0.8,3.5,0.1,4.8-0.3
							c0.2-0.1,0.5-0.1,0.6-0.2c0.6-0.2,1-2.8,0.8-6c-0.1-1.2-1.6-5.7-3.1-6.4c-0.2-0.1-0.4-0.1-0.7,0c-1,1.6-2.9,3.1-3,3.2h-0.1
							C47.1,47.2,45.8,49.2,45.6,55.1z"/>
					</g>
					<g>
						<path fill="#FFFFFF" d="M43.3,48.3c0,0,0.5,5.1,0,6.1s1.7,2.1,1.7,2.1s2.8-0.1,3.4-1.4c0.6-1.3-0.3-8.2-1.4-8.5
							c-1.1-0.2-1.6-0.6-2.1-0.3s1.8,3.7,1.5,4.9c-0.2,1.1-1,3.4-1,3.4l-0.3-7.4C45,47.2,45.1,45.6,43.3,48.3z"/>
						<path fill="#3A9EC7" d="M44.9,56.8L44.9,56.8c-0.2-0.1-1.6-0.8-1.9-1.7c-0.1-0.3-0.1-0.6,0-0.9c0.3-0.7,0.2-4,0-5.9v-0.1
							l0.1-0.1c0.6-0.9,1-1.4,1.4-1.6c0-0.2,0.1-0.4,0.3-0.5c0.5-0.3,0.9-0.1,1.5,0c0.3,0.1,0.5,0.2,0.9,0.2
							c0.3,0.1,0.5,0.3,0.8,0.8c0.9,1.8,1.5,7,0.9,8.2C48,56.7,45.3,56.8,44.9,56.8L44.9,56.8z M43.7,48.4c0.1,0.9,0.5,5.2,0,6.2
							c-0.1,0.1-0.1,0.2,0,0.3c0.2,0.5,1,1,1.4,1.2l-0.4-8.7c0-0.1-0.1-0.1-0.1-0.2C44.4,47.4,44.1,47.7,43.7,48.4z M45.3,47.3
							c0.1,0.3,0.3,0.6,0.4,0.9c0.5,1.2,1.1,2.4,1,3.1c-0.2,1.2-1,3.4-1,3.5l-0.5,1.3c0.8-0.1,2.5-0.4,2.9-1.2
							c0.4-0.9,0-5.4-0.8-7.3C47.1,47,46.9,47,46.9,47c-0.4-0.1-0.7-0.2-1-0.2c-0.4-0.1-0.6-0.2-0.7-0.1
							C45.3,46.8,45.3,47,45.3,47.3L45.3,47.3z M45.4,49.2l0.2,3.6c0.2-0.6,0.4-1.2,0.4-1.6C46.1,50.8,45.8,49.9,45.4,49.2z"/>
					</g>
					<path fill="#3A9EC7" d="M37.1,32.9c0.6,0.1,4.3-3.4,11-1L47.7,32l-0.2,1.8L37.1,32.9z"/>
					<path fill="#FFFFFF" d="M42.5,14.7c0,0-0.7,2.1,1.2,3.6s3.5,1.7,3.5,1.7S42.9,17.7,42.5,14.7z"/>
				</g>
			</g>
		</g>
		<path fill="#3A9EC7" d="M28.8,57.6C12.9,57.6,0,44.7,0,28.8S12.9,0,28.8,0s28.8,12.9,28.8,28.8S44.7,57.6,28.8,57.6z M28.8,3.1
			C14.6,3.1,3,14.6,3,28.8s11.6,25.8,25.8,25.8S54.6,43,54.6,28.8S43,3.1,28.8,3.1z"/>
	</g>
	<g>
		<g>
			<path fill="#FFFFFF" d="M19.9,44.9h-0.7c-0.3,0-0.5,0-0.8,0c0-0.3,0-0.6,0-1.1v-1.4c0-0.4,0-0.7,0-1.1c0.3,0,0.6,0.1,1,0.1H21
				c0.5,0,0.7,0,1-0.1c0,0.4,0,0.6,0,1.1v1.4c0,0.6,0,0.8,0,1.1c-0.2,0-0.4,0-0.8,0H21v1.3h0.1c0.4,0,0.6,0,0.8-0.1v1.1
				c-0.2,0-0.5,0-0.8,0h-0.2v1.6c0.4-0.1,0.5-0.2,1-0.3v1c-1.4,0.5-1.6,0.5-3.1,0.9c-0.3,0.1-0.4,0.1-0.6,0.2L18,49.4
				c0.2,0,0.2,0,0.5-0.1v-2.8c0-0.4,0-0.6-0.1-0.9h1.1c0,0.3,0,0.5,0,0.9v2.6c0.2,0,0.2-0.1,0.4-0.1C19.9,49,19.9,44.9,19.9,44.9z
				 M19.4,43.9h1.4v-1.5h-1.4V43.9z M24.1,44c-0.2-0.1-0.6-0.4-1.2-0.9l0.8-0.6c0.3,0.2,0.4,0.3,0.7,0.5c0.2,0.2,0.4,0.3,0.5,0.4
				c0.2-0.2,0.3-0.3,0.4-0.3c0.1-0.1,0.3-0.2,0.6-0.6h-2.5c-0.5,0-0.8,0-1.1,0.1v-1.1c0.3,0,0.6,0.1,1.1,0.1h2.7
				c0.4,0,0.7,0,0.9-0.1l0.6,0.6c-0.1,0.1-0.1,0.1-0.3,0.3c-0.7,0.7-1.3,1.3-1.8,1.6h1.1c0.5,0,0.8,0,1,0c0,0.3,0,0.6,0,1.1v4.6
				c0,0.7,0,0.8-0.1,1C27.3,50.9,27,51,26.1,51c-0.1,0-0.1,0-0.2,0c0-0.4-0.1-0.6-0.2-1.1c0.2,0,0.4,0,0.6,0c0.3,0,0.3,0,0.3-0.2v-1
				h-1.1v1.2c0,0.4,0,0.8,0,1h-1.1c0-0.3,0.1-0.6,0.1-1v-1.2h-1.1V50c0,0.4,0,0.9,0,1.1h-1.1c0-0.3,0.1-0.6,0.1-1.1v-5.1
				c0-0.3,0-0.6,0-0.9c0.2,0,0.5,0,0.8,0C23.2,44,24.1,44,24.1,44z M23.3,44.9v0.9h1.1v-0.9H23.3z M24.4,47.7v-1h-1.1v1H24.4z
				 M26.5,44.9h-1.1v0.9h1.1V44.9z M26.5,46.7h-1.1v1h1.1V46.7z"/>
			<path fill="#053785" d="M17.3,52.3l-0.6-3.9h0.7v-1.7c0-0.2,0-0.3,0-0.4h-0.2l0.1-1.2v-0.4h0.1c0-0.2,0-0.4,0-0.7v-1.4
				c0-0.4,0-0.6,0-1l-0.3-1.5l1.4,0.2c0.3,0,0.5,0,0.8,0h1.6c0.1,0,0.1,0,0.2,0v-0.1l0.8,0.1l1.3-0.2v0.3c0.1,0,0.1,0,0.2,0h2.7
				c0.5,0,0.6,0,0.7,0l0.6-0.1l1.1,1.1h0.2l-0.1,0.1l0.7,0.7l-0.6,0.5H29l-0.2,1.5c0,0.2,0,0.5,0,0.9v4.6c0,0.7,0,1.1-0.4,1.6
				c-0.6,0.8-1.6,0.8-2.3,0.8h-1.3V52h-0.3v0.2h-3.7l0.1-1c-0.5,0.2-1,0.3-1.9,0.5c-0.2,0.1-0.3,0.1-0.5,0.2L17.3,52.3z"/>
		</g>
		<g>
			<path fill="#FFFFFF" d="M33.4,41.4c-0.1,0.4-0.2,0.6-0.4,2c-0.1,0.4-0.1,0.8-0.1,1.1l0,0c0-0.1,0-0.1,0.1-0.2
				c0.1-0.4,0.4-0.9,0.7-1.3c0.6-0.7,1.2-1.1,2-1.1c0.7,0,1.4,0.3,1.8,1c0.5,0.7,0.8,1.6,0.8,2.8c0,2-1,3.6-2.7,4.4
				c-0.5,0.2-1.3,0.5-2.1,0.6c-0.2-0.6-0.3-0.8-0.6-1.3c1.1-0.1,1.7-0.3,2.3-0.6c1.2-0.6,1.8-1.6,1.8-3.2c0-1.5-0.5-2.4-1.4-2.4
				c-0.4,0-0.8,0.2-1.1,0.6c-0.8,0.9-1.3,2.2-1.3,3.4c0,0.1,0,0.1,0,0.2h-1.3c0-0.1,0-0.1,0-0.1s0-0.1,0-0.2c0-0.3,0-1.1,0-1.3
				c0-0.9,0.1-2,0.1-2.8l0.2-1.3c0-0.2,0-0.2,0-0.4L33.4,41.4z"/>
			<path fill="#053785" d="M32.7,51.9L32.4,51c-0.2-0.5-0.3-0.7-0.5-1l-1.1-1.5h-0.4l0.2-1.3V47c0-0.3,0-1.1,0-1.3
				c0-0.9,0.1-2.1,0.2-2.9l0.2-1.4v-0.1v-1.2l4.1,0.2l-0.2,0.6c0.3-0.1,0.6-0.1,0.9-0.1c1.1,0,2.1,0.5,2.7,1.4c0.7,0.9,1,2,1,3.5
				c0,2.5-1.2,4.4-3.4,5.4c-0.6,0.3-1.5,0.5-2.3,0.7L32.7,51.9z M35.5,44.3c-0.1,0-0.3,0.1-0.4,0.2c-0.6,0.6-1,1.7-1,2.6v0.8
				c0.2-0.1,0.3-0.1,0.5-0.2c0.7-0.4,1.2-0.9,1.2-2.2C35.8,44.5,35.5,44.3,35.5,44.3z"/>
		</g>
	</g>
	<g>
		<path fill="#FFFFFF" d="M19.9,44.9h-0.7c-0.3,0-0.5,0-0.8,0c0-0.3,0-0.6,0-1.1v-1.4c0-0.4,0-0.7,0-1.1c0.3,0,0.6,0.1,1,0.1H21
			c0.5,0,0.7,0,1-0.1c0,0.4,0,0.6,0,1.1v1.4c0,0.6,0,0.8,0,1.1c-0.2,0-0.4,0-0.8,0H21v1.3h0.1c0.4,0,0.6,0,0.8-0.1v1.1
			c-0.2,0-0.5,0-0.8,0h-0.2v1.6c0.4-0.1,0.5-0.2,1-0.3v1c-1.4,0.5-1.6,0.5-3.1,0.9c-0.3,0.1-0.4,0.1-0.6,0.2L18,49.4
			c0.2,0,0.2,0,0.5-0.1v-2.8c0-0.4,0-0.6-0.1-0.9h1.1c0,0.3,0,0.5,0,0.9v2.6c0.2,0,0.2-0.1,0.4-0.1C19.9,49,19.9,44.9,19.9,44.9z
			 M19.4,43.9h1.4v-1.5h-1.4V43.9z M24.1,44c-0.2-0.1-0.6-0.4-1.2-0.9l0.8-0.6c0.3,0.2,0.4,0.3,0.7,0.5c0.2,0.2,0.4,0.3,0.5,0.4
			c0.2-0.2,0.3-0.3,0.4-0.3c0.1-0.1,0.3-0.2,0.6-0.6h-2.5c-0.5,0-0.8,0-1.1,0.1v-1.1c0.3,0,0.6,0.1,1.1,0.1h2.7c0.4,0,0.7,0,0.9-0.1
			l0.6,0.6c-0.1,0.1-0.1,0.1-0.3,0.3c-0.7,0.7-1.3,1.3-1.8,1.6h1.1c0.5,0,0.8,0,1,0c0,0.3,0,0.6,0,1.1v4.6c0,0.7,0,0.8-0.1,1
			C27.3,50.9,27,51,26.1,51c-0.1,0-0.1,0-0.2,0c0-0.4-0.1-0.6-0.2-1.1c0.2,0,0.4,0,0.6,0c0.3,0,0.3,0,0.3-0.2v-1h-1.1v1.2
			c0,0.4,0,0.8,0,1h-1.1c0-0.3,0.1-0.6,0.1-1v-1.2h-1.1V50c0,0.4,0,0.9,0,1.1h-1.1c0-0.3,0.1-0.6,0.1-1.1v-5.1c0-0.3,0-0.6,0-0.9
			c0.2,0,0.5,0,0.8,0C23.2,44,24.1,44,24.1,44z M23.3,44.9v0.9h1.1v-0.9H23.3z M24.4,47.7v-1h-1.1v1H24.4z M26.5,44.9h-1.1v0.9h1.1
			V44.9z M26.5,46.7h-1.1v1h1.1V46.7z"/>
		<path fill="#FFFFFF" d="M33.4,41.4c-0.1,0.4-0.2,0.6-0.4,2c-0.1,0.4-0.1,0.8-0.1,1.1l0,0c0-0.1,0-0.1,0.1-0.2
			c0.1-0.4,0.4-0.9,0.7-1.3c0.6-0.7,1.2-1.1,2-1.1c0.7,0,1.4,0.3,1.8,1c0.5,0.7,0.8,1.6,0.8,2.8c0,2-1,3.6-2.7,4.4
			c-0.5,0.2-1.3,0.5-2.1,0.6c-0.2-0.6-0.3-0.8-0.6-1.3c1.1-0.1,1.7-0.3,2.3-0.6c1.2-0.6,1.8-1.6,1.8-3.2c0-1.5-0.5-2.4-1.4-2.4
			c-0.4,0-0.8,0.2-1.1,0.6c-0.8,0.9-1.3,2.2-1.3,3.4c0,0.1,0,0.1,0,0.2h-1.3c0-0.1,0-0.1,0-0.1s0-0.1,0-0.2c0-0.3,0-1.1,0-1.3
			c0-0.9,0.1-2,0.1-2.8l0.2-1.3c0-0.2,0-0.2,0-0.4L33.4,41.4z"/>
	</g>
</g>
</svg>
