<?xml version="1.0" encoding="utf-8"?>
<!-- Generator: Adobe Illustrator 20.0.0, SVG Export Plug-In . SVG Version: 6.00 Build 0)  -->
<svg version="1.1" id="レイヤー_1" xmlns="http://www.w3.org/2000/svg" xmlns:xlink="http://www.w3.org/1999/xlink" x="0px"
	 y="0px" viewBox="0 0 61.2 59" style="enable-background:new 0 0 61.2 59;" xml:space="preserve">
<style type="text/css">
	.st0{clip-path:url(#SVGID_2_);}
	.st1{fill:#FFFFFF;}
	.st2{fill:#35A7D5;}
	.st3{fill:none;stroke:#070001;stroke-width:2;stroke-miterlimit:10;}
	.st4{fill:#053785;}
</style>
<g>
	<g>
		<g>
			<defs>
				<circle id="SVGID_1_" cx="30.7" cy="29.7" r="27.3"/>
			</defs>
			<clipPath id="SVGID_2_">
				<use xlink:href="#SVGID_1_"  style="overflow:visible;"/>
			</clipPath>
			<g class="st0">
				<g>
					<path class="st1" d="M28.6,15.2c0,0-0.7-2.3-0.5-2.4s0.5-0.1,0.7,0.2s0.6,0.9,0.6,0.9s0.3,0.7,0.6,0.7c0.4,0.1,0.8,0.3,1.1,0.9
						c0.2,0.6,0.7,1,0.7,1s0.6,0.8,1.1,1.7c0.5,0.9,1.9,3.1,1.9,3.1l-1.5,6.6c0,0-2.7-7.3-3.1-7.7c-0.5-0.5-0.8-0.9-0.8-0.9
						s-2.5-0.7-3-1.2s-0.9-0.6-0.9-0.6s-0.9-0.5-1.3-0.7s-1.7-1.2-0.5-1.2c1.2-0.1,2.1,0.7,2.1,0.7s-2.8-2.1-2.9-2.6
						c0-0.4,0-0.8,0.3-0.7s2.9,2.2,2.9,2.2s-3.3-2.5-3.2-2.7c0.1-0.3,0.3-0.6,0.7-0.4c0.4,0.2,3.2,2.2,3.2,2.2L24.4,12
						c0,0-0.1-0.7,0-0.8c0.2-0.1,1.1-0.6,3.5,2.3C28.1,14.8,28.2,14.8,28.6,15.2c0,0.5-0.2,1.2,0.2,1.5c0.4,0.3,0.5,0.4,0.5,0.4"/>
					<path class="st2" d="M33.5,29.1L33.1,28c-1.3-3.4-2.8-7.2-3-7.6c-0.3-0.3-0.6-0.7-0.7-0.8c-0.5-0.1-2.5-0.7-3-1.2
						c-0.5-0.4-0.8-0.6-0.8-0.6s-0.9-0.5-1.3-0.7c0,0-1.3-0.7-1.2-1.4c0-0.2,0.2-0.5,0.8-0.5c0.1,0,0.1,0,0.2,0
						c-1.3-1.1-1.3-1.4-1.3-1.5c0-0.4,0-0.7,0.2-0.9c-0.2-0.3-0.2-0.4-0.1-0.5c0.1-0.3,0.3-0.5,0.5-0.6c0.1-0.1,0.4-0.1,0.6,0
						c0.1,0,0.2,0.1,0.3,0.2c-0.1-0.5,0-0.9,0.2-1c0.4-0.3,1.4-0.5,3.5,1.8c0-0.2,0.1-0.2,0.2-0.3c0.3-0.1,0.8-0.1,1.1,0.4
						c0.2,0.3,0.6,0.9,0.6,0.9v0.1c0.1,0.3,0.3,0.5,0.4,0.5c0.5,0.1,1,0.4,1.3,1v0.1c0.1,0.5,0.6,0.8,0.6,0.8l0.1,0.1
						c0,0,0.7,0.8,1.2,1.8c0.5,0.9,1.9,3,1.9,3l0.1,0.1L33.5,29.1z M23.7,16c0.2,0.2,0.5,0.5,0.7,0.6c0.4,0.2,1.3,0.7,1.3,0.7
						s0.4,0.2,1,0.7c0.4,0.3,1.9,0.8,2.9,1.1h0.1l0.1,0.1c0,0,0.3,0.4,0.8,0.8c0.4,0.4,1.9,4.5,2.8,6.8l1.2-5.4
						c-0.3-0.5-1.4-2.2-1.8-3c-0.4-0.8-1-1.5-1.1-1.6s-0.6-0.5-0.8-1.1c-0.3-0.4-0.6-0.6-0.9-0.7c-0.5-0.1-0.8-0.7-0.9-0.9
						c-0.1-0.1-0.4-0.6-0.5-0.9c0,0,0-0.1-0.1-0.1c0.1,0.4,0.2,1.2,0.4,1.8l0.2,0.2v0.2c0,0.1,0,0.2,0,0.3c0,0.3-0.1,0.7,0.1,0.8
						c0.4,0.3,0.5,0.4,0.5,0.4l-0.4,0.6c0,0-0.2-0.1-0.6-0.4s-0.4-1-0.3-1.4v-0.1c-0.4-0.4-0.6-0.6-0.7-1.7
						c-1.9-2.3-2.7-2.2-2.9-2.2c0,0.1,0,0.3,0,0.4l2.3,2.2l-0.4,0.5c-1.1-0.8-2.9-2.1-3.2-2.2h-0.1c0,0,0,0-0.1,0.1
						c0.2,0.2,0.9,0.8,1.7,1.4c0.5,0.4,1.1,0.8,1.4,1.1L26,15.6c-0.6-0.5-1.2-0.9-1.6-1.2s-0.8-0.6-1-0.8c0,0.1,0,0.1,0,0.2
						c0.2,0.3,1.4,1.3,2.5,2.2c0.2,0.1,0.3,0.2,0.3,0.2l-0.6,0.5c-0.1-0.1-0.2-0.1-0.2-0.2C25.1,16.3,24.5,16,23.7,16
						C23.8,16,23.7,16,23.7,16z"/>
				</g>
				<g>
					<path class="st1" d="M34.7,50.2c0.5,3.1,2,8.9,1.1,9.5c-0.9,0.6,16.7-2.9,16.7-2.9s-1.5-10-2-10.2S34.2,47.1,34.7,50.2z"/>
					<path class="st2" d="M36,60.1c-0.4,0-0.4-0.1-0.5-0.2c-0.1-0.1,0-0.3,0.2-0.5c0.5-0.4-0.3-4.5-0.8-6.7
						c-0.2-0.9-0.3-1.7-0.5-2.4l0,0c-0.1-0.5,0.2-1,0.8-1.5c2.9-2.1,14.8-2.9,15.5-2.5c0.2,0.1,0.7,0.4,2.2,10.5v0.3h-0.3
						c0,0-4.2,0.8-8.3,1.6C38.7,59.8,36.7,60.1,36,60.1z M35.1,50.1c0.1,0.7,0.3,1.5,0.5,2.4c0.7,3.8,1.1,5.9,0.8,6.9
						c2.1-0.2,10.2-1.8,15.8-2.9c-0.6-4.3-1.5-8.9-1.8-9.6c-1.4-0.2-12.8,0.5-15,2.6C35,49.8,35.1,50.1,35.1,50.1L35.1,50.1z"/>
				</g>
				<path class="st2" d="M17.9,30.7l-0.6-0.8c-2.8-3.9-7-9.8-7.3-10.1c-0.2-0.2-0.8-0.8-1.5-1.6c-0.3-0.4-0.9-0.7-1.4-0.9
					c-0.5-0.2-0.9-0.4-1.2-0.7c0,0-1.3-1.3-1.6-1.7l0,0c-0.1-0.1-1.1-0.9-1.5-1.2c-0.3-0.2-0.9-0.9-0.9-1.6c0-0.4,0-0.5,0-0.7
					c0.1-0.2,0.3-0.3,0.4-0.3c-0.2-0.2-0.3-0.4-0.4-0.5L2,10.4C1.8,9.9,1.6,9.3,2.1,9.1h0.1C2.1,8.8,2.1,8.8,2.1,8.7
					c0-0.2,0.2-0.5,0.4-0.6C2.6,8,2.8,8,3,8.1c0.1,0,0.5,0.3,1,0.8C3.8,8.5,3.8,8.5,3.8,8.4S3.7,7.9,4,7.7c0.2-0.2,0.4-0.3,0.8-0.3
					C5.3,7.4,6,8,7.4,9.5c0.1-0.1,0.1-0.1,0.2-0.1c0.3,0,1.9,0.1,2.3,0.1H10l0.1,0.1c0,0,0.7,0.8,1,1.6c0.1,0.2,0.2,0.4,0.3,0.6
					c0.2,0.6,0.5,1.2,0.7,2.1c0.3,1.2,0.6,1.9,1.3,2.7c0.7,0.9,4.8,5.5,4.8,5.5l0.1,0.1L17.9,30.7z M4.9,14.5
					c0.1,0.1,0.9,1.1,1.5,1.6c0.2,0.2,0.6,0.4,1,0.6C8,17,8.6,17.3,9.1,17.8c0.7,0.8,1.2,1.3,1.4,1.5s4.9,6.8,6.7,9.4l0.3-6
					c-0.6-0.7-4.1-4.6-4.8-5.4c-0.7-0.9-1.1-1.7-1.4-3c-0.2-0.9-0.4-1.4-0.7-2c-0.1-0.2-0.2-0.4-0.3-0.7c-0.2-0.5-0.6-1.1-0.8-1.3
					c-0.4,0-0.9-0.1-1.2-0.1c0.2,0.2,0.5,0.4,0.8,0.6h0.1v0.1c0.2,0.3,0.4,0.6,0.6,0.9c0.3,0.2,0.5,0.5,0.5,0.7v0.3L10,12.9
					C9.8,13,9.7,13,9.2,12.3c-0.2-0.2-0.5-0.4-0.7-0.5c-0.4-0.2-1-0.8-1.4-1.2l-0.2-0.2c-1.4-1.9-2-2.3-2.2-2.3c-0.1,0-0.2,0-0.2,0
					v0.1c0.2,0.3,1.4,1.7,2.4,3l-0.5,0.5c-1.5-1.3-3.2-2.7-3.6-3l0,0C3.1,9,4,10,4.9,10.9l1.3,1.3l-0.5,0.5
					c-0.8-0.8-1.4-1.4-1.9-1.9L2.6,9.6c-0.1,0-0.2,0-0.2,0c0,0.1,0.1,0.3,0.1,0.5l0.1,0.2c0.1,0.2,0.9,1,1.3,1.5
					c1,1.1,1.1,1.2,0.9,1.5l-0.1,0.2l-0.3-0.1c-0.3-0.1-1.1-1-1.6-1.6c-0.1-0.1-0.2-0.1-0.3-0.1c0,0,0,0.1,0,0.2
					c0.1,0.5,0.5,1,0.7,1.1C4.6,14,4.9,14.3,4.9,14.5L4.9,14.5z"/>
				<g>
					<path class="st2" d="M49.3,32.3l1.5,1.4c0,0,3.3,8.1-0.7,13.6h-0.7l-0.8,0.9l-3.7,0.4c0,0-0.9,0-1.3-3.3
						c-0.5-1-1.8-0.3-1.8-0.3l-0.4,2.2c0,0-3.7,0.3-6.5,2.6c0,0,0.2,0.7,0,0.7s-4.5-0.7-5-1.6s1.1,10.5,0,11.5
						c-1.3,0-15.8-4.5-20.2-5c-1-0.1-1.5-1.4-0.9-2.6c0.5-1.2,5.8-14.4,6-15.9s1-9.7,1-9.7s0.3-3.6,0.9-4.4c0.5-0.8,1.2-1.5,1.2-1.5
						l12.5,8.5c0,0,2.1-3.1,2.6-4.1C34.2,34.3,49.3,32.3,49.3,32.3z"/>
					<path class="st1" d="M30,60.8h-0.1c-0.5,0-2.7-0.6-6.6-1.7c-4.9-1.4-11-3.1-13.5-3.4c-0.5,0-0.9-0.3-1.2-0.7
						c-0.4-0.6-0.4-1.5,0-2.3c0.6-1.5,5.8-14.4,6-15.8c0.2-1.5,1-9.6,1-9.7c0-0.4,0.4-3.7,0.9-4.5c0.5-0.8,1.2-1.5,1.2-1.5l0.2-0.2
						l12.3,8.4l2.4-3.7c0.6-2.7,1.2-4,1.9-4c0.7,0.1,7.5,2.4,10.7,5.3c3,2.7,4.1,4.7,4.3,5.1l1.5,1.4v0.1c0,0.1,0.9,2.1,1.2,4.8
						c0.4,3.6-0.2,6.8-2,9.1l-0.1,0.1h-0.7l-0.8,0.8l-3.9,0.4c-0.3,0-1.3-0.3-1.6-3.5c-0.1-0.1-0.2-0.2-0.3-0.3
						c-0.3-0.1-0.6,0-0.8,0.1l-0.4,2.5h-0.3c0,0-3.5,0.3-6.2,2.4c0.1,0.5,0,0.7-0.1,0.7c-0.1,0.1-0.2,0.2-0.3,0.2
						c0,0-3.3-0.4-4.7-1.3c0,0.6,0.1,1.4,0.2,2.3C30.7,57.2,30.7,60,30,60.8L30,60.8z M17.9,21.8c-0.2,0.3-0.6,0.7-1,1.2
						c-0.3,0.5-0.7,2.9-0.8,4.2c0,0.1-0.9,8.2-1,9.7c-0.2,1.6-5.5,14.9-6,16c-0.3,0.6-0.3,1.2,0,1.7C9.2,54.8,9.4,55,9.8,55
						c2.6,0.3,8.7,2,13.7,3.4c2.8,0.8,5.5,1.5,6.3,1.7c0.5-0.9,0.1-5.9-0.1-8.1c-0.3-3.2-0.2-3.3,0.1-3.4c0,0,0.3-0.1,0.5,0.2
						c0.3,0.6,3.3,1.2,4.4,1.4c0-0.1,0-0.2,0-0.2l-0.1-0.2l0.2-0.1c2.5-2,5.5-2.5,6.4-2.6l0.4-2.1l0.1-0.1c0.1,0,0.8-0.5,1.5-0.3
						c0.3,0.1,0.6,0.3,0.8,0.7v0.1v0.1c0.3,2.5,0.9,2.9,1,2.9l3.5-0.4l0.8-0.9H50c3.6-5,0.9-12.3,0.6-13.1l-1.4-1.4v-0.1
						c0,0-0.2-1.2-3.3-4.1c-7.8,4.6-8.8,2.3-9.7,2.2c-0.3,0.2-2.3-2.4-2.7-3.8l-0.2-0.6l-2.9,4.2L17.9,21.8z"/>
				</g>
				<g>
					<path class="st1" d="M35.6,18c0,0-6.4,6.7,0.4,12.9c1,0,2.1,0,2.1,0s0.9,0.5,0.5,0.9c-0.3,0.4,1.9-3.1,6.6-1.8s2.8,0.5,2.8,0.5
						l1.6-5.2c0,0-0.7-8.4-4.8-8.9C40.8,15.9,38.4,15.4,35.6,18z"/>
					<path class="st2" d="M38.6,32.3c-0.1,0-0.2,0-0.2,0l-0.3-0.2l0.1-0.3c0,0,0-0.1,0.1-0.1c0-0.1-0.2-0.3-0.3-0.4h-2.1l-0.1-0.1
						c-2.1-1.9-3.2-4.1-3.3-6.4c-0.1-3.9,2.7-6.9,2.8-7.1l0,0c2.7-2.5,5.1-2.2,8.7-1.7l0.8,0.1c4.3,0.5,5.1,8.9,5.1,9.2v0.1l-1.6,5
						c0.2,0.1,0.4,0.3,0.3,0.5c0.1,0.4,0,0.5-3.4-0.5c-3.7-1-5.8,1.1-6.2,1.6c0,0,0,0.1-0.1,0.1C38.8,32.2,38.7,32.3,38.6,32.3z
						 M36.2,30.6h2h0.1c0.1,0,0.4,0.2,0.5,0.5c1-0.9,3.2-2.3,6.5-1.4c1.3,0.3,2,0.5,2.4,0.6l1.6-5c-0.1-0.8-0.9-8.1-4.5-8.5L44,16.7
						c-3.6-0.5-5.7-0.7-8.2,1.5c-0.1,0.1-2.7,3-2.6,6.6C33.3,26.9,34.3,28.8,36.2,30.6z"/>
				</g>
				<g>
					<path class="st2" d="M44.2,29.9c0,0-0.5-1.6-1.1-2.2c-0.5-0.6-2.6-0.9-1.8-1s1-1.5,1.2-3.6s-2.1-0.9-2.1-0.9L38.8,24
						c0,0-0.2-1.4,0-1.9s-1.6-1.5-2.6-2.2c-0.9-0.8,0-3.8,0-3.8s4.2-2,7.9-0.6c0.6-0.9-0.5-1.3,0.7-1.8c1.3-0.5,2.4-0.3,2.7,0.5
						s0.9,0.1,0.9,0.1s5.7,0.6,2.7,7.4c0.1,1.4,0.8,6.3-1.5,8.3S44.2,29.9,44.2,29.9z"/>
					<path class="st2" d="M47.2,31.1c-1.7,0-3.2-0.9-3.3-0.9l-0.1-0.1V30c-0.1-0.4-0.6-1.6-1-2.1c-0.2-0.2-0.8-0.5-1.2-0.6
						c-0.5-0.2-0.8-0.3-0.8-0.6c0-0.3,0.4-0.3,0.5-0.4c0.6-0.1,0.8-2.3,0.9-3.3c0-0.3,0-0.7-0.2-0.8c-0.3-0.2-1,0.1-1.3,0.2
						l-2.1,2.4l-0.1-0.7c0-0.1-0.2-1.4,0-2c-0.1-0.2-0.9-0.8-1.4-1.1c-0.4-0.3-0.8-0.5-1.1-0.8c-1.1-0.9-0.3-3.7-0.1-4.2v-0.1
						l0.1-0.1c0.2-0.1,4.1-1.9,7.9-0.7c0-0.2,0-0.3,0-0.4c-0.1-0.5,0-0.9,0.8-1.3c1.4-0.6,2.7-0.3,3.2,0.7c0.1,0.1,0.1,0.2,0.1,0.2
						c0.1,0,0.2-0.1,0.3-0.2l0.1-0.1h0.2c0.1,0,2.3,0.3,3.4,2.1c0.8,1.4,0.7,3.3-0.4,5.7c0,0.1,0,0.3,0,0.5c0.2,2,0.5,6.1-1.7,8
						C49.1,30.8,48.1,31.1,47.2,31.1z M44.4,29.6c0.6,0.3,3.2,1.5,5,0c1.9-1.6,1.6-5.7,1.5-7.4c0-0.2,0-0.4,0-0.6v-0.1v-0.1
						c1-2.2,1.1-3.9,0.5-5.1c-0.7-1.3-2.2-1.7-2.7-1.7c-0.2,0.1-0.4,0.3-0.7,0.3c-0.2,0-0.5-0.1-0.6-0.6c-0.3-0.6-1.2-0.8-2.3-0.3
						c-0.5,0.1-0.5,0.2-0.5,0.4c0.1,0.3,0.1,0.7-0.2,1.2l-0.1,0.2L44,15.7c-3.2-1.2-6.8,0.2-7.5,0.5c-0.3,1.2-0.6,2.9-0.1,3.3
						c0.3,0.2,0.7,0.5,1,0.7c1,0.7,1.9,1.3,1.7,1.9c-0.1,0.2-0.1,0.6,0,1l1.2-1.3c0.1-0.1,1.3-0.7,2.1-0.3c0.4,0.3,0.6,0.7,0.5,1.4
						c-0.1,1.6-0.3,3-0.9,3.6c0.6,0.2,1.1,0.4,1.4,0.8C43.8,28,44.3,29.2,44.4,29.6z"/>
				</g>
				<g>
					<path class="st1" d="M49,33.9c0,0,0.6-1.8,0.9-3c-8.3-3.6-12.3,2.2-12.3,2.2"/>
					<path class="st2" d="M49.3,34l-0.6-0.2c0,0,0.5-1.5,0.8-2.6c-3.2-1.4-6.2-1.4-8.7-0.2c-1.9,1-2.9,2.3-2.9,2.3l-0.6-0.4
						c0-0.1,4.3-6,12.8-2.3l0.3,0.1L50.3,31C49.9,32.2,49.4,33.9,49.3,34z"/>
				</g>
				<path class="st3" d="M40.4,35.8"/>
				<path class="st1" d="M40,37.8c0,0-0.2-3.7-3.1-4.8c-3.1-1.3-6.7-2.8-6.8-2.8l0.3-0.6c0,0,3.6,1.5,6.7,2.8
					c3.3,1.4,3.5,5.3,3.6,5.4L40,37.8z"/>
				<path class="st1" d="M30.1,60.6l-0.6-0.2c0,0,0.5-1.4,0.4-2.9s-0.4-8.4-0.5-8.5l0,0l0,0c0-0.1,0.4-3.2,1.2-4.6l0.6,0.3
					c-0.6,1.2-1,4-1.1,4.3c0,0.5,0.3,7,0.5,8.4C30.7,59,30.2,60.5,30.1,60.6z"/>
				<g>
					<path class="st1" d="M44.8,47.1c-0.9-1.8-1.1-2.9-2.4-3.2c-7.5-0.5-5,12.6-3.7,13.6c1.3,0.9,4.4,1.6,6.1,0.5
						c1.7-1.1,2.8-1.6,2.8-1.6S45.7,48.9,44.8,47.1z"/>
					<path class="st2" d="M42.4,58.9c-1.5,0-3.1-0.5-3.9-1.1c-1-0.7-2.4-6.9-1-10.9c0.8-2.3,2.5-3.5,4.9-3.3l0,0
						c1.2,0.2,1.6,1.1,2.1,2.3c0.2,0.3,0.3,0.7,0.5,1.1l0,0c0.9,1.8,2.8,9,2.9,9.3l0.1,0.3l-0.3,0.1c0,0-1.1,0.5-2.8,1.6
						C44.3,58.7,43.4,58.9,42.4,58.9z M42,44.3c-1.8,0-3.1,1-3.8,2.9c-1.4,3.8,0.1,9.6,0.7,10.1c1.2,0.9,4.1,1.5,5.7,0.5
						c1.3-0.8,2.2-1.3,2.6-1.5c-0.4-1.4-2-7.4-2.8-8.9l0,0c-0.2-0.4-0.4-0.8-0.5-1.1c-0.5-1.2-0.8-1.7-1.6-1.9
						C42.2,44.3,42.1,44.3,42,44.3z"/>
				</g>
				<g>
					<path class="st1" d="M48.9,46.9c0,0,2-1.6,3-3.2c2-1.4,4.3,5.1,4.4,6.6s0.2,6-1.1,6.3c-1.2,0.3-4.1,1.5-5.7,0.5
						c-1.6-1-2.7-1.5-2.7-1.5S46.9,48,48.9,46.9z"/>
					<path class="st2" d="M51.2,57.9c-0.7,0-1.3-0.1-1.9-0.5c-1.6-1-2.6-1.5-2.6-1.5l-0.2-0.1v-0.2c0-0.8,0.2-7.8,2.3-9
						c0.2-0.2,2-1.7,2.9-3.1v-0.1h0.1c0.4-0.3,0.9-0.3,1.4-0.1c1.8,0.9,3.4,5.7,3.5,7c0.3,5.6-0.8,6.6-1.3,6.7
						c-0.2,0-0.4,0.1-0.6,0.2C53.8,57.5,52.4,57.9,51.2,57.9z M47.1,55.4c0.4,0.2,1.3,0.6,2.5,1.4c1.3,0.8,3.5,0.1,4.8-0.3
						c0.2-0.1,0.5-0.1,0.6-0.2c0.6-0.2,1-2.8,0.8-6c-0.1-1.2-1.6-5.7-3.1-6.4c-0.2-0.1-0.4-0.1-0.7,0c-1,1.6-2.9,3.1-3,3.2h-0.1
						C48.6,47.5,47.3,49.5,47.1,55.4z"/>
				</g>
				<g>
					<path class="st1" d="M44.8,48.6c0,0,0.5,5.1,0,6.1s1.7,2.1,1.7,2.1s2.8-0.1,3.4-1.4c0.6-1.3-0.3-8.2-1.4-8.5
						c-1.1-0.2-1.6-0.6-2.1-0.3s1.8,3.7,1.5,4.9c-0.2,1.1-1,3.4-1,3.4l-0.3-7.4C46.5,47.5,46.6,45.9,44.8,48.6z"/>
					<path class="st2" d="M46.4,57.1L46.4,57.1c-0.2-0.1-1.6-0.8-1.9-1.7c-0.1-0.3-0.1-0.6,0-0.9c0.3-0.7,0.2-4,0-5.9v-0.1l0.1-0.1
						c0.6-0.9,1-1.4,1.4-1.6c0-0.2,0.1-0.4,0.3-0.5c0.5-0.3,0.9-0.1,1.5,0c0.3,0.1,0.5,0.2,0.9,0.2c0.3,0.1,0.5,0.3,0.8,0.8
						c0.9,1.8,1.5,7,0.9,8.2C49.5,57,46.8,57.1,46.4,57.1L46.4,57.1z M45.2,48.7c0.1,0.9,0.5,5.2,0,6.2c-0.1,0.1-0.1,0.2,0,0.3
						c0.2,0.5,1,1,1.4,1.2l-0.4-8.7c0-0.1-0.1-0.1-0.1-0.2C45.9,47.7,45.6,48,45.2,48.7z M46.8,47.6c0.1,0.3,0.3,0.6,0.4,0.9
						c0.5,1.2,1.1,2.4,1,3.1c-0.2,1.2-1,3.4-1,3.5l-0.5,1.3c0.8-0.1,2.5-0.4,2.9-1.2c0.4-0.9,0-5.4-0.8-7.3
						c-0.2-0.6-0.4-0.6-0.4-0.6c-0.4-0.1-0.7-0.2-1-0.2C47,47,46.8,46.9,46.7,47C46.8,47.1,46.8,47.3,46.8,47.6L46.8,47.6z
						 M46.9,49.5l0.2,3.6c0.2-0.6,0.4-1.2,0.4-1.6C47.6,51.1,47.3,50.2,46.9,49.5z"/>
				</g>
				<path class="st2" d="M38.6,33.2c0.6,0.1,4.3-3.4,11-1l-0.4,0.1L49,34.1L38.6,33.2z"/>
				<path class="st1" d="M44,15c0,0-0.7,2.1,1.2,3.6s3.5,1.7,3.5,1.7S44.4,18,44,15z"/>
			</g>
		</g>
	</g>
</g>
<path class="st2" d="M30.7,58.5c-15.9,0-28.8-12.9-28.8-28.8S14.8,0.9,30.7,0.9s28.8,12.9,28.8,28.8S46.6,58.5,30.7,58.5z M30.7,4
	C16.5,4,4.9,15.5,4.9,29.7s11.6,25.8,25.8,25.8s25.8-11.6,25.8-25.8S44.9,4,30.7,4z"/>
<g>
	<g>
		<g>
			<path class="st1" d="M22.5,45.4h-0.7c-0.3,0-0.5,0-0.8,0c0-0.3,0-0.6,0-1.1v-1.4c0-0.4,0-0.7,0-1.1c0.3,0,0.6,0.1,1,0.1h1.6
				c0.5,0,0.7,0,1-0.1c0,0.4,0,0.6,0,1.1v1.4c0,0.6,0,0.8,0,1.1c-0.2,0-0.4,0-0.8,0h-0.2v1.3h0.1c0.4,0,0.6,0,0.8-0.1v1.1
				c-0.2,0-0.5,0-0.8,0h-0.2v1.6c0.4-0.1,0.5-0.2,1-0.3v1c-1.4,0.5-1.6,0.5-3.1,0.9C21.1,51,21,51,20.8,51.1l-0.2-1.2
				c0.2,0,0.2,0,0.5-0.1V47c0-0.4,0-0.6-0.1-0.9h1.1c0,0.3,0,0.5,0,0.9v2.6c0.2,0,0.2-0.1,0.4-0.1C22.5,49.5,22.5,45.4,22.5,45.4z
				 M22,44.4h1.4v-1.5H22V44.4z M26.7,44.5c-0.2-0.1-0.6-0.4-1.2-0.9l0.8-0.6c0.3,0.2,0.4,0.3,0.7,0.5c0.2,0.2,0.4,0.3,0.5,0.4
				c0.2-0.2,0.3-0.3,0.4-0.3c0.1-0.1,0.3-0.2,0.6-0.6H26c-0.5,0-0.8,0-1.1,0.1V42c0.3,0,0.6,0.1,1.1,0.1h2.7c0.4,0,0.7,0,0.9-0.1
				l0.6,0.6c-0.1,0.1-0.1,0.1-0.3,0.3c-0.7,0.7-1.3,1.3-1.8,1.6h1.1c0.5,0,0.8,0,1,0c0,0.3,0,0.6,0,1.1v4.6c0,0.7,0,0.8-0.1,1
				c-0.2,0.2-0.5,0.3-1.4,0.3c-0.1,0-0.1,0-0.2,0c0-0.4-0.1-0.6-0.2-1.1c0.2,0,0.4,0,0.6,0c0.3,0,0.3,0,0.3-0.2v-1h-1.1v1.2
				c0,0.4,0,0.8,0,1H27c0-0.3,0.1-0.6,0.1-1v-1.2H26v1.3c0,0.4,0,0.9,0,1.1h-1.1c0-0.3,0.1-0.6,0.1-1.1v-5.1c0-0.3,0-0.6,0-0.9
				c0.2,0,0.5,0,0.8,0C25.8,44.5,26.7,44.5,26.7,44.5z M25.9,45.4v0.9H27v-0.9H25.9z M27,48.2v-1h-1.1v1H27z M29.1,45.4H28v0.9h1.1
				V45.4z M29.1,47.2H28v1h1.1V47.2z"/>
			<path class="st4" d="M19.9,52.8l-0.6-3.9H20v-1.7c0-0.2,0-0.3,0-0.4h-0.2l0.1-1.2v-0.4H20c0-0.2,0-0.4,0-0.7v-1.4
				c0-0.4,0-0.6,0-1l-0.3-1.5l1.4,0.2c0.3,0,0.5,0,0.8,0h1.6c0.1,0,0.1,0,0.2,0v-0.1l0.8,0.1l1.3-0.2v0.3c0.1,0,0.1,0,0.2,0h2.7
				c0.5,0,0.6,0,0.7,0l0.6-0.1l1.1,1.1h0.2L31.2,42l0.7,0.7l-0.6,0.5h0.3l-0.2,1.5c0,0.2,0,0.5,0,0.9v4.6c0,0.7,0,1.1-0.4,1.6
				c-0.6,0.8-1.6,0.8-2.3,0.8h-1.3v-0.1h-0.3v0.2h-3.7l0.1-1c-0.5,0.2-1,0.3-1.9,0.5c-0.2,0.1-0.3,0.1-0.5,0.2L19.9,52.8z"/>
		</g>
		<g>
			<path class="st1" d="M36,41.9c-0.1,0.4-0.2,0.6-0.4,2c-0.1,0.4-0.1,0.8-0.1,1.1l0,0c0-0.1,0-0.1,0.1-0.2c0.1-0.4,0.4-0.9,0.7-1.3
				c0.6-0.7,1.2-1.1,2-1.1c0.7,0,1.4,0.3,1.8,1c0.5,0.7,0.8,1.6,0.8,2.8c0,2-1,3.6-2.7,4.4c-0.5,0.2-1.3,0.5-2.1,0.6
				c-0.2-0.6-0.3-0.8-0.6-1.3c1.1-0.1,1.7-0.3,2.3-0.6c1.2-0.6,1.8-1.6,1.8-3.2c0-1.5-0.5-2.4-1.4-2.4c-0.4,0-0.8,0.2-1.1,0.6
				c-0.8,0.9-1.3,2.2-1.3,3.4c0,0.1,0,0.1,0,0.2h-1.3c0-0.1,0-0.1,0-0.1s0-0.1,0-0.2c0-0.3,0-1.1,0-1.3c0-0.9,0.1-2,0.1-2.8l0.2-1.3
				c0-0.2,0-0.2,0-0.4L36,41.9z"/>
			<path class="st4" d="M35.3,52.4L35,51.5c-0.2-0.5-0.3-0.7-0.5-1L33.4,49H33l0.2-1.3v-0.2c0-0.3,0-1.1,0-1.3
				c0-0.9,0.1-2.1,0.2-2.9l0.2-1.4v-0.1v-1.2l4.1,0.2l-0.2,0.6c0.3-0.1,0.6-0.1,0.9-0.1c1.1,0,2.1,0.5,2.7,1.4c0.7,0.9,1,2,1,3.5
				c0,2.5-1.2,4.4-3.4,5.4c-0.6,0.3-1.5,0.5-2.3,0.7L35.3,52.4z M38.1,44.8c-0.1,0-0.3,0.1-0.4,0.2c-0.6,0.6-1,1.7-1,2.6v0.8
				c0.2-0.1,0.3-0.1,0.5-0.2c0.7-0.4,1.2-0.9,1.2-2.2C38.4,45,38.1,44.8,38.1,44.8z"/>
		</g>
	</g>
	<g>
		<path class="st1" d="M22.5,45.4h-0.7c-0.3,0-0.5,0-0.8,0c0-0.3,0-0.6,0-1.1v-1.4c0-0.4,0-0.7,0-1.1c0.3,0,0.6,0.1,1,0.1h1.6
			c0.5,0,0.7,0,1-0.1c0,0.4,0,0.6,0,1.1v1.4c0,0.6,0,0.8,0,1.1c-0.2,0-0.4,0-0.8,0h-0.2v1.3h0.1c0.4,0,0.6,0,0.8-0.1v1.1
			c-0.2,0-0.5,0-0.8,0h-0.2v1.6c0.4-0.1,0.5-0.2,1-0.3v1c-1.4,0.5-1.6,0.5-3.1,0.9C21.1,51,21,51,20.8,51.1l-0.2-1.2
			c0.2,0,0.2,0,0.5-0.1V47c0-0.4,0-0.6-0.1-0.9h1.1c0,0.3,0,0.5,0,0.9v2.6c0.2,0,0.2-0.1,0.4-0.1C22.5,49.5,22.5,45.4,22.5,45.4z
			 M22,44.4h1.4v-1.5H22V44.4z M26.7,44.5c-0.2-0.1-0.6-0.4-1.2-0.9l0.8-0.6c0.3,0.2,0.4,0.3,0.7,0.5c0.2,0.2,0.4,0.3,0.5,0.4
			c0.2-0.2,0.3-0.3,0.4-0.3c0.1-0.1,0.3-0.2,0.6-0.6H26c-0.5,0-0.8,0-1.1,0.1V42c0.3,0,0.6,0.1,1.1,0.1h2.7c0.4,0,0.7,0,0.9-0.1
			l0.6,0.6c-0.1,0.1-0.1,0.1-0.3,0.3c-0.7,0.7-1.3,1.3-1.8,1.6h1.1c0.5,0,0.8,0,1,0c0,0.3,0,0.6,0,1.1v4.6c0,0.7,0,0.8-0.1,1
			c-0.2,0.2-0.5,0.3-1.4,0.3c-0.1,0-0.1,0-0.2,0c0-0.4-0.1-0.6-0.2-1.1c0.2,0,0.4,0,0.6,0c0.3,0,0.3,0,0.3-0.2v-1h-1.1v1.2
			c0,0.4,0,0.8,0,1H27c0-0.3,0.1-0.6,0.1-1v-1.2H26v1.3c0,0.4,0,0.9,0,1.1h-1.1c0-0.3,0.1-0.6,0.1-1.1v-5.1c0-0.3,0-0.6,0-0.9
			c0.2,0,0.5,0,0.8,0C25.8,44.5,26.7,44.5,26.7,44.5z M25.9,45.4v0.9H27v-0.9H25.9z M27,48.2v-1h-1.1v1H27z M29.1,45.4H28v0.9h1.1
			V45.4z M29.1,47.2H28v1h1.1V47.2z"/>
		<path class="st1" d="M36,41.9c-0.1,0.4-0.2,0.6-0.4,2c-0.1,0.4-0.1,0.8-0.1,1.1l0,0c0-0.1,0-0.1,0.1-0.2c0.1-0.4,0.4-0.9,0.7-1.3
			c0.6-0.7,1.2-1.1,2-1.1c0.7,0,1.4,0.3,1.8,1c0.5,0.7,0.8,1.6,0.8,2.8c0,2-1,3.6-2.7,4.4c-0.5,0.2-1.3,0.5-2.1,0.6
			c-0.2-0.6-0.3-0.8-0.6-1.3c1.1-0.1,1.7-0.3,2.3-0.6c1.2-0.6,1.8-1.6,1.8-3.2c0-1.5-0.5-2.4-1.4-2.4c-0.4,0-0.8,0.2-1.1,0.6
			c-0.8,0.9-1.3,2.2-1.3,3.4c0,0.1,0,0.1,0,0.2h-1.3c0-0.1,0-0.1,0-0.1s0-0.1,0-0.2c0-0.3,0-1.1,0-1.3c0-0.9,0.1-2,0.1-2.8l0.2-1.3
			c0-0.2,0-0.2,0-0.4L36,41.9z"/>
	</g>
</g>
</svg>
