<?xml version="1.0" encoding="utf-8"?>
<!-- Generator: Adobe Illustrator 20.0.0, SVG Export Plug-In . SVG Version: 6.00 Build 0)  -->
<svg version="1.1" id="レイヤー_1" xmlns="http://www.w3.org/2000/svg" xmlns:xlink="http://www.w3.org/1999/xlink" x="0px"
	 y="0px" viewBox="0 0 61.2 59" style="enable-background:new 0 0 61.2 59;" xml:space="preserve">
<style type="text/css">
	.st0{fill:#35A7D5;}
	.st1{clip-path:url(#SVGID_2_);}
	.st2{fill:#FFFFFF;stroke:#053785;stroke-width:2;stroke-miterlimit:10;}
	.st3{fill:#FFFFFF;}
</style>
<path class="st0" d="M30.7,58.5c-15.9,0-28.8-12.9-28.8-28.8S14.8,0.9,30.7,0.9s28.8,12.9,28.8,28.8S46.6,58.5,30.7,58.5z M30.7,4
	C16.5,4,4.9,15.5,4.9,29.7s11.6,25.8,25.8,25.8s25.8-11.6,25.8-25.8S44.9,4,30.7,4z"/>
<g>
	<g>
		<g>
			<g>
				<defs>
					<circle id="SVGID_1_" cx="30.7" cy="29.7" r="27.3"/>
				</defs>
				<clipPath id="SVGID_2_">
					<use xlink:href="#SVGID_1_"  style="overflow:visible;"/>
				</clipPath>
				<g class="st1">
					<polygon class="st0" points="30.8,32.6 30.7,32.6 14.6,25.4 14.8,24.9 30.8,32.1 48.6,21.9 48.8,22.3 					"/>
					<polygon class="st0" points="30.7,31.5 15.2,24.7 15.4,24.2 30.7,30.9 47.7,21.3 48,21.8 					"/>
					<path class="st0" d="M30.3,10.7c-4.2,0-5.1,0.9-6.5,2.3c-1.7,1.7-5.2,7.5-8.4,10.6c-1.5,1.5-1.6,1.9-1.2,2.3
						c0.4,0.4,0.8,0.2,2.5-1.4c3.4-3.4,6.9-9,9.5-10.9c0.6-0.6,2.9-0.4,1.8-0.5s1.7,0.4,1.7,2.1s0.1,3.1,0.2,16.6
						c0,0.4,0.5,1.2,0.9,1.2c1.1-0.1,1-1.9,1-1.9L31.2,16c0,0-0.5,6.1,0.1-1.1c0.2-1,0.9-1.4,1.5-1.5c1.3-0.4,2.6,0.7,2.6,0.7l11,8
						c2.8,1.9,2.9-0.3,2.3-0.8c-0.4-0.4-10.8-7.4-10.8-7.4S34.5,10.8,30.3,10.7z"/>
					<g>
						<path class="st0" d="M25,18c-2.1,0-3.8,1.7-3.8,3.8s1.7,3.8,3.8,3.8s3.8-1.7,3.8-3.8S27.1,18,25,18z M25,25
							c-1.8,0-3.2-1.4-3.2-3.2s1.4-3.2,3.2-3.2c1.8,0,3.2,1.4,3.2,3.2C28.2,23.5,26.7,25,25,25z"/>
						<circle class="st0" cx="25" cy="21.8" r="2.9"/>
					</g>
					<g>
						<path class="st0" d="M36.8,17.5c-2.3,0-4.1,1.8-4.1,4.1s1.8,4.1,4.1,4.1s4.1-1.8,4.1-4.1S39.1,17.5,36.8,17.5z M36.8,25
							c-1.9,0-3.4-1.5-3.4-3.4s1.5-3.4,3.4-3.4s3.4,1.5,3.4,3.4C40.3,23.5,38.7,25,36.8,25z"/>
						<circle class="st0" cx="36.8" cy="21.6" r="3.2"/>
					</g>
					<path class="st0" d="M30.4,6.3l-3.1,3.1l3,3l3.1-3.1L30.4,6.3z M28.5,9.3l1.9-1.9l1.8,1.8l-1.9,1.9L28.5,9.3z"/>
					<rect x="29.5" y="8.3" transform="matrix(0.7071 -0.7071 0.7071 0.7071 2.43 24.2225)" class="st0" width="1.9" height="1.8"/>
					<path class="st0" d="M15.8,24.9c-0.3,0-1.9,1.2-2.7,0.1s-0.7-3,0.5-2.5s0.2,1.4,0.2,1.4l1.5-0.4c0,0,1.2-2.1-0.2-2.2
						s-3.4-1.2-3.7,0.5c-0.4,1.6-1.1,2.1,0,3.1s1.4,1.9,2.7,1.7c0.8-0.1,0.9,0.2,1.2-0.2C15.4,26.1,16.1,24.9,15.8,24.9z"/>
					<path class="st0" d="M46.6,21.5c0.3,0,1.9,1.2,2.7,0.1c0.9-1.1,0.7-3-0.5-2.5s-0.2,1.4-0.2,1.4L47,20.1c0,0-1.2-2.1,0.2-2.2
						s3.4-1.2,3.7,0.5c0.4,1.6,1.1,2.1,0,3.1s-1.4,1.9-2.7,1.7c-0.8-0.1-0.9,0.2-1.2-0.2C47,22.7,46.1,21.5,46.6,21.5z"/>
					<path class="st0" d="M30.9,31.3c0.1,0,0.6,1.2,0.9,0.1c0.3-1.1,0.2-3-0.2-2.5c-0.4,0.5-0.1,1.4-0.1,1.4L31,29.9
						c0,0-0.4-2.1,0.1-2.2s1.1-1.2,1.3,0.5c0.1,1.6,0.4,2.1,0,3.1c-0.4,1-0.5,1.9-0.9,1.7c-0.3-0.1-0.3,0.2-0.4-0.2
						C31,32.5,30.8,31.3,30.9,31.3z"/>
					<polygon class="st0" points="20.9,39.9 -9.2,58.7 -8.2,60.5 21.8,41.7 22.1,42.2 -7.9,61 -7.3,61.9 22.9,43.1 					"/>
					<g>
						<polygon class="st0" points="64.6,18.8 63.4,16.8 49.1,25.7 49,28.5 						"/>
						<polygon class="st0" points="49,28.8 49,30.1 65.4,19.9 64.8,19 						"/>
					</g>
					<g>
						<polygon class="st0" points="74.4,19.9 73.3,18.1 49.3,33 49.2,35.6 						"/>
						<polygon class="st0" points="49.2,35.9 49.2,37.2 75.4,21.2 74.6,20.1 						"/>
					</g>
					<g>
						
							<rect x="-2.5" y="55.8" transform="matrix(0.8489 -0.5285 0.5285 0.8489 -27.6061 16.6127)" class="st0" width="35.5" height="1.6"/>
						
							<rect x="-3.6" y="54" transform="matrix(0.8489 -0.5285 0.5285 0.8489 -26.8266 15.7628)" class="st0" width="35.5" height="1.6"/>
					</g>
					<g>
						<polygon class="st0" points="31.6,49.6 48.8,37.6 48.6,30.1 31.6,40.7 						"/>
						<polygon class="st0" points="30.8,41 16.9,34.7 18.1,43.3 30.8,49.7 						"/>
					</g>
					<g>
						<polygon class="st0" points="30.8,37.2 18.9,31.8 18.9,31.8 19.3,34.9 30.8,40.4 						"/>
						<polygon class="st0" points="31.6,37 31.6,40.1 46.9,30.4 46.9,27.7 						"/>
					</g>
					<g>
						<polygon class="st0" points="17.3,30.3 30.8,36.4 30.8,33.2 16.8,26.9 						"/>
						<polygon class="st0" points="47.3,23.8 30.8,33.2 31.6,33.2 31.6,36.3 47.8,26.4 47.8,23.7 						"/>
					</g>
				</g>
			</g>
		</g>
	</g>
</g>
<g>
	<g>
		<path class="st2" d="M23.7,47.8c-0.1,0.2-0.2,0.3-0.4,0.7c-0.6-0.5-0.8-0.7-1-1v2.9c0,0.5,0,0.9,0.1,1.3h-1.2
			c0-0.3,0.1-0.8,0.1-1.3v-2.6c-0.4,0.4-0.6,0.7-1.1,1.1c-0.1-0.4-0.3-0.8-0.5-1.2c0.5-0.4,1.1-0.9,1.5-1.4c0.5-0.6,0.9-1.1,1.2-1.8
			h-1.5c-0.3,0-0.6,0-0.9,0.1v-1.1c0.2,0,0.4,0.1,0.8,0.1h0.5v-0.9c0-0.3,0-0.6-0.1-0.8h1.3c0,0.2-0.1,0.5-0.1,0.8v0.9h0.3
			c0.3,0,0.5,0,0.6,0l0.5,0.5c-0.1,0.1-0.1,0.1-0.2,0.3c-0.3,0.8-0.6,1.4-1,1.9c0.3,0.4,0.7,0.7,1.2,1.1v-2.9c0-0.5,0-0.8,0-1.1
			c0.3,0,0.5,0.1,1.1,0.1H26V43c0-0.5,0-0.8-0.1-1.1H27c0,0.4-0.1,0.7-0.1,1.1v0.5h1.3c0.6,0,0.8,0,1.1-0.1c0,0.3,0,0.5,0,1.1V48
			c0,0.5,0,0.8,0,1.2h-1.1v-0.5H27v1.7c0,0.6,0,0.9,0.1,1.3h-1.2C26,51.3,26,51,26,50.4v-1.7h-1v0.6h-1.1c0-0.3,0.1-0.6,0.1-1.1
			v-0.4H23.7z M24.8,44.4v1.1h1.1v-1.1H24.8z M24.8,46.5v1.2h1v-1.2H24.8z M28.1,45.5v-1.1h-1.2v1.1H28.1z M28.2,47.6v-1.2H27v1.2
			H28.2z"/>
		<path class="st2" d="M33.2,43.9c0-0.4,0-0.9-0.1-1.1c0.8-0.2,1.5-0.4,2-0.8l0.4,0.6c0.2,0,0.3,0,0.6,0H37c0-0.3,0-0.5-0.1-0.7h1
			c0,0.2-0.1,0.4-0.1,0.7h0.9c0.3,0,0.5,0,0.8,0v0.9c-0.2,0-0.5,0-0.8,0H38v0.4h0.8c0.4,0,0.5,0,0.7,0c0,0.2,0,0.4,0,0.8v1.2
			c0,0.5,0,0.7,0,0.8c-0.2,0-0.4,0-0.8,0H38v0.4h1c0.3,0,0.5,0,0.8,0V48c-0.2,0-0.4,0-0.8,0h-1v0.6h2.7v-1.2h-0.4
			c-0.2,0-0.4,0-0.5,0v-1c0.2,0,0.3,0,0.5,0h0.5v-1h-0.5c-0.2,0-0.4,0-0.5,0v-1c0.2,0,0.3,0,0.5,0h0.5v-1h-0.5c-0.3,0-0.4,0-0.5,0
			v-1.1c0.2,0,0.4,0.1,0.7,0.1h0.7c0.3,0,0.5,0,0.7,0c0,0.3-0.1,0.6-0.1,1.1l-0.2,5c0.3,0,0.5,0,0.7-0.1v1.1c-0.4,0-0.7-0.1-1.3-0.1
			h-7.3c-0.5,0-0.9,0-1.3,0.1v-1.1c0.2,0,0.4,0,0.8,0.1L33.2,43.9z M36.6,50.2c-1.2,0.9-1.9,1.2-3.3,1.6c-0.2-0.3-0.4-0.7-0.6-1
			c0.7-0.1,1.1-0.2,1.7-0.4c0.6-0.2,0.9-0.4,1.4-0.8L36.6,50.2z M37.1,48.5v-0.6h-1c-0.3,0-0.5,0-0.7,0V47c0.2,0,0.4,0,0.7,0h1v-0.4
			h-0.8c-0.4,0-0.5,0-0.8,0c0-0.3,0-0.4,0-0.8v-1.3c0-0.4,0-0.6,0-0.8c0.2,0,0.4,0,0.8,0H37v-0.4h-0.9c-0.3,0-0.5,0-0.8,0v-0.4
			c-0.5,0.2-0.7,0.3-1.2,0.4v1h0.5c0.3,0,0.4,0,0.5,0v1c-0.2,0-0.3,0-0.5,0h-0.4v0.9h0.4c0.3,0,0.4,0,0.5,0v1c-0.1,0-0.3,0-0.5,0
			h-0.4v1.2L37.1,48.5L37.1,48.5z M36.4,44.5v0.4H37v-0.4H36.4z M36.4,45.6V46H37v-0.4H36.4z M38.6,44.9v-0.4H38v0.4H38.6z M38.6,46
			v-0.4H38V46H38.6z M39.1,49.5c1.1,0.8,1.9,1,3.3,1.2c-0.2,0.3-0.4,0.6-0.6,1c-1.5-0.4-2.2-0.6-3.5-1.6L39.1,49.5z"/>
	</g>
	<g>
		<path class="st3" d="M23.7,47.8c-0.1,0.2-0.2,0.3-0.4,0.7c-0.6-0.5-0.8-0.7-1-1v2.9c0,0.5,0,0.9,0.1,1.3h-1.2
			c0-0.3,0.1-0.8,0.1-1.3v-2.6c-0.4,0.4-0.6,0.7-1.1,1.1c-0.1-0.4-0.3-0.8-0.5-1.2c0.5-0.4,1.1-0.9,1.5-1.4c0.5-0.6,0.9-1.1,1.2-1.8
			h-1.5c-0.3,0-0.6,0-0.9,0.1v-1.1c0.2,0,0.4,0.1,0.8,0.1h0.5v-0.9c0-0.3,0-0.6-0.1-0.8h1.3c0,0.2-0.1,0.5-0.1,0.8v0.9h0.3
			c0.3,0,0.5,0,0.6,0l0.5,0.5c-0.1,0.1-0.1,0.1-0.2,0.3c-0.3,0.8-0.6,1.4-1,1.9c0.3,0.4,0.7,0.7,1.2,1.1v-2.9c0-0.5,0-0.8,0-1.1
			c0.3,0,0.5,0.1,1.1,0.1H26V43c0-0.5,0-0.8-0.1-1.1H27c0,0.4-0.1,0.7-0.1,1.1v0.5h1.3c0.6,0,0.8,0,1.1-0.1c0,0.3,0,0.5,0,1.1V48
			c0,0.5,0,0.8,0,1.2h-1.1v-0.5H27v1.7c0,0.6,0,0.9,0.1,1.3h-1.2C26,51.3,26,51,26,50.4v-1.7h-1v0.6h-1.1c0-0.3,0.1-0.6,0.1-1.1
			v-0.4H23.7z M24.8,44.4v1.1h1.1v-1.1H24.8z M24.8,46.5v1.2h1v-1.2H24.8z M28.1,45.5v-1.1h-1.2v1.1H28.1z M28.2,47.6v-1.2H27v1.2
			H28.2z"/>
		<path class="st3" d="M33.2,43.9c0-0.4,0-0.9-0.1-1.1c0.8-0.2,1.5-0.4,2-0.8l0.4,0.6c0.2,0,0.3,0,0.6,0H37c0-0.3,0-0.5-0.1-0.7h1
			c0,0.2-0.1,0.4-0.1,0.7h0.9c0.3,0,0.5,0,0.8,0v0.9c-0.2,0-0.5,0-0.8,0H38v0.4h0.8c0.4,0,0.5,0,0.7,0c0,0.2,0,0.4,0,0.8v1.2
			c0,0.5,0,0.7,0,0.8c-0.2,0-0.4,0-0.8,0H38v0.4h1c0.3,0,0.5,0,0.8,0V48c-0.2,0-0.4,0-0.8,0h-1v0.6h2.7v-1.2h-0.4
			c-0.2,0-0.4,0-0.5,0v-1c0.2,0,0.3,0,0.5,0h0.5v-1h-0.5c-0.2,0-0.4,0-0.5,0v-1c0.2,0,0.3,0,0.5,0h0.5v-1h-0.5c-0.3,0-0.4,0-0.5,0
			v-1.1c0.2,0,0.4,0.1,0.7,0.1h0.7c0.3,0,0.5,0,0.7,0c0,0.3-0.1,0.6-0.1,1.1l-0.2,5c0.3,0,0.5,0,0.7-0.1v1.1c-0.4,0-0.7-0.1-1.3-0.1
			h-7.3c-0.5,0-0.9,0-1.3,0.1v-1.1c0.2,0,0.4,0,0.8,0.1L33.2,43.9z M36.6,50.2c-1.2,0.9-1.9,1.2-3.3,1.6c-0.2-0.3-0.4-0.7-0.6-1
			c0.7-0.1,1.1-0.2,1.7-0.4c0.6-0.2,0.9-0.4,1.4-0.8L36.6,50.2z M37.1,48.5v-0.6h-1c-0.3,0-0.5,0-0.7,0V47c0.2,0,0.4,0,0.7,0h1v-0.4
			h-0.8c-0.4,0-0.5,0-0.8,0c0-0.3,0-0.4,0-0.8v-1.3c0-0.4,0-0.6,0-0.8c0.2,0,0.4,0,0.8,0H37v-0.4h-0.9c-0.3,0-0.5,0-0.8,0v-0.4
			c-0.5,0.2-0.7,0.3-1.2,0.4v1h0.5c0.3,0,0.4,0,0.5,0v1c-0.2,0-0.3,0-0.5,0h-0.4v0.9h0.4c0.3,0,0.4,0,0.5,0v1c-0.1,0-0.3,0-0.5,0
			h-0.4v1.2L37.1,48.5L37.1,48.5z M36.4,44.5v0.4H37v-0.4H36.4z M36.4,45.6V46H37v-0.4H36.4z M38.6,44.9v-0.4H38v0.4H38.6z M38.6,46
			v-0.4H38V46H38.6z M39.1,49.5c1.1,0.8,1.9,1,3.3,1.2c-0.2,0.3-0.4,0.6-0.6,1c-1.5-0.4-2.2-0.6-3.5-1.6L39.1,49.5z"/>
	</g>
</g>
</svg>
