<?xml version="1.0" encoding="utf-8"?>
<!-- Generator: Adobe Illustrator 20.0.0, SVG Export Plug-In . SVG Version: 6.00 Build 0)  -->
<svg version="1.1" id="レイヤー_1" xmlns="http://www.w3.org/2000/svg" xmlns:xlink="http://www.w3.org/1999/xlink" x="0px"
	 y="0px" viewBox="0 0 57.6 58.2" style="enable-background:new 0 0 57.6 58.2;" xml:space="preserve">
<style type="text/css">
	.st0{fill:#3B95BB;}
	.st1{display:none;}
	.st2{display:inline;}
	.st3{clip-path:url(#SVGID_4_);}
	.st4{fill:#FFFFFF;}
	.st5{clip-path:url(#SVGID_6_);}
	.st6{clip-path:url(#SVGID_4_);fill:#3B95BB;}
	.st7{fill:#0B387A;}
	.st8{display:none;fill:none;stroke:#AE5C59;stroke-width:0.25;stroke-miterlimit:10;}
	.st9{clip-path:url(#SVGID_8_);}
	.st10{clip-path:url(#SVGID_10_);}
	.st11{clip-path:url(#SVGID_8_);fill:#3B95BB;}
	.st12{clip-path:url(#SVGID_12_);}
	.st13{fill:none;stroke:#0B387A;stroke-width:3;stroke-miterlimit:10;}
	.st14{font-family:'KozGoPr6N-Regular-83pv-RKSJ-H';}
	.st15{font-size:12px;}
	.st16{letter-spacing:1;}
	.st17{font-family:'KozGoPr6N-Bold-83pv-RKSJ-H';}
</style>
<g>
	<g id="レイヤー_7_1_">
		<path class="st0" d="M28.8,57.6C12.9,57.6,0,44.7,0,28.8S12.9,0,28.8,0s28.8,12.9,28.8,28.8S44.6,57.6,28.8,57.6z M28.8,3.1
			C14.5,3.1,3,14.6,3,28.8s11.6,25.8,25.8,25.8S54.6,43,54.6,28.8S43,3.1,28.8,3.1z"/>
		<g class="st1">
			<g class="st2">
				<defs>
					<circle id="SVGID_3_" cx="28.8" cy="28.8" r="27.3"/>
				</defs>
				<clipPath id="SVGID_4_">
					<use xlink:href="#SVGID_3_"  style="overflow:visible;"/>
				</clipPath>
				<g class="st3">
					<g>
						<g>
							<rect x="33.1" y="27.2" class="st0" width="4.7" height="3.5"/>
							<g>
								<g>
									<path class="st4" d="M38,31.1h-5.1c-0.2,0.4-0.3,0.8-0.3,1.2c0,1.6,1.3,2.8,2.8,2.8c1.6,0,2.8-1.3,2.8-2.8
										C38.3,31.9,38.2,31.5,38,31.1z"/>
									<path class="st0" d="M35.4,35.3c-1.6,0-2.9-1.3-2.9-2.9c0-0.4,0.1-0.9,0.3-1.3l0,0H38l0,0c0.2,0.4,0.3,0.8,0.3,1.3
										C38.3,34,37,35.3,35.4,35.3z M33,31.2c-0.2,0.4-0.3,0.8-0.3,1.2c0,1.5,1.2,2.7,2.7,2.7s2.7-1.2,2.7-2.7
										c0-0.4-0.1-0.8-0.3-1.2H33z"/>
								</g>
								<g>
									<path class="st0" d="M35.4,35.3c-1.6,0-2.9-1.3-2.9-2.9c0-0.4,0.1-0.9,0.3-1.3V31H38v0.1c0.2,0.4,0.3,0.8,0.3,1.3
										C38.4,34,37.1,35.3,35.4,35.3z M33,31.3c-0.2,0.4-0.2,0.7-0.2,1.1c0,1.5,1.2,2.7,2.7,2.7s2.7-1.2,2.7-2.7
										c0-0.4-0.1-0.8-0.2-1.1H33z"/>
									<path class="st0" d="M35.4,35.4c-1.7,0-3-1.4-3-3c0-0.5,0.1-0.9,0.3-1.3l0.1-0.1h5.3v0.1c0.2,0.4,0.3,0.9,0.3,1.3
										C38.5,34,37.1,35.4,35.4,35.4z M32.9,31.1L32.9,31.1c-0.2,0.4-0.3,0.8-0.3,1.3c0,1.6,1.3,2.9,2.9,2.9
										c1.6,0,2.9-1.3,2.9-2.9c0-0.4-0.1-0.9-0.3-1.3l0,0H32.9z M35.4,35.2c-1.5,0-2.8-1.2-2.8-2.8c0-0.4,0.1-0.8,0.3-1.1l0,0h5
										l0,0c0.2,0.4,0.3,0.8,0.3,1.1C38.2,33.9,37,35.2,35.4,35.2z M33,31.3c-0.1,0.3-0.2,0.7-0.2,1c0,1.4,1.2,2.6,2.6,2.6
										s2.6-1.2,2.6-2.6c0-0.4-0.1-0.7-0.2-1H33z"/>
								</g>
							</g>
						</g>
						<g>
							<polygon class="st4" points="39.2,43.8 39.2,41 31.9,41 31.9,45.4 32,47.2 31.5,49.2 39.6,49.2 39,47.2 							"/>
							<path class="st0" d="M39.7,49.3h-8.4l0.5-2.1l-0.1-1.8v-4.5h7.6v2.9l-0.2,3.4L39.7,49.3z M31.6,49.1h7.8l-0.5-1.9l0.2-3.4
								v-2.7H32v4.3l0.1,1.8L31.6,49.1z"/>
						</g>
						<g>
							<path class="st0" d="M33.9,40.4h3.5v-3.9c-0.6-0.2-1.2-0.3-1.9-0.3c-0.5,0-1.1,0-1.7,0.1v4.1H33.9z"/>
							<path class="st0" d="M32.9,36.6c-1.6,0.5-3.2,1.8-3.6,4.7L28,49.2h2.3l1-3.8v-5h1.6V36.6z"/>
							<path class="st0" d="M44.9,37.4c-0.6-0.2-1.2,0.1-1.4,0.6l-1.4,3.3L41.3,40c-0.7-1.2-1.7-2.4-2.9-3.1v3.5h1.4v2.9
								c0.4,0.5,1.1,1.3,1.2,1.4c1.1,1.1,2.4,0.9,2.9-0.6l1.7-5.3C45.8,38.3,45.5,37.6,44.9,37.4z"/>
						</g>
					</g>
					<rect x="9.7" y="43.9" class="st0" width="40" height="15.7"/>
					<g>
						<rect x="11.8" y="23.8" class="st4" width="1" height="21"/>
						<path class="st0" d="M13,45h-1.4V23.6H13V45z M11.9,44.7h0.7V24h-0.7V44.7z"/>
					</g>
					<g>
						<rect x="46.3" y="23.8" class="st4" width="1" height="21"/>
						<path class="st0" d="M47.6,45h-1.4V23.6h1.4V45z M46.5,44.7h0.7V24h-0.7V44.7z"/>
					</g>
					<path class="st0" d="M51.9,23.8c-0.5,0-0.7,0.3-1.1,0.9c-0.4,0.6-1,1.5-2.1,1.5s-1.7-0.8-2.1-1.5c-0.4-0.6-0.6-0.9-1.1-0.9
						s-0.7,0.3-1.1,0.9c-0.4,0.6-1,1.5-2.1,1.5s-1.7-0.8-2.1-1.5c-0.4-0.6-0.6-0.9-1.1-0.9s-0.7,0.3-1.1,0.9c-0.4,0.6-1,1.5-2.1,1.5
						s-1.7-0.8-2.1-1.5c-0.4-0.6-0.6-0.9-1.1-0.9s-0.7,0.3-1.1,0.9c-0.4,0.6-1,1.5-2.1,1.5s-1.7-0.8-2.1-1.5
						c-0.4-0.6-0.6-0.9-1.1-0.9s-0.7,0.3-1.1,0.9s-1,1.5-2.1,1.5s-1.7-0.8-2.1-1.5c-0.4-0.6-0.6-0.9-1.1-0.9s-0.7,0.3-1.1,0.9
						s-1,1.5-2.1,1.5s-1.7-0.8-2.1-1.5c-0.4-0.6-0.6-0.9-1.1-0.9s-0.7,0.3-1.1,0.9c-0.4,0.6-1,1.5-2.1,1.5s-1.7-0.8-2.1-1.5
						c-0.4-0.6-0.6-0.9-1.1-0.9v-1.2c1.1,0,1.7,0.8,2.1,1.5c0.4,0.6,0.6,0.9,1.1,0.9s0.7-0.3,1.1-0.9c0.4-0.6,1-1.5,2.1-1.5
						s1.7,0.8,2.1,1.5c0.4,0.6,0.6,0.9,1.1,0.9s0.7-0.3,1.1-0.9s1-1.5,2.1-1.5s1.7,0.8,2.1,1.5c0.4,0.6,0.6,0.9,1.1,0.9
						s0.7-0.3,1.1-0.9s1-1.5,2.1-1.5s1.7,0.8,2.1,1.5c0.4,0.6,0.6,0.9,1.1,0.9s0.7-0.3,1.1-0.9s1-1.5,2.1-1.5c1.1,0,1.7,0.8,2.1,1.5
						c0.4,0.6,0.6,0.9,1.1,0.9s0.7-0.3,1.1-0.9c0.4-0.6,1-1.5,2.1-1.5s1.7,0.8,2.1,1.5c0.4,0.6,0.6,0.9,1.1,0.9s0.7-0.3,1.1-0.9
						c0.4-0.6,1-1.5,2.1-1.5s1.7,0.8,2.1,1.5c0.4,0.6,0.6,0.9,1.1,0.9s0.7-0.3,1.1-0.9c0.4-0.6,1-1.5,2.1-1.5
						C52,23.2,52.4,23.8,51.9,23.8z"/>
					<g>
						<path class="st0" d="M7.2,23.2v-9.6c0,0-2-1.8,0-3.9c5,0,44.9,0,44.9,0s1.8,1.7,0,4c0,2,0,10.1,0,10.1L7.2,23.2z"/>
						<path class="st0" d="M52.7,24.4L6.6,23.8v-10c-0.3-0.3-0.8-1.1-0.9-2.1c0-0.9,0.3-1.7,1-2.4l0.2-0.2h45.4l0.2,0.2
							c0.7,0.7,1.7,2.5,0.2,4.6c0,2.2,0,9.9,0,9.9L52.7,24.4z M7.8,22.6l43.7,0.6c0-1.9,0-7.9,0-9.5v-0.2l0.1-0.2
							c1.1-1.4,0.5-2.5,0.2-3H7.5c-0.4,0.5-1.1,1.7,0.1,2.8l0.2,0.2v0.3V22.6z"/>
					</g>
					<path class="st0" d="M12,24.4c-1.6,1.8-3.6,0-3.6,0v-3.8H12C12,20.6,12.8,23.7,12,24.4z"/>
					<path class="st0" d="M18.4,24.4c-1.6,1.8-3.6,0-3.6,0v-3.8h3.6C18.4,20.6,19.2,23.7,18.4,24.4z"/>
					<path class="st0" d="M25,24.4c-1.6,1.8-3.6,0-3.6,0v-3.8H25C25,20.6,25.8,23.7,25,24.4z"/>
					<path class="st0" d="M31.2,24.4c-1.6,1.8-3.6,0-3.6,0v-3.8h3.6C31.2,20.6,32,23.7,31.2,24.4z"/>
					<path class="st0" d="M37.8,24.4c-1.6,1.8-3.6,0-3.6,0v-3.8h3.6C37.8,20.6,38.6,23.7,37.8,24.4z"/>
					<path class="st0" d="M44.1,24.4c-1.6,1.8-3.6,0-3.6,0v-3.8h3.6C44.1,20.6,44.9,23.7,44.1,24.4z"/>
					<path class="st0" d="M50.4,24.4c-1.6,1.8-3.6,0-3.6,0v-3.8h3.6C50.4,20.6,51.2,23.7,50.4,24.4z"/>
					<path class="st0" d="M24.7,43.2h-9.4c-0.2,0-0.4-0.2-0.4-0.4V31.9c0-0.2,0.2-0.4,0.4-0.4h9.4c0.2,0,0.4,0.2,0.4,0.4v10.9
						C25.1,43,24.9,43.2,24.7,43.2z"/>
					<path class="st4" d="M23.5,36.9h-7.2c-0.2,0-0.4-0.2-0.4-0.4v-3.3c0-0.2,0.2-0.4,0.4-0.4h7.2c0.2,0,0.4,0.2,0.4,0.4v3.3
						C23.9,36.7,23.7,36.9,23.5,36.9z"/>
					<path class="st4" d="M23.5,41.9h-7.2c-0.2,0-0.4-0.2-0.4-0.4v-3.3c0-0.2,0.2-0.4,0.4-0.4h7.2c0.2,0,0.4,0.2,0.4,0.4v3.3
						C23.9,41.7,23.7,41.9,23.5,41.9z"/>
					<rect x="19.1" y="34" class="st0" width="3.9" height="2.2"/>
					<rect x="17.6" y="39.1" class="st0" width="5.4" height="0.9"/>
					<rect x="17.6" y="40.6" class="st0" width="5.4" height="0.9"/>
					<path class="st4" d="M28.9,43.7"/>
					<rect x="10.5" y="45.5" class="st4" width="4.2" height="13.5"/>
					<rect x="17.3" y="45.5" class="st4" width="4.2" height="13.5"/>
					<rect x="24.2" y="45.5" class="st4" width="4.2" height="13.5"/>
					<rect x="31.1" y="45.5" class="st4" width="4.2" height="13.5"/>
					<rect x="38" y="45.5" class="st4" width="4.2" height="13.5"/>
					<rect x="44.8" y="45.5" class="st4" width="4.2" height="13.5"/>
					<g>
						<g>
							<path id="SVGID_1_" class="st0" d="M52.2,23.9L7,23.3v-9.7c-0.2-0.2-0.9-0.9-0.9-1.9c0-0.7,0.3-1.5,1-2.1l0,0h45l0,0
								c0,0,0.9,0.9,0.9,2c0,0.7-0.3,1.4-0.9,2C52.1,15.6,52.1,23.7,52.2,23.9L52.2,23.9L52.2,23.9z M7.3,23.1L52,23.7
								c0-1,0-8.3,0-10.1v-0.1l0,0c0.6-0.6,0.9-1.2,0.9-1.8c0-0.9-0.7-1.7-0.8-1.8H7.2c-0.6,0.6-0.9,1.3-0.9,1.9
								c0.1,1,0.9,1.7,0.9,1.7l0,0L7.3,23.1L7.3,23.1z"/>
						</g>
						<g>
							<defs>
								<path id="SVGID_5_" d="M52.2,23.9L7,23.3v-9.7c-0.2-0.2-0.9-0.9-0.9-1.9c0-0.7,0.3-1.5,1-2.1l0,0h45l0,0c0,0,0.9,0.9,0.9,2
									c0,0.7-0.3,1.4-0.9,2C52.1,15.6,52.1,23.7,52.2,23.9L52.2,23.9L52.2,23.9z M7.3,23.1L52,23.7c0-1,0-8.3,0-10.1v-0.1l0,0
									c0.6-0.6,0.9-1.2,0.9-1.8c0-0.9-0.7-1.7-0.8-1.8H7.2c-0.6,0.6-0.9,1.3-0.9,1.9c0.1,1,0.9,1.7,0.9,1.7l0,0L7.3,23.1L7.3,23.1
									z"/>
							</defs>
							<clipPath id="SVGID_6_">
								<use xlink:href="#SVGID_5_"  style="overflow:visible;"/>
							</clipPath>
							<g class="st5">
								<rect x="2.2" y="7.7" class="st4" width="61.7" height="5.8"/>
								<path class="st0" d="M64,13.7H2.1V7.6H64V13.7z M2.3,13.5h61.4V7.9H2.3V13.5z"/>
							</g>
						</g>
						<rect x="13.4" y="11.4" class="st4" width="0.5" height="12.5"/>
						<rect x="19.7" y="11.4" class="st4" width="0.5" height="12.5"/>
						<rect x="26.1" y="11.4" class="st4" width="0.5" height="12.5"/>
						<rect x="32.8" y="11.4" class="st4" width="0.5" height="12.5"/>
						<rect x="38.6" y="11.4" class="st4" width="0.5" height="12.5"/>
						<rect x="45.2" y="11.4" class="st4" width="0.5" height="12.5"/>
						<rect x="51.9" y="11.4" class="st4" width="0.5" height="12.5"/>
						<rect x="6.9" y="11.4" class="st4" width="0.5" height="12.5"/>
					</g>
				</g>
				<path class="st6" d="M28.8,57.6C12.9,57.6,0,44.7,0,28.8S12.9,0,28.8,0s28.8,12.9,28.8,28.8S44.6,57.6,28.8,57.6z M28.8,3.1
					C14.5,3.1,3,14.6,3,28.8s11.6,25.8,25.8,25.8S54.6,43,54.6,28.8S43,3.1,28.8,3.1z"/>
			</g>
			<g class="st2">
				<g>
					<g>
						<path class="st4" d="M22.5,47.2c-0.1,0-0.1,0-0.8,0c-1.1,0.1-1.6,0.1-1.8,0.1l-0.2-1c0.2,0,0.3,0,0.5,0c0.4,0,0.6,0,0.8,0
							c0.2-0.3,0.4-0.6,0.5-0.9h-2c-0.1,1.3-0.2,2.1-0.4,3c-0.2,1-0.4,1.6-0.9,2.4c-0.3-0.4-0.6-0.6-0.9-1c0.4-0.7,0.6-1.2,0.8-2.1
							c0.2-1.2,0.3-2.7,0.3-5.2c0-0.5,0-0.9-0.1-1.2c0.4,0.1,0.7,0.1,1.4,0.1h5.8c0.5,0,0.8,0,1.2-0.1c0,0.3,0,0.5,0,0.8v1
							c0,0.4,0,0.5,0,0.8c-0.4,0-0.7,0-1.1,0h-6.1v0.6h6.2c0.7,0,0.9,0,1.2-0.1v1c-0.3,0-0.6-0.1-1.1-0.1h-0.7
							c0.4,0.4,0.9,0.9,1.6,1.7l-1,0.6l-0.5-0.7c-0.6,0-0.6,0-1.7,0.1v0.9h1.9c0.7,0,0.8,0,1.1,0v1c-0.3,0-0.6,0-1.1,0h-1.9v0.8h2.3
							c0.7,0,1,0,1.3-0.1v1.1c-0.4-0.1-0.7-0.1-1.4-0.1h-5.4c-0.6,0-1,0-1.3,0.1v-1.1c0.3,0,0.6,0.1,1.2,0.1h2.2v-0.8h-1.6
							c-0.5,0-0.8,0-1.1,0v-1c0.3,0,0.5,0,1.1,0h1.6v-0.7H22.5z M25.6,43.1v-0.7h-6.1v0.7H25.6z M22.7,45.5
							c-0.2,0.4-0.3,0.6-0.5,0.9c0.8,0,1.4,0,1.6-0.1c0.1,0,0.4,0,0.8-0.1c-0.2-0.2-0.3-0.3-0.6-0.5l0.5-0.2L22.7,45.5z"/>
						<path class="st7" d="M18.4,52.9l-1.1-1.4c-0.2-0.3-0.4-0.5-0.8-0.8l-0.6-0.6l0.5-0.8c0.3-0.6,0.5-1,0.6-1.7
							c0.2-1.1,0.3-2.6,0.3-5c0-0.5,0-0.8-0.1-1.1L17.1,40l1.5,0.2c0.3,0,0.6,0.1,1.2,0.1h5.8c0.5,0,0.8,0,1,0l1.5-0.2L28,41.5
							c0,0.3,0,0.4,0,0.7v1h0.2v1.2h1.4L28.1,45v1.8H28l0.6,0.6l-0.9,0.5v0.5l0.7-0.1V52l-1.3-0.2c-0.3,0-0.5-0.1-1.2-0.1h-5.4
							c-0.5,0-0.9,0-1.2,0.1h-0.2L18.4,52.9z"/>
					</g>
					<g>
						<path class="st4" d="M30.4,44.3c0.2,0,0.6,0,1.1,0c0,0,0.1,0,0.5,0c0.6-0.8,1.2-1.8,1.6-2.6c0.2-0.4,0.2-0.4,0.3-0.7l1.3,0.4
							c-0.1,0.1-0.1,0.1-0.2,0.4c-0.5,0.9-1,1.7-1.5,2.4c2.3-0.1,2.8-0.1,4-0.2c-0.5-0.6-0.8-0.9-1.5-1.5l1-0.6
							c1.3,1.2,1.9,1.9,3,3.4l-1.1,0.8c-0.4-0.5-0.5-0.7-0.7-1.1c-1.8,0.2-3.2,0.3-6.9,0.4c-0.2,0-0.4,0-0.6,0.1L30.4,44.3z
							 M31.5,50.9c0-0.4,0.1-0.7,0.1-1.2v-2.4c0-0.4,0-0.7-0.1-1c0.2,0,0.2,0,1.1,0h5.1c0.9,0,0.9,0,1.1,0c0,0.3-0.1,0.6-0.1,1v2.4
							c0,0.5,0,0.8,0.1,1.2h-1.2v-0.6h-4.9v0.6H31.5z M32.7,49.3h4.9v-1.9h-4.9V49.3z"/>
						<path class="st7" d="M40,52h-3.6v-0.6h-2.6V52h-3.6l0.1-1.3c0-0.3,0.1-0.6,0.1-1.1v-2.4c0-0.2,0-0.4,0-0.5l-0.7,0.1L29.1,43
							l1.5,0.1c0.1,0,0.5,0,0.8,0c0.4-0.6,0.9-1.3,1.1-1.9c0.1-0.3,0.1-0.3,0.2-0.5l0.3-1.1l3.7,1.1v0.1l0.4-0.2l0.6,0.6
							c1.3,1.3,2,2,3.1,3.5l0.7,0.9l-1.7,1.2c0,0.1,0,0.3,0,0.4v2.4c0,0.5,0,0.8,0.1,1.1L40,52z"/>
					</g>
				</g>
				<g>
					<path class="st4" d="M22.5,47.2c-0.1,0-0.1,0-0.8,0c-1.1,0.1-1.6,0.1-1.8,0.1l-0.2-1c0.2,0,0.3,0,0.5,0c0.4,0,0.6,0,0.8,0
						c0.2-0.3,0.4-0.6,0.5-0.9h-2c-0.1,1.3-0.2,2.1-0.4,3c-0.2,1-0.4,1.6-0.9,2.4c-0.3-0.4-0.6-0.6-0.9-1c0.4-0.7,0.6-1.2,0.8-2.1
						c0.2-1.2,0.3-2.7,0.3-5.2c0-0.5,0-0.9-0.1-1.2c0.4,0.1,0.7,0.1,1.4,0.1h5.8c0.5,0,0.8,0,1.2-0.1c0,0.3,0,0.5,0,0.8v1
						c0,0.4,0,0.5,0,0.8c-0.4,0-0.7,0-1.1,0h-6.1v0.6h6.2c0.7,0,0.9,0,1.2-0.1v1c-0.3,0-0.6-0.1-1.1-0.1h-0.7
						c0.4,0.4,0.9,0.9,1.6,1.7l-1,0.6l-0.5-0.7c-0.6,0-0.6,0-1.7,0.1v0.9h1.9c0.7,0,0.8,0,1.1,0v1c-0.3,0-0.6,0-1.1,0h-1.9v0.8h2.3
						c0.7,0,1,0,1.3-0.1v1.1c-0.4-0.1-0.7-0.1-1.4-0.1h-5.4c-0.6,0-1,0-1.3,0.1v-1.1c0.3,0,0.6,0.1,1.2,0.1h2.2v-0.8h-1.6
						c-0.5,0-0.8,0-1.1,0v-1c0.3,0,0.5,0,1.1,0h1.6v-0.7H22.5z M25.6,43.1v-0.7h-6.1v0.7H25.6z M22.7,45.5c-0.2,0.4-0.3,0.6-0.5,0.9
						c0.8,0,1.4,0,1.6-0.1c0.1,0,0.4,0,0.8-0.1c-0.2-0.2-0.3-0.3-0.6-0.5l0.5-0.2L22.7,45.5z"/>
					<path class="st4" d="M30.4,44.3c0.2,0,0.6,0,1.1,0c0,0,0.1,0,0.5,0c0.6-0.8,1.2-1.8,1.6-2.6c0.2-0.4,0.2-0.4,0.3-0.7l1.3,0.4
						c-0.1,0.1-0.1,0.1-0.2,0.4c-0.5,0.9-1,1.7-1.5,2.4c2.3-0.1,2.8-0.1,4-0.2c-0.5-0.6-0.8-0.9-1.5-1.5l1-0.6
						c1.3,1.2,1.9,1.9,3,3.4l-1.1,0.8c-0.4-0.5-0.5-0.7-0.7-1.1c-1.8,0.2-3.2,0.3-6.9,0.4c-0.2,0-0.4,0-0.6,0.1L30.4,44.3z
						 M31.5,50.9c0-0.4,0.1-0.7,0.1-1.2v-2.4c0-0.4,0-0.7-0.1-1c0.2,0,0.2,0,1.1,0h5.1c0.9,0,0.9,0,1.1,0c0,0.3-0.1,0.6-0.1,1v2.4
						c0,0.5,0,0.8,0.1,1.2h-1.2v-0.6h-4.9v0.6H31.5z M32.7,49.3h4.9v-1.9h-4.9V49.3z"/>
				</g>
			</g>
		</g>
		<line class="st8" x1="0" y1="-20.4" x2="0" y2="62.7"/>
		<line class="st8" x1="57.6" y1="-20.4" x2="57.6" y2="62.7"/>
	</g>
	<g id="レイヤー_7_2_">
		<path class="st0" d="M28.8,57.6C12.9,57.6,0,44.7,0,28.8S12.9,0,28.8,0s28.8,12.9,28.8,28.8S44.6,57.6,28.8,57.6z M28.8,3.1
			C14.5,3.1,3,14.6,3,28.8s11.6,25.8,25.8,25.8S54.6,43,54.6,28.8S43,3.1,28.8,3.1z"/>
		<g class="st1">
			<g class="st2">
				<defs>
					<circle id="SVGID_7_" cx="28.8" cy="28.8" r="27.3"/>
				</defs>
				<clipPath id="SVGID_8_">
					<use xlink:href="#SVGID_7_"  style="overflow:visible;"/>
				</clipPath>
				<g class="st9">
					<g>
						<g>
							<rect x="33.1" y="27.2" class="st0" width="4.7" height="3.5"/>
							<g>
								<g>
									<path class="st4" d="M38,31.1h-5.1c-0.2,0.4-0.3,0.8-0.3,1.2c0,1.6,1.3,2.8,2.8,2.8c1.6,0,2.8-1.3,2.8-2.8
										C38.3,31.9,38.2,31.5,38,31.1z"/>
									<path class="st0" d="M35.4,35.3c-1.6,0-2.9-1.3-2.9-2.9c0-0.4,0.1-0.9,0.3-1.3l0,0H38l0,0c0.2,0.4,0.3,0.8,0.3,1.3
										C38.3,34,37,35.3,35.4,35.3z M33,31.2c-0.2,0.4-0.3,0.8-0.3,1.2c0,1.5,1.2,2.7,2.7,2.7s2.7-1.2,2.7-2.7
										c0-0.4-0.1-0.8-0.3-1.2H33z"/>
								</g>
								<g>
									<path class="st0" d="M35.4,35.3c-1.6,0-2.9-1.3-2.9-2.9c0-0.4,0.1-0.9,0.3-1.3V31H38v0.1c0.2,0.4,0.3,0.8,0.3,1.3
										C38.4,34,37.1,35.3,35.4,35.3z M33,31.3c-0.2,0.4-0.2,0.7-0.2,1.1c0,1.5,1.2,2.7,2.7,2.7s2.7-1.2,2.7-2.7
										c0-0.4-0.1-0.8-0.2-1.1H33z"/>
									<path class="st0" d="M35.4,35.4c-1.7,0-3-1.4-3-3c0-0.5,0.1-0.9,0.3-1.3l0.1-0.1h5.3v0.1c0.2,0.4,0.3,0.9,0.3,1.3
										C38.5,34,37.1,35.4,35.4,35.4z M32.9,31.1L32.9,31.1c-0.2,0.4-0.3,0.8-0.3,1.3c0,1.6,1.3,2.9,2.9,2.9
										c1.6,0,2.9-1.3,2.9-2.9c0-0.4-0.1-0.9-0.3-1.3l0,0H32.9z M35.4,35.2c-1.5,0-2.8-1.2-2.8-2.8c0-0.4,0.1-0.8,0.3-1.1l0,0h5
										l0,0c0.2,0.4,0.3,0.8,0.3,1.1C38.2,33.9,37,35.2,35.4,35.2z M33,31.3c-0.1,0.3-0.2,0.7-0.2,1c0,1.4,1.2,2.6,2.6,2.6
										s2.6-1.2,2.6-2.6c0-0.4-0.1-0.7-0.2-1H33z"/>
								</g>
							</g>
						</g>
						<g>
							<polygon class="st4" points="39.2,43.8 39.2,41 31.9,41 31.9,45.4 32,47.2 31.5,49.2 39.6,49.2 39,47.2 							"/>
							<path class="st0" d="M39.7,49.3h-8.4l0.5-2.1l-0.1-1.8v-4.5h7.6v2.9l-0.2,3.4L39.7,49.3z M31.6,49.1h7.8l-0.5-1.9l0.2-3.4
								v-2.7H32v4.3l0.1,1.8L31.6,49.1z"/>
						</g>
						<g>
							<path class="st0" d="M33.9,40.4h3.5v-3.9c-0.6-0.2-1.2-0.3-1.9-0.3c-0.5,0-1.1,0-1.7,0.1v4.1H33.9z"/>
							<path class="st0" d="M32.9,36.6c-1.6,0.5-3.2,1.8-3.6,4.7L28,49.2h2.3l1-3.8v-5h1.6V36.6z"/>
							<path class="st0" d="M44.9,37.4c-0.6-0.2-1.2,0.1-1.4,0.6l-1.4,3.3L41.3,40c-0.7-1.2-1.7-2.4-2.9-3.1v3.5h1.4v2.9
								c0.4,0.5,1.1,1.3,1.2,1.4c1.1,1.1,2.4,0.9,2.9-0.6l1.7-5.3C45.8,38.3,45.5,37.6,44.9,37.4z"/>
						</g>
					</g>
					<rect x="9.7" y="43.9" class="st0" width="40" height="15.7"/>
					<g>
						<rect x="11.8" y="23.8" class="st4" width="1" height="21"/>
						<path class="st0" d="M13,45h-1.4V23.6H13V45z M11.9,44.7h0.7V24h-0.7V44.7z"/>
					</g>
					<g>
						<rect x="46.3" y="23.8" class="st4" width="1" height="21"/>
						<path class="st0" d="M47.6,45h-1.4V23.6h1.4V45z M46.5,44.7h0.7V24h-0.7V44.7z"/>
					</g>
					<path class="st0" d="M51.9,23.8c-0.5,0-0.7,0.3-1.1,0.9c-0.4,0.6-1,1.5-2.1,1.5s-1.7-0.8-2.1-1.5c-0.4-0.6-0.6-0.9-1.1-0.9
						s-0.7,0.3-1.1,0.9c-0.4,0.6-1,1.5-2.1,1.5s-1.7-0.8-2.1-1.5c-0.4-0.6-0.6-0.9-1.1-0.9s-0.7,0.3-1.1,0.9c-0.4,0.6-1,1.5-2.1,1.5
						s-1.7-0.8-2.1-1.5c-0.4-0.6-0.6-0.9-1.1-0.9s-0.7,0.3-1.1,0.9c-0.4,0.6-1,1.5-2.1,1.5s-1.7-0.8-2.1-1.5
						c-0.4-0.6-0.6-0.9-1.1-0.9s-0.7,0.3-1.1,0.9s-1,1.5-2.1,1.5s-1.7-0.8-2.1-1.5c-0.4-0.6-0.6-0.9-1.1-0.9s-0.7,0.3-1.1,0.9
						s-1,1.5-2.1,1.5s-1.7-0.8-2.1-1.5c-0.4-0.6-0.6-0.9-1.1-0.9s-0.7,0.3-1.1,0.9c-0.4,0.6-1,1.5-2.1,1.5s-1.7-0.8-2.1-1.5
						c-0.4-0.6-0.6-0.9-1.1-0.9v-1.2c1.1,0,1.7,0.8,2.1,1.5c0.4,0.6,0.6,0.9,1.1,0.9s0.7-0.3,1.1-0.9c0.4-0.6,1-1.5,2.1-1.5
						s1.7,0.8,2.1,1.5c0.4,0.6,0.6,0.9,1.1,0.9s0.7-0.3,1.1-0.9s1-1.5,2.1-1.5s1.7,0.8,2.1,1.5c0.4,0.6,0.6,0.9,1.1,0.9
						s0.7-0.3,1.1-0.9s1-1.5,2.1-1.5s1.7,0.8,2.1,1.5c0.4,0.6,0.6,0.9,1.1,0.9s0.7-0.3,1.1-0.9s1-1.5,2.1-1.5c1.1,0,1.7,0.8,2.1,1.5
						c0.4,0.6,0.6,0.9,1.1,0.9s0.7-0.3,1.1-0.9c0.4-0.6,1-1.5,2.1-1.5s1.7,0.8,2.1,1.5c0.4,0.6,0.6,0.9,1.1,0.9s0.7-0.3,1.1-0.9
						c0.4-0.6,1-1.5,2.1-1.5s1.7,0.8,2.1,1.5c0.4,0.6,0.6,0.9,1.1,0.9s0.7-0.3,1.1-0.9c0.4-0.6,1-1.5,2.1-1.5
						C52,23.2,52.4,23.8,51.9,23.8z"/>
					<g>
						<path class="st0" d="M7.2,23.2v-9.6c0,0-2-1.8,0-3.9c5,0,44.9,0,44.9,0s1.8,1.7,0,4c0,2,0,10.1,0,10.1L7.2,23.2z"/>
						<path class="st0" d="M52.7,24.4L6.6,23.8v-10c-0.3-0.3-0.8-1.1-0.9-2.1c0-0.9,0.3-1.7,1-2.4l0.2-0.2h45.4l0.2,0.2
							c0.7,0.7,1.7,2.5,0.2,4.6c0,2.2,0,9.9,0,9.9L52.7,24.4z M7.8,22.6l43.7,0.6c0-1.9,0-7.9,0-9.5v-0.2l0.1-0.2
							c1.1-1.4,0.5-2.5,0.2-3H7.5c-0.4,0.5-1.1,1.7,0.1,2.8l0.2,0.2v0.3V22.6z"/>
					</g>
					<path class="st0" d="M12,24.4c-1.6,1.8-3.6,0-3.6,0v-3.8H12C12,20.6,12.8,23.7,12,24.4z"/>
					<path class="st0" d="M18.4,24.4c-1.6,1.8-3.6,0-3.6,0v-3.8h3.6C18.4,20.6,19.2,23.7,18.4,24.4z"/>
					<path class="st0" d="M25,24.4c-1.6,1.8-3.6,0-3.6,0v-3.8H25C25,20.6,25.8,23.7,25,24.4z"/>
					<path class="st0" d="M31.2,24.4c-1.6,1.8-3.6,0-3.6,0v-3.8h3.6C31.2,20.6,32,23.7,31.2,24.4z"/>
					<path class="st0" d="M37.8,24.4c-1.6,1.8-3.6,0-3.6,0v-3.8h3.6C37.8,20.6,38.6,23.7,37.8,24.4z"/>
					<path class="st0" d="M44.1,24.4c-1.6,1.8-3.6,0-3.6,0v-3.8h3.6C44.1,20.6,44.9,23.7,44.1,24.4z"/>
					<path class="st0" d="M50.4,24.4c-1.6,1.8-3.6,0-3.6,0v-3.8h3.6C50.4,20.6,51.2,23.7,50.4,24.4z"/>
					<path class="st0" d="M24.7,43.2h-9.4c-0.2,0-0.4-0.2-0.4-0.4V31.9c0-0.2,0.2-0.4,0.4-0.4h9.4c0.2,0,0.4,0.2,0.4,0.4v10.9
						C25.1,43,24.9,43.2,24.7,43.2z"/>
					<path class="st4" d="M23.5,36.9h-7.2c-0.2,0-0.4-0.2-0.4-0.4v-3.3c0-0.2,0.2-0.4,0.4-0.4h7.2c0.2,0,0.4,0.2,0.4,0.4v3.3
						C23.9,36.7,23.7,36.9,23.5,36.9z"/>
					<path class="st4" d="M23.5,41.9h-7.2c-0.2,0-0.4-0.2-0.4-0.4v-3.3c0-0.2,0.2-0.4,0.4-0.4h7.2c0.2,0,0.4,0.2,0.4,0.4v3.3
						C23.9,41.7,23.7,41.9,23.5,41.9z"/>
					<rect x="19.1" y="34" class="st0" width="3.9" height="2.2"/>
					<rect x="17.6" y="39.1" class="st0" width="5.4" height="0.9"/>
					<rect x="17.6" y="40.6" class="st0" width="5.4" height="0.9"/>
					<path class="st4" d="M28.9,43.7"/>
					<rect x="10.5" y="45.5" class="st4" width="4.2" height="13.5"/>
					<rect x="17.3" y="45.5" class="st4" width="4.2" height="13.5"/>
					<rect x="24.2" y="45.5" class="st4" width="4.2" height="13.5"/>
					<rect x="31.1" y="45.5" class="st4" width="4.2" height="13.5"/>
					<rect x="38" y="45.5" class="st4" width="4.2" height="13.5"/>
					<rect x="44.8" y="45.5" class="st4" width="4.2" height="13.5"/>
					<g>
						<g>
							<path id="SVGID_2_" class="st0" d="M52.2,23.9L7,23.3v-9.7c-0.2-0.2-0.9-0.9-0.9-1.9c0-0.7,0.3-1.5,1-2.1l0,0h45l0,0
								c0,0,0.9,0.9,0.9,2c0,0.7-0.3,1.4-0.9,2C52.1,15.6,52.1,23.7,52.2,23.9L52.2,23.9L52.2,23.9z M7.3,23.1L52,23.7
								c0-1,0-8.3,0-10.1v-0.1l0,0c0.6-0.6,0.9-1.2,0.9-1.8c0-0.9-0.7-1.7-0.8-1.8H7.2c-0.6,0.6-0.9,1.3-0.9,1.9
								c0.1,1,0.9,1.7,0.9,1.7l0,0L7.3,23.1L7.3,23.1z"/>
						</g>
						<g>
							<defs>
								<path id="SVGID_9_" d="M52.2,23.9L7,23.3v-9.7c-0.2-0.2-0.9-0.9-0.9-1.9c0-0.7,0.3-1.5,1-2.1l0,0h45l0,0c0,0,0.9,0.9,0.9,2
									c0,0.7-0.3,1.4-0.9,2C52.1,15.6,52.1,23.7,52.2,23.9L52.2,23.9L52.2,23.9z M7.3,23.1L52,23.7c0-1,0-8.3,0-10.1v-0.1l0,0
									c0.6-0.6,0.9-1.2,0.9-1.8c0-0.9-0.7-1.7-0.8-1.8H7.2c-0.6,0.6-0.9,1.3-0.9,1.9c0.1,1,0.9,1.7,0.9,1.7l0,0L7.3,23.1L7.3,23.1
									z"/>
							</defs>
							<clipPath id="SVGID_10_">
								<use xlink:href="#SVGID_9_"  style="overflow:visible;"/>
							</clipPath>
							<g class="st10">
								<rect x="2.2" y="7.7" class="st4" width="61.7" height="5.8"/>
								<path class="st0" d="M64,13.7H2.1V7.6H64V13.7z M2.3,13.5h61.4V7.9H2.3V13.5z"/>
							</g>
						</g>
						<rect x="13.4" y="11.4" class="st4" width="0.5" height="12.5"/>
						<rect x="19.7" y="11.4" class="st4" width="0.5" height="12.5"/>
						<rect x="26.1" y="11.4" class="st4" width="0.5" height="12.5"/>
						<rect x="32.8" y="11.4" class="st4" width="0.5" height="12.5"/>
						<rect x="38.6" y="11.4" class="st4" width="0.5" height="12.5"/>
						<rect x="45.2" y="11.4" class="st4" width="0.5" height="12.5"/>
						<rect x="51.9" y="11.4" class="st4" width="0.5" height="12.5"/>
						<rect x="6.9" y="11.4" class="st4" width="0.5" height="12.5"/>
					</g>
				</g>
				<path class="st11" d="M28.8,57.6C12.9,57.6,0,44.7,0,28.8S12.9,0,28.8,0s28.8,12.9,28.8,28.8S44.6,57.6,28.8,57.6z M28.8,3.1
					C14.5,3.1,3,14.6,3,28.8s11.6,25.8,25.8,25.8S54.6,43,54.6,28.8S43,3.1,28.8,3.1z"/>
			</g>
			<g class="st2">
				<g>
					<g>
						<path class="st4" d="M22.5,47.2c-0.1,0-0.1,0-0.8,0c-1.1,0.1-1.6,0.1-1.8,0.1l-0.2-1c0.2,0,0.3,0,0.5,0c0.4,0,0.6,0,0.8,0
							c0.2-0.3,0.4-0.6,0.5-0.9h-2c-0.1,1.3-0.2,2.1-0.4,3c-0.2,1-0.4,1.6-0.9,2.4c-0.3-0.4-0.6-0.6-0.9-1c0.4-0.7,0.6-1.2,0.8-2.1
							c0.2-1.2,0.3-2.7,0.3-5.2c0-0.5,0-0.9-0.1-1.2c0.4,0.1,0.7,0.1,1.4,0.1h5.8c0.5,0,0.8,0,1.2-0.1c0,0.3,0,0.5,0,0.8v1
							c0,0.4,0,0.5,0,0.8c-0.4,0-0.7,0-1.1,0h-6.1v0.6h6.2c0.7,0,0.9,0,1.2-0.1v1c-0.3,0-0.6-0.1-1.1-0.1h-0.7
							c0.4,0.4,0.9,0.9,1.6,1.7l-1,0.6l-0.5-0.7c-0.6,0-0.6,0-1.7,0.1v0.9h1.9c0.7,0,0.8,0,1.1,0v1c-0.3,0-0.6,0-1.1,0h-1.9v0.8h2.3
							c0.7,0,1,0,1.3-0.1v1.1c-0.4-0.1-0.7-0.1-1.4-0.1h-5.4c-0.6,0-1,0-1.3,0.1v-1.1c0.3,0,0.6,0.1,1.2,0.1h2.2v-0.8h-1.6
							c-0.5,0-0.8,0-1.1,0v-1c0.3,0,0.5,0,1.1,0h1.6v-0.7H22.5z M25.6,43.1v-0.7h-6.1v0.7H25.6z M22.7,45.5
							c-0.2,0.4-0.3,0.6-0.5,0.9c0.8,0,1.4,0,1.6-0.1c0.1,0,0.4,0,0.8-0.1c-0.2-0.2-0.3-0.3-0.6-0.5l0.5-0.2L22.7,45.5z"/>
						<path class="st7" d="M18.4,52.9l-1.1-1.4c-0.2-0.3-0.4-0.5-0.8-0.8l-0.6-0.6l0.5-0.8c0.3-0.6,0.5-1,0.6-1.7
							c0.2-1.1,0.3-2.6,0.3-5c0-0.5,0-0.8-0.1-1.1L17.1,40l1.5,0.2c0.3,0,0.6,0.1,1.2,0.1h5.8c0.5,0,0.8,0,1,0l1.5-0.2L28,41.5
							c0,0.3,0,0.4,0,0.7v1h0.2v1.2h1.4L28.1,45v1.8H28l0.6,0.6l-0.9,0.5v0.5l0.7-0.1V52l-1.3-0.2c-0.3,0-0.5-0.1-1.2-0.1h-5.4
							c-0.5,0-0.9,0-1.2,0.1h-0.2L18.4,52.9z"/>
					</g>
					<g>
						<path class="st4" d="M30.4,44.3c0.2,0,0.6,0,1.1,0c0,0,0.1,0,0.5,0c0.6-0.8,1.2-1.8,1.6-2.6c0.2-0.4,0.2-0.4,0.3-0.7l1.3,0.4
							c-0.1,0.1-0.1,0.1-0.2,0.4c-0.5,0.9-1,1.7-1.5,2.4c2.3-0.1,2.8-0.1,4-0.2c-0.5-0.6-0.8-0.9-1.5-1.5l1-0.6
							c1.3,1.2,1.9,1.9,3,3.4l-1.1,0.8c-0.4-0.5-0.5-0.7-0.7-1.1c-1.8,0.2-3.2,0.3-6.9,0.4c-0.2,0-0.4,0-0.6,0.1L30.4,44.3z
							 M31.5,50.9c0-0.4,0.1-0.7,0.1-1.2v-2.4c0-0.4,0-0.7-0.1-1c0.2,0,0.2,0,1.1,0h5.1c0.9,0,0.9,0,1.1,0c0,0.3-0.1,0.6-0.1,1v2.4
							c0,0.5,0,0.8,0.1,1.2h-1.2v-0.6h-4.9v0.6H31.5z M32.7,49.3h4.9v-1.9h-4.9V49.3z"/>
						<path class="st7" d="M40,52h-3.6v-0.6h-2.6V52h-3.6l0.1-1.3c0-0.3,0.1-0.6,0.1-1.1v-2.4c0-0.2,0-0.4,0-0.5l-0.7,0.1L29.1,43
							l1.5,0.1c0.1,0,0.5,0,0.8,0c0.4-0.6,0.9-1.3,1.1-1.9c0.1-0.3,0.1-0.3,0.2-0.5l0.3-1.1l3.7,1.1v0.1l0.4-0.2l0.6,0.6
							c1.3,1.3,2,2,3.1,3.5l0.7,0.9l-1.7,1.2c0,0.1,0,0.3,0,0.4v2.4c0,0.5,0,0.8,0.1,1.1L40,52z"/>
					</g>
				</g>
				<g>
					<path class="st4" d="M22.5,47.2c-0.1,0-0.1,0-0.8,0c-1.1,0.1-1.6,0.1-1.8,0.1l-0.2-1c0.2,0,0.3,0,0.5,0c0.4,0,0.6,0,0.8,0
						c0.2-0.3,0.4-0.6,0.5-0.9h-2c-0.1,1.3-0.2,2.1-0.4,3c-0.2,1-0.4,1.6-0.9,2.4c-0.3-0.4-0.6-0.6-0.9-1c0.4-0.7,0.6-1.2,0.8-2.1
						c0.2-1.2,0.3-2.7,0.3-5.2c0-0.5,0-0.9-0.1-1.2c0.4,0.1,0.7,0.1,1.4,0.1h5.8c0.5,0,0.8,0,1.2-0.1c0,0.3,0,0.5,0,0.8v1
						c0,0.4,0,0.5,0,0.8c-0.4,0-0.7,0-1.1,0h-6.1v0.6h6.2c0.7,0,0.9,0,1.2-0.1v1c-0.3,0-0.6-0.1-1.1-0.1h-0.7
						c0.4,0.4,0.9,0.9,1.6,1.7l-1,0.6l-0.5-0.7c-0.6,0-0.6,0-1.7,0.1v0.9h1.9c0.7,0,0.8,0,1.1,0v1c-0.3,0-0.6,0-1.1,0h-1.9v0.8h2.3
						c0.7,0,1,0,1.3-0.1v1.1c-0.4-0.1-0.7-0.1-1.4-0.1h-5.4c-0.6,0-1,0-1.3,0.1v-1.1c0.3,0,0.6,0.1,1.2,0.1h2.2v-0.8h-1.6
						c-0.5,0-0.8,0-1.1,0v-1c0.3,0,0.5,0,1.1,0h1.6v-0.7H22.5z M25.6,43.1v-0.7h-6.1v0.7H25.6z M22.7,45.5c-0.2,0.4-0.3,0.6-0.5,0.9
						c0.8,0,1.4,0,1.6-0.1c0.1,0,0.4,0,0.8-0.1c-0.2-0.2-0.3-0.3-0.6-0.5l0.5-0.2L22.7,45.5z"/>
					<path class="st4" d="M30.4,44.3c0.2,0,0.6,0,1.1,0c0,0,0.1,0,0.5,0c0.6-0.8,1.2-1.8,1.6-2.6c0.2-0.4,0.2-0.4,0.3-0.7l1.3,0.4
						c-0.1,0.1-0.1,0.1-0.2,0.4c-0.5,0.9-1,1.7-1.5,2.4c2.3-0.1,2.8-0.1,4-0.2c-0.5-0.6-0.8-0.9-1.5-1.5l1-0.6
						c1.3,1.2,1.9,1.9,3,3.4l-1.1,0.8c-0.4-0.5-0.5-0.7-0.7-1.1c-1.8,0.2-3.2,0.3-6.9,0.4c-0.2,0-0.4,0-0.6,0.1L30.4,44.3z
						 M31.5,50.9c0-0.4,0.1-0.7,0.1-1.2v-2.4c0-0.4,0-0.7-0.1-1c0.2,0,0.2,0,1.1,0h5.1c0.9,0,0.9,0,1.1,0c0,0.3-0.1,0.6-0.1,1v2.4
						c0,0.5,0,0.8,0.1,1.2h-1.2v-0.6h-4.9v0.6H31.5z M32.7,49.3h4.9v-1.9h-4.9V49.3z"/>
				</g>
			</g>
		</g>
		<line class="st8" x1="0" y1="-20.4" x2="0" y2="62.7"/>
		<line class="st8" x1="57.6" y1="-20.4" x2="57.6" y2="62.7"/>
	</g>
	<g>
		<defs>
			<path id="SVGID_11_" d="M28.8,3.1C14.5,3.1,3,14.6,3,28.8s11.6,25.8,25.8,25.8S54.6,43,54.6,28.8S43,3.1,28.8,3.1z"/>
		</defs>
		<clipPath id="SVGID_12_">
			<use xlink:href="#SVGID_11_"  style="overflow:visible;"/>
		</clipPath>
		<g class="st12">
			<polygon class="st0" points="27.9,29.6 27.8,29.6 11.8,22.4 12,21.9 27.9,29.1 45.6,18.9 45.8,19.3 			"/>
			<polygon class="st0" points="27.8,28.5 12.4,21.7 12.6,21.2 27.8,27.9 44.7,18.3 45,18.8 			"/>
			<path class="st0" d="M27.4,7.8c-4.2,0-5.1,0.9-6.5,2.3c-1.7,1.7-5.2,7.5-8.4,10.6c-1.5,1.5-1.6,1.9-1.2,2.3
				c0.4,0.4,0.8,0.2,2.5-1.4c3.4-3.4,6.9-9,9.5-10.9c0.6-0.6,2.9-0.4,1.8-0.5s1.7,0.4,1.7,2.1s0.1,3.1,0.2,16.5
				c0,0.4,0.5,1.2,0.9,1.2c1.1-0.1,1-1.9,1-1.9l-0.6-15.1c0,0-0.5,6.1,0.1-1.1c0.2-1,0.9-1.4,1.5-1.5c1.3-0.4,2.6,0.7,2.6,0.7l11,8
				c2.8,1.9,2.9-0.3,2.3-0.8C45.4,17.9,35,10.9,35,10.9S31.6,7.9,27.4,7.8z"/>
			<g>
				<path class="st0" d="M22.1,15c-2.1,0-3.8,1.7-3.8,3.8s1.7,3.8,3.8,3.8s3.8-1.7,3.8-3.8S24.2,15,22.1,15z M22.1,22
					c-1.8,0-3.2-1.4-3.2-3.2c0-1.8,1.4-3.2,3.2-3.2c1.8,0,3.2,1.4,3.2,3.2C25.3,20.5,23.8,22,22.1,22z"/>
				<circle class="st0" cx="22.1" cy="18.8" r="2.9"/>
			</g>
			<g>
				<path class="st0" d="M33.9,14.5c-2.3,0-4.1,1.8-4.1,4.1s1.8,4.1,4.1,4.1s4.1-1.8,4.1-4.1S36.2,14.5,33.9,14.5z M33.9,22
					c-1.9,0-3.4-1.5-3.4-3.4c0-1.9,1.5-3.4,3.4-3.4c1.9,0,3.4,1.5,3.4,3.4C37.4,20.5,35.8,22,33.9,22z"/>
				<circle class="st0" cx="33.9" cy="18.6" r="3.2"/>
			</g>
			<path class="st0" d="M27.5,3.4l-3.1,3.1l3,3l3.1-3.1L27.5,3.4z M25.6,6.4l1.9-1.9l1.8,1.8l-1.9,1.9L25.6,6.4z"/>
			
				<rect x="26.6" y="5.3" transform="matrix(0.7071 0.7071 -0.7071 0.7071 12.4982 -17.5715)" class="st0" width="1.8" height="1.9"/>
			<path class="st0" d="M13,21.9c-0.3,0-1.9,1.2-2.7,0.1s-0.7-3,0.5-2.5s0.2,1.4,0.2,1.4l1.5-0.4c0,0,1.2-2.1-0.2-2.2
				s-3.4-1.2-3.7,0.5c-0.4,1.6-1.1,2.1,0,3.1c1.1,1,1.4,1.9,2.7,1.7c0.8-0.1,0.9,0.2,1.2-0.2C12.6,23.1,13.3,21.9,13,21.9z"/>
			<path class="st0" d="M43.6,18.5c0.3,0,1.9,1.2,2.7,0.1c0.9-1.1,0.7-3-0.5-2.5c-1.2,0.5-0.2,1.4-0.2,1.4L44,17.1
				c0,0-1.2-2.1,0.2-2.2c1.4-0.1,3.4-1.2,3.7,0.5c0.4,1.6,1.1,2.1,0,3.1c-1.1,1-1.4,1.9-2.7,1.7c-0.8-0.1-0.9,0.2-1.2-0.2
				C44,19.7,43.2,18.5,43.6,18.5z"/>
			<path class="st0" d="M28,28.3c0.1,0,0.6,1.2,0.9,0.1s0.2-3-0.2-2.5c-0.4,0.5-0.1,1.4-0.1,1.4l-0.5-0.4c0,0-0.4-2.1,0.1-2.2
				c0.5-0.1,1.1-1.2,1.3,0.5c0.1,1.6,0.4,2.1,0,3.1c-0.4,1-0.5,1.9-0.9,1.7c-0.3-0.1-0.3,0.2-0.4-0.2C28.1,29.5,27.9,28.3,28,28.3z"
				/>
			<polygon class="st0" points="18,36.9 -12,55.6 -11,57.4 18.9,38.7 19.2,39.2 -10.7,57.9 -10.1,58.8 20,40.1 			"/>
			<g>
				<polygon class="st0" points="61.6,15.8 60.4,13.8 46.1,22.7 46,25.5 				"/>
				<polygon class="st0" points="46,25.8 46,27.1 62.4,16.9 61.8,16 				"/>
			</g>
			<g>
				<polygon class="st0" points="71.4,16.9 70.3,15.1 46.3,30 46.2,32.6 				"/>
				<polygon class="st0" points="46.2,32.9 46.2,34.2 72.3,18.2 71.6,17.1 				"/>
			</g>
			<g>
				
					<rect x="-5.3" y="52.7" transform="matrix(0.8489 -0.5285 0.5285 0.8489 -26.4159 14.6432)" class="st0" width="35.4" height="1.6"/>
				
					<rect x="-6.4" y="50.9" transform="matrix(0.8489 -0.5285 0.5285 0.8489 -25.6157 13.7588)" class="st0" width="35.4" height="1.6"/>
			</g>
			<g>
				<polygon class="st0" points="28.7,46.5 45.8,34.6 45.6,27.1 28.7,37.7 				"/>
				<polygon class="st0" points="27.9,38 14.1,31.7 15.2,40.3 27.9,46.6 				"/>
			</g>
			<g>
				<polygon class="st0" points="27.9,34.2 16,28.8 16,28.8 16.4,31.9 27.9,37.4 				"/>
				<polygon class="st0" points="28.7,34 28.7,37.1 43.9,27.4 43.9,24.7 				"/>
			</g>
			<g>
				<polygon class="st0" points="14.5,27.3 27.9,33.4 27.9,30.2 14,23.9 				"/>
				<polygon class="st0" points="44.3,20.8 27.9,30.2 28.7,30.2 28.7,33.3 44.8,23.4 44.8,20.7 				"/>
			</g>
		</g>
	</g>
	<g>
		<text transform="matrix(1 0 0 1 16.6961 49.3123)" class="st13 st14 st15 st16">神輿</text>
		<text transform="matrix(1 0 0 1 16.6961 49.3123)" class="st4 st17 st15 st16">神輿</text>
	</g>
</g>
</svg>
