<svg xmlns="http://www.w3.org/2000/svg" viewBox="0 0 61.2 59" enable-background="new 0 0 61.2 59"><g><g fill="#EAA139" stroke="#fff" stroke-width="2" stroke-miterlimit="10"><path d="M35.3 39.2l6.8-25.1s1.5-.8 1.8 1.2 0 3.5 1.5 5.2 14.5 8.8 14.5 15.3c-1 4-2.5 7.2-7.8 9.2h-4.5s7-3.2 8-5 2.2-5.2-3.5-7.5-9.9-3.1-9.9-3.1L38.5 48"/><ellipse cx="25.3" cy="46.8" rx="13.2" ry="11"/><path d="M47.6 45.1"/></g><path stroke="#fff" stroke-width="3" stroke-miterlimit="10" fill="none" d="M8 10.8l16.9-8 4.8 18.5h-1.3l-2.6-9.8-13.9 6.9 1.4 7.3-1.2.2z"/><path fill="#EAA139" d="M8 10.8l16.9-8 4.8 18.5h-1.3l-2.6-9.8-13.9 6.9 1.4 7.3-1.2.2z"/><path fill="#EAA139" stroke="#fff" stroke-miterlimit="10" d="M10.2 13.2l.5 2 14.2-6.5-.8-2.2z"/><ellipse fill="#EAA139" stroke="#fff" stroke-width="2" stroke-miterlimit="10" cx="9" cy="30.2" rx="6.9" ry="5.7"/><ellipse fill="#EAA139" stroke="#fff" stroke-width="2" stroke-miterlimit="10" cx="24.1" cy="24.5" rx="6.8" ry="5.6"/><path fill="#EAA139" d="M11.3 23.1l1 4.2 1.1 1 .6.4-1.2-5.8zM27.6 18.4l1.3 5.6 1.5-.2-1.1-4.2-.4-1.5"/><path fill="#EAA139" d="M36.7 38.1l-1.8 6.5 2.5 2.6 1.2-4.7.7-3.6zM30.4 23.8c.1 1.5-.6 2.9-2 3.8s.5-3.7.5-3.7"/></g></svg>