<svg xmlns="http://www.w3.org/2000/svg" viewBox="0 0 61.2 59" enable-background="new 0 0 61.2 59"><g><circle fill="#EAA139" stroke="#fff" stroke-miterlimit="10" cx="29.7" cy="55.2" r="3.2"/><path fill="#040000" stroke="#fff" stroke-miterlimit="10" d="M34.8 54.2H24.6c-1.1 0-2-.9-2-2v-7.6c0-1.1.9-2 2-2h10.2c1.1 0 2 .9 2 2v7.6c-.1 1.1-1 2-2 2z"/><path fill="#EAA139" d="M34.8 54.2H24.6c-1.1 0-2-.9-2-2v-7.6c0-1.1.9-2 2-2h10.2c1.1 0 2 .9 2 2v7.6c-.1 1.1-1 2-2 2z"/><circle fill="#040000" stroke="#fff" stroke-width="2" stroke-miterlimit="10" cx="29.7" cy="29.2" r="16.2"/><path fill="#fff" d="M22.6 47.8h14.5v1.6H22.6zM22.5 50.4h14.4V52H22.5z"/><circle fill="#EAA139" stroke="#fff" stroke-width="2" stroke-miterlimit="10" cx="29.7" cy="29.2" r="15.4"/><circle fill="#EAA139" stroke="#fff" stroke-miterlimit="10" cx="29.7" cy="33.1" r="5.2"/><path stroke="#fff" stroke-miterlimit="10" fill="none" d="M24.4 32.8v11.1M34.9 32.8v11.1"/><path fill="#F5A519" stroke="#fff" stroke-miterlimit="10" d="M14.763 7.903l1.556-1.556 4.878 4.88-1.556 1.555zM28.7 3h2.2v6.9h-2.2zM43.376 6.36l1.555 1.555-4.878 4.88-1.555-1.556z"/></g></svg>