<svg xmlns="http://www.w3.org/2000/svg" viewBox="0 0 61.2 59" enable-background="new 0 0 61.2 59"><g><path fill="#F5A519" stroke="#fff" stroke-width="2" stroke-miterlimit="10" d="M29.7 57.7c-10.2 0-39.4-48 0-48s10.2 48 0 48z"/><circle fill="#F5A519" stroke="#fff" stroke-width="2" stroke-miterlimit="10" cx="29.7" cy="21.5" r="16.3"/><path fill="#fff" d="M26.4 19.5l2.9-.4h.6c.2 0 .4.1.6.2.1.1.3.2.4.3.1.1.1.3.1.4v.2c0 .1-.1.1-.1.1l-3.2.5h-.4c-.1 0-.3 0-.4-.1l-1.2-.4c0-.1 1.2-1.3.7-.8zm.3 2.1c1.2-.2 2.5-.3 3.8-.4l.4-.3.8.2c.1 0 .1 0 .2.1.1 0 .1.1.2.1l.9.5c.1.1.2.1.2.3v.3l-.1.4c0 .1-.1.1-.1.1h-.1c-.6-.2-1.2-.3-1.8-.3-.6-.1-1.2-.1-1.8 0l-1.3.2-1.7.3-.4.2c-.2.1-.4.2-.5.2-.2 0-.4-.1-.6-.2l-1.8-.9c1.3-.3 2.5-.6 3.7-.8zM29.2 22l.9.8c.1.1.1.1.1.2v.3l-.1.4c.1.7.1 1.5.1 2.2v2.2c0 .3-.1.5-.2.7-.1.2-.2.4-.4.6-.1.1-.2.2-.3.4-.1.1-.2.3-.3.4l-.2.2c-.1 0-.2.1-.3.1-.1-.3-.3-.5-.5-.7-.2-.2-.4-.4-.7-.5l-.6-.3c-.2-.1-.3-.3-.5-.5-.3-.3-.5-.6-.8-1-.2-.3-.5-.7-.7-1 0 0 1 .4 1.5.5.5.2 1 .2 1.5.2.2-.8.2-1.6.2-2.4 0-.8-.1-1.6-.2-2.4l-.3-.4c.2.3 2.5-.1 1.8 0zM22.1 17.6c.3.1.6.2.9.4 0 0 .1 0 .1.1l.1.1c.1.1.1.1.1.2l.5.5c.2.3.3.5.3.6v.3s0 .2-.1.2c-.2.1-.3.2-.5.2s-.4-.1-.5-.2c-.2-.2-.5-.6-.9-1 0 0-.1 0-.1-.1-.4-.5-.7-.8-.9-1.1v-.2h.1c.3-.1.6-.1.9 0z"/><text transform="translate(14.269 24.519)" fill="#fff" font-family="'DFKKaiShoA-W5-90pv-RKSJ-H'" font-size="18.637">ク</text><circle fill="#fff" cx="23.7" cy="15.7" r="1.4"/><path fill="#fff" d="M33.4 18c1.5 1.6 2.8 2.8 4.1 3.8 1.3 1 2.6 1.7 4 2.2.6.1.9.3 1 .6 0 .3-.2.5-.7.5-1.3.1-2.8-.3-4.5-1.3-1.7-1.3-3.3-2.8-4.8-4.5-1.8-2.6-3.6-4.8-5.2-6.7 0-.3 0-.4.2-.4s.5 0 .9.1c1.1 1.2 4.8 5.6 5 5.7zM33.2 24.7c.7.2 1.4.5 2.1.8.5.2.9.5 1.2.8.4.3.6.7.8 1.1.1.3.2.5.3.8.1.3.1.5.2.8l-.7 1h-.5c-.2 0-.4 0-.5-.1-.2-.1-.4-.1-.6-.3-.1-.1-.3-.3-.4-.5-.2-.4-.4-.8-.7-1.1-.2-.4-.4-.8-.5-1.1-.5-.5-1-1-1.5-1.4-.5-.5-1-.9-1.4-1.5.7.3 1.5.5 2.2.7zM22.4 28.7c-.2.2-.5.4-.8.5-.3.1-.7 0-1-.1l-1.4-.5c.2 0 .4 0 .6-.1.2-.1.3-.2.5-.4l2.7-3.4c0-.2-.1-.4-.1-.6-.1-.2-.2-.4-.3-.5l.4-.2c.3.1.7.2 1 .4.3.2.6.3.9.5l.4.4c.1.1.2.3.2.5-.1 0-.2.1-.3.1-.1 0-.2.1-.2.2l-2.6 3.2z"/><text transform="translate(28.747 19.78)" fill="#fff" font-family="'KFhimaji-83pv-RKSJ-H'" font-size="11.193">フ</text></g></svg>