<svg xmlns="http://www.w3.org/2000/svg" xmlns:xlink="http://www.w3.org/1999/xlink" viewBox="0 0 61.2 59" enable-background="new 0 0 61.2 59"><path fill="#fff" d="M.1 0h61.2v59H.1z"/><g><path fill="#35A7D5" d="M30.6 58.5c-15.9 0-28.8-12.9-28.8-28.8S14.7.9 30.6.9s28.8 12.9 28.8 28.8-12.9 28.8-28.8 28.8zm0-54.5C16.4 4 4.9 15.5 4.9 29.7s11.6 25.8 25.8 25.8 25.8-11.6 25.8-25.8S44.8 4 30.6 4z"/><defs><circle id="a" cx="30.6" cy="29.7" r="27.3"/></defs><clipPath id="b"><use xlink:href="#a" overflow="visible"/></clipPath><g clip-path="url(#b)" fill="#35A7D5"><ellipse transform="matrix(.768 -.64 .64 .768 -11.144 21.247)" cx="23.8" cy="26" rx="3.5" ry="2.6"/><path d="M22.9 29.2c-.8 0-1.5-.3-1.9-.8-1-1.2-.5-3.2 1.1-4.5.8-.7 1.8-1.1 2.7-1.1.8 0 1.5.3 1.9.8 1 1.2.5 3.2-1.1 4.5-.8.8-1.8 1.1-2.7 1.1zm1.8-6c-.8 0-1.7.4-2.5 1-1.4 1.2-1.9 3-1 4 .4.4 1 .7 1.7.7.8 0 1.7-.4 2.5-1 1.4-1.2 1.9-3 1-4-.4-.5-1-.7-1.7-.7zM26.4 5.8h.6v19.1h-.6zM27.2 25h-.9V5.6h.9V25zm-.6-.3h.2V6h-.2v18.7zM26.8 5.8c0 1.7 5.8 6.5 5.8 12.2 0 1.8-1.3 5.1-3.3 6.8 1.7-1.8 2.5-4.7 2.5-6.8 0-3.5-2.2-4.9-5.1-7.2v-5zM29.5 24.9l-.3-.3c1.7-1.7 2.5-4.7 2.5-6.7 0-3.2-1.8-4.5-4.3-6.5-.2-.2-.5-.4-.7-.6l-.1-.1V5.8h.4c0 .5.8 1.6 1.6 2.7 1.8 2.4 4.2 5.7 4.2 9.4 0 1.9-1.4 5.2-3.3 7zM27 10.7c.2.2.4.3.6.5 2.6 2 4.4 3.4 4.4 6.8 0 1-.2 2.3-.6 3.5.6-1.3 1-2.6 1-3.5 0-3.6-2.4-6.8-4.1-9.2-.6-.7-1-1.4-1.3-1.9v3.8z"/><circle cx="18.9" cy="53.5" r="2"/><path d="M18.9 55.7c-.8 0-1.6-.5-2-1.3-.2-.5-.3-1.1-.1-1.6s.6-1 1.1-1.2c.3-.1.6-.2.9-.2.8 0 1.6.5 2 1.3.2.5.3 1.1.1 1.6-.2.5-.6 1-1.1 1.2-.3.1-.6.2-.9.2zm0-4c-.3 0-.5.1-.7.2-.4.2-.8.6-.9 1-.2.4-.1.9.1 1.4.3.6.9 1 1.6 1 .3 0 .5-.1.7-.2.4-.2.8-.6.9-1 .2-.4.1-.9-.1-1.4-.3-.6-.9-1-1.6-1zM17.6 55c1.2 1.1 3.1 1.4 4.9.4 2.8-1.7 2.6-5.1.5-8.4-1.2-2-11-16.9-12.5-19.4-2.3-3.9.7-11.3 2.4-7.8.8 1.8 1 5.5-.7 9.4-1.3 2.8-4.5 8.5-1.6 14.8 1.6 3.5 5.8 4.9 9.5 3.3 3.2-1.5 5.6-5.1 4-8.4-2-4.3-5.4-4.2-7.9-2.8-2.9 1.6-2.7 4.5-2 5.8.7 1.3 2 1.8 2.9 1.9-1.8-1.3-2.6-4.4 0-5.7 2-1 3.9-.6 5 1.7 1.1 2.4.8 5.2-2.4 6.7-3.6 1.7-6.5-.4-7.6-2.8-2.3-5 1.3-10.4 2.5-13.7 1.3-3.5.4-6.9-.9-9.5-3.4-7.2-8.1 0-4.6 6.6 1.6 3 10.1 14.9 13.3 20.7.6 1 2.7 5.4-.6 7.1-1.3.7-3 .5-2.9-1.1"/><path d="M20.2 56.2c-1 0-2-.4-2.7-1.1l.3-.3c1.2 1.2 3.1 1.3 4.7.3 1-.6 1.6-1.4 1.9-2.5.4-1.6-.1-3.6-1.4-5.7-.1-.2-.4-.6-.7-1l-.3.3c.3.5.5.9.7 1.3.5.9 1.7 3.4 1.1 5.3-.3.9-.8 1.6-1.7 2-.9.5-1.9.5-2.5.1-.3-.2-.7-.6-.6-1.4h.4c0 .5.1.8.5 1.1.5.3 1.4.3 2.2-.1.8-.4 1.3-1 1.5-1.8.6-1.8-.5-4.1-1-5-.2-.4-.5-.8-.7-1.3-.5.3-.9.6-1.4.8-3.8 1.7-8 .3-9.7-3.4-2.8-5.1-.9-10 .5-13.1-1-1.6-1.8-2.9-2.2-3.6-1.8-3.5-1.4-6.9-.3-8.6.6-.9 1.3-1.3 2.1-1.2.8.1 2 .6 3.2 3.1 1.7 3.5 2 6.7.9 9.7-.2.7-.6 1.4-1 2.2 0 .1-.1.1-.1.2.7 1.1 1.4 2.2 2.2 3.4h.1c1.6-.9 3.2-1.1 4.7-.6 1.5.5 2.7 1.7 3.5 3.5 1.2 2.5.1 5.2-1.8 7.1.3.5.6.9.7 1.1 1.3 2.2 1.9 4.3 1.5 5.9-.3 1.1-1 2.1-2 2.7-.9.4-1.8.6-2.6.6zm-8.7-25.1c-1.4 3-3 7.8-.7 12.8 1.6 3.4 5.6 4.8 9.2 3.2.5-.2 1-.5 1.4-.8-.1-.1-.2-.3-.3-.4-.4.3-.8.6-1.3.8-3.5 1.6-6.6-.2-7.8-2.9-1.6-3.5-.3-7.3 1-10.4-.5-.9-1-1.6-1.5-2.3zm1.8 2.6c-1.3 3-2.4 6.5-.9 9.8 1.1 2.4 3.9 4.3 7.3 2.7.5-.2.9-.5 1.3-.8-1.2-2-2.8-4.4-4.4-6.8-.6.6-.8 1.2-.8 1.7-.1 1.2.6 2.5 1.5 3.2l.6.5-.8-.1c-.7-.1-2.3-.5-3.1-2-.7-1.3-.9-3.7 1.1-5.4-.3-.4-.6-.9-.9-1.3l-.9-1.5zm8.1 11.8c.1.2.2.3.3.5l.3-.3c-.1-.2-.2-.3-.3-.5l-.3.3zm.6-.6c.1.2.2.4.3.5 1.8-1.7 2.7-4.2 1.6-6.6-.8-1.7-1.9-2.9-3.3-3.3-1.8-.6-3.5.1-4.4.6.3.5.7 1 1 1.5 1.1-.5 2-.6 2.9-.3.9.3 1.6 1.1 2.2 2.2.6 1.3.7 2.7.4 3.8-.1.7-.4 1.2-.7 1.6zm-5.2-6.5c1.6 2.4 3.1 4.8 4.4 6.8l.3-.3c-.7-1-1.5-2.3-2.4-3.7-.6-.9-1.3-1.9-1.9-3-.2.1-.3.1-.4.2zm.6-.4c.7 1 1.3 2 1.9 2.9.9 1.4 1.7 2.6 2.4 3.6.3-.4.5-.8.6-1.3.3-1.1.2-2.4-.4-3.6-.5-1.1-1.1-1.7-1.9-2-.7-.1-1.6 0-2.6.4zm-2.1-1.2c-1.7 1.5-1.6 3.7-.9 4.9.5 1 1.4 1.4 2.1 1.6-.8-.8-1.2-2-1.1-3 .1-.8.4-1.5 1-2-.4-.5-.7-1-1.1-1.5zm.3-.2c.3.5.7 1 1 1.5.1-.1.2-.1.3-.2-.3-.5-.7-1-1-1.5-.1 0-.2.1-.3.2zm-2.2-3.3c.4.5.7 1.1 1.1 1.6.3.4.6.9.9 1.3.1-.1.2-.1.3-.2-.7-1.1-1.4-2.2-2.1-3.2 0 .2-.1.4-.2.5zm-1.7-2.6c.5.7 1 1.4 1.5 2.2.1-.2.1-.3.2-.4-.5-.8-1-1.6-1.5-2.3 0 .2-.1.3-.2.5zm.4-.9c.4.7.9 1.4 1.5 2.3.4-.8.7-1.6 1-2.2 1-2.8.8-6-.9-9.4-.9-1.8-1.9-2.8-2.9-2.9-.6 0-1.3.3-1.7 1.1-1.1 1.7-1.3 5.1.3 8.2.4.7 1.1 1.9 2.1 3.4.1-.2.2-.3.2-.5-.6-1-1.1-1.7-1.3-2.1-1.5-2.5-.8-6.4.3-8 .4-.7.9-1 1.3-1s.8.4 1.1 1c.9 2 1 5.7-.7 9.6-.1.2-.2.3-.3.5zm-.2-10.7c-.3 0-.6.3-1 .8-1 1.6-1.6 5.2-.3 7.6.2.4.6 1 1.2 1.9 0-.1.1-.2.1-.3 1.7-3.7 1.6-7.4.7-9.2 0-.4-.3-.8-.7-.8zM30.4 40.9c-.2.4.8 2.8 1 4.5-.8-.9-2.3-1.5-3.2-.6-1 1-.1 2.4.7 3.6-.4-1.2 0-1.8.6-2.3.8-.6 1.8 0 2.8.8 0-3-.3-4 .1-4.7.5-.9 4-1.9 4.9-3.4.3-.6-.2-3.8-1-6.6-.1 2.5-.3 4.4-.8 5.4-.4.7-4.5 2.4-5.1 3.3zM29.7 49.9l-.9-1.5c-.7-1.2-1.6-2.7-.6-3.7.3-.3.7-.5 1.2-.5.6 0 1.3.3 1.8.7-.1-.7-.4-1.4-.6-2.1-.3-1.1-.5-1.7-.3-2 .3-.5 1.7-1.3 3-2 .9-.5 1.9-1 2-1.2.5-.9.7-2.7.8-5.4l.1-1.2.3 1.2c.6 2.4 1.4 6 1 6.7-.5.8-1.8 1.5-2.9 2.1-.9.5-1.7.9-1.9 1.2-.2.4-.2.9-.1 1.9 0 .6.1 1.5.1 2.7v.4l-.6-.2c-.6-.5-1.3-1-1.9-1-.2 0-.4.1-.6.2-.7.5-.8 1.1-.5 2.1l.6 1.6zm-.3-5.4c-.4 0-.7.1-.9.4-.7.7-.3 1.6.2 2.5 0-.6.3-1.1.8-1.5.3-.2.6-.3.9-.3.6 0 1.2.4 1.8.8 0-1 0-1.7-.1-2.3 0-1-.1-1.6.2-2.1.3-.5 1.1-.9 2.1-1.4 1.1-.6 2.4-1.2 2.8-2 .2-.4-.1-2.8-.7-5.2-.1 2-.3 3.4-.8 4.3-.2.3-.9.7-2.2 1.4-1.1.6-2.6 1.4-2.8 1.8-.1.2.2 1 .4 1.7.3.9.6 1.9.7 2.7l.1.6-.4-.4c-.7-.6-1.5-1-2.1-1z"/><ellipse transform="matrix(.074 -.997 .997 .074 2.751 79.971)" cx="44.5" cy="38.5" rx="2.9" ry="2.1"/><path d="M44.4 41.6h-.1c-1.3-.1-2.2-1.6-2.1-3.3.1-1.7 1.3-3 2.6-2.9 1.3.1 2.2 1.6 2.1 3.3-.2 1.6-1.3 2.9-2.5 2.9zm.2-5.8c-1 0-1.9 1.1-2 2.6-.1 1.5.7 2.8 1.8 2.8 1.1.1 2-1.1 2.2-2.6.1-1.5-.7-2.8-1.8-2.8h-.2zM35.044 26.358l.347-.36 10.42 10.084-.347.36zM45.5 36.7L34.8 26.4l.6-.6L46 36.1l-.5.6zM35.3 26.4l10.1 9.8.1-.1-10.2-9.7z"/><ellipse transform="matrix(.074 -.997 .997 .074 24.528 82.452)" cx="56.7" cy="28" rx="2.9" ry="2.1"/><path d="M56.6 31.1h-.1c-1.3-.1-2.2-1.6-2.1-3.3.1-1.7 1.3-3 2.6-2.9.6 0 1.2.4 1.6 1 .4.6.6 1.4.5 2.2-.2 1.7-1.3 3-2.5 3zm.2-5.8c-1 0-1.9 1.1-2 2.6-.1 1.5.7 2.8 1.8 2.8 1.1.1 2-1.1 2.2-2.6.1-.7-.1-1.4-.4-2-.3-.5-.8-.8-1.3-.9l-.3.1zM48.492 17.132l.348-.36 9.126 8.832-.347.36zM57.7 26.2l-9.4-9.1.6-.6 9.4 9.1-.6.6zm-8.9-9.1l8.9 8.6.1-.1-9-8.5zM49.5 17.4L36.2 27.5l-1.3-1.3 13.3-10zM36.2 27.7l-1.6-1.5 13.6-10.3 1.6 1.5-13.6 10.3zm-1-1.4l1 1 13-9.8-1-1-13 9.8zM125.156 7.955l.135.376-181.368 65.095-.135-.376zM117.288-13.917l.135.376-181.37 65.093-.134-.376zM119.31-8.443l.134.377-181.37 65.094-.134-.377zM121.204-3.028l.136.376-181.37 65.094-.135-.376zM123.227 2.446l.135.377-181.37 65.094-.134-.377z"/></g><path fill="#fff" d="M19.9 44.7c.7.4 1.1.7 1.8 1.3l-.6 1c-.6-.6-1-.9-1.8-1.4l.6-.9zm1.9 3.6c-.3.9-.4 1.3-.8 2.2-.3.6-.3.7-.5 1l-.1.3-1-.9c.6-.7 1-1.7 1.5-3.2l.9.6zm-.4-3.9c-.6-.7-.9-1-1.7-1.5l.7-.8c.7.5 1.1.8 1.7 1.3v-.7h2.8v-.1c0-.3 0-.5-.1-.7H26c0 .2-.1.4-.1.7v.1H28.8V44.8h-.9v.4H26v.6h2.6v4.1h-2.1c.4.3.6.4.9.5.6.3 1 .4 1.8.5-.3.4-.4.5-.6 1-.6-.1-.9-.2-1.5-.5s-.9-.4-1.4-.8l.7-.7h-2.3l.7.7c-1 .7-1.5 1-2.8 1.3-.2-.4-.3-.6-.6-1 1.2-.2 1.8-.4 2.7-1.1h-1.8v-4h2.5v-.6h-2v-.4h-.9v-1.4l-.5 1zm6.4-.7h-4.7v.6h4.7v-.6zm-4.3 3v.7h1.4v-.7h-1.4zm0 1.5v.7h1.4v-.7h-1.4zm2.5-.8h1.5v-.7H26v.7zm0 1.5h1.5v-.7H26v.7z"/><path fill="#003693" d="M20.7 53.5l-3-2.6.7-.9c.5-.5.9-1.4 1.3-2.8-.3-.2-.6-.4-1.1-.7l-1.1-.6 1.5-2.1-1-.7 2.3-2.6.8.5c.2.2.4.3.6.4h.4l1.1-1.5v1.6h.4l-.1-.8h3.9l-.2.8h1.6l1.4-.2-.1 1.4V44.5l.2 1.3h-.6V49.6l1.7.2-1.2 1.6c-.2.3-.3.4-.4.7l-.4.9-1-.2c-.7-.2-1.1-.3-1.7-.5-.6-.3-.9-.4-1.4-.8-1 .7-1.6 1-3 1.3l-.9.2-.3-.6-.4 1.1z"/><path fill="#fff" d="M35.6 48.1c-.3 0-.5 0-.8.1v-.5c-.6.6-1.3 1.1-2 1.6-.2-.4-.4-.6-.8-.9 1-.5 1.6-1 2.3-1.6h-.9c-.5 0-.9 0-1.3.1v-1.1c.3.1.6.1 1.2.1H35c.1-.2.2-.3.3-.6H33v-1h2.7c.1-.2.1-.3.2-.5h-2.2c-.6 0-.8 0-1.2.1v-1.1c.3 0 .7.1 1.2.1H36c.1-.3.1-.6.1-.8l1.2.1c0 .1-.1.3-.2.8H40c.6 0 .9 0 1.3-.1V44c-.3 0-.6-.1-1.2-.1h-3.2c.1 0 .1.1 0 .3H41v1H38.6c.1.2.2.3.3.6h1.7c.6 0 .9 0 1.2-.1v1.1c-.4 0-.7-.1-1.2-.1h-1c.6.6 1.3 1.1 2.5 1.5-.4.4-.5.6-.8 1-.8-.5-1.4-.9-2-1.5v.5c-.2 0-.4-.1-.8-.1h-1c0 .3 0 .4-.1.6h1.9c.5 0 .7 0 1-.1v1h-2.5c.8.6 1.8.9 3.8 1.1-.3.4-.4.7-.6 1.1-2.1-.3-3.2-.8-4.1-1.8-.4.5-1 .9-1.7 1.3-.5.2-1.2.4-2.1.6-.1-.4-.3-.7-.6-1.1 1.7-.1 2.8-.5 3.4-1.2h-2.2v-1h2.5c0-.2 0-.2.1-.6h-.7zm2.9-.9h.4c-.2-.2-.3-.3-.5-.6h-2.7c-.2.2-.3.3-.5.6h3.3zm-.7-1.5c-.1-.2-.2-.3-.3-.6h-.9l-.3.6h1.5z"/><path fill="#003693" d="M32.3 53.1l-.3-.8c-.1-.3-.3-.6-.4-.8l-1.2-1.6 1.5-.1c-.1-.2-.2-.3-.5-.6L29.9 48l1.1-.6v-3.2l.4.1v-2.9l1.3.2c.3 0 .6.1 1.1.1h1.3v-.9l3.8.2-.2.7h1.5c.5 0 .8 0 1.1-.1l1.3-.2v2.9l.4-.1v3l1.1.5-1.2 1.2c-.3.3-.4.4-.5.7l1.3.1-1.1 1.6c-.2.3-.3.5-.5.9l-.3.9-1-.1c-1.8-.3-2.9-.7-3.9-1.4-.4.3-.8.5-1.3.8-.7.3-1.4.5-2.4.6l-.9.1z"/><g fill="#fff"><path d="M19.9 44.7c.7.4 1.1.7 1.8 1.3l-.6 1c-.6-.6-1-.9-1.8-1.4l.6-.9zm1.9 3.6c-.3.9-.4 1.3-.8 2.2-.3.6-.3.7-.5 1l-.1.3-1-.9c.6-.7 1-1.7 1.5-3.2l.9.6zm-.4-3.9c-.6-.7-.9-1-1.7-1.5l.7-.8c.7.5 1.1.8 1.7 1.3v-.7h2.8v-.1c0-.3 0-.5-.1-.7H26c0 .2-.1.4-.1.7v.1H28.8V44.8h-.9v.4H26v.6h2.6v4.1h-2.1c.4.3.6.4.9.5.6.3 1 .4 1.8.5-.3.4-.4.5-.6 1-.6-.1-.9-.2-1.5-.5s-.9-.4-1.4-.8l.7-.7h-2.3l.7.7c-1 .7-1.5 1-2.8 1.3-.2-.4-.3-.6-.6-1 1.2-.2 1.8-.4 2.7-1.1h-1.8v-4h2.5v-.6h-2v-.4h-.9v-1.4l-.5 1zm6.4-.7h-4.7v.6h4.7v-.6zm-4.3 3v.7h1.4v-.7h-1.4zm0 1.5v.7h1.4v-.7h-1.4zm2.5-.8h1.5v-.7H26v.7zm0 1.5h1.5v-.7H26v.7zM35.6 48.1c-.3 0-.5 0-.8.1v-.5c-.6.6-1.3 1.1-2 1.6-.2-.4-.4-.6-.8-.9 1-.5 1.6-1 2.3-1.6h-.9c-.5 0-.9 0-1.3.1v-1.1c.3.1.6.1 1.2.1H35c.1-.2.2-.3.3-.6H33v-1h2.7c.1-.2.1-.3.2-.5h-2.2c-.6 0-.8 0-1.2.1v-1.1c.3 0 .7.1 1.2.1H36c.1-.3.1-.6.1-.8l1.2.1c0 .1-.1.3-.2.8H40c.6 0 .9 0 1.3-.1V44c-.3 0-.6-.1-1.2-.1h-3.2c.1 0 .1.1 0 .3H41v1H38.6c.1.2.2.3.3.6h1.7c.6 0 .9 0 1.2-.1v1.1c-.4 0-.7-.1-1.2-.1h-1c.6.6 1.3 1.1 2.5 1.5-.4.4-.5.6-.8 1-.8-.5-1.4-.9-2-1.5v.5c-.2 0-.4-.1-.8-.1h-1c0 .3 0 .4-.1.6h1.9c.5 0 .7 0 1-.1v1h-2.5c.8.6 1.8.9 3.8 1.1-.3.4-.4.7-.6 1.1-2.1-.3-3.2-.8-4.1-1.8-.4.5-1 .9-1.7 1.3-.5.2-1.2.4-2.1.6-.1-.4-.3-.7-.6-1.1 1.7-.1 2.8-.5 3.4-1.2h-2.2v-1h2.5c0-.2 0-.2.1-.6h-.7zm2.9-.9h.4c-.2-.2-.3-.3-.5-.6h-2.7c-.2.2-.3.3-.5.6h3.3zm-.7-1.5c-.1-.2-.2-.3-.3-.6h-.9l-.3.6h1.5z"/></g><path fill="#35A7D5" d="M314.8 58.5c-15.9 0-28.8-12.9-28.8-28.8S298.9.9 314.8.9s28.8 12.9 28.8 28.8-12.9 28.8-28.8 28.8zm0-54.5C300.6 4 289 15.6 289 29.8s11.6 25.8 25.8 25.8 25.8-11.6 25.8-25.8S329 4 314.8 4z"/><defs><circle id="c" cx="314.8" cy="29.7" r="27.3"/></defs><clipPath id="d"><use xlink:href="#c" overflow="visible"/></clipPath><g clip-path="url(#d)"><path fill="#35A7D5" d="M319.2 28.1h4.7v3.5h-4.7z"/><path fill="#fff" d="M324 32h-5c-.2.4-.3.8-.3 1.2 0 1.6 1.3 2.8 2.8 2.8 1.6 0 2.8-1.3 2.8-2.8 0-.4-.1-.8-.3-1.2z"/><path fill="#35A7D5" d="M321.5 36.2c-1.6 0-2.9-1.3-2.9-2.9 0-.4.1-.9.3-1.3h5.2c.2.4.3.8.3 1.3 0 1.6-1.3 2.9-2.9 2.9zm-2.5-4.1c-.2.4-.3.8-.3 1.2 0 1.5 1.2 2.7 2.7 2.7 1.5 0 2.7-1.2 2.7-2.7 0-.4-.1-.8-.3-1.2H319z"/><g fill="#35A7D5"><path d="M321.5 36.2c-1.6 0-2.9-1.3-2.9-2.9 0-.4.1-.9.3-1.3v-.1h5.2v.1c.2.4.3.8.3 1.3.1 1.6-1.3 2.9-2.9 2.9zm-2.4-4c-.2.4-.2.7-.2 1.1 0 1.5 1.2 2.7 2.7 2.7 1.5 0 2.7-1.2 2.7-2.7 0-.4-.1-.8-.2-1.1h-5zM321.5 36.3c-1.7 0-3-1.4-3-3 0-.5.1-.9.3-1.3l.1-.1h5.3l.1.1c.2.4.3.9.3 1.3-.1 1.6-1.4 3-3.1 3zM319 32c-.2.4-.3.8-.3 1.3 0 1.6 1.3 2.9 2.9 2.9 1.6 0 2.9-1.3 2.9-2.9 0-.4-.1-.9-.3-1.3H319zm2.5 4.1c-1.5 0-2.8-1.2-2.8-2.8 0-.4.1-.8.3-1.1h5c.2.4.3.8.3 1.1 0 1.5-1.3 2.8-2.8 2.8zm-2.4-3.9c-.1.3-.2.7-.2 1 0 1.4 1.2 2.6 2.6 2.6s2.6-1.2 2.6-2.6c0-.4-.1-.7-.2-1h-4.8z"/></g><path fill="#fff" d="M325.3 44.7v-2.8h-7.4v4.4l.2 1.8-.6 2h8.1l-.5-2z"/><path fill="#35A7D5" d="M325.8 50.2h-8.4l.5-2.1-.1-1.8v-4.5h7.6v2.9l-.2 3.4.6 2.1zm-8.1-.2h7.8l-.5-1.9.2-3.4V42h-7.1v4.3l.1 1.8-.5 1.9z"/><g fill="#35A7D5"><path d="M319.9 41.3h3.5v-3.9c-.6-.2-1.2-.3-1.9-.3-.5 0-1.1 0-1.7.1v4.1zM319 37.5c-1.6.5-3.2 1.8-3.6 4.7l-1.3 7.9h2.3l1-3.8v-5h1.6v-3.8zM331 38.3c-.6-.2-1.2.1-1.4.6l-1.5 3.2-.8-1.3c-.7-1.2-1.7-2.4-2.9-3.1v3.5h1.4v2.9c.4.5 1.1 1.3 1.2 1.4 1.1 1.1 2.4.9 2.9-.6l1.7-5.3c.2-.4-.1-1.1-.6-1.3z"/></g><path fill="#35A7D5" d="M295.7 44.8h40v15.7h-40z"/><path fill="#fff" d="M297.8 24.7h1v21h-1z"/><path fill="#35A7D5" d="M299 45.9h-1.4V24.5h1.4v21.4zm-1-.3h.7V24.9h-.7v20.7z"/><path fill="#fff" d="M332.4 24.7h1v21h-1z"/><path fill="#35A7D5" d="M333.6 45.9h-1.4V24.5h1.4v21.4zm-1-.3h.7V24.9h-.7v20.7zM338 24.7c-.5 0-.7.3-1.1.9-.4.6-1 1.5-2.1 1.5s-1.7-.8-2.1-1.5c-.4-.6-.6-.9-1.1-.9s-.7.3-1.1.9c-.4.6-1 1.5-2.1 1.5s-1.7-.8-2.1-1.5c-.4-.6-.6-.9-1.1-.9-.5 0-.7.3-1.1.9-.4.6-1 1.5-2.1 1.5s-1.7-.8-2.1-1.5c-.4-.6-.6-.9-1.1-.9-.5 0-.7.3-1.1.9-.4.6-1 1.5-2.1 1.5s-1.7-.8-2.1-1.5c-.4-.6-.6-.9-1.1-.9-.5 0-.7.3-1.1.9-.4.6-1 1.5-2.1 1.5s-1.7-.8-2.1-1.5c-.4-.6-.6-.9-1.1-.9-.5 0-.7.3-1.1.9-.4.6-1 1.5-2.1 1.5s-1.7-.8-2.1-1.5c-.4-.6-.6-.9-1.1-.9-.5 0-.7.3-1.1.9-.4.6-1 1.5-2.1 1.5s-1.7-.8-2.1-1.5c-.4-.6-.6-.9-1.1-.9v-1.2c1.1 0 1.7.8 2.1 1.5.4.6.6.9 1.1.9.5 0 .7-.3 1.1-.9.4-.6 1-1.5 2.1-1.5s1.7.8 2.1 1.5c.4.6.6.9 1.1.9.5 0 .7-.3 1.1-.9.4-.6 1-1.5 2.1-1.5s1.7.8 2.1 1.5c.4.6.6.9 1.1.9.5 0 .7-.3 1.1-.9.4-.6 1-1.5 2.1-1.5s1.7.8 2.1 1.5c.4.6.6.9 1.1.9.5 0 .7-.3 1.1-.9.4-.6 1-1.5 2.1-1.5s1.7.8 2.1 1.5c.4.6.6.9 1.1.9.5 0 .7-.3 1.1-.9.4-.6 1-1.5 2.1-1.5s1.7.8 2.1 1.5c.4.6.6.9 1.1.9.5 0 .7-.3 1.1-.9.4-.6 1-1.5 2.1-1.5s1.7.8 2.1 1.5c.4.6.6.9 1.1.9.5 0 .7-.3 1.1-.9.4-.6 1-1.5 2.1-1.5 0 .6.4 1.2 0 1.2z"/><g fill="#35A7D5"><path d="M293.2 24.1v-9.6s-2-1.8 0-3.9h44.9s1.8 1.7 0 4v10.1l-44.9-.6zM338.8 25.3l-46.2-.6v-10c-.3-.3-.8-1.1-.9-2.1 0-.9.3-1.7 1-2.4l.3-.2h45.4l.2.2c.7.7 1.7 2.5.2 4.6v10.5zm-44.9-1.8l43.7.6v-9.7l.1-.2c1.1-1.4.5-2.5.2-3h-44.4c-.4.5-1.1 1.7.1 2.8l.2.2v9.3z"/></g><path fill="#35A7D5" d="M298.1 25.3c-1.6 1.8-3.6 0-3.6 0v-3.8h3.6s.8 3.1 0 3.8zM304.5 25.3c-1.6 1.8-3.6 0-3.6 0v-3.8h3.6s.8 3.1 0 3.8zM311.1 25.3c-1.6 1.8-3.6 0-3.6 0v-3.8h3.6s.7 3.1 0 3.8zM317.3 25.3c-1.6 1.8-3.6 0-3.6 0v-3.8h3.6s.8 3.1 0 3.8zM323.9 25.3c-1.6 1.8-3.6 0-3.6 0v-3.8h3.6s.7 3.1 0 3.8zM330.2 25.3c-1.6 1.8-3.6 0-3.6 0v-3.8h3.6s.7 3.1 0 3.8zM336.5 25.3c-1.6 1.8-3.6 0-3.6 0v-3.8h3.6s.8 3.1 0 3.8zM310.7 44.1h-9.4c-.2 0-.4-.2-.4-.4V32.8c0-.2.2-.4.4-.4h9.4c.2 0 .4.2.4.4v10.9c0 .2-.1.4-.4.4z"/><path fill="#fff" d="M309.6 37.8h-7.2c-.2 0-.4-.2-.4-.4v-3.3c0-.2.2-.4.4-.4h7.2c.2 0 .4.2.4.4v3.3c0 .2-.2.4-.4.4zM309.6 42.8h-7.2c-.2 0-.4-.2-.4-.4v-3.3c0-.2.2-.4.4-.4h7.2c.2 0 .4.2.4.4v3.3c0 .2-.2.4-.4.4z"/><path fill="#35A7D5" d="M305.2 34.9h3.9v2.2h-3.9zM303.6 40h5.4v.9h-5.4zM303.6 41.5h5.4v.9h-5.4z"/><path fill="#fff" d="M315 44.6"/><path fill="#fff" d="M296.5 46.4h4.2v13.5h-4.2zM303.4 46.4h4.2v13.5h-4.2zM310.3 46.4h4.2v13.5h-4.2zM317.2 46.4h4.2v13.5h-4.2zM324 46.4h4.2v13.5H324zM330.9 46.4h4.2v13.5h-4.2z"/><defs><path id="e" d="M338.3 24.8l-45.2-.6v-9.7c-.2-.2-.9-.9-.9-1.9 0-.7.3-1.5 1-2.1h45s.9.9.9 2c0 .7-.3 1.4-.9 2V24.8zm-44.9-.8l44.7.6V14.4c.6-.6.9-1.2.9-1.8 0-.9-.7-1.7-.8-1.8h-44.8c-.6.6-.9 1.3-.9 1.9.1 1 .9 1.7.9 1.7V24z"/></defs><use xlink:href="#e" overflow="visible" fill="#35A7D5"/><clipPath id="f"><use xlink:href="#e" overflow="visible"/></clipPath><g clip-path="url(#f)"><path fill="#fff" d="M288.3 8.6H350v5.8h-61.7z"/><path fill="#35A7D5" d="M350.1 14.6h-61.9V8.5h61.9v6.1zm-61.7-.2h61.4V8.8h-61.4v5.6z"/></g><path fill="#fff" d="M299.5 12.3h.5v12.5h-.5zM305.7 12.3h.5v12.5h-.5zM312.1 12.3h.5v12.5h-.5zM318.8 12.3h.5v12.5h-.5zM324.7 12.3h.5v12.5h-.5zM331.3 12.3h.5v12.5h-.5zM338 12.3h.5v12.5h-.5zM293 12.3h.5v12.5h-.5z"/></g><path fill="#35A7D5" d="M314.8 58.5c-15.9 0-28.8-12.9-28.8-28.8S298.9.9 314.8.9s28.8 12.9 28.8 28.8-12.9 28.8-28.8 28.8zm0-54.5C300.6 4 289 15.6 289 29.8s11.6 25.8 25.8 25.8 25.8-11.6 25.8-25.8S329 4 314.8 4z"/><path fill="#fff" d="M308.5 48.1h-.8c-1.1.1-1.6.1-1.8.1l-.2-1h1.3c.2-.3.4-.6.5-.9h-2c-.1 1.3-.2 2.1-.4 3-.2 1-.4 1.6-.9 2.4-.3-.4-.6-.6-.9-1 .4-.7.6-1.2.8-2.1.2-1.2.3-2.7.3-5.2 0-.5 0-.9-.1-1.2.4.1.7.1 1.4.1h5.8c.5 0 .8 0 1.2-.1v2.6H305.5v.6h6.2c.7 0 .9 0 1.2-.1v1c-.3 0-.6-.1-1.1-.1h-.7c.4.4.9.9 1.6 1.7l-1 .6-.5-.7c-.6 0-.6 0-1.7.1v.9h3v1h-3v.8h2.3c.7 0 1 0 1.3-.1v1.1c-.4-.1-.7-.1-1.4-.1h-5.4c-.6 0-1 0-1.3.1v-1.1c.3 0 .6.1 1.2.1h2.2v-.8h-2.5v-1h2.7v-.7zm3.2-4.1v-.7h-6.1v.7h6.1zm-3 2.4c-.2.4-.3.6-.5.9.8 0 1.4 0 1.6-.1.1 0 .4 0 .8-.1-.2-.2-.3-.3-.6-.5l.5-.2h-1.8z"/><path fill="#003693" d="M304.5 53.8l-1.1-1.4c-.2-.3-.4-.5-.8-.8l-.8-.6.5-.8c.3-.6.5-1 .6-1.7.2-1.1.3-2.6.3-5 0-.5 0-.8-.1-1.1l-.2-1.5 1.5.2c.3 0 .6.1 1.2.1h6.8l1.4-.2-.1 1.4v1.7h.2v1.2h1.4l-1.4.7v1.8h-.1l.6.6-.9.5v.5l.7-.1V53l-1.3-.2c-.3 0-.5-.1-1.2-.1h-5.4c-.5 0-.9 0-1.2.1h-.2l-.4 1z"/><path fill="#fff" d="M316.5 45.2h1.6c.6-.8 1.2-1.8 1.6-2.6.2-.4.2-.4.3-.7l1.3.4c-.1.1-.1.1-.2.4-.5.9-1 1.7-1.5 2.4 2.3-.1 2.8-.1 4-.2-.5-.6-.8-.9-1.5-1.5l1-.6c1.3 1.2 1.9 1.9 3 3.4l-1.1.7c-.4-.5-.5-.7-.7-1.1-1.8.2-3.2.3-6.9.4-.2 0-.4 0-.6.1l-.3-1.1zm1 6.6c0-.4.1-.7.1-1.2v-2.4c0-.4 0-.7-.1-1H324.8c0 .3-.1.6-.1 1v2.4c0 .5 0 .8.1 1.2h-1.2v-.6h-4.9v.6h-1.2zm1.2-1.6h4.9v-1.9h-4.9v1.9z"/><path fill="#003693" d="M326.1 52.9h-3.6v-.6h-2.6v.6h-3.6l.1-1.3c0-.3.1-.6.1-1.1v-2.9l-.7.1-.6-3.8 1.5.1h.8c.4-.6.9-1.3 1.1-1.9.1-.3.1-.3.2-.5l.3-1.1 3.7 1.1v.1l.4-.2.6.6c1.3 1.3 2 2 3.1 3.5l.7.9-1.7 1.2v2.8c0 .5 0 .8.1 1.1l.1 1.3z"/><g fill="#fff"><path d="M308.5 48.1h-.8c-1.1.1-1.6.1-1.8.1l-.2-1h1.3c.2-.3.4-.6.5-.9h-2c-.1 1.3-.2 2.1-.4 3-.2 1-.4 1.6-.9 2.4-.3-.4-.6-.6-.9-1 .4-.7.6-1.2.8-2.1.2-1.2.3-2.7.3-5.2 0-.5 0-.9-.1-1.2.4.1.7.1 1.4.1h5.8c.5 0 .8 0 1.2-.1v2.6H305.5v.6h6.2c.7 0 .9 0 1.2-.1v1c-.3 0-.6-.1-1.1-.1h-.7c.4.4.9.9 1.6 1.7l-1 .6-.5-.7c-.6 0-.6 0-1.7.1v.9h3v1h-3v.8h2.3c.7 0 1 0 1.3-.1v1.1c-.4-.1-.7-.1-1.4-.1h-5.4c-.6 0-1 0-1.3.1v-1.1c.3 0 .6.1 1.2.1h2.2v-.8h-2.5v-1h2.7v-.7zm3.2-4.1v-.7h-6.1v.7h6.1zm-3 2.4c-.2.4-.3.6-.5.9.8 0 1.4 0 1.6-.1.1 0 .4 0 .8-.1-.2-.2-.3-.3-.6-.5l.5-.2h-1.8zM316.5 45.2h1.6c.6-.8 1.2-1.8 1.6-2.6.2-.4.2-.4.3-.7l1.3.4c-.1.1-.1.1-.2.4-.5.9-1 1.7-1.5 2.4 2.3-.1 2.8-.1 4-.2-.5-.6-.8-.9-1.5-1.5l1-.6c1.3 1.2 1.9 1.9 3 3.4l-1.1.7c-.4-.5-.5-.7-.7-1.1-1.8.2-3.2.3-6.9.4-.2 0-.4 0-.6.1l-.3-1.1zm1 6.6c0-.4.1-.7.1-1.2v-2.4c0-.4 0-.7-.1-1H324.8c0 .3-.1.6-.1 1v2.4c0 .5 0 .8.1 1.2h-1.2v-.6h-4.9v.6h-1.2zm1.2-1.6h4.9v-1.9h-4.9v1.9z"/></g><path fill="#35A7D5" d="M386.3 58.5c-15.9 0-28.8-12.9-28.8-28.8S370.4.9 386.3.9s28.8 12.9 28.8 28.8-12.9 28.8-28.8 28.8zm0-54.5c-14.2 0-25.8 11.6-25.8 25.8s11.6 25.8 25.8 25.8c14.2 0 25.8-11.6 25.8-25.8S400.5 4 386.3 4z"/><defs><circle id="g" cx="386.3" cy="29.7" r="27.3"/></defs><clipPath id="h"><use xlink:href="#g" overflow="visible"/></clipPath><g clip-path="url(#h)" fill="#35A7D5"><path d="M395.4 31.4c0 .4-.4 3-.4 3s-.4-2.7-.4-3c0-.4.2-.7.4-.7.3 0 .4.3.4.7zM395 35.7l-.2-1.2c0-.3-.4-2.7-.4-3.1 0-.5.3-.9.6-.9s.6.4.6.9c0 .4-.4 2.8-.4 3.1l-.2 1.2zm0-4.8c-.1 0-.2.2-.2.5 0 .2.1 1 .2 1.7.1-.8.2-1.6.2-1.7 0-.3-.1-.5-.2-.5zM393.3 31.6c.1.3.7 3 .7 3s-1.3-2.4-1.4-2.7c-.1-.3-.1-.7.2-.8.1-.1.4.1.5.5zM394.4 35.8l-.6-1.1c-.1-.2-1.3-2.4-1.4-2.7-.1-.2-.1-.4-.1-.6 0-.2.2-.4.3-.4.3-.1.7.2.9.6.1.4.6 2.7.7 3l.2 1.2zm-1.6-4.5c-.1 0-.1.1-.1.1v.4c.1.2.4.9.8 1.6-.2-.8-.3-1.5-.4-1.7-.1-.3-.2-.4-.3-.4zM391.4 32.5c.2.3 1.6 2.6 1.6 2.6s-2-1.8-2.3-2.1c-.2-.3-.3-.6-.1-.8.2-.1.6.1.8.3zM393.9 36.1l-.9-.8c-.2-.2-2-1.8-2.3-2.1-.2-.2-.3-.5-.3-.7 0-.1.1-.3.2-.3.2-.2.7-.1 1 .3.2.3 1.5 2.4 1.7 2.6l.6 1zm-3.1-3.7s0 .1 0 0c-.1.2-.1.4.1.5.1.1.7.7 1.3 1.2-.4-.7-.8-1.3-.9-1.5-.2-.1-.4-.2-.5-.2zM389.9 34.1c.3.2 2.4 1.9 2.4 1.9s-2.5-1-2.8-1.2c-.3-.2-.5-.5-.4-.7.2-.2.5-.2.8 0zM393.4 36.6l-1.2-.5c-.3-.1-2.5-1-2.9-1.2-.2-.1-.4-.4-.5-.6v-.4c.2-.3.6-.3 1-.1.3.2 2.2 1.7 2.4 1.9l1.2.9zm-3.9-2.5c-.1 0-.1 0-.2.1v.1c0 .1.1.2.3.3.2.1.9.4 1.6.7-.6-.5-1.2-1-1.4-1.1-.1 0-.2-.1-.3-.1zM389.1 36c.4.1 2.9.9 2.9.9s-2.7-.1-3.1-.1c-.4-.1-.6-.3-.6-.5.1-.2.4-.3.8-.3zM393.2 37.2H392c-.3 0-2.7-.1-3.1-.1-.3 0-.5-.2-.7-.4-.1-.1-.1-.2-.1-.4.1-.3.5-.5 1-.4.4.1 2.7.8 2.9.9l1.2.4zm-4.3-1c-.2 0-.3.1-.4.1v.1c.1.1.2.2.4.2s1 .1 1.7.1c-.7-.2-1.5-.5-1.7-.5.1 0 0 0 0 0zM388.9 38.2c.4-.1 3.1-.1 3.1-.1s-2.6.9-2.9.9c-.4.1-.7-.1-.7-.3-.1-.2.2-.5.5-.5zM388.9 39.2c-.4 0-.7-.2-.7-.5 0-.1 0-.2.1-.4s.4-.3.7-.4c.4-.1 2.8-.1 3.1-.1h1.2l-1.2.4c-.3.1-2.6.9-2.9.9-.2.1-.3.1-.3.1zm1.8-.9c-.8 0-1.6.1-1.7.1-.2 0-.4.1-.4.2v.1c0 .1.2.2.5.1.1-.1.9-.3 1.6-.5zM389.5 40.2c.3-.2 2.8-1.2 2.8-1.2s-2.1 1.7-2.4 1.9c-.3.2-.7.2-.8 0-.1-.2.1-.5.4-.7zM389.5 41.2c-.2 0-.4-.1-.5-.2-.1-.1-.1-.2 0-.4s.2-.4.5-.6c.3-.2 2.6-1.1 2.9-1.2l1.2-.5-1 .8c-.2.2-2.1 1.7-2.4 1.9-.4.2-.6.2-.7.2zm1.7-1.5c-.7.3-1.5.6-1.6.7-.2.1-.3.3-.3.3v.1c0 .1.3.1.5-.1.2 0 .8-.5 1.4-1zM390.8 41.9c.2-.3 2.3-2.1 2.3-2.1s-1.4 2.3-1.6 2.6c-.2.3-.6.4-.7.3-.3-.1-.3-.5 0-.8zM390.8 43c-.1 0-.2 0-.3-.1-.1-.1-.2-.2-.2-.3 0-.2.1-.5.3-.7.2-.3 2.1-1.9 2.3-2.1l.9-.8-.7 1.1c-.1.2-1.4 2.3-1.7 2.6-.1.1-.3.3-.6.3zm1.4-2.1c-.6.5-1.2 1.1-1.3 1.2-.1.2-.2.3-.2.4v.1c.1.1.3 0 .5-.2s.6-.9 1-1.5zM392.6 43.1c.1-.3 1.4-2.7 1.4-2.7s-.5 2.6-.7 3c-.1.3-.4.6-.6.5-.2-.1-.3-.4-.1-.8zM392.8 44.1h-.2c-.2-.1-.3-.2-.3-.4s0-.4.1-.6c.1-.4 1.3-2.5 1.4-2.7l.6-1.1-.2 1.2c-.1.3-.5 2.7-.7 3-.1.3-.4.6-.7.6zm.7-2.5c-.4.7-.7 1.4-.8 1.6 0 .1-.1.3 0 .4 0 .1 0 .1.1.1s.2-.1.3-.4c.1-.1.3-.9.4-1.7zM394.6 43.6c0-.4.4-3 .4-3s.4 2.7.4 3c0 .4-.2.7-.4.7s-.4-.3-.4-.7zM395 44.5c-.3 0-.6-.4-.6-.9 0-.4.4-2.8.4-3.1l.2-1.2.2 1.2c0 .3.4 2.7.4 3.1 0 .5-.2.9-.6.9zm0-2.6c-.1.8-.2 1.6-.2 1.7 0 .3.1.5.2.5s.2-.2.2-.5c0-.1-.1-.9-.2-1.7zM396.7 43.4c-.1-.3-.7-3-.7-3s1.3 2.4 1.4 2.7c.1.3.1.7-.1.8-.2.1-.4-.2-.6-.5zM397.3 44.1c-.3 0-.6-.3-.7-.6-.1-.4-.6-2.7-.7-3l-.2-1.2.6 1.1c.1.2 1.3 2.4 1.4 2.7.1.2.1.4.1.6 0 .2-.2.4-.3.4h-.2zm-.8-2.5c.2.8.3 1.5.4 1.7.1.3.3.4.4.4l.1-.1v-.4c-.1-.2-.5-.9-.9-1.6zM398.7 42.5c-.2-.3-1.6-2.6-1.6-2.6s2 1.8 2.3 2.1c.2.3.3.6.1.8-.3.1-.6-.1-.8-.3zM399.2 43c-.2 0-.5-.1-.7-.4-.2-.3-1.5-2.4-1.7-2.6l-.6-1.1.9.8c.2.2 2 1.8 2.3 2.1.2.2.3.5.3.7 0 .1-.1.3-.2.3-.1.1-.2.2-.3.2zm-1.3-2.1c.4.7.8 1.3.9 1.5.2.2.4.3.5.2v-.1c0-.1 0-.3-.2-.4-.1-.2-.7-.7-1.2-1.2zM400.1 40.9c-.3-.2-2.4-1.9-2.4-1.9s2.5 1 2.8 1.2c.3.2.5.5.4.7-.1.2-.4.2-.8 0zM400.6 41.2c-.2 0-.4-.1-.6-.2-.3-.2-2.2-1.7-2.4-1.9l-1-.8 1.2.5c.3.1 2.5 1 2.9 1.2.2.1.4.4.5.6v.4c-.2.1-.4.2-.6.2zm-1.8-1.5c.6.5 1.2 1 1.4 1.1.2.1.5.1.5.1v-.1c0-.1-.1-.2-.3-.3-.1-.2-.8-.5-1.6-.8zM401 39c-.4-.1-2.9-.9-2.9-.9s2.7.1 3.1.1c.4.1.6.3.6.5-.1.2-.4.3-.8.3zM401.2 39.2h-.2c-.4-.1-2.7-.8-2.9-.9l-1.2-.4h1.2c.3 0 2.7.1 3.1.1.3 0 .5.2.7.4.1.1.1.2.1.4-.1.2-.4.4-.8.4zm-1.8-.9c.7.2 1.5.5 1.7.5.3 0 .5-.1.5-.1v-.1c-.1-.1-.2-.2-.4-.2-.3-.1-1.1-.1-1.8-.1zM401.1 36.8c-.4.1-3.1.1-3.1.1s2.6-.9 2.9-.9c.4-.1.7.1.7.3.2.2-.1.5-.5.5zM396.8 37.2l1.2-.4c.3-.1 2.6-.9 2.9-.9.5-.1.9.1 1 .4 0 .1 0 .2-.1.4s-.4.3-.7.4c-.4.1-2.8.1-3.1.1h-1.2zm4.4-1h-.2c-.2 0-.9.3-1.7.5.8 0 1.6-.1 1.7-.1.2 0 .4-.1.4-.2v-.1c.1 0 0-.1-.2-.1zM400.5 34.8c-.3.2-2.8 1.2-2.8 1.2s2.1-1.7 2.4-1.9c.3-.2.7-.2.8 0 .1.2 0 .5-.4.7zM396.6 36.6l1-.8c.2-.2 2.1-1.7 2.4-1.9.4-.2.9-.2 1 .1.1.1.1.2 0 .4s-.2.4-.5.6c-.3.2-2.6 1.1-2.9 1.2l-1 .4zm4-2.5c-.1 0-.2 0-.4.1s-.8.6-1.4 1.1c.7-.3 1.5-.6 1.6-.7.2-.1.3-.3.3-.3v-.1s0-.1-.1-.1zM399.3 33.1c-.2.3-2.3 2.1-2.3 2.1s1.4-2.3 1.6-2.6c.2-.3.6-.4.7-.3.3.1.2.5 0 .8zM396.2 36.1l.6-1.1c.1-.2 1.4-2.3 1.7-2.6.3-.4.8-.5 1-.3.1.1.2.2.2.3 0 .2-.1.5-.3.7-.2.3-2.1 1.9-2.3 2.1l-.9.9zm3-3.7c-.1 0-.3.1-.4.2-.1.1-.5.8-.9 1.5.6-.5 1.2-1.1 1.3-1.2.1-.1.1-.3 0-.5.1.1.1 0 0 0 .1 0 0 0 0 0zM397.5 31.9c-.1.3-1.4 2.7-1.4 2.7s.5-2.6.7-3c.1-.3.4-.6.6-.5.2.1.2.4.1.8zM395.7 35.8l.2-1.2c.1-.3.5-2.7.7-3 .2-.4.5-.7.9-.6.2.1.3.2.3.4s0 .4-.1.6c-.1.4-1.3 2.5-1.4 2.7l-.6 1.1zm1.6-4.5c-.1 0-.3.1-.4.4-.1.2-.2.9-.4 1.7.4-.7.7-1.4.8-1.6 0-.1.1-.3 0-.4.1-.1 0-.1 0-.1zM395.4 31.4c0 .4-.4 3-.4 3s-.4-2.7-.4-3c0-.4.2-.7.4-.7.3 0 .4.3.4.7zM395 35.7l-.2-1.2c0-.3-.4-2.7-.4-3.1 0-.5.3-.9.6-.9s.6.4.6.9c0 .4-.4 2.8-.4 3.1l-.2 1.2zm0-4.8c-.1 0-.2.2-.2.5 0 .2.1 1 .2 1.7.1-.8.2-1.6.2-1.7 0-.3-.1-.5-.2-.5zM393.3 31.6c.1.3.7 3 .7 3s-1.3-2.4-1.4-2.7c-.1-.3-.1-.7.2-.8.1-.1.4.1.5.5zM394.4 35.8l-.6-1.1c-.1-.2-1.3-2.4-1.4-2.7-.1-.2-.1-.4-.1-.6 0-.2.2-.4.3-.4.3-.1.7.2.9.6.1.4.6 2.7.7 3l.2 1.2zm-1.6-4.5c-.1 0-.1.1-.1.1v.4c.1.2.4.9.8 1.6-.2-.8-.3-1.5-.4-1.7-.1-.3-.2-.4-.3-.4zM391.4 32.5c.2.3 1.6 2.6 1.6 2.6s-2-1.8-2.3-2.1c-.2-.3-.3-.6-.1-.8.2-.1.6.1.8.3zM393.9 36.1l-.9-.8c-.2-.2-2-1.8-2.3-2.1-.2-.2-.3-.5-.3-.7 0-.1.1-.3.2-.3.2-.2.7-.1 1 .3.2.3 1.5 2.4 1.7 2.6l.6 1zm-3.1-3.7s0 .1 0 0c-.1.2-.1.4.1.5.1.1.7.7 1.3 1.2-.4-.7-.8-1.3-.9-1.5-.2-.1-.4-.2-.5-.2zM389.9 34.1c.3.2 2.4 1.9 2.4 1.9s-2.5-1-2.8-1.2c-.3-.2-.5-.5-.4-.7.2-.2.5-.2.8 0zM393.4 36.6l-1.2-.5c-.3-.1-2.5-1-2.9-1.2-.2-.1-.4-.4-.5-.6v-.4c.2-.3.6-.3 1-.1.3.2 2.2 1.7 2.4 1.9l1.2.9zm-3.9-2.5c-.1 0-.1 0-.2.1v.1c0 .1.1.2.3.3.2.1.9.4 1.6.7-.6-.5-1.2-1-1.4-1.1-.1 0-.2-.1-.3-.1zM389.1 36c.4.1 2.9.9 2.9.9s-2.7-.1-3.1-.1c-.4-.1-.6-.3-.6-.5.1-.2.4-.3.8-.3zM393.2 37.2H392c-.3 0-2.7-.1-3.1-.1-.3 0-.5-.2-.7-.4-.1-.1-.1-.2-.1-.4.1-.3.5-.5 1-.4.4.1 2.7.8 2.9.9l1.2.4zm-4.3-1c-.2 0-.3.1-.4.1v.1c.1.1.2.2.4.2s1 .1 1.7.1c-.7-.2-1.5-.5-1.7-.5.1 0 0 0 0 0zM388.9 38.2c.4-.1 3.1-.1 3.1-.1s-2.6.9-2.9.9c-.4.1-.7-.1-.7-.3-.1-.2.2-.5.5-.5zM388.9 39.2c-.4 0-.7-.2-.7-.5 0-.1 0-.2.1-.4s.4-.3.7-.4c.4-.1 2.8-.1 3.1-.1h1.2l-1.2.4c-.3.1-2.6.9-2.9.9-.2.1-.3.1-.3.1zm1.8-.9c-.8 0-1.6.1-1.7.1-.2 0-.4.1-.4.2v.1c0 .1.2.2.5.1.1-.1.9-.3 1.6-.5zM389.5 40.2c.3-.2 2.8-1.2 2.8-1.2s-2.1 1.7-2.4 1.9c-.3.2-.7.2-.8 0-.1-.2.1-.5.4-.7zM389.5 41.2c-.2 0-.4-.1-.5-.2-.1-.1-.1-.2 0-.4s.2-.4.5-.6c.3-.2 2.6-1.1 2.9-1.2l1.2-.5-1 .8c-.2.2-2.1 1.7-2.4 1.9-.4.2-.6.2-.7.2zm1.7-1.5c-.7.3-1.5.6-1.6.7-.2.1-.3.3-.3.3v.1c0 .1.3.1.5-.1.2 0 .8-.5 1.4-1zM390.8 41.9c.2-.3 2.3-2.1 2.3-2.1s-1.4 2.3-1.6 2.6c-.2.3-.6.4-.7.3-.3-.1-.3-.5 0-.8zM390.8 43c-.1 0-.2 0-.3-.1-.1-.1-.2-.2-.2-.3 0-.2.1-.5.3-.7.2-.3 2.1-1.9 2.3-2.1l.9-.8-.7 1.1c-.1.2-1.4 2.3-1.7 2.6-.1.1-.3.3-.6.3zm1.4-2.1c-.6.5-1.2 1.1-1.3 1.2-.1.2-.2.3-.2.4v.1c.1.1.3 0 .5-.2s.6-.9 1-1.5zM392.6 43.1c.1-.3 1.4-2.7 1.4-2.7s-.5 2.6-.7 3c-.1.3-.4.6-.6.5-.2-.1-.3-.4-.1-.8zM392.8 44.1h-.2c-.2-.1-.3-.2-.3-.4s0-.4.1-.6c.1-.4 1.3-2.5 1.4-2.7l.6-1.1-.2 1.2c-.1.3-.5 2.7-.7 3-.1.3-.4.6-.7.6zm.7-2.5c-.4.7-.7 1.4-.8 1.6 0 .1-.1.3 0 .4 0 .1 0 .1.1.1s.2-.1.3-.4c.1-.1.3-.9.4-1.7zM394.6 43.6c0-.4.4-3 .4-3s.4 2.7.4 3c0 .4-.2.7-.4.7s-.4-.3-.4-.7zM395 44.5c-.3 0-.6-.4-.6-.9 0-.4.4-2.8.4-3.1l.2-1.2.2 1.2c0 .3.4 2.7.4 3.1 0 .5-.2.9-.6.9zm0-2.6c-.1.8-.2 1.6-.2 1.7 0 .3.1.5.2.5s.2-.2.2-.5c0-.1-.1-.9-.2-1.7zM396.7 43.4c-.1-.3-.7-3-.7-3s1.3 2.4 1.4 2.7c.1.3.1.7-.1.8-.2.1-.4-.2-.6-.5zM397.3 44.1c-.3 0-.6-.3-.7-.6-.1-.4-.6-2.7-.7-3l-.2-1.2.6 1.1c.1.2 1.3 2.4 1.4 2.7.1.2.1.4.1.6 0 .2-.2.4-.3.4h-.2zm-.8-2.5c.2.8.3 1.5.4 1.7.1.3.3.4.4.4l.1-.1v-.4c-.1-.2-.5-.9-.9-1.6zM398.7 42.5c-.2-.3-1.6-2.6-1.6-2.6s2 1.8 2.3 2.1c.2.3.3.6.1.8-.3.1-.6-.1-.8-.3zM399.2 43c-.2 0-.5-.1-.7-.4-.2-.3-1.5-2.4-1.7-2.6l-.6-1.1.9.8c.2.2 2 1.8 2.3 2.1.2.2.3.5.3.7 0 .1-.1.3-.2.3-.1.1-.2.2-.3.2zm-1.3-2.1c.4.7.8 1.3.9 1.5.2.2.4.3.5.2v-.1c0-.1 0-.3-.2-.4-.1-.2-.7-.7-1.2-1.2zM400.1 40.9c-.3-.2-2.4-1.9-2.4-1.9s2.5 1 2.8 1.2c.3.2.5.5.4.7-.1.2-.4.2-.8 0zM400.6 41.2c-.2 0-.4-.1-.6-.2-.3-.2-2.2-1.7-2.4-1.9l-1-.8 1.2.5c.3.1 2.5 1 2.9 1.2.2.1.4.4.5.6v.4c-.2.1-.4.2-.6.2zm-1.8-1.5c.6.5 1.2 1 1.4 1.1.2.1.5.1.5.1v-.1c0-.1-.1-.2-.3-.3-.1-.2-.8-.5-1.6-.8zM401 39c-.4-.1-2.9-.9-2.9-.9s2.7.1 3.1.1c.4.1.6.3.6.5-.1.2-.4.3-.8.3zM401.2 39.2h-.2c-.4-.1-2.7-.8-2.9-.9l-1.2-.4h1.2c.3 0 2.7.1 3.1.1.3 0 .5.2.7.4.1.1.1.2.1.4-.1.2-.4.4-.8.4zm-1.8-.9c.7.2 1.5.5 1.7.5.3 0 .5-.1.5-.1v-.1c-.1-.1-.2-.2-.4-.2-.3-.1-1.1-.1-1.8-.1zM401.1 36.8c-.4.1-3.1.1-3.1.1s2.6-.9 2.9-.9c.4-.1.7.1.7.3.2.2-.1.5-.5.5zM396.8 37.2l1.2-.4c.3-.1 2.6-.9 2.9-.9.5-.1.9.1 1 .4 0 .1 0 .2-.1.4s-.4.3-.7.4c-.4.1-2.8.1-3.1.1h-1.2zm4.4-1h-.2c-.2 0-.9.3-1.7.5.8 0 1.6-.1 1.7-.1.2 0 .4-.1.4-.2v-.1c.1 0 0-.1-.2-.1zM400.5 34.8c-.3.2-2.8 1.2-2.8 1.2s2.1-1.7 2.4-1.9c.3-.2.7-.2.8 0 .1.2 0 .5-.4.7zM396.6 36.6l1-.8c.2-.2 2.1-1.7 2.4-1.9.4-.2.9-.2 1 .1.1.1.1.2 0 .4s-.2.4-.5.6c-.3.2-2.6 1.1-2.9 1.2l-1 .4zm4-2.5c-.1 0-.2 0-.4.1s-.8.6-1.4 1.1c.7-.3 1.5-.6 1.6-.7.2-.1.3-.3.3-.3v-.1s0-.1-.1-.1zM399.3 33.1c-.2.3-2.3 2.1-2.3 2.1s1.4-2.3 1.6-2.6c.2-.3.6-.4.7-.3.3.1.2.5 0 .8zM396.2 36.1l.6-1.1c.1-.2 1.4-2.3 1.7-2.6.3-.4.8-.5 1-.3.1.1.2.2.2.3 0 .2-.1.5-.3.7-.2.3-2.1 1.9-2.3 2.1l-.9.9zm3-3.7c-.1 0-.3.1-.4.2-.1.1-.5.8-.9 1.5.6-.5 1.2-1.1 1.3-1.2.1-.1.1-.3 0-.5.1.1.1 0 0 0 .1 0 0 0 0 0zM397.5 31.9c-.1.3-1.4 2.7-1.4 2.7s.5-2.6.7-3c.1-.3.4-.6.6-.5.2.1.2.4.1.8zM395.7 35.8l.2-1.2c.1-.3.5-2.7.7-3 .2-.4.5-.7.9-.6.2.1.3.2.3.4s0 .4-.1.6c-.1.4-1.3 2.5-1.4 2.7l-.6 1.1zm1.6-4.5c-.1 0-.3.1-.4.4-.1.2-.2.9-.4 1.7.4-.7.7-1.4.8-1.6 0-.1.1-.3 0-.4.1-.1 0-.1 0-.1zM395.4 19.9c0 .4-.4 3-.4 3s-.4-2.7-.4-3c0-.4.2-.7.4-.7.3.1.4.4.4.7zM395 24.2l-.2-1.2c0-.3-.4-2.7-.4-3.1 0-.5.3-.9.6-.9s.6.4.6.9c0 .4-.4 2.8-.4 3.1l-.2 1.2zm0-4.8c-.1 0-.2.2-.2.5 0 .2.1 1 .2 1.7.1-.8.2-1.6.2-1.7 0-.3-.1-.5-.2-.5zM392.4 20.1c.1.4.1 3.1.1 3.1s-.9-2.6-.9-2.9c-.1-.4.1-.7.3-.7.2-.1.4.2.5.5zM392.7 24.4l-.4-1.2c-.1-.3-.9-2.6-.9-2.9 0-.3 0-.6.1-.7.1-.1.2-.2.3-.2h.1c.3 0 .6.3.7.8.1.4.1 2.8.1 3.1v1.1zm-.8-4.7s-.1.1 0 0c-.1.1-.2.3-.1.5 0 .2.3.9.5 1.7 0-.8-.1-1.6-.1-1.7-.1-.3-.2-.5-.3-.5zM389.4 20.9c.1.3.7 3 .7 3s-1.3-2.4-1.4-2.7c-.1-.3-.1-.7.2-.8.1-.1.4.1.5.5zM390.5 25l-.6-1.1c-.1-.2-1.3-2.4-1.4-2.7-.2-.5 0-.9.3-1 .3-.1.7.2.9.6.1.4.6 2.7.7 3l.1 1.2zm-1.6-4.5c-.1 0-.2.3-.1.5s.4.9.8 1.6c-.2-.8-.3-1.5-.4-1.7-.1-.2-.2-.4-.3-.4zM386.6 22.1c.2.3 1.2 2.8 1.2 2.8s-1.7-2.1-1.9-2.4c-.2-.3-.2-.7 0-.8.2-.1.5.1.7.4zM388.4 26l-.8-1c-.2-.2-1.7-2.1-1.9-2.4-.2-.4-.2-.9.1-1 .3-.2.7 0 .9.4.2.3 1.1 2.6 1.2 2.9l.5 1.1zm-2.4-4.1c-.1.1-.1.3 0 .5s.6.8 1.1 1.4c-.3-.7-.6-1.5-.7-1.6-.1-.2-.3-.3-.4-.3zM384.1 23.8c.2.3 1.6 2.6 1.6 2.6s-2-1.8-2.3-2.1c-.2-.3-.3-.6-.1-.8.2-.1.5 0 .8.3zM386.5 27.3l-.9-.8c-.2-.2-2-1.8-2.3-2.1-.3-.4-.4-.8-.1-1 .2-.2.7-.1 1 .3.2.3 1.5 2.4 1.7 2.6l.6 1zm-3-3.6s-.1 0 0 0c-.1.1-.1.3.1.5.1.1.7.7 1.3 1.2-.4-.7-.8-1.3-.9-1.5-.2-.2-.4-.2-.5-.2zM381.8 25.9c.3.2 2.1 2.3 2.1 2.3s-2.3-1.4-2.6-1.6c-.3-.2-.4-.6-.3-.7.2-.3.6-.2.8 0zM384.9 29l-1.1-.6c-.2-.1-2.3-1.4-2.6-1.7-.2-.1-.3-.3-.3-.5-.1-.2 0-.4.1-.5.2-.2.7-.2 1 .1.3.2 1.9 2.1 2.1 2.3l.8.9zm-3.6-3.1h-.1v.2c0 .1.1.2.2.3.1.1.8.5 1.5.9-.5-.6-1.1-1.2-1.2-1.3-.1-.1-.3-.1-.4-.1zM380 28.4c.3.2 2.4 1.9 2.4 1.9s-2.5-1-2.8-1.2c-.3-.2-.5-.5-.4-.7.1-.2.5-.2.8 0zM383.5 30.9l-1.2-.5c-.3-.1-2.5-1-2.9-1.2-.4-.2-.6-.7-.4-.9.2-.3.6-.3 1-.1.3.2 2.2 1.7 2.4 1.9l1.1.8zm-3.9-2.5c-.1 0-.1 0-.2.1 0 .1.1.3.3.4.2.1.9.4 1.6.7-.6-.5-1.2-1-1.4-1.1-.1 0-.2-.1-.3-.1zM378.7 31.1c.3.1 2.7 1.4 2.7 1.4s-2.6-.5-3-.7c-.3-.1-.6-.4-.5-.6.1-.2.4-.2.8-.1zM382.6 33l-1.2-.2c-.3-.1-2.7-.5-3-.7-.3-.1-.5-.3-.6-.5-.1-.1-.1-.3 0-.4.1-.3.6-.4 1-.3.4.1 2.5 1.3 2.7 1.4l1.1.7zm-4.3-1.8c-.1 0-.2 0-.2.1v.1c0 .1.2.2.4.3.2.1.9.2 1.7.4-.7-.4-1.4-.7-1.6-.8-.1 0-.2-.1-.3-.1zM377.8 34c.4.1 2.9.9 2.9.9s-2.7-.1-3.1-.1c-.4-.1-.6-.3-.6-.5.1-.2.4-.3.8-.3zM382 35.2h-1.2c-.3 0-2.7-.1-3.1-.1-.2 0-.4-.1-.5-.2-.2-.1-.2-.3-.2-.5.1-.3.5-.5 1-.4.4.1 2.7.8 2.9.9l1.1.3zm-4.4-1c-.2 0-.3.1-.4.1 0 0 0 .1.1.1.1.1.2.1.4.2.2 0 1 .1 1.7.1-.7-.2-1.5-.5-1.7-.5h-.1zM377.5 37.1c.4 0 3 .4 3 .4s-2.7.4-3 .4c-.4 0-.7-.2-.7-.4s.3-.4.7-.4zM377.5 38.1c-.5 0-.9-.3-.9-.6s.4-.6.9-.6c.4 0 2.8.4 3.1.4l1.2.2-1.2.2c-.3 0-2.8.4-3.1.4zm0-.8c-.3 0-.5.1-.5.2s.2.2.5.2c.2 0 1-.1 1.7-.2-.8-.1-1.6-.2-1.7-.2zM377.7 40.1c.4-.1 3.1-.1 3.1-.1s-2.6.9-2.9.9c-.4.1-.7-.1-.7-.3-.2-.2.1-.4.5-.5zM377.6 41.2c-.4 0-.7-.2-.7-.5 0-.2 0-.4.2-.5.1-.1.3-.2.5-.2.4-.1 2.8-.1 3.1-.1h1.2l-1.2.4c-.3.1-2.6.9-2.9.9 0-.1-.1 0-.2 0zm1.8-1c-.8 0-1.6.1-1.7.1-.1 0-.3.1-.4.2-.1 0-.1.1-.1.1 0 .1.2.2.5.1.2 0 1-.2 1.7-.5zM378.4 43.1c.3-.1 3-.7 3-.7s-2.4 1.3-2.7 1.4c-.3.1-.7.1-.8-.1-.1-.2.1-.4.5-.6zM378.3 44.1c-.3 0-.5-.1-.6-.3v-.4c.1-.2.3-.4.6-.5.4-.1 2.7-.6 3-.7l1.2-.2-1.1.6c-.2.1-2.4 1.3-2.7 1.4-.1.1-.2.1-.4.1zm1.9-1.2c-.8.2-1.5.3-1.7.4-.2.1-.3.2-.4.3v.1c0 .1.3.1.5 0s.9-.4 1.6-.8zM379.6 45.9c.3-.2 2.8-1.2 2.8-1.2s-2.1 1.7-2.4 1.9c-.3.2-.7.2-.8 0-.1-.2.1-.5.4-.7zM379.6 47c-.2 0-.4-.1-.5-.2-.2-.3 0-.7.4-.9.3-.2 2.6-1.1 2.9-1.2l1.2-.5-1 .8c-.2.2-2.1 1.7-2.4 1.9-.3 0-.5.1-.6.1zm1.7-1.6c-.7.3-1.5.6-1.6.7-.3.1-.4.4-.3.4 0 .1.3.1.5-.1.2 0 .8-.5 1.4-1zM381.3 48.5c.3-.2 2.6-1.6 2.6-1.6s-1.8 2-2.1 2.3c-.3.2-.6.3-.8.1-.1-.3 0-.6.3-.8zM381.3 49.5c-.2 0-.3-.1-.4-.2-.2-.3-.1-.7.3-1 .3-.2 2.4-1.5 2.6-1.7l1.1-.6-.9 1c-.2.2-1.8 2-2.1 2.3-.1.1-.4.2-.6.2zm1.6-1.8c-.7.4-1.3.8-1.5.9-.2.2-.3.4-.2.5h.1c.1 0 .3-.1.4-.2l1.2-1.2zM383.4 50.7c.2-.3 2.3-2.1 2.3-2.1s-1.4 2.3-1.6 2.6c-.2.3-.6.4-.7.3-.3-.2-.2-.5 0-.8zM383.5 51.7c-.1 0-.2 0-.3-.1-.1-.1-.2-.2-.2-.3 0-.2.1-.5.3-.7.2-.3 2.1-1.9 2.3-2.1l.9-.8-.7 1.1c-.1.2-1.4 2.3-1.7 2.6-.1.2-.4.3-.6.3zm1.4-2.1c-.6.5-1.2 1.1-1.3 1.2-.1.2-.2.3-.2.4v.1c.1.1.3 0 .5-.2.1-.1.5-.8 1-1.5zM385.9 52.5c.2-.3 1.9-2.4 1.9-2.4s-1 2.5-1.2 2.8c-.2.3-.5.5-.7.4-.2-.1-.2-.5 0-.8zM386 53.5c-.1 0-.2 0-.2-.1-.1-.1-.2-.2-.2-.3-.1-.2 0-.5.1-.7.2-.3 1.7-2.2 1.9-2.4l.8-1-.5 1.2c-.1.3-1 2.5-1.2 2.9-.1.2-.4.4-.7.4zm1.1-2.3c-.5.6-1 1.2-1.1 1.4-.1.2-.1.4-.1.5v.1c.1 0 .3-.1.4-.3.2-.2.5-1 .8-1.7zM388.6 53.9c.1-.3 1.4-2.7 1.4-2.7s-.5 2.6-.7 3c-.1.3-.4.6-.6.5s-.2-.5-.1-.8zM388.9 54.8h-.2c-.1 0-.2-.1-.3-.3-.1-.2-.1-.5 0-.8.1-.4 1.3-2.5 1.4-2.7l.6-1.1-.2 1.2c-.1.3-.5 2.7-.7 3-.1.5-.3.7-.6.7zm.7-2.4c-.4.7-.7 1.4-.8 1.6-.1.2-.1.4 0 .5 0 0 0 .1.1.1s.2-.1.3-.4c.1-.3.3-1.1.4-1.8zM391.6 54.7c.1-.4.9-2.9.9-2.9s-.1 2.7-.1 3.1c-.1.4-.3.6-.5.6-.3-.1-.4-.4-.3-.8zM391.9 55.6c-.2 0-.4-.2-.5-.4-.1-.2-.1-.4 0-.6.1-.4.8-2.7.9-2.9l.4-1.2v1.2c0 .3-.1 2.7-.1 3.1-.1.5-.4.8-.7.8zm.4-2.5c-.2.7-.5 1.5-.5 1.7v.4c0 .1.1.1.1.1.1 0 .2-.2.3-.4 0-.2.1-1 .1-1.8zM394.6 55.1c0-.4.4-3 .4-3s.4 2.7.4 3c0 .4-.2.7-.4.7-.2-.1-.4-.4-.4-.7zM395 55.9c-.3 0-.6-.4-.6-.9 0-.4.4-2.8.4-3.1l.2-1.2.2 1.2c0 .3.4 2.7.4 3.1 0 .5-.2.9-.6.9zm0-2.6c-.1.8-.2 1.6-.2 1.7 0 .3.1.5.2.5s.2-.2.2-.5c0-.1-.1-.9-.2-1.7zM397.7 54.9c-.1-.4-.1-3.1-.1-3.1s.9 2.6.9 2.9c.1.4-.1.7-.3.7-.2.1-.5-.2-.5-.5zM398.2 55.6c-.3 0-.6-.3-.7-.8-.1-.4-.1-2.8-.1-3.1v-1.2l.4 1.2c.1.3.9 2.6.9 2.9.1.3 0 .6-.1.7-.1.2-.2.3-.4.3zm-.4-2.5c0 .8.1 1.6.1 1.7 0 .3.2.4.3.4v.2-.2s.1 0 .1-.1c.1-.1.1-.2.1-.5-.1 0-.4-.8-.6-1.5zM400.7 54.1c-.1-.3-.7-3-.7-3s1.3 2.4 1.4 2.7c.1.3.1.7-.2.8-.1.1-.4-.1-.5-.5zM401.2 54.8c-.3 0-.6-.3-.7-.6-.1-.4-.6-2.7-.7-3l-.2-1.2.6 1.1c.1.2 1.3 2.4 1.4 2.7.1.2.1.4.1.6 0 .2-.2.4-.3.4h-.2zm-.8-2.4c.2.8.3 1.5.4 1.7.1.3.3.4.4.4l.1-.1V54c-.1-.2-.5-.9-.9-1.6zM403.5 52.9c-.2-.3-1.2-2.8-1.2-2.8s1.7 2.1 1.9 2.4c.2.3.2.7 0 .8-.2.1-.5-.1-.7-.4zM404 53.5c-.3 0-.5-.2-.7-.5-.2-.3-1.1-2.6-1.2-2.9l-.5-1.2.8 1c.2.2 1.7 2.1 1.9 2.4.1.2.2.5.1.7 0 .1-.1.2-.2.3 0 .2-.1.2-.2.2zm-1.1-2.3c.3.7.6 1.5.7 1.6.1.2.4.4.4.3V53c0-.1 0-.3-.1-.5 0-.1-.5-.7-1-1.3zM406 51.2c-.2-.3-1.6-2.6-1.6-2.6s2 1.8 2.3 2.1c.2.3.3.6.1.8-.2.1-.5 0-.8-.3zM406.6 51.7c-.2 0-.5-.1-.7-.4-.2-.3-1.5-2.4-1.7-2.6l-.6-1.1.9.8c.2.2 2 1.8 2.3 2.1.1.2.2.4.3.5 0 .2 0 .4-.2.5-.1.2-.2.2-.3.2zm-1.4-2.1c.4.7.8 1.3.9 1.5.2.2.4.3.5.2v-.2c0-.1-.1-.2-.2-.3 0-.1-.6-.7-1.2-1.2zM408.2 49.1c-.3-.2-2.1-2.3-2.1-2.3s2.3 1.4 2.6 1.6c.3.2.4.6.3.7-.1.3-.5.2-.8 0zM408.8 49.5c-.2 0-.4-.1-.6-.3-.3-.2-1.9-2.1-2.1-2.3l-.8-.9 1.1.6c.2.1 2.3 1.4 2.6 1.7.2.2.4.4.4.6 0 .1 0 .3-.1.4-.2.1-.4.2-.5.2zm-1.6-1.8c.5.6 1.1 1.2 1.2 1.3.1.1.3.2.4.2h.1v-.1c0-.1-.1-.2-.2-.4-.2-.2-.9-.6-1.5-1zM410 46.6c-.3-.2-2.4-1.9-2.4-1.9s2.5 1 2.8 1.2c.3.2.5.5.4.7-.1.2-.4.2-.8 0zM410.5 47c-.2 0-.4-.1-.6-.2-.3-.2-2.2-1.7-2.4-1.9l-1-.8 1.2.5c.3.1 2.5 1 2.9 1.2.2.1.4.4.5.6v.4c-.2.1-.4.2-.6.2zm-1.8-1.6c.6.5 1.2 1 1.4 1.1.2.1.5.1.5.1v-.1c0-.1-.1-.2-.3-.3-.1-.2-.8-.5-1.6-.8zM411.4 43.9c-.3-.1-2.7-1.4-2.7-1.4s2.6.5 3 .7c.3.1.6.4.5.6-.1.1-.5.2-.8.1zM411.7 44.1c-.1 0-.3 0-.4-.1-.4-.1-2.5-1.3-2.7-1.4l-1.1-.6 1.2.2c.3.1 2.7.5 3 .7.3.1.5.3.6.5.1.1.1.3 0 .4 0 .2-.3.3-.6.3zm-1.8-1.2c.7.4 1.4.7 1.6.8.2.1.5 0 .5 0v-.1c0-.1-.2-.2-.4-.3-.2-.1-.9-.2-1.7-.4zM412.3 40.9c-.4-.1-2.9-.9-2.9-.9s2.7.1 3.1.1c.4.1.6.3.6.5-.1.3-.5.4-.8.3zM412.5 41.2h-.2c-.4-.1-2.7-.8-2.9-.9l-1.2-.4h1.2c.3 0 2.7.1 3.1.1.5.1.8.4.7.7-.1.3-.4.5-.7.5zm-1.9-1c.7.2 1.5.5 1.7.5.3.1.5-.1.5-.1 0-.1-.2-.2-.4-.3-.2 0-1 0-1.8-.1zM412.6 37.9c-.4 0-3-.4-3-.4s2.7-.4 3-.4c.4 0 .7.2.7.4s-.3.4-.7.4zM412.6 38.1c-.4 0-2.8-.4-3.1-.4l-1.2-.2 1.2-.2c.3 0 2.7-.4 3.1-.4.5 0 .9.3.9.6 0 .1-.1.2-.2.3-.1.2-.4.3-.7.3zm-1.7-.6c.8.1 1.6.2 1.7.2.2 0 .4-.1.4-.1v-.1c0-.1-.2-.2-.5-.2-.1 0-.9.1-1.6.2zM412.4 34.8c-.4.1-3.1.1-3.1.1s2.6-.9 2.9-.9c.4-.1.7.1.7.3.1.2-.1.5-.5.5zM408.1 35.2l1.2-.4c.3-.1 2.6-.9 2.9-.9.5-.1.9.1 1 .4 0 .1 0 .2-.1.4s-.4.3-.7.4c-.4.1-2.8.1-3.1.1h-1.2zm4.4-1h-.2c-.2 0-.9.3-1.7.5.8 0 1.6-.1 1.7-.1.2 0 .4-.1.4-.2v-.1c.1 0 0-.1-.2-.1zM411.7 31.9c-.3.1-3 .7-3 .7s2.4-1.3 2.7-1.4c.3-.1.7-.1.8.2 0 .1-.2.3-.5.5zM407.5 33l1.1-.6c.2-.1 2.4-1.3 2.7-1.4.4-.2.9 0 1 .3v.4c-.1.2-.3.4-.6.5-.4.1-2.7.6-3 .7l-1.2.1zm4.2-1.8c-.1 0-.2 0-.3.1-.2.1-.9.4-1.6.8.8-.2 1.5-.3 1.7-.4.2-.1.3-.2.4-.3v-.1c.1 0 0-.1-.2-.1zM410.4 29.1c-.3.2-2.8 1.2-2.8 1.2s2.1-1.7 2.4-1.9c.3-.2.7-.2.8 0 .1.2 0 .5-.4.7zM406.5 30.9l1-.8c.2-.2 2.1-1.7 2.4-1.9.4-.2.9-.2 1 .1.1.2.1.3 0 .5s-.2.3-.4.4c-.3.2-2.6 1.1-2.9 1.2l-1.1.5zm4-2.5c-.1 0-.2 0-.4.1s-.8.6-1.4 1.1c.7-.3 1.5-.6 1.6-.7l.3-.3v-.2h-.1zM408.7 26.5c-.3.2-2.6 1.6-2.6 1.6s1.8-2 2.1-2.3c.3-.2.6-.3.8-.1.1.2 0 .6-.3.8zM405.2 29l.8-1c.2-.2 1.8-2 2.1-2.3.4-.3.8-.3 1-.1.1.1.1.2.1.4s-.2.5-.4.6c-.3.2-2.4 1.5-2.6 1.7l-1 .7zm3.6-3.1c-.1 0-.3.1-.4.2-.1.1-.7.7-1.2 1.3.7-.4 1.3-.8 1.5-.9.2-.1.2-.3.2-.4V26l-.1-.1zM406.6 24.3c-.2.3-2.3 2.1-2.3 2.1s1.4-2.3 1.6-2.6c.2-.3.6-.4.7-.3.3.2.3.5 0 .8zM403.6 27.3l.6-1.1c.1-.2 1.4-2.3 1.7-2.6.3-.4.8-.5 1-.3.1.1.2.2.2.3 0 .2-.1.5-.3.7-.2.3-2.1 1.9-2.3 2.1l-.9.9zm3-3.6c-.1 0-.3.1-.4.2-.1.1-.5.8-.9 1.5.6-.5 1.2-1.1 1.3-1.2 0-.2.1-.4 0-.5.1 0 .1 0 0 0zM404.2 22.5c-.2.3-1.9 2.4-1.9 2.4s1-2.5 1.2-2.8c.2-.3.5-.5.7-.4.1.1.2.5 0 .8zM401.7 26l.5-1.2c.1-.3 1-2.5 1.2-2.9.2-.4.7-.6.9-.4.1.1.2.2.2.3.1.2 0 .5-.1.7-.2.3-1.7 2.2-1.9 2.4l-.8 1.1zm2.3-4.1c-.1 0-.3.1-.4.3-.1.2-.4.9-.7 1.6.5-.6 1-1.2 1.1-1.4.1-.2.1-.4 0-.5.1 0 .1 0 0 0 .1 0 0 0 0 0zM401.4 21.1c-.1.3-1.4 2.7-1.4 2.7s.5-2.6.7-3c.1-.3.4-.6.6-.5.2.1.2.5.1.8zM399.6 25l.2-1.2c.1-.3.5-2.7.7-3 .2-.4.5-.7.9-.6.2.1.3.2.3.4s0 .4-.1.6c-.1.4-1.3 2.5-1.4 2.7l-.6 1.1zm1.6-4.5c-.1 0-.3.1-.4.4-.1.2-.2.9-.4 1.7.4-.7.7-1.4.8-1.6 0-.1.1-.3 0-.4.1 0 0 0 0-.1zM398.5 20.3c-.1.4-.9 2.9-.9 2.9s.1-2.7.1-3.1c.1-.4.3-.6.5-.6.2.1.3.4.3.8zM397.3 24.4v-1.2c0-.3.1-2.7.1-3.1.1-.4.4-.8.7-.8h.1c.3.1.5.5.4 1-.1.4-.8 2.7-.9 2.9l-.4 1.2zm.9-4.7c-.1 0-.2.2-.3.4 0 .2-.1 1-.1 1.7.2-.7.5-1.5.5-1.7 0-.1 0-.4-.1-.4zM395.4 26.1c0 .4-.4 3-.4 3s-.4-2.7-.4-3c0-.4.2-.7.4-.7.3 0 .4.3.4.7zM395 30.4l-.2-1.2c0-.3-.4-2.7-.4-3.1 0-.5.3-.9.6-.9s.6.4.6.9c0 .4-.4 2.8-.4 3.1l-.2 1.2zm0-4.8c-.1 0-.2.2-.2.5 0 .2.1 1 .2 1.7.1-.8.2-1.6.2-1.7 0-.3-.1-.5-.2-.5zM392.5 26.3c.1.4.4 3 .4 3s-1.1-2.5-1.2-2.8c-.1-.4 0-.7.2-.8.2 0 .5.3.6.6zM393.2 30.6l-.5-1.1c-.1-.3-1.1-2.5-1.2-2.9-.1-.2-.1-.4 0-.6.1-.2.2-.3.4-.4.3-.1.7.2.8.7.1.4.4 2.8.4 3.1l.1 1.2zM392 26c-.1 0-.1.1-.1.1v.4c0 .2.4.9.7 1.6-.1-.8-.2-1.6-.2-1.7-.2-.3-.4-.4-.4-.4zM389.7 27.4c.2.3 1.2 2.8 1.2 2.8s-1.7-2.1-1.9-2.4c-.2-.3-.2-.7 0-.8.2-.1.5.1.7.4zM391.5 31.3l-.8-1c-.2-.2-1.7-2.1-1.9-2.4-.1-.2-.2-.4-.2-.6 0-.2.1-.4.2-.5.3-.2.7 0 .9.4.2.3 1.1 2.6 1.2 2.9l.6 1.2zm-2.4-4.1c-.1 0-.1.1-.1.2s0 .2.1.4.6.8 1.1 1.4c-.3-.7-.6-1.5-.7-1.6-.1-.3-.3-.4-.4-.4zM387.2 29.1c.3.3 1.9 2.4 1.9 2.4s-2.2-1.6-2.4-1.9c-.3-.3-.3-.6-.2-.8.1 0 .5.1.7.3zM390 32.4l-1-.7c-.2-.2-2.2-1.6-2.5-1.9-.2-.2-.3-.5-.3-.7 0-.1 0-.3.1-.3.2-.2.7-.1 1 .2.3.3 1.7 2.2 1.9 2.5l.8.9zm-3.3-3.4s-.1.1 0 0c-.1 0-.1.1-.1.1 0 .1.1.3.2.4.1.1.8.6 1.4 1.1-.5-.6-.9-1.3-1.1-1.4-.2-.1-.3-.2-.4-.2zM385.3 31.4c.3.2 2.4 1.9 2.4 1.9s-2.5-1-2.8-1.2c-.3-.2-.5-.5-.4-.7.2-.2.5-.2.8 0zM388.9 33.9l-1.2-.5c-.3-.1-2.5-1-2.9-1.2-.4-.2-.6-.7-.4-.9.2-.3.6-.3 1-.1.3.2 2.2 1.7 2.5 1.9l1 .8zm-4-2.4c-.1 0-.1 0-.2.1 0 .1.1.3.3.4.2.1.9.4 1.6.7-.6-.5-1.2-1-1.4-1.1-.1-.1-.2-.1-.3-.1zM384.1 34.1c.4.1 2.8 1.2 2.8 1.2s-2.7-.3-3-.4c-.4-.1-.6-.3-.5-.6 0-.2.3-.2.7-.2zM388.1 35.6l-1.2-.1c-.3 0-2.7-.3-3.1-.4-.3-.1-.5-.2-.6-.4-.1-.1-.1-.2-.1-.4.1-.3.5-.5 1-.3.4.1 2.6 1.1 2.9 1.2l1.1.4zm-4.3-1.3c-.2 0-.3.1-.3.1v.1c0 .1.2.2.4.3.2 0 1 .1 1.7.2-.7-.3-1.4-.6-1.6-.7h-.2zM383.6 37.1c.4 0 3 .4 3 .4s-2.7.4-3 .4c-.4 0-.7-.2-.7-.4s.3-.4.7-.4zM383.6 38.1c-.5 0-.9-.3-.9-.6s.4-.6.9-.6c.4 0 2.8.4 3.1.4l1.2.2-1.2.2c-.3 0-2.7.4-3.1.4zm0-.8c-.3 0-.5.1-.5.2s.2.2.5.2c.2 0 1-.1 1.7-.2-.7-.1-1.5-.2-1.7-.2zM383.9 40.1c.4-.1 3-.4 3-.4s-2.5 1.1-2.8 1.2c-.4.1-.7 0-.8-.2 0-.3.2-.5.6-.6zM383.8 41.1c-.3 0-.6-.2-.7-.4 0-.2 0-.4.2-.5.1-.1.3-.2.5-.3.4-.1 2.8-.4 3.1-.4l1.2-.1-1.1.5c-.3.1-2.5 1.1-2.9 1.2h-.3zm1.9-1.1c-.8.1-1.6.2-1.7.2-.1 0-.3.1-.3.2l-.1.1c0 .1.3.1.5.1.1 0 .9-.3 1.6-.6zM384.9 42.9c.3-.2 2.8-1.2 2.8-1.2s-2.1 1.7-2.4 1.9c-.3.2-.7.2-.8 0-.1-.2.1-.6.4-.7zM384.9 43.9c-.2 0-.4-.1-.5-.2-.2-.3 0-.7.4-.9.3-.2 2.6-1.1 2.9-1.2l1.2-.5-1 .8c-.2.2-2.1 1.7-2.4 1.9-.3 0-.4.1-.6.1zm1.7-1.6c-.7.3-1.5.6-1.6.7-.3.1-.3.4-.3.4 0 .1.3.1.5-.1.2 0 .8-.5 1.4-1zM386.7 45.3c.3-.3 2.4-1.9 2.4-1.9s-1.6 2.2-1.9 2.4c-.3.3-.6.3-.8.2-.1-.1 0-.4.3-.7zM386.7 46.3c-.1 0-.3 0-.3-.1-.1-.1-.1-.2-.1-.3 0-.2.1-.5.3-.7.3-.3 2.2-1.7 2.5-1.9l1-.7-.7 1c-.2.2-1.6 2.2-1.9 2.5-.3.1-.6.2-.8.2zm1.5-1.9c-.6.5-1.3.9-1.4 1.1-.2.2-.2.3-.2.4v.1h.1c.1 0 .3-.1.4-.2.1-.2.6-.8 1.1-1.4zM389 47.2c.2-.3 1.9-2.4 1.9-2.4s-1 2.5-1.2 2.8c-.2.3-.5.5-.7.4-.2-.1-.2-.5 0-.8zM389.1 48.2c-.1 0-.2 0-.2-.1-.2-.1-.2-.3-.2-.5s.1-.4.2-.6c.2-.3 1.7-2.2 1.9-2.4l.8-1-.5 1.2c-.1.3-1 2.5-1.2 2.9-.3.3-.5.5-.8.5zm1.1-2.3c-.5.6-1 1.2-1.1 1.4-.1.1-.1.3-.1.4 0 .1 0 .1.1.2.1 0 .3-.1.4-.3.1-.2.4-1 .7-1.7zM391.7 48.4c.1-.4 1.2-2.8 1.2-2.8s-.3 2.7-.4 3c-.1.4-.3.6-.6.5-.2 0-.3-.3-.2-.7zM392 49.4h-.1c-.1 0-.2-.1-.3-.2-.1-.2-.1-.5-.1-.8.1-.4 1.1-2.6 1.2-2.9l.5-1.1-.1 1.2c0 .3-.3 2.7-.4 3.1-.2.4-.4.7-.7.7zm.5-2.5c-.3.7-.6 1.4-.7 1.6-.1.2 0 .4 0 .5l.1.1c.1 0 .2-.1.3-.4.1-.3.2-1.1.3-1.8zM394.6 48.9c0-.4.4-3 .4-3s.4 2.7.4 3c0 .4-.2.7-.4.7s-.4-.3-.4-.7zM395 49.8c-.1 0-.2-.1-.3-.2-.2-.2-.3-.4-.3-.7 0-.4.4-2.8.4-3.1l.2-1.2.2 1.2c0 .3.4 2.7.4 3.1 0 .5-.2.9-.6.9zm0-2.6c-.1.8-.2 1.6-.2 1.7 0 .2.1.4.1.4h.1c.1 0 .2-.2.2-.5l-.2-1.6zM397.6 48.6c-.1-.4-.4-3-.4-3s1.1 2.5 1.2 2.8c.1.4 0 .7-.2.8-.3 0-.5-.2-.6-.6zM398.1 49.4c-.3 0-.6-.3-.7-.7-.1-.4-.4-2.8-.4-3.1l-.1-1.2.5 1.1c.1.3 1.1 2.5 1.2 2.9.1.3.1.6-.1.8-.1.1-.2.2-.3.2h-.1zm-.6-2.5c.1.8.2 1.6.2 1.7.1.3.3.4.3.4l.1-.1c0-.1.1-.2 0-.5.1-.1-.3-.8-.6-1.5zM400.4 47.6c-.2-.3-1.2-2.8-1.2-2.8s1.7 2.1 1.9 2.4c.2.3.2.7 0 .8-.2.1-.5-.1-.7-.4zM401 48.2c-.3 0-.5-.2-.7-.5-.2-.3-1.1-2.6-1.2-2.9l-.5-1.2.8 1c.2.2 1.7 2.1 1.9 2.4.1.2.2.5.1.7 0 .1-.1.2-.2.3-.1.2-.2.2-.2.2zm-1.1-2.3c.3.7.6 1.5.7 1.6.1.2.4.4.4.3v-.1c0-.1 0-.3-.1-.5-.1-.1-.5-.7-1-1.3zM402.8 45.9c-.3-.3-1.9-2.4-1.9-2.4s2.2 1.6 2.4 1.9c.3.3.3.6.2.8-.1 0-.4-.1-.7-.3zM403.4 46.3c-.2 0-.5-.1-.7-.3-.3-.3-1.7-2.2-1.9-2.5l-.7-1 1 .7c.2.2 2.2 1.6 2.5 1.9.3.3.4.8.2 1-.2.2-.3.2-.4.2zm-1.5-1.9c.5.6.9 1.3 1.1 1.4.2.2.3.2.4.2h.1c.1-.1 0-.3-.2-.5s-.8-.7-1.4-1.1zM404.7 43.6c-.3-.2-2.4-1.9-2.4-1.9s2.5 1 2.8 1.2c.3.2.5.5.4.7-.1.1-.4.1-.8 0zM405.2 43.9c-.2 0-.4-.1-.6-.2-.3-.2-2.2-1.7-2.4-1.9l-1-.8 1.2.5c.3.1 2.5 1 2.9 1.2.2.1.3.3.4.4.1.2.1.4 0 .5-.1.2-.3.3-.5.3zm-1.8-1.6c.6.5 1.2 1 1.4 1.1.2.1.5.1.5.1v-.2l-.3-.3c-.1-.1-.9-.4-1.6-.7zM406 40.8c-.4-.1-2.8-1.2-2.8-1.2s2.7.3 3 .4c.4.1.6.3.5.6 0 .2-.4.3-.7.2zM406.2 41.1h-.3c-.4-.1-2.6-1.1-2.9-1.2l-1.1-.5 1.2.1c.3 0 2.7.3 3.1.4.5.1.8.5.7.8-.1.2-.3.4-.7.4zm-1.8-1.1c.7.3 1.4.6 1.6.7.3.1.5 0 .5-.1s-.1-.3-.4-.3c-.1-.1-.9-.2-1.7-.3zM406.5 37.9c-.4 0-3-.4-3-.4s2.7-.4 3-.4c.4 0 .7.2.7.4-.1.2-.4.4-.7.4zM406.5 38.1c-.4 0-2.8-.4-3.1-.4l-1.2-.2 1.2-.2c.3 0 2.7-.4 3.1-.4.5 0 .9.3.9.6-.1.3-.4.6-.9.6zm-1.8-.6c.8.1 1.6.2 1.7.2.3 0 .5-.1.5-.2s-.2-.2-.5-.2c-.1 0-.9.1-1.7.2zM406.2 34.9c-.4.1-3 .4-3 .4s2.5-1.1 2.8-1.2c.4-.1.7 0 .8.2 0 .3-.3.5-.6.6zM401.9 35.6l1.1-.5c.3-.1 2.5-1.1 2.9-1.2.4-.1.9 0 1 .3.1.3-.2.7-.7.8-.4.1-2.8.4-3.1.4l-1.2.2zm4.3-1.3h-.2c-.2 0-.9.4-1.6.7.8-.1 1.6-.2 1.7-.2.3-.1.4-.2.4-.3 0-.1-.1-.2-.3-.2zM405.1 32.1c-.3.2-2.8 1.2-2.8 1.2s2.1-1.7 2.4-1.9c.3-.2.7-.2.8 0 .1.2 0 .5-.4.7zM401.2 33.9l1-.8c.2-.2 2.1-1.7 2.5-1.9.4-.2.9-.2 1 .1.2.3 0 .7-.4.9-.3.2-2.6 1.1-2.9 1.2l-1.2.5zm4-2.4c-.1 0-.2 0-.4.1s-.8.6-1.4 1.1c.7-.3 1.5-.6 1.6-.7.3-.1.4-.4.3-.4 0-.1 0-.1-.1-.1zM403.4 29.7c-.3.3-2.4 1.9-2.4 1.9s1.6-2.2 1.9-2.4c.3-.3.6-.3.8-.2.1.1 0 .4-.3.7zM400.1 32.5l.7-1c.2-.2 1.6-2.2 1.9-2.5.3-.3.8-.4 1-.2.2.2.2.7-.2 1-.3.3-2.2 1.7-2.5 1.9l-.9.8zm3.3-3.5c-.1 0-.3.1-.4.2-.1.1-.6.8-1.1 1.4.6-.5 1.3-.9 1.4-1.1.2-.1.2-.4.1-.5 0 .1 0 0 0 0zM401.1 27.8c-.2.3-1.9 2.4-1.9 2.4s1-2.5 1.2-2.8c.2-.3.5-.5.7-.4.2.1.2.5 0 .8zM398.6 31.3l.5-1.2c.1-.3 1-2.5 1.2-2.9.2-.4.7-.6.9-.4.1.1.2.2.2.3.1.2 0 .5-.1.7-.2.3-1.7 2.2-1.9 2.4l-.8 1.1zm2.4-4.1c-.1 0-.3.1-.4.3-.1.2-.4.9-.7 1.6.5-.6 1-1.2 1.1-1.4 0-.2.1-.4 0-.5zM398.4 26.6c-.1.4-1.2 2.8-1.2 2.8s.3-2.7.4-3c.1-.4.3-.6.6-.5.2 0 .3.3.2.7zM396.9 30.6l.1-1.2c0-.3.3-2.7.4-3.1.1-.5.5-.8.8-.7.2 0 .3.2.4.4.1.2 0 .4 0 .6-.1.4-1.1 2.6-1.2 2.9l-.5 1.1zm1.2-4.6c-.1 0-.3.1-.3.4 0 .2-.1 1-.2 1.7.3-.7.6-1.4.7-1.6v-.4c-.1-.1-.1-.1-.2-.1z"/><circle cx="395" cy="37.5" r=".8"/><path d="M395 38.5c-.5 0-1-.4-1-1 0-.5.4-1 1-1s1 .4 1 1c0 .5-.4 1-1 1zm0-1.6c-.3 0-.6.3-.6.6s.3.6.6.6.6-.3.6-.6-.2-.6-.6-.6zM372.6 10.5c.2.9.4 3.3.4 3.3s-.6-2.3-.7-3.3c-.2-.9-.2-1.1-.1-1.2.2 0 .3.2.4 1.2zM372.7 13.9c0-.1-.6-2.3-.7-3.3-.2-.9-.2-1.2-.1-1.4l.1-.2.2-.1h.1c.4 0 .5.4.7 1.4.2.9.4 3.2.4 3.3l-.7.3zM370.1 11.3c.5.8 1.5 3 1.5 3s-1.3-2-1.8-2.8c-.5-.8-.6-1-.5-1.1.2-.1.4.1.8.9zM371.4 14.5c-.1-.1-1.3-2-1.8-2.8-.5-.8-.6-1.1-.5-1.3v-.2l.2-.1c.1 0 .1-.1.2-.1.3 0 .5.3 1 1.1s1.5 2.9 1.6 3l-.7.4zM368.1 13c.7.6 2.5 2.2 2.5 2.2s-1.9-1.4-2.6-2c-.7-.6-.9-.8-.8-.9 0-.1.2.1.9.7zM370.3 15.5c-.1-.1-1.9-1.4-2.7-2-.8-.7-1.2-1-.8-1.4l.1-.1h.2c.2 0 .5.2 1.2.8.7.6 2.4 2.2 2.5 2.3l-.5.4zM366.7 15.2c.9.3 3.1 1.3 3.1 1.3s-2.3-.7-3.2-1c-.9-.3-1.1-.4-1-.5 0-.2.2-.1 1.1.2zM369.7 16.9c-.1 0-2.3-.7-3.2-1-.9-.3-1.1-.4-1.3-.7l-.1-.1.1-.2c.1-.2.2-.3.5-.3.2 0 .4.1 1.2.3.9.3 3 1.2 3.1 1.3l-.3.7zM366.2 17.8c1 0 3.3.1 3.3.1s-2.4.1-3.3.1c-1 0-1.2 0-1.2-.1.1-.1.3-.1 1.2-.1zM366.2 18.5c-1.1 0-1.5 0-1.5-.5s.5-.5 1.5-.5 3.3.1 3.4.1v.8c-.1-.1-2.4.1-3.4.1zM366.6 20.4c.9-.3 3.2-1 3.2-1s-2.2.9-3.1 1.3c-.9.3-1.1.4-1.1.3 0-.2.1-.3 1-.6zM365.7 21.4c-.2 0-.4-.1-.5-.3l-.1-.1.1-.2c.1-.2.4-.3 1.3-.7.9-.3 3.1-1 3.2-1l.3.7c-.1 0-2.2 1-3.1 1.3-.8.2-1 .3-1.2.3zM367.9 22.7c.7-.6 2.6-2 2.6-2s-1.7 1.6-2.5 2.2c-.7.6-.9.7-1 .6 0 0 .2-.2.9-.8zM367.2 24h-.2l-.3-.3v-.2c0-.3.2-.4 1-1.1.7-.6 2.6-2 2.7-2l.5.6c-.1.1-1.7 1.6-2.5 2.3-.8.5-1 .7-1.2.7zM369.9 24.4c.5-.8 1.8-2.8 1.8-2.8s-1.1 2.1-1.5 3c-.5.8-.6 1-.7.9-.2-.1-.1-.2.4-1.1zM369.5 25.9h-.1l-.3-.1-.1-.2c-.1-.3.1-.5.5-1.3.5-.8 1.7-2.8 1.8-2.8l.7.4c0 .1-1.1 2.1-1.6 3-.4.7-.6 1-.9 1zM372.3 25.4c.2-.9.7-3.3.7-3.3s-.3 2.4-.4 3.3c-.2.9-.2 1.1-.3 1.1-.1 0-.1-.2 0-1.1zM372.3 26.9h-.2l-.1-.2c-.2-.2-.1-.5.1-1.4.2-.9.7-3.2.7-3.3l.7.1c0 .1-.3 2.4-.4 3.3-.3 1.2-.4 1.5-.8 1.5zM375 25.4c-.2-.9-.4-3.3-.4-3.3s.6 2.3.7 3.3c.2.9.2 1.1.1 1.2-.2 0-.3-.2-.4-1.2zM375.3 26.9c-.4 0-.5-.4-.7-1.4-.2-.9-.4-3.2-.4-3.3l.7-.1c0 .1.6 2.3.7 3.3.2.9.2 1.2.1 1.4l-.1.1h-.3c.1 0 0 0 0 0zM377.5 24.6c-.5-.8-1.5-3-1.5-3s1.3 2 1.8 2.8c.5.8.6 1 .5 1.1-.2.1-.4-.1-.8-.9zM378.1 25.9c-.3 0-.5-.3-1-1.1s-1.5-2.9-1.6-3l.7-.4c.1.1 1.3 2 1.8 2.8.5.8.6 1.1.5 1.3v.2l-.2.1c0 .1-.1.1-.2.1zM379.5 22.9c-.7-.6-2.5-2.2-2.5-2.2s1.9 1.4 2.6 2c.7.6.9.8.8.9 0 0-.2-.1-.9-.7zM380.4 24c-.2 0-.5-.2-1.2-.8-.7-.6-2.4-2.2-2.5-2.3l.5-.6c.1.1 1.9 1.4 2.7 2 .7.6.9.8 1 1.1v.2l-.1.2c-.1.1-.2.2-.4.2zM380.9 20.7c-.9-.3-3.1-1.3-3.1-1.3s2.3.7 3.2 1c.9.3 1.1.4 1 .5 0 .1-.2.1-1.1-.2zM381.9 21.4c-.2 0-.4-.1-1.2-.3-.9-.3-3-1.2-3.1-1.3l.3-.7c.1 0 2.3.7 3.2 1 .5.2.7.3.9.4.4.2.4.5.4.7-.1 0-.3.2-.5.2zM381.4 18.1c-1 0-3.3-.1-3.3-.1s2.4-.1 3.3-.1c1 0 1.2 0 1.2.1-.1.1-.3.1-1.2.1zM381.4 18.5c-1 0-3.3-.1-3.4-.1v-.8c.1 0 2.4-.1 3.4-.1 1.1 0 1.5 0 1.5.5s-.4.5-1.5.5zM381 15.5c-.9.3-3.2 1-3.2 1s2.2-.9 3.1-1.3c.9-.3 1.1-.4 1.1-.3 0 .2-.1.3-1 .6zM377.9 16.9l-.3-.7c.1 0 2.2-1 3.1-1.3.7-.3 1-.3 1.2-.3.2 0 .4.1.5.3.2.5-.2.6-1.3 1-.9.3-3.1.9-3.2 1zM379.7 13.2c-.7.6-2.6 2-2.6 2s1.7-1.6 2.5-2.2c.7-.6.9-.7 1-.6 0 0-.2.2-.9.8zM377.3 15.5l-.5-.6c.1-.1 1.7-1.6 2.5-2.3.7-.6.9-.8 1.2-.8h.2l.2.2c.1.1.1.2.1.3 0 .3-.2.4-1 1.1-.8.7-2.6 2.1-2.7 2.1zM377.7 11.5c-.5.8-1.8 2.8-1.8 2.8s1.1-2.1 1.5-3c.5-.8.6-1 .7-.9.2 0 .1.2-.4 1.1zM376.2 14.5l-.7-.4c0-.1 1.1-2.1 1.6-3 .5-.9.7-1.1 1-1.1h.1l.1.1c.1.1.2.2.2.3.1.3-.1.5-.5 1.3s-1.7 2.7-1.8 2.8zM375.3 10.5c-.2.9-.7 3.3-.7 3.3s.3-2.4.4-3.3c.2-.9.2-1.1.3-1.1.1 0 .1.2 0 1.1zM374.9 13.9l-.7-.1c0-.1.3-2.4.4-3.3.2-1 .3-1.4.7-1.4h.1c.1 0 .2.1.3.2.2.2.1.5-.1 1.4-.1.8-.7 3.1-.7 3.2zM373.9 13.7c0 1-.1 3.3-.1 3.3s-.1-2.4-.1-3.3c0-1 0-1.2.1-1.2s.1.2.1 1.2zM374.2 17.1h-.8c0-.1-.1-2.4-.1-3.4 0-1.1 0-1.5.5-1.5s.5.5.5 1.5-.1 3.3-.1 3.4zM372.5 13.9c.3.9 1 3.2 1 3.2s-.9-2.2-1.3-3.1c-.3-.9-.4-1.1-.3-1.1.2-.1.3.1.6 1zM373.1 17.2c0-.1-1-2.2-1.3-3.1-.3-.9-.4-1.1-.3-1.4l.1-.1.2-.1h.2c.4 0 .5.3.9 1.3.3.9 1 3.1 1 3.2l-.8.2zM371.2 14.6c.6.7 2 2.6 2 2.6s-1.6-1.7-2.2-2.5c-.6-.7-.7-.9-.6-1 0 0 .2.2.8.9zM372.9 17.5c-.1-.1-1.6-1.7-2.3-2.5-.7-.8-1-1.2-.6-1.5l.1-.1h.2c.3 0 .5.2 1.1 1 .6.7 2 2.6 2 2.7l-.5.4zM370.2 15.7c.8.5 2.8 1.8 2.8 1.8s-2.1-1.1-3-1.5c-.8-.5-1-.6-.9-.7.1-.2.3-.1 1.1.4zM372.8 17.8c-.1 0-2.1-1.1-3-1.6-.8-.5-1.1-.6-1.1-.9v-.2l.1-.2c.1-.1.2-.2.4-.2s.4.1 1.2.6c.8.5 2.8 1.7 2.8 1.8l-.4.7zM369.7 17.1c.9.2 3.3.7 3.3.7s-2.4-.3-3.3-.4c-.9-.2-1.1-.2-1.1-.3-.1-.2.1-.2 1.1 0zM372.9 18.2c-.1 0-2.4-.3-3.3-.4-1.1-.2-1.5-.3-1.4-.8 0-.1.1-.4.5-.4.2 0 .5 0 1.1.1.9.2 3.2.7 3.3.7l-.2.8zM369.6 18.5c.9-.2 3.3-.4 3.3-.4s-2.3.6-3.3.7c-.9.2-1.1.2-1.2.1.1-.1.3-.2 1.2-.4zM368.7 19.3c-.4 0-.5-.3-.5-.4 0-.2 0-.4.5-.6.2-.1.5-.1 1-.2.9-.2 3.2-.4 3.3-.4l.1.7c-.1 0-2.3.6-3.3.7-.6.2-1 .2-1.1.2zM370.1 19.9c.8-.5 3-1.5 3-1.5s-2 1.3-2.8 1.8c-.8.5-1 .6-1.1.5-.1-.2 0-.3.9-.8zM369.2 21.1c-.2 0-.3-.1-.4-.2-.1-.1-.2-.4.2-.7.2-.1.4-.3.8-.5.8-.5 2.9-1.5 3-1.6l.4.7c-.1.1-2 1.3-2.8 1.8-.8.3-1 .5-1.2.5zM371 21.1c.6-.7 2.2-2.5 2.2-2.5s-1.4 1.9-2 2.6c-.6.7-.8.9-.9.8-.1 0 .1-.2.7-.9zM370.4 22.5h-.1l-.2-.1c-.4-.3-.1-.7.6-1.5.6-.7 2.2-2.4 2.3-2.5l.6.5c-.1.1-1.4 1.9-2 2.7-.7.7-.9.9-1.2.9zM372.2 21.9c.3-.9 1.3-3.1 1.3-3.1s-.7 2.3-1 3.2c-.3.9-.4 1.1-.5 1-.2 0-.1-.2.2-1.1zM372 23.4h-.2c-.2-.1-.4-.2-.3-.7 0-.2.1-.5.3-.9.3-.9 1.2-3 1.3-3.1l.7.3c0 .1-.7 2.3-1 3.2-.3.9-.4 1.2-.8 1.2zM373.7 22.2c0-1 .1-3.3.1-3.3s.1 2.4.1 3.3c0 1 0 1.2-.1 1.2-.1-.1-.1-.3-.1-1.2zM373.8 23.7c-.5 0-.5-.5-.5-1.5s.1-3.3.1-3.4h.8c0 .1.1 2.4.1 3.4 0 1.1 0 1.5-.5 1.5zM375.1 22c-.3-.9-1-3.2-1-3.2s.9 2.2 1.3 3.1c.3.9.4 1.1.3 1.1-.2.1-.3-.1-.6-1zM375.6 23.4c-.4 0-.5-.3-.9-1.3-.3-.9-1-3.1-1-3.2l.7-.3c0 .1 1 2.2 1.3 3.1.4 1 .5 1.4 0 1.6l-.1.1zM376.4 21.3c-.6-.7-2-2.6-2-2.6s1.6 1.7 2.2 2.5c.6.7.7.9.6 1 0 0-.2-.2-.8-.9zM377.2 22.5c-.3 0-.5-.2-1.1-1-.6-.7-2-2.6-2-2.7l.6-.5c.1.1 1.6 1.7 2.3 2.5.7.8 1 1.2.6 1.5l-.1.1-.3.1zM377.4 20.2c-.8-.5-2.8-1.8-2.8-1.8s2.1 1.1 3 1.5c.8.5 1 .6.9.7-.1.1-.3.1-1.1-.4zM378.4 21.1c-.2 0-.4-.1-1.2-.6-.8-.5-2.8-1.7-2.8-1.8l.4-.7c.1 0 2.1 1.1 3 1.6.9.5 1.3.8 1.1 1.2-.2.2-.3.3-.5.3zM377.9 18.8c-.9-.2-3.3-.7-3.3-.7s2.4.3 3.3.4c.9.2 1.1.2 1.1.3.1.2-.1.2-1.1 0zM378.9 19.3c-.2 0-.5 0-1.1-.1-.9-.2-3.2-.7-3.3-.7l.1-.7c.1 0 2.4.3 3.3.4 1.1.2 1.5.3 1.4.8.2 0 .1.3-.4.3zm0-.7v.4-.4c.1 0 0 0 0 0zM378 17.3c-.9.2-3.3.4-3.3.4s2.3-.5 3.3-.7c.9-.2 1.1-.2 1.2-.1-.1.2-.3.3-1.2.4zM374.7 18.2l-.1-.7c.1 0 2.3-.6 3.3-.7.6-.1.9-.1 1.1-.1.4 0 .5.3.5.4.1.5-.4.6-1.4.8-1 0-3.3.3-3.4.3zM377.5 15.9c-.8.5-3 1.5-3 1.5s2-1.3 2.8-1.8c.8-.5 1-.6 1.1-.5.1.3 0 .4-.9.8zM374.8 17.8l-.4-.7c.1-.1 2-1.3 2.8-1.8.8-.4 1-.6 1.2-.6.2 0 .3.1.4.2l.1.1v.2c-.1.3-.3.4-1.1.9-.9.7-3 1.7-3 1.7zM376.6 14.8c-.6.7-2.2 2.5-2.2 2.5s1.4-1.9 2-2.6c.6-.7.8-.9.9-.8.1 0-.1.2-.7.9zM374.7 17.5l-.6-.5c.1-.1 1.4-1.9 2-2.7.6-.8.8-1 1.1-1h.1l.2.1c.1.1.3.3 0 .7-.1.2-.3.4-.6.8-.6.9-2.2 2.5-2.2 2.6zM375.4 14c-.3.9-1.3 3.1-1.3 3.1s.7-2.3 1-3.2c.3-.9.4-1.1.5-1 .2 0 .1.2-.2 1.1zM374.5 17.2l-.7-.3c0-.1.7-2.3 1-3.2.4-1 .5-1.3.9-1.3h.2c.2.1.4.2.3.7 0 .2-.1.5-.3.9-.5 1-1.4 3.2-1.4 3.2zM386.3 13.5c-.9.3-3.2 1-3.2 1s2.2-.9 3.1-1.3c.9-.3 1.1-.4 1.1-.3.1.2-.1.3-1 .6zM383.3 14.9l-.3-.7c.1 0 2.2-1 3.1-1.3.7-.3 1-.3 1.2-.3.2 0 .4.1.5.3.2.5-.2.6-1.3 1-.9.3-3.1 1-3.2 1zM384.1 9.5c-.7.6-2.6 2-2.6 2s1.7-1.6 2.5-2.2c.7-.6.9-.7 1-.6 0 0-.2.2-.9.8zM381.7 11.8l-.5-.6c.1-.1 1.7-1.6 2.5-2.3.7-.6.9-.8 1.2-.8h.2l.2.2c.1.1.1.2.1.3 0 .3-.2.4-1 1.1-.8.7-2.7 2.1-2.7 2.1zM380.6 6.5c-.5.8-1.8 2.8-1.8 2.8s1.1-2.1 1.5-3c.5-.8.6-1 .7-.9.1.1 0 .3-.4 1.1zM379.1 9.5l-.7-.4c0-.1 1.1-2.1 1.6-3 .5-.9.7-1.1 1-1.1h.1l.1.1c.4.3.2.6-.3 1.6-.5.8-1.7 2.7-1.8 2.8zM371.6 4.8c.2.9.4 3.3.4 3.3s-.6-2.3-.7-3.3c-.2-.9-.2-1.1-.1-1.2.2.1.3.3.4 1.2zM371.7 8.2c0-.1-.6-2.3-.7-3.3-.1-.5-.1-.8-.1-1 0-.5.2-.6.4-.6h.1c.4 0 .5.4.7 1.4.2.9.4 3.2.4 3.3l-.8.2zM367.3 6.4c.5.8 1.5 3 1.5 3s-1.3-2-1.8-2.8c-.5-.8-.6-1-.5-1.1.2-.1.3 0 .8.9zM368.5 9.5c-.1-.1-1.3-2-1.8-2.8-.5-.8-.6-1.1-.5-1.3v-.2l.2-.1c.1 0 .1-.1.2-.1.3 0 .5.3 1 1.1s1.5 2.9 1.6 3l-.7.4zM363.7 9.3c.7.6 2.5 2.2 2.5 2.2s-1.9-1.4-2.6-2c-.7-.6-.9-.8-.8-.9 0 0 .2.1.9.7zM365.9 11.8c-.1-.1-1.9-1.4-2.7-2-.8-.7-1.2-1-.8-1.4l.1-.1h.2c.2 0 .4.2 1.2.8.7.6 2.4 2.2 2.5 2.3l-.5.4zM361.4 13.3c.9.3 3.1 1.3 3.1 1.3s-2.3-.7-3.2-1c-.9-.3-1.1-.4-1-.5 0-.2.2-.2 1.1.2zM364.3 14.9c-.1 0-2.3-.7-3.2-1-.9-.3-1.1-.4-1.3-.7l-.1-.1.1-.2c.1-.2.2-.3.5-.3.2 0 .4.1 1.2.3.9.3 3 1.2 3.1 1.3l-.3.7zM360.5 17.8c1 0 3.3.1 3.3.1s-2.4.1-3.3.1c-1 0-1.2 0-1.2-.1s.2-.1 1.2-.1zM360.5 18.5c-1.1 0-1.5 0-1.5-.5s.5-.5 1.5-.5 3.3.1 3.4.1v.8c-.1-.1-2.4.1-3.4.1zM361.3 22.4c.9-.3 3.2-1 3.2-1s-2.2.9-3.1 1.3c-.9.3-1.1.4-1.1.3-.1-.2.1-.3 1-.6zM360.3 23.3c-.2 0-.4-.1-.5-.3l-.1-.1.1-.2c.1-.2.4-.3 1.3-.7.9-.3 3.1-1 3.2-1l.3.7c-.1 0-2.2 1-3.1 1.3-.7.2-1 .3-1.2.3zM363.5 26.4c.7-.6 2.6-2 2.6-2s-1.7 1.6-2.5 2.2c-.7.6-.9.7-1 .6 0-.1.2-.2.9-.8zM362.8 27.6h-.2l-.2-.2c-.3-.4 0-.7.8-1.4.7-.6 2.6-2 2.7-2l.5.6c-.1.1-1.7 1.6-2.5 2.3-.6.6-.9.7-1.1.7zM367 29.4c.5-.8 1.8-2.8 1.8-2.8s-1.1 2.1-1.5 3c-.5.8-.6 1-.7.9-.1-.1 0-.3.4-1.1zM366.6 30.8h-.1l-.3-.1-.1-.2c-.1-.3.1-.5.5-1.3.5-.8 1.7-2.8 1.8-2.8l.7.4c0 .1-1.1 2.1-1.6 3-.4.8-.6 1-.9 1zM371.4 31c.2-.9.7-3.3.7-3.3s-.3 2.4-.4 3.3c-.2.9-.2 1.1-.3 1.1-.2.1-.2-.1 0-1.1zM371.3 32.6h-.2l-.1-.2c-.2-.2-.1-.5.1-1.4.2-.9.7-3.2.7-3.3l.7.1c0 .1-.3 2.4-.4 3.3-.3 1.1-.3 1.5-.8 1.5zM376 31.1c-.2-.9-.4-3.3-.4-3.3s.6 2.3.7 3.3c.2.9.2 1.1.1 1.2-.2-.1-.3-.3-.4-1.2zM376.3 32.6c-.4 0-.5-.4-.7-1.4-.2-.9-.4-3.2-.4-3.3l.7-.1c0 .1.6 2.3.7 3.3.2.9.2 1.2.1 1.4l-.1.1h-.3zM380.3 29.5c-.5-.8-1.5-3-1.5-3s1.3 2 1.8 2.8c.5.8.6 1 .5 1.1-.2.1-.3 0-.8-.9zM381 30.8c-.3 0-.5-.3-1-1.1s-1.5-2.9-1.6-3l.7-.4c.1.1 1.3 2 1.8 2.8.5.8.6 1.1.5 1.3v.2l-.2.1c-.1.1-.1.1-.2.1zM383.9 26.6c-.7-.6-2.5-2.2-2.5-2.2s1.9 1.4 2.6 2c.7.6.9.8.8.9 0 0-.2-.1-.9-.7zM384.8 27.6c-.2 0-.5-.2-1.2-.8-.7-.6-2.4-2.2-2.5-2.3l.5-.6c.1.1 1.9 1.4 2.7 2 .7.6.9.8 1 1.1v.2l-.1.2c-.1.2-.3.2-.4.2zM386.2 22.6c-.9-.3-3.1-1.3-3.1-1.3s2.3.7 3.2 1c.9.3 1.1.4 1 .5 0 .2-.2.1-1.1-.2zM387.3 23.3c-.2 0-.4-.1-1.2-.3-.9-.3-3-1.2-3.1-1.3l.3-.7c.1 0 2.3.7 3.2 1 .5.2.7.3.9.4.4.2.4.5.4.7-.1.1-.3.2-.5.2zM387.1 18.1c-1 0-3.3-.1-3.3-.1s2.4-.1 3.3-.1c1 0 1.2 0 1.2.1s-.2.1-1.2.1zM387.1 18.5c-1 0-3.3-.1-3.4-.1v-.8c.1 0 2.4-.1 3.4-.1 1.1 0 1.5 0 1.5.5s-.4.5-1.5.5zM376.2 4.9c-.2.9-.7 3.3-.7 3.3s.3-2.4.4-3.3c.2-.9.2-1.1.3-1.1.2-.1.2.1 0 1.1zM375.9 8.2l-.7-.1c0-.1.3-2.4.4-3.3.2-1.1.3-1.4.7-1.4h.1c.1 0 .2.1.3.2.2.2.1.5-.1 1.4-.1.9-.7 3.1-.7 3.2zM373.9 7.6c0 1-.1 3.3-.1 3.3s-.1-2.4-.1-3.3c0-1 0-1.2.1-1.2.1.1.1.3.1 1.2zM374.2 11h-.8c0-.1-.1-2.4-.1-3.4 0-1.1 0-1.5.5-1.5s.5.5.5 1.5-.1 3.3-.1 3.4zM370.4 8.2c.3.9 1 3.2 1 3.2s-.9-2.2-1.3-3.1c-.3-.9-.4-1.1-.3-1.1.2-.1.3.1.6 1zM371.1 11.5c0-.1-1-2.2-1.3-3.1-.2-.5-.3-.7-.3-.9-.1-.5.1-.6.3-.7h.2c.4 0 .5.3.9 1.3.3.9 1 3.1 1 3.2l-.8.2zM367.3 10c.6.7 2 2.6 2 2.6s-1.6-1.7-2.2-2.5c-.6-.7-.7-.9-.6-1 0 0 .2.1.8.9zM369 12.9c-.1-.1-1.6-1.7-2.3-2.5-.7-.8-1-1.2-.6-1.5l.1-.1h.2c.3 0 .5.2 1.1 1 .6.7 2 2.6 2 2.7l-.5.4zM364.9 12.7c.8.5 2.8 1.8 2.8 1.8s-2.1-1.1-3-1.5c-.8-.5-1-.6-.9-.7.1-.2.3-.1 1.1.4zM367.6 14.8c-.1 0-2.1-1.1-3-1.6-.9-.5-1.3-.8-1.1-1.2.1-.1.2-.2.4-.2s.4.1 1.2.6c.8.5 2.8 1.7 2.8 1.8l-.3.6zM363.7 16c.9.2 3.3.7 3.3.7s-2.4-.3-3.3-.4c-.9-.2-1.1-.2-1.1-.3-.1-.2.1-.2 1.1 0zM366.9 17.1c-.1 0-2.4-.3-3.3-.4-1.1-.2-1.5-.3-1.4-.8 0-.1.1-.4.5-.4.2 0 .5 0 1.1.1.9.2 3.2.7 3.3.7l-.2.8zM363.6 19.6c.9-.2 3.3-.4 3.3-.4s-2.3.6-3.3.7c-.9.2-1.1.2-1.2.1.1-.2.3-.2 1.2-.4zM362.7 20.4c-.4 0-.5-.3-.5-.4-.1-.5.4-.6 1.4-.8.9-.2 3.2-.4 3.3-.4l.1.7c-.1 0-2.3.6-3.3.7-.5.1-.8.2-1 .2zM364.8 23c.8-.5 3-1.5 3-1.5s-2 1.3-2.8 1.8c-.8.5-1 .6-1.1.5-.1-.2.1-.3.9-.8zM363.9 24.1c-.2 0-.3-.1-.4-.2-.3-.5.1-.7 1.1-1.2.8-.5 2.9-1.5 3-1.6l.4.7c-.1.1-2 1.3-2.8 1.8-.8.4-1 .5-1.3.5zM367.1 25.7c.6-.7 2.2-2.5 2.2-2.5s-1.4 1.9-2 2.6c-.6.7-.8.9-.9.8-.1 0 0-.1.7-.9zM366.5 27.1h-.1l-.2-.1c-.4-.3-.1-.7.6-1.5.6-.7 2.2-2.4 2.3-2.5l.6.5c-.1.1-1.4 1.9-2 2.7-.7.7-.9.9-1.2.9zM370.1 27.6c.3-.9 1.3-3.1 1.3-3.1s-.7 2.3-1 3.2c-.3.9-.4 1.1-.5 1-.1 0-.1-.2.2-1.1zM369.9 29.1h-.2c-.5-.2-.3-.6 0-1.6.3-.9 1.2-3 1.3-3.1l.7.3c0 .1-.7 2.3-1 3.2-.3.9-.4 1.2-.8 1.2zM373.7 28.3c0-1 .1-3.3.1-3.3s.1 2.4.1 3.3c0 1 0 1.2-.1 1.2-.1-.1-.1-.3-.1-1.2zM373.8 29.8c-.5 0-.5-.5-.5-1.5s.1-3.3.1-3.4h.8c0 .1.1 2.4.1 3.4s0 1.5-.5 1.5zM377.2 27.7c-.3-.9-1-3.2-1-3.2s.9 2.2 1.3 3.1c.3.9.4 1.1.3 1.1-.2.1-.3-.1-.6-1zM377.7 29.1c-.4 0-.5-.3-.9-1.3-.3-.9-1-3.1-1-3.2l.7-.3c0 .1 1 2.2 1.3 3.1.4 1 .5 1.4 0 1.6l-.1.1zM380.3 25.9c-.6-.7-2-2.6-2-2.6s1.6 1.7 2.2 2.5c.6.7.7.9.6 1 0 0-.2-.1-.8-.9zM381.1 27.1c-.3 0-.5-.2-1.1-1-.6-.7-2-2.6-2-2.7l.6-.5c.1.1 1.6 1.7 2.3 2.5.7.8 1 1.2.6 1.5l-.1.1-.3.1zM382.7 23.2c-.8-.5-2.8-1.8-2.8-1.8s2.1 1.1 3 1.5c.8.5 1 .6.9.7-.1.2-.3.1-1.1-.4zM383.7 24.1c-.2 0-.4-.1-1.2-.6-.8-.5-2.8-1.7-2.8-1.8l.4-.7c.1 0 2.1 1.1 3 1.6.9.5 1.3.8 1.1 1.2-.2.2-.4.3-.5.3zM383.9 19.9c-.9-.2-3.3-.7-3.3-.7s2.4.3 3.3.4c.9.2 1.1.2 1.1.3.1.2-.1.1-1.1 0zM384.9 20.4c-.2 0-.5 0-1.1-.1-.9-.2-3.2-.7-3.3-.7l.1-.7c.1 0 2.4.3 3.3.4 1.1.2 1.5.3 1.4.8.2 0 .1.3-.4.3zm0-.8v.4-.4zM384 16.3c-.9.2-3.3.4-3.3.4s2.3-.6 3.3-.7c.9-.2 1.1-.2 1.2-.1-.1.2-.3.2-1.2.4zM380.7 17.1l-.1-.7c.1 0 2.3-.6 3.3-.7.6-.1.9-.1 1.1-.1.4 0 .5.3.5.4.1.5-.4.6-1.4.8-1 0-3.3.3-3.4.3zM382.8 12.9c-.8.5-3 1.5-3 1.5s2-1.3 2.8-1.8c.8-.5 1-.6 1.1-.5.1.2-.1.3-.9.8zM380 14.8l-.4-.7c.1-.1 2-1.3 2.8-1.8.8-.4 1-.6 1.2-.6.2 0 .3.1.4.2.3.4-.1.7-1.1 1.2-.7.6-2.8 1.6-2.9 1.7zM380.5 10.1c-.6.7-2.2 2.5-2.2 2.5s1.4-1.9 2-2.6c.6-.7.8-.9.9-.8.1 0 0 .2-.7.9zM378.6 12.9l-.6-.5c.1-.1 1.4-1.9 2-2.7.6-.7.8-1 1.1-1h.1l.2.1c.4.3.1.7-.6 1.5-.6.8-2.2 2.5-2.2 2.6zM377.5 8.3c-.3.9-1.3 3.1-1.3 3.1s.7-2.3 1-3.2c.3-.9.4-1.1.5-1 .1 0 .1.2-.2 1.1zM376.5 11.5l-.7-.3c0-.1.7-2.3 1-3.2.4-1 .5-1.3.9-1.3h.2c.5.2.3.6 0 1.6-.4 1-1.3 3.1-1.4 3.2z"/><circle cx="373.8" cy="17.9" r=".4"/><circle cx="373.8" cy="17.9" r=".8"/></g><path fill="#35A7D5" d="M371.2 37.4c0 1.8-1 15.1-1 15.1s-1-13.2-1-15.1c0-1.8.5-3.3 1-3.3.5-.1 1 1.4 1 3.3z"/><path fill="#fff" d="M377.6 42.7c0-.2 0-.4-.1-.6h1.2c0 .2-.1.4-.1.6v.3h2.2v-.3c0-.2 0-.4-.1-.6h1.2c0 .2-.1.4-.1.6v.3h1.4c.6 0 .9 0 1.2-.1v1.2c-.3 0-.7-.1-1.2-.1h-1.4v.8h-.8V43.9h-2.2v.8h-1.1l1 .4c-.1.1-.1.1-.1.2-.2.5-.4.7-.6 1.1v4c0 .4 0 .8.1 1.2h-1.3c.1-.4.1-.7.1-1.2v-2.5c-.4.5-.7.8-1.3 1.2-.1-.4-.3-.7-.6-1.1 1.2-.7 2.3-2 2.7-3.2v-.7h-1.2c-.6 0-.9 0-1.2.1V43c.3 0 .7.1 1.2.1h1.2v-.4zm3.4 7.5c0 .1 0 .2.1.2.1.1.5.1.9.1.9 0 1.3-.1 1.4-.2.1-.2.2-.6.2-1.7.4.2.6.3 1.1.4-.2 1.4-.2 1.7-.4 2-.3.4-.8.5-2.5.5s-2-.2-2-1.1v-4.3c0-.5 0-.8-.1-1.1h1.3c0 .4-.1.6-.1 1.1v1.1c1-.5 2-1.2 2.5-1.7l.9.8c-.2.1-.2.1-.5.4-.4.3-1.2.8-1.6 1-.5.3-.5.3-1.4.7v1.8z"/><path fill="#003693" d="M379.3 52.9h-3.9l.2-1.3c0-.4.1-.6.1-1v-.2l-.7.5-.5-1.5c-.1-.3-.2-.5-.4-.8l-.8-1 1.1-.7c.6-.4 1.3-1 1.7-1.6l-.4-.2h-.3l-1.3.2v-.9l-1.9-.8h1.9v-2.1l1.3.2c.3 0 .6.1 1.1.1l-.1-.9h7.2l-.2.9h.1c.5 0 .8 0 1.1-.1l1.3-.2v3.8l-.9-.1 1.4 1.3-1.3.8c-.1.1-.1.1-.4.3-.1 0-.1.1-.2.2.2.1.3.1.6.2l1 .2-.1 1c-.2 1.5-.2 1.9-.6 2.5-.7.9-1.8 1-3.5 1-.9 0-2 0-2.6-.7v.9zm2.8-3.7v.2h.3V49c0 .1-.1.1-.3.2z"/><path fill="#fff" d="M393.3 42.2c-.1.3-.1.5-.1 1.5 0 1.7.2 2.7.6 3.6.5 1 1.2 1.9 2.1 2.5.5.4 1 .6 1.7.8-.4.4-.5.7-.8 1.2-1-.5-1.8-1-2.6-1.7-.8-.8-1.3-1.7-1.6-2.8-.3 1.3-.9 2.3-1.8 3.1-.6.6-1.3 1-2.3 1.5-.2-.5-.4-.7-.8-1.1 1.4-.5 2.4-1.2 3.1-2.2.4-.6.8-1.5.9-2.4.1-.8.2-1.6.2-2.8 0-.6 0-.8-.1-1.1h1.5zm-5.1 4.7c.4-.6.6-.9.8-1.5.2-.5.3-.9.4-1.6l1.2.4c-.2.8-.3 1.1-.5 1.8-.3.7-.4 1-.8 1.6l-1.1-.7zm6.1-.3c.7-1 1.1-1.8 1.5-2.9l1.2.5c-.6 1.4-.9 1.9-1.7 3l-1-.6z"/><path fill="#003693" d="M388 53.3l-.5-1.1c-.1-.3-.2-.5-.5-.8l-1.3-1.3 1.7-.6c.7-.3 1.3-.6 1.7-.9l-2.6-1.5.7-1c.4-.5.5-.7.7-1.2.2-.4.2-.7.4-1.4l.2-1.3 2.3.8v-.7l-.2-1.3h4.1l-.2 1.3v1.9c.1-.3.2-.6.4-.9l.4-1.2 3.3 1.5-.5 1c-.7 1.5-1 2-1.8 3.2l-.3.4c.2.2.4.4.6.5.4.3.8.5 1.4.7l1.5.6-1.1 1.2c-.3.4-.4.5-.6.9l-.5 1-1-.4c-1.2-.5-2.1-1.1-2.9-2-.3-.3-.5-.6-.8-.9-.3.4-.6.8-1 1.2-.7.7-1.5 1.2-2.6 1.7l-1 .6z"/><g fill="#fff"><path d="M377.6 42.7c0-.2 0-.4-.1-.6h1.2c0 .2-.1.4-.1.6v.3h2.2v-.3c0-.2 0-.4-.1-.6h1.2c0 .2-.1.4-.1.6v.3h1.4c.6 0 .9 0 1.2-.1v1.2c-.3 0-.7-.1-1.2-.1h-1.4v.8h-.8V43.9h-2.2v.8h-1.1l1 .4c-.1.1-.1.1-.1.2-.2.5-.4.7-.6 1.1v4c0 .4 0 .8.1 1.2h-1.3c.1-.4.1-.7.1-1.2v-2.5c-.4.5-.7.8-1.3 1.2-.1-.4-.3-.7-.6-1.1 1.2-.7 2.3-2 2.7-3.2v-.7h-1.2c-.6 0-.9 0-1.2.1V43c.3 0 .7.1 1.2.1h1.2v-.4zm3.4 7.5c0 .1 0 .2.1.2.1.1.5.1.9.1.9 0 1.3-.1 1.4-.2.1-.2.2-.6.2-1.7.4.2.6.3 1.1.4-.2 1.4-.2 1.7-.4 2-.3.4-.8.5-2.5.5s-2-.2-2-1.1v-4.3c0-.5 0-.8-.1-1.1h1.3c0 .4-.1.6-.1 1.1v1.1c1-.5 2-1.2 2.5-1.7l.9.8c-.2.1-.2.1-.5.4-.4.3-1.2.8-1.6 1-.5.3-.5.3-1.4.7v1.8zM393.3 42.2c-.1.3-.1.5-.1 1.5 0 1.7.2 2.7.6 3.6.5 1 1.2 1.9 2.1 2.5.5.4 1 .6 1.7.8-.4.4-.5.7-.8 1.2-1-.5-1.8-1-2.6-1.7-.8-.8-1.3-1.7-1.6-2.8-.3 1.3-.9 2.3-1.8 3.1-.6.6-1.3 1-2.3 1.5-.2-.5-.4-.7-.8-1.1 1.4-.5 2.4-1.2 3.1-2.2.4-.6.8-1.5.9-2.4.1-.8.2-1.6.2-2.8 0-.6 0-.8-.1-1.1h1.5zm-5.1 4.7c.4-.6.6-.9.8-1.5.2-.5.3-.9.4-1.6l1.2.4c-.2.8-.3 1.1-.5 1.8-.3.7-.4 1-.8 1.6l-1.1-.7zm6.1-.3c.7-1 1.1-1.8 1.5-2.9l1.2.5c-.6 1.4-.9 1.9-1.7 3l-1-.6z"/></g></g></svg>