<svg xmlns="http://www.w3.org/2000/svg" xmlns:xlink="http://www.w3.org/1999/xlink" viewBox="0 0 57.6 57.6" enable-background="new 0 0 57.6 57.6"><path fill="#3A9EC7" d="M28.8 57.6C12.9 57.6 0 44.7 0 28.8S12.9 0 28.8 0s28.8 12.9 28.8 28.8-12.9 28.8-28.8 28.8zm0-54.5C14.6 3.1 3 14.6 3 28.8s11.6 25.8 25.8 25.8S54.6 43 54.6 28.8 43 3.1 28.8 3.1z"/><defs><circle id="a" cx="28.8" cy="28.8" r="27.3"/></defs><clipPath id="b"><use xlink:href="#a" overflow="visible"/></clipPath><g clip-path="url(#b)"><path fill="#fff" d="M27.1 14.9s-.7-2.3-.5-2.4.5-.1.7.2l.6.9s.3.7.6.7c.4.1.8.3 1.1.9.2.6.7 1 .7 1s.6.8 1.1 1.7c.5.9 1.9 3.1 1.9 3.1l-1.5 6.6s-2.7-7.3-3.1-7.7c-.5-.5-.8-.9-.8-.9s-2.5-.7-3-1.2-.9-.6-.9-.6-.9-.5-1.3-.7-1.7-1.2-.5-1.2c1.2-.1 2.1.7 2.1.7s-2.8-2.1-2.9-2.6c0-.4 0-.8.3-.7s2.9 2.2 2.9 2.2-3.3-2.5-3.2-2.7c.1-.3.3-.6.7-.4.4.2 3.2 2.2 3.2 2.2l-2.4-2.3s-.1-.7 0-.8c.2-.1 1.1-.6 3.5 2.3.2 1.3.3 1.3.7 1.7 0 .5-.2 1.2.2 1.5.4.3.5.4.5.4"/><path fill="#3A9EC7" d="M32 28.8l-.4-1.1c-1.3-3.4-2.8-7.2-3-7.6-.3-.3-.6-.7-.7-.8-.5-.1-2.5-.7-3-1.2-.5-.4-.8-.6-.8-.6s-.9-.5-1.3-.7c0 0-1.3-.7-1.2-1.4 0-.2.2-.5.8-.5h.2c-1.3-1.1-1.3-1.4-1.3-1.5 0-.4 0-.7.2-.9-.2-.3-.2-.4-.1-.5.1-.3.3-.5.5-.6.1-.1.4-.1.6 0 .1 0 .2.1.3.2-.1-.5 0-.9.2-1 .4-.3 1.4-.5 3.5 1.8 0-.2.1-.2.2-.3.3-.1.8-.1 1.1.4l.6.9v.1c.1.3.3.5.4.5.5.1 1 .4 1.3 1v.1c.1.5.6.8.6.8l.1.1s.7.8 1.2 1.8c.5.9 1.9 3 1.9 3l.1.1-2 7.9zm-9.8-13.1c.2.2.5.5.7.6.4.2 1.3.7 1.3.7s.4.2 1 .7c.4.3 1.9.8 2.9 1.1h.1l.1.1s.3.4.8.8c.4.4 1.9 4.5 2.8 6.8l1.2-5.4c-.3-.5-1.4-2.2-1.8-3-.4-.8-1-1.5-1.1-1.6s-.6-.5-.8-1.1c-.3-.4-.6-.6-.9-.7-.5-.1-.8-.7-.9-.9-.1-.1-.4-.6-.5-.9 0 0 0-.1-.1-.1.1.4.2 1.2.4 1.8l.2.2v.5c0 .3-.1.7.1.8.4.3.5.4.5.4l-.4.6s-.2-.1-.6-.4-.4-1-.3-1.4v-.1c-.4-.4-.6-.6-.7-1.7-1.9-2.3-2.7-2.2-2.9-2.2v.4l2.3 2.2-.4.5c-1.1-.8-2.9-2.1-3.2-2.2h-.1l-.1.1c.2.2.9.8 1.7 1.4.5.4 1.1.8 1.4 1.1l-.4.5c-.6-.5-1.2-.9-1.6-1.2s-.8-.6-1-.8v.2c.2.3 1.4 1.3 2.5 2.2.2.1.3.2.3.2l-.6.5c-.1-.1-.2-.1-.2-.2-.3-.2-.9-.5-1.7-.5.1 0 0 0 0 0z"/><path fill="#fff" d="M33.2 49.9c.5 3.1 2 8.9 1.1 9.5-.9.6 16.7-2.9 16.7-2.9s-1.5-10-2-10.2-16.3.5-15.8 3.6z"/><path fill="#3A9EC7" d="M34.5 59.8c-.4 0-.4-.1-.5-.2-.1-.1 0-.3.2-.5.5-.4-.3-4.5-.8-6.7-.2-.9-.3-1.7-.5-2.4-.1-.5.2-1 .8-1.5 2.9-2.1 14.8-2.9 15.5-2.5.2.1.7.4 2.2 10.5v.3h-.3s-4.2.8-8.3 1.6c-5.6 1.1-7.6 1.4-8.3 1.4zm-.9-10c.1.7.3 1.5.5 2.4.7 3.8 1.1 5.9.8 6.9 2.1-.2 10.2-1.8 15.8-2.9-.6-4.3-1.5-8.9-1.8-9.6-1.4-.2-12.8.5-15 2.6-.4.3-.3.6-.3.6zM16.4 30.4l-.6-.8c-2.8-3.9-7-9.8-7.3-10.1-.2-.2-.8-.8-1.5-1.6-.3-.4-.9-.7-1.4-.9-.5-.2-.9-.4-1.2-.7 0 0-1.3-1.3-1.6-1.7-.1-.1-1.1-.9-1.5-1.2-.3-.2-.9-.9-.9-1.6v-.7c.1-.2.3-.3.4-.3-.2-.2-.3-.4-.4-.5l.1-.2C.3 9.6.1 9 .6 8.8h.1c-.1-.3-.1-.3-.1-.4 0-.2.2-.5.4-.6.1-.1.3-.1.5 0 .1 0 .5.3 1 .8-.2-.4-.2-.4-.2-.5 0-.1-.1-.5.2-.7.2-.2.4-.3.8-.3.5 0 1.2.6 2.6 2.1.1-.1.1-.1.2-.1.3 0 1.9.1 2.3.1h.1l.1.1s.7.8 1 1.6l.3.6c.2.6.5 1.2.7 2.1.3 1.2.6 1.9 1.3 2.7.7.9 4.8 5.5 4.8 5.5l.1.1-.4 8.5zm-13-16.2c.1.1.9 1.1 1.5 1.6.2.2.6.4 1 .6.6.3 1.2.6 1.7 1.1.7.8 1.2 1.3 1.4 1.5s4.9 6.8 6.7 9.4l.3-6c-.6-.7-4.1-4.6-4.8-5.4-.7-.9-1.1-1.7-1.4-3-.2-.9-.4-1.4-.7-2-.1-.2-.2-.4-.3-.7-.2-.5-.6-1.1-.8-1.3-.4 0-.9-.1-1.2-.1.2.2.5.4.8.6h.1v.1l.6.9c.3.2.5.5.5.7v.3l-.3.1c-.2.1-.3.1-.8-.6-.2-.2-.5-.4-.7-.5-.4-.2-1-.8-1.4-1.2l-.2-.2C4 8.2 3.4 7.8 3.2 7.8H3v.1c.2.3 1.4 1.7 2.4 3l-.5.5c-1.5-1.3-3.2-2.7-3.6-3 .3.3 1.2 1.3 2.1 2.2l1.3 1.3-.5.5-1.9-1.9-1.2-1.2H.9c0 .1.1.3.1.5l.1.2c.1.2.9 1 1.3 1.5 1 1.1 1.1 1.2.9 1.5l-.1.2-.3-.1c-.3-.1-1.1-1-1.6-1.6-.1-.1-.2-.1-.3-.1v.2c.1.5.5 1 .7 1.1 1.4 1 1.7 1.3 1.7 1.5zM47.8 32l1.5 1.4s3.3 8.1-.7 13.6h-.7l-.8.9-3.7.4s-.9 0-1.3-3.3c-.5-1-1.8-.3-1.8-.3l-.4 2.2s-3.7.3-6.5 2.6c0 0 .2.7 0 .7s-4.5-.7-5-1.6 1.1 10.5 0 11.5c-1.3 0-15.8-4.5-20.2-5-1-.1-1.5-1.4-.9-2.6.5-1.2 5.8-14.4 6-15.9s1-9.7 1-9.7.3-3.6.9-4.4c.5-.8 1.2-1.5 1.2-1.5l12.5 8.5s2.1-3.1 2.6-4.1C32.7 34 47.8 32 47.8 32z"/><path fill="#fff" d="M28.5 60.5h-.1c-.5 0-2.7-.6-6.6-1.7-4.9-1.4-11-3.1-13.5-3.4-.5 0-.9-.3-1.2-.7-.4-.6-.4-1.5 0-2.3.6-1.5 5.8-14.4 6-15.8.2-1.5 1-9.6 1-9.7 0-.4.4-3.7.9-4.5s1.2-1.5 1.2-1.5l.2-.2 12.3 8.4 2.4-3.7c.6-2.7 1.2-4 1.9-4 .7.1 7.5 2.4 10.7 5.3 3 2.7 4.1 4.7 4.3 5.1l1.5 1.4v.1c0 .1.9 2.1 1.2 4.8.4 3.6-.2 6.8-2 9.1l-.1.1h-.7l-.8.8-3.9.4c-.3 0-1.3-.3-1.6-3.5l-.3-.3c-.3-.1-.6 0-.8.1l-.4 2.5h-.3s-3.5.3-6.2 2.4c.1.5 0 .7-.1.7-.1.1-.2.2-.3.2 0 0-3.3-.4-4.7-1.3 0 .6.1 1.4.2 2.3.5 5.3.5 8.1-.2 8.9zm-12.1-39c-.2.3-.6.7-1 1.2-.3.5-.7 2.9-.8 4.2 0 .1-.9 8.2-1 9.7-.2 1.6-5.5 14.9-6 16-.3.6-.3 1.2 0 1.7.1.2.3.4.7.4 2.6.3 8.7 2 13.7 3.4 2.8.8 5.5 1.5 6.3 1.7.5-.9.1-5.9-.1-8.1-.3-3.2-.2-3.3.1-3.4 0 0 .3-.1.5.2.3.6 3.3 1.2 4.4 1.4v-.2l-.1-.2.2-.1c2.5-2 5.5-2.5 6.4-2.6l.4-2.1.1-.1c.1 0 .8-.5 1.5-.3.3.1.6.3.8.7v.2c.3 2.5.9 2.9 1 2.9l3.5-.4.8-.9h.7c3.6-5 .9-12.3.6-13.1l-1.4-1.4v-.1s-.2-1.2-3.3-4.1c-7.8 4.6-8.8 2.3-9.7 2.2-.3.2-2.3-2.4-2.7-3.8l-.2-.6-2.9 4.2-12.5-8.6zM34.1 17.7s-6.4 6.7.4 12.9h2.1s.9.5.5.9c-.3.4 1.9-3.1 6.6-1.8s2.8.5 2.8.5l1.6-5.2s-.7-8.4-4.8-8.9c-4-.5-6.4-1-9.2 1.6z"/><path fill="#3A9EC7" d="M37.1 32h-.2l-.3-.2.1-.3s0-.1.1-.1c0-.1-.2-.3-.3-.4h-2.1l-.1-.1c-2.1-1.9-3.2-4.1-3.3-6.4-.1-3.9 2.7-6.9 2.8-7.1 2.7-2.5 5.1-2.2 8.7-1.7l.8.1c4.3.5 5.1 8.9 5.1 9.2v.1l-1.6 5c.2.1.4.3.3.5.1.4 0 .5-3.4-.5-3.7-1-5.8 1.1-6.2 1.6 0 0 0 .1-.1.1-.1.1-.2.2-.3.2zm-2.4-1.7h2.1c.1 0 .4.2.5.5 1-.9 3.2-2.3 6.5-1.4 1.3.3 2 .5 2.4.6l1.6-5c-.1-.8-.9-8.1-4.5-8.5l-.8-.1c-3.6-.5-5.7-.7-8.2 1.5-.1.1-2.7 3-2.6 6.6.1 2.1 1.1 4 3 5.8z"/><g fill="#3A9EC7"><path d="M42.7 29.6s-.5-1.6-1.1-2.2c-.5-.6-2.6-.9-1.8-1s1-1.5 1.2-3.6-2.1-.9-2.1-.9l-1.6 1.8s-.2-1.4 0-1.9-1.6-1.5-2.6-2.2c-.9-.8 0-3.8 0-3.8s4.2-2 7.9-.6c.6-.9-.5-1.3.7-1.8 1.3-.5 2.4-.3 2.7.5s.9.1.9.1 5.7.6 2.7 7.4c.1 1.4.8 6.3-1.5 8.3s-5.4-.1-5.4-.1zM45.7 30.8c-1.7 0-3.2-.9-3.3-.9l-.1-.1v-.1c-.1-.4-.6-1.6-1-2.1-.2-.2-.8-.5-1.2-.6-.5-.2-.8-.3-.8-.6s.4-.3.5-.4c.6-.1.8-2.3.9-3.3 0-.3 0-.7-.2-.8-.3-.2-1 .1-1.3.2l-2.1 2.4-.1-.7c0-.1-.2-1.4 0-2-.1-.2-.9-.8-1.4-1.1-.4-.3-.8-.5-1.1-.8-1.1-.9-.3-3.7-.1-4.2v-.1l.1-.1c.2-.1 4.1-1.9 7.9-.7v-.4c-.1-.5 0-.9.8-1.3 1.4-.6 2.7-.3 3.2.7.1.1.1.2.1.2.1 0 .2-.1.3-.2l.1-.1h.2c.1 0 2.3.3 3.4 2.1.8 1.4.7 3.3-.4 5.7v.5c.2 2 .5 6.1-1.7 8-.8.5-1.8.8-2.7.8zm-2.8-1.5c.6.3 3.2 1.5 5 0 1.9-1.6 1.6-5.7 1.5-7.4V21.1c1-2.2 1.1-3.9.5-5.1-.7-1.3-2.2-1.7-2.7-1.7-.2.1-.4.3-.7.3-.2 0-.5-.1-.6-.6-.3-.6-1.2-.8-2.3-.3-.5.1-.5.2-.5.4.1.3.1.7-.2 1.2l-.1.2-.3-.1c-3.2-1.2-6.8.2-7.5.5-.3 1.2-.6 2.9-.1 3.3.3.2.7.5 1 .7 1 .7 1.9 1.3 1.7 1.9-.1.2-.1.6 0 1l1.2-1.3c.1-.1 1.3-.7 2.1-.3.4.3.6.7.5 1.4-.1 1.6-.3 3-.9 3.6.6.2 1.1.4 1.4.8.4.7.9 1.9 1 2.3z"/></g><path fill="#fff" d="M47.5 33.6s.6-1.8.9-3c-8.3-3.6-12.3 2.2-12.3 2.2"/><path fill="#3A9EC7" d="M47.8 33.7l-.6-.2s.5-1.5.8-2.6c-3.2-1.4-6.2-1.4-8.7-.2-1.9 1-2.9 2.3-2.9 2.3l-.6-.4c0-.1 4.3-6 12.8-2.3l.3.1-.1.3c-.4 1.2-.9 2.9-1 3z"/><path stroke="#070001" stroke-width="2" stroke-miterlimit="10" d="M38.9 35.5" fill="none"/><path fill="#fff" d="M38.5 37.5s-.2-3.7-3.1-4.8c-3.1-1.3-6.7-2.8-6.8-2.8l.3-.6s3.6 1.5 6.7 2.8c3.3 1.4 3.5 5.3 3.6 5.4h-.7zM28.6 60.3l-.6-.2s.5-1.4.4-2.9-.4-8.4-.5-8.5c0-.1.4-3.2 1.2-4.6l.6.3c-.6 1.2-1 4-1.1 4.3 0 .5.3 7 .5 8.4.1 1.6-.4 3.1-.5 3.2zM43.3 46.8c-.9-1.8-1.1-2.9-2.4-3.2-7.5-.5-5 12.6-3.7 13.6 1.3.9 4.4 1.6 6.1.5 1.7-1.1 2.8-1.6 2.8-1.6s-1.9-7.5-2.8-9.3z"/><path fill="#3A9EC7" d="M40.9 58.6c-1.5 0-3.1-.5-3.9-1.1-1-.7-2.4-6.9-1-10.9.8-2.3 2.5-3.5 4.9-3.3 1.2.2 1.6 1.1 2.1 2.3.2.3.3.7.5 1.1.9 1.8 2.8 9 2.9 9.3l.1.3-.3.1s-1.1.5-2.8 1.6c-.6.4-1.5.6-2.5.6zM40.5 44c-1.8 0-3.1 1-3.8 2.9-1.4 3.8.1 9.6.7 10.1 1.2.9 4.1 1.5 5.7.5 1.3-.8 2.2-1.3 2.6-1.5-.4-1.4-2-7.4-2.8-8.9-.2-.4-.4-.8-.5-1.1-.5-1.2-.8-1.7-1.6-1.9-.1-.1-.2-.1-.3-.1z"/><path fill="#fff" d="M47.4 46.6s2-1.6 3-3.2c2-1.4 4.3 5.1 4.4 6.6s.2 6-1.1 6.3c-1.2.3-4.1 1.5-5.7.5-1.6-1-2.7-1.5-2.7-1.5s.1-7.6 2.1-8.7z"/><path fill="#3A9EC7" d="M49.7 57.6c-.7 0-1.3-.1-1.9-.5-1.6-1-2.6-1.5-2.6-1.5l-.2-.1v-.2c0-.8.2-7.8 2.3-9 .2-.2 2-1.7 2.9-3.1v-.1h.1c.4-.3.9-.3 1.4-.1 1.8.9 3.4 5.7 3.5 7 .3 5.6-.8 6.6-1.3 6.7-.2 0-.4.1-.6.2-1 .3-2.4.7-3.6.7zm-4.1-2.5c.4.2 1.3.6 2.5 1.4 1.3.8 3.5.1 4.8-.3.2-.1.5-.1.6-.2.6-.2 1-2.8.8-6-.1-1.2-1.6-5.7-3.1-6.4-.2-.1-.4-.1-.7 0-1 1.6-2.9 3.1-3 3.2h-.1c-.3.4-1.6 2.4-1.8 8.3z"/><path fill="#fff" d="M43.3 48.3s.5 5.1 0 6.1 1.7 2.1 1.7 2.1 2.8-.1 3.4-1.4c.6-1.3-.3-8.2-1.4-8.5-1.1-.2-1.6-.6-2.1-.3s1.8 3.7 1.5 4.9c-.2 1.1-1 3.4-1 3.4l-.3-7.4c-.1 0 0-1.6-1.8 1.1z"/><path fill="#3A9EC7" d="M44.9 56.8c-.2-.1-1.6-.8-1.9-1.7-.1-.3-.1-.6 0-.9.3-.7.2-4 0-5.9v-.1l.1-.1c.6-.9 1-1.4 1.4-1.6 0-.2.1-.4.3-.5.5-.3.9-.1 1.5 0 .3.1.5.2.9.2.3.1.5.3.8.8.9 1.8 1.5 7 .9 8.2-.9 1.5-3.6 1.6-4 1.6zm-1.2-8.4c.1.9.5 5.2 0 6.2-.1.1-.1.2 0 .3.2.5 1 1 1.4 1.2l-.4-8.7c0-.1-.1-.1-.1-.2-.2.2-.5.5-.9 1.2zm1.6-1.1c.1.3.3.6.4.9.5 1.2 1.1 2.4 1 3.1-.2 1.2-1 3.4-1 3.5l-.5 1.3c.8-.1 2.5-.4 2.9-1.2.4-.9 0-5.4-.8-7.3-.2-.6-.4-.6-.4-.6-.4-.1-.7-.2-1-.2-.4-.1-.6-.2-.7-.1.1.1.1.3.1.6zm.1 1.9l.2 3.6c.2-.6.4-1.2.4-1.6.1-.4-.2-1.3-.6-2zM37.1 32.9c.6.1 4.3-3.4 11-1l-.4.1-.2 1.8-10.4-.9z"/><path fill="#fff" d="M42.5 14.7s-.7 2.1 1.2 3.6 3.5 1.7 3.5 1.7-4.3-2.3-4.7-5.3z"/></g><path fill="#3A9EC7" d="M28.8 57.6C12.9 57.6 0 44.7 0 28.8S12.9 0 28.8 0s28.8 12.9 28.8 28.8-12.9 28.8-28.8 28.8zm0-54.5C14.6 3.1 3 14.6 3 28.8s11.6 25.8 25.8 25.8S54.6 43 54.6 28.8 43 3.1 28.8 3.1z"/><path fill="#fff" d="M19.9 44.9h-1.5v-3.6c.3 0 .6.1 1 .1H21c.5 0 .7 0 1-.1v3.6h-1v1.3h.1c.4 0 .6 0 .8-.1v1.1h-1v1.6c.4-.1.5-.2 1-.3v1c-1.4.5-1.6.5-3.1.9-.3.1-.4.1-.6.2l-.2-1.2c.2 0 .2 0 .5-.1v-2.8c0-.4 0-.6-.1-.9h1.1v3.5c.2 0 .2-.1.4-.1v-4.1zm-.5-1h1.4v-1.5h-1.4v1.5zm4.7.1c-.2-.1-.6-.4-1.2-.9l.8-.6c.3.2.4.3.7.5.2.2.4.3.5.4.2-.2.3-.3.4-.3.1-.1.3-.2.6-.6h-2.5c-.5 0-.8 0-1.1.1v-1.1c.3 0 .6.1 1.1.1h2.7c.4 0 .7 0 .9-.1l.6.6-.3.3c-.7.7-1.3 1.3-1.8 1.6h2.1V49.7c0 .7 0 .8-.1 1-.2.2-.5.3-1.4.3h-.2c0-.4-.1-.6-.2-1.1h.6c.3 0 .3 0 .3-.2v-1h-1.1v2.2h-1.1c0-.3.1-.6.1-1v-1.2h-1.1V51.1h-1.1c0-.3.1-.6.1-1.1v-6H24.1zm-.8.9v.9h1.1v-.9h-1.1zm1.1 2.8v-1h-1.1v1h1.1zm2.1-2.8h-1.1v.9h1.1v-.9zm0 1.8h-1.1v1h1.1v-1z"/><path fill="#053785" d="M17.3 52.3l-.6-3.9h.7v-2.1h-.2l.1-1.2v-.4h.1V41.6l-.3-1.5 1.4.2H21.1v-.1l.8.1 1.3-.2v.3H26.8l.6-.1 1.1 1.1h.2l-.1.1.7.7-.6.5h.3l-.2 1.5v5.5c0 .7 0 1.1-.4 1.6-.6.8-1.6.8-2.3.8h-1.3V52h-.3v.2h-3.7l.1-1c-.5.2-1 .3-1.9.5-.2.1-.3.1-.5.2l-1.2.4z"/><path fill="#fff" d="M33.4 41.4c-.1.4-.2.6-.4 2-.1.4-.1.8-.1 1.1 0-.1 0-.1.1-.2.1-.4.4-.9.7-1.3.6-.7 1.2-1.1 2-1.1.7 0 1.4.3 1.8 1 .5.7.8 1.6.8 2.8 0 2-1 3.6-2.7 4.4-.5.2-1.3.5-2.1.6-.2-.6-.3-.8-.6-1.3 1.1-.1 1.7-.3 2.3-.6 1.2-.6 1.8-1.6 1.8-3.2 0-1.5-.5-2.4-1.4-2.4-.4 0-.8.2-1.1.6-.8.9-1.3 2.2-1.3 3.4v.2h-1.3v-1.6c0-.9.1-2 .1-2.8l.2-1.3v-.4l1.2.1z"/><path fill="#053785" d="M32.7 51.9l-.3-.9c-.2-.5-.3-.7-.5-1l-1.1-1.5h-.4l.2-1.3v-1.5c0-.9.1-2.1.2-2.9l.2-1.4v-1.3l4.1.2-.2.6c.3-.1.6-.1.9-.1 1.1 0 2.1.5 2.7 1.4.7.9 1 2 1 3.5 0 2.5-1.2 4.4-3.4 5.4-.6.3-1.5.5-2.3.7l-1.1.1zm2.8-7.6c-.1 0-.3.1-.4.2-.6.6-1 1.7-1 2.6v.8c.2-.1.3-.1.5-.2.7-.4 1.2-.9 1.2-2.2 0-1-.3-1.2-.3-1.2z"/><g fill="#fff"><path d="M19.9 44.9h-1.5v-3.6c.3 0 .6.1 1 .1H21c.5 0 .7 0 1-.1v3.6h-1v1.3h.1c.4 0 .6 0 .8-.1v1.1h-1v1.6c.4-.1.5-.2 1-.3v1c-1.4.5-1.6.5-3.1.9-.3.1-.4.1-.6.2l-.2-1.2c.2 0 .2 0 .5-.1v-2.8c0-.4 0-.6-.1-.9h1.1v3.5c.2 0 .2-.1.4-.1v-4.1zm-.5-1h1.4v-1.5h-1.4v1.5zm4.7.1c-.2-.1-.6-.4-1.2-.9l.8-.6c.3.2.4.3.7.5.2.2.4.3.5.4.2-.2.3-.3.4-.3.1-.1.3-.2.6-.6h-2.5c-.5 0-.8 0-1.1.1v-1.1c.3 0 .6.1 1.1.1h2.7c.4 0 .7 0 .9-.1l.6.6-.3.3c-.7.7-1.3 1.3-1.8 1.6h2.1V49.7c0 .7 0 .8-.1 1-.2.2-.5.3-1.4.3h-.2c0-.4-.1-.6-.2-1.1h.6c.3 0 .3 0 .3-.2v-1h-1.1v2.2h-1.1c0-.3.1-.6.1-1v-1.2h-1.1V51.1h-1.1c0-.3.1-.6.1-1.1v-6H24.1zm-.8.9v.9h1.1v-.9h-1.1zm1.1 2.8v-1h-1.1v1h1.1zm2.1-2.8h-1.1v.9h1.1v-.9zm0 1.8h-1.1v1h1.1v-1zM33.4 41.4c-.1.4-.2.6-.4 2-.1.4-.1.8-.1 1.1 0-.1 0-.1.1-.2.1-.4.4-.9.7-1.3.6-.7 1.2-1.1 2-1.1.7 0 1.4.3 1.8 1 .5.7.8 1.6.8 2.8 0 2-1 3.6-2.7 4.4-.5.2-1.3.5-2.1.6-.2-.6-.3-.8-.6-1.3 1.1-.1 1.7-.3 2.3-.6 1.2-.6 1.8-1.6 1.8-3.2 0-1.5-.5-2.4-1.4-2.4-.4 0-.8.2-1.1.6-.8.9-1.3 2.2-1.3 3.4v.2h-1.3v-1.6c0-.9.1-2 .1-2.8l.2-1.3v-.4l1.2.1z"/></g></svg>