<svg xmlns="http://www.w3.org/2000/svg" xmlns:xlink="http://www.w3.org/1999/xlink" viewBox="0 0 61.2 59" enable-background="new 0 0 61.2 59"><path fill="#fff" d="M.1 0h61.2v59H.1z"/><g><path fill="#35A7D5" d="M30.7 58.5c-15.9 0-28.8-12.9-28.8-28.8S14.8.9 30.7.9s28.8 12.9 28.8 28.8-13 28.8-28.8 28.8zm0-54.5C16.4 4 4.9 15.5 4.9 29.7s11.6 25.8 25.8 25.8 25.8-11.6 25.8-25.8S44.9 4 30.7 4z"/><defs><circle id="a" cx="30.7" cy="29.7" r="27.3"/></defs><clipPath id="b"><use xlink:href="#a" overflow="visible"/></clipPath><g clip-path="url(#b)"><path fill="#35A7D5" d="M35 28.1h4.7v3.5H35z"/><path fill="#fff" d="M39.9 32h-5.1c-.2.4-.3.8-.3 1.2 0 1.6 1.3 2.8 2.8 2.8 1.6 0 2.8-1.3 2.8-2.8.1-.4 0-.8-.2-1.2z"/><path fill="#35A7D5" d="M37.3 36.2c-1.6 0-2.9-1.3-2.9-2.9 0-.4.1-.9.3-1.3h5.2c.2.4.3.8.3 1.3 0 1.6-1.3 2.9-2.9 2.9zm-2.4-4.1c-.2.4-.3.8-.3 1.2 0 1.5 1.2 2.7 2.7 2.7 1.5 0 2.7-1.2 2.7-2.7 0-.4-.1-.8-.3-1.2h-4.8z"/><g fill="#35A7D5"><path d="M37.3 36.2c-1.6 0-2.9-1.3-2.9-2.9 0-.4.1-.9.3-1.3v-.1h5.2v.1c.2.4.3.8.3 1.3.1 1.6-1.2 2.9-2.9 2.9zm-2.4-4c-.2.4-.2.7-.2 1.1 0 1.5 1.2 2.7 2.7 2.7 1.5 0 2.7-1.2 2.7-2.7 0-.4-.1-.8-.2-1.1h-5zM37.3 36.3c-1.7 0-3-1.4-3-3 0-.5.1-.9.3-1.3l.1-.1H40v.1c.2.4.3.9.3 1.3.1 1.6-1.3 3-3 3zM34.8 32c-.2.4-.3.8-.3 1.3 0 1.6 1.3 2.9 2.9 2.9 1.6 0 2.9-1.3 2.9-2.9 0-.4-.1-.9-.3-1.3h-5.2zm2.5 4.1c-1.5 0-2.8-1.2-2.8-2.8 0-.4.1-.8.3-1.1h5c.2.4.3.8.3 1.1 0 1.5-1.2 2.8-2.8 2.8zm-2.4-3.9c-.1.3-.2.7-.2 1 0 1.4 1.2 2.6 2.6 2.6s2.6-1.2 2.6-2.6c0-.4-.1-.7-.2-1h-4.8z"/></g><path fill="#fff" d="M41.1 44.7v-2.8h-7.3v4.4l.1 1.8-.5 2h8.1l-.6-2z"/><path fill="#35A7D5" d="M41.6 50.2h-8.4l.5-2.1-.1-1.8v-4.5h7.6v2.9l-.2 3.4.6 2.1zm-8.1-.2h7.8l-.5-1.9.2-3.4V42h-7.1v4.3l.1 1.8-.5 1.9z"/><g fill="#35A7D5"><path d="M35.8 41.3h3.5v-3.9c-.6-.2-1.2-.3-1.9-.3-.5 0-1.1 0-1.7.1v4.1zM34.8 37.5c-1.6.5-3.2 1.8-3.6 4.7l-1.3 7.9h2.3l1-3.8v-5h1.6v-3.8zM46.8 38.3c-.6-.2-1.2.1-1.4.6L44 42.2l-.8-1.3c-.7-1.2-1.7-2.4-2.9-3.1v3.5h1.4v2.9c.4.5 1.1 1.3 1.2 1.4 1.1 1.1 2.4.9 2.9-.6l1.7-5.3c.2-.5-.1-1.2-.7-1.4z"/></g><path fill="#35A7D5" d="M11.6 44.8h40v15.7h-40z"/><path fill="#fff" d="M13.7 24.7h1v21h-1z"/><path fill="#35A7D5" d="M14.9 45.9h-1.4V24.5h1.4v21.4zm-1.1-.3h.7V24.9h-.7v20.7z"/><path fill="#fff" d="M48.2 24.7h1v21h-1z"/><path fill="#35A7D5" d="M49.5 45.9h-1.4V24.5h1.4v21.4zm-1.1-.3h.7V24.9h-.7v20.7zM53.8 24.7c-.5 0-.7.3-1.1.9-.4.6-1 1.5-2.1 1.5s-1.7-.8-2.1-1.5c-.4-.6-.6-.9-1.1-.9s-.7.3-1.1.9c-.4.6-1 1.5-2.1 1.5s-1.7-.8-2.1-1.5c-.4-.6-.6-.9-1.1-.9-.5 0-.7.3-1.1.9-.4.6-1 1.5-2.1 1.5s-1.7-.8-2.1-1.5c-.4-.6-.6-.9-1.1-.9-.5 0-.7.3-1.1.9-.4.6-1 1.5-2.1 1.5s-1.7-.8-2.1-1.5c-.4-.6-.6-.9-1.1-.9-.5 0-.7.3-1.1.9-.4.6-1 1.5-2.1 1.5s-1.7-.8-2.1-1.5c-.4-.6-.6-.9-1.1-.9-.5 0-.7.3-1.1.9-.4.6-1 1.5-2.1 1.5s-1.7-.8-2.1-1.5c-.4-.6-.6-.9-1.1-.9-.5 0-.7.3-1.1.9-.4.6-1 1.5-2.1 1.5s-1.7-.8-2.1-1.5c-.4-.6-.6-.9-1.1-.9v-1.2c1.1 0 1.7.8 2.1 1.5.4.6.6.9 1.1.9.5 0 .7-.3 1.1-.9.4-.6 1-1.5 2.1-1.5s1.7.8 2.1 1.5c.4.6.6.9 1.1.9.5 0 .7-.3 1.1-.9.4-.6 1-1.5 2.1-1.5s1.7.8 2.1 1.5c.4.6.6.9 1.1.9.5 0 .7-.3 1.1-.9.4-.6 1-1.5 2.1-1.5s1.7.8 2.1 1.5c.4.6.6.9 1.1.9.5 0 .7-.3 1.1-.9.4-.6 1-1.5 2.1-1.5s1.7.8 2.1 1.5c.4.6.6.9 1.1.9.5 0 .7-.3 1.1-.9.4-.6 1-1.5 2.1-1.5s1.7.8 2.1 1.5c.4.6.6.9 1.1.9.5 0 .7-.3 1.1-.9.4-.6 1-1.5 2.1-1.5s1.7.8 2.1 1.5c.4.6.6.9 1.1.9.5 0 .7-.3 1.1-.9.4-.6 1-1.5 2.1-1.5.1.6.5 1.2 0 1.2z"/><g fill="#35A7D5"><path d="M9.1 24.1v-9.6s-2-1.8 0-3.9H54s1.8 1.7 0 4v10.1l-44.9-.6zM54.6 25.3l-46.1-.6v-10c-.3-.3-.8-1.1-.9-2.1 0-.9.3-1.7 1-2.4l.2-.2h45.4l.2.2c.7.7 1.7 2.5.2 4.6v10.5zM9.7 23.5l43.7.6v-9.7l.1-.2c1.1-1.4.5-2.5.2-3H9.4c-.4.5-1.1 1.7.1 2.8l.2.2v9.3z"/></g><path fill="#35A7D5" d="M13.9 25.3c-1.6 1.8-3.6 0-3.6 0v-3.8h3.6s.8 3.1 0 3.8zM20.3 25.3c-1.6 1.8-3.6 0-3.6 0v-3.8h3.6s.8 3.1 0 3.8zM26.9 25.3c-1.6 1.8-3.6 0-3.6 0v-3.8h3.6s.8 3.1 0 3.8zM33.1 25.3c-1.6 1.8-3.6 0-3.6 0v-3.8h3.6s.8 3.1 0 3.8zM39.7 25.3c-1.6 1.8-3.6 0-3.6 0v-3.8h3.6s.8 3.1 0 3.8zM46 25.3c-1.6 1.8-3.6 0-3.6 0v-3.8H46s.8 3.1 0 3.8zM52.3 25.3c-1.6 1.8-3.6 0-3.6 0v-3.8h3.6s.8 3.1 0 3.8zM26.6 44.1h-9.4c-.2 0-.4-.2-.4-.4V32.8c0-.2.2-.4.4-.4h9.4c.2 0 .4.2.4.4v10.9c0 .2-.2.4-.4.4z"/><path fill="#fff" d="M25.4 37.8h-7.2c-.2 0-.4-.2-.4-.4v-3.3c0-.2.2-.4.4-.4h7.2c.2 0 .4.2.4.4v3.3c0 .2-.2.4-.4.4zM25.4 42.8h-7.2c-.2 0-.4-.2-.4-.4v-3.3c0-.2.2-.4.4-.4h7.2c.2 0 .4.2.4.4v3.3c0 .2-.2.4-.4.4z"/><path fill="#35A7D5" d="M21 34.9h3.9v2.2H21zM19.5 40h5.4v.9h-5.4zM19.5 41.5h5.4v.9h-5.4z"/><path fill="#fff" d="M30.8 44.6"/><path fill="#fff" d="M12.4 46.4h4.2v13.5h-4.2zM19.2 46.4h4.2v13.5h-4.2zM26.1 46.4h4.2v13.5h-4.2zM33 46.4h4.2v13.5H33zM39.9 46.4h4.2v13.5h-4.2zM46.7 46.4h4.2v13.5h-4.2z"/><defs><path id="c" d="M54.1 24.8l-45.2-.6v-9.7c-.2-.2-.9-.9-.9-1.9 0-.7.3-1.5 1-2.1h45s.9.9.9 2c0 .7-.3 1.4-.9 2V24.8zM9.2 24l44.7.6V14.4c.6-.6.9-1.2.9-1.8 0-.9-.7-1.7-.8-1.8H9.1c-.6.6-.9 1.3-.9 1.9.1 1 .9 1.7.9 1.7V24z"/></defs><use xlink:href="#c" overflow="visible" fill="#35A7D5"/><clipPath id="d"><use xlink:href="#c" overflow="visible"/></clipPath><g clip-path="url(#d)"><path fill="#fff" d="M4.1 8.6h61.7v5.8H4.1z"/><path fill="#35A7D5" d="M65.9 14.6H4V8.5h61.9v6.1zm-61.7-.2h61.4V8.8H4.2v5.6z"/></g><path fill="#fff" d="M15.3 12.3h.5v12.5h-.5zM21.6 12.3h.5v12.5h-.5zM28 12.3h.5v12.5H28zM34.7 12.3h.5v12.5h-.5zM40.5 12.3h.5v12.5h-.5zM47.1 12.3h.5v12.5h-.5zM53.8 12.3h.5v12.5h-.5zM8.8 12.3h.5v12.5h-.5z"/></g><path fill="#35A7D5" d="M30.7 58.5c-15.9 0-28.8-12.9-28.8-28.8S14.8.9 30.7.9s28.8 12.9 28.8 28.8-13 28.8-28.8 28.8zm0-54.5C16.4 4 4.9 15.5 4.9 29.7s11.6 25.8 25.8 25.8 25.8-11.6 25.8-25.8S44.9 4 30.7 4z"/><path fill="#fff" d="M24.4 48.1h-.8c-1.1.1-1.6.1-1.8.1l-.2-1h1.3c.2-.3.4-.6.5-.9h-2c-.1 1.3-.2 2.1-.4 3-.2 1-.4 1.6-.9 2.4-.3-.4-.6-.6-.9-1 .4-.7.6-1.2.8-2.1.2-1.2.3-2.7.3-5.2 0-.5 0-.9-.1-1.2.4.1.7.1 1.4.1h5.8c.5 0 .8 0 1.2-.1v2.6H21.4v.6h6.2c.7 0 .9 0 1.2-.1v1c-.3 0-.6-.1-1.1-.1H27c.4.4.9.9 1.6 1.7l-1 .6-.5-.7c-.6 0-.6 0-1.7.1v.9h3v1h-3v.8h2.3c.7 0 1 0 1.3-.1v1.1c-.4-.1-.7-.1-1.4-.1h-5.4c-.6 0-1 0-1.3.1v-1.1c.3 0 .6.1 1.2.1h2.2v-.8h-2.7v-1h2.7v-.7zm3.1-4.1v-.7h-6.1v.7h6.1zm-2.9 2.4c-.2.4-.3.6-.5.9.8 0 1.4 0 1.6-.1.1 0 .4 0 .8-.1-.2-.2-.3-.3-.6-.5l.5-.2h-1.8z"/><path fill="#003693" d="M20.3 53.8l-1.1-1.4c-.2-.3-.4-.5-.8-.8l-.6-.6.5-.8c.3-.6.5-1 .6-1.7.2-1.1.3-2.6.3-5 0-.5 0-.8-.1-1.1l-.1-1.5 1.5.2c.3 0 .6.1 1.2.1h6.8L30 41l-.1 1.4v1.7h.2v1.2h1.4l-1.5.6v1.8h-.1l.6.6-.9.5v.5l.7-.1v3.7l-1.3-.2c-.3 0-.5-.1-1.2-.1h-5.4c-.5 0-.9 0-1.2.1H21l-.7 1.1z"/><path fill="#fff" d="M32.3 45.2h1.6c.6-.8 1.2-1.8 1.6-2.6.2-.4.2-.4.3-.7l1.3.4c-.1.1-.1.1-.2.4-.5.9-1 1.7-1.5 2.4 2.3-.1 2.8-.1 4-.2-.5-.6-.8-.9-1.5-1.5l1-.6c1.3 1.2 1.9 1.9 3 3.4l-1.1.8c-.4-.5-.5-.7-.7-1.1-1.8.2-3.2.3-6.9.4-.2 0-.4 0-.6.1l-.3-1.2zm1.1 6.6c0-.4.1-.7.1-1.2v-2.4c0-.4 0-.7-.1-1H40.7c0 .3-.1.6-.1 1v2.4c0 .5 0 .8.1 1.2h-1.2v-.6h-4.9v.6h-1.2zm1.2-1.6h4.9v-1.9h-4.9v1.9z"/><path fill="#003693" d="M41.9 52.9h-3.6v-.6h-2.6v.6h-3.6l.1-1.3c0-.3.1-.6.1-1.1v-2.9l-.7.1-.6-3.8 1.5.1h.8c.4-.6.9-1.3 1.1-1.9.1-.3.1-.3.2-.5l.3-1.1 3.7 1.1v.1l.4-.2.6.6c1.3 1.3 2 2 3.1 3.5l.7.9-1.7 1.2v2.8c0 .5 0 .8.1 1.1l.1 1.3z"/><g fill="#fff"><path d="M24.4 48.1h-.8c-1.1.1-1.6.1-1.8.1l-.2-1h1.3c.2-.3.4-.6.5-.9h-2c-.1 1.3-.2 2.1-.4 3-.2 1-.4 1.6-.9 2.4-.3-.4-.6-.6-.9-1 .4-.7.6-1.2.8-2.1.2-1.2.3-2.7.3-5.2 0-.5 0-.9-.1-1.2.4.1.7.1 1.4.1h5.8c.5 0 .8 0 1.2-.1v2.6H21.4v.6h6.2c.7 0 .9 0 1.2-.1v1c-.3 0-.6-.1-1.1-.1H27c.4.4.9.9 1.6 1.7l-1 .6-.5-.7c-.6 0-.6 0-1.7.1v.9h3v1h-3v.8h2.3c.7 0 1 0 1.3-.1v1.1c-.4-.1-.7-.1-1.4-.1h-5.4c-.6 0-1 0-1.3.1v-1.1c.3 0 .6.1 1.2.1h2.2v-.8h-2.7v-1h2.7v-.7zm3.1-4.1v-.7h-6.1v.7h6.1zm-2.9 2.4c-.2.4-.3.6-.5.9.8 0 1.4 0 1.6-.1.1 0 .4 0 .8-.1-.2-.2-.3-.3-.6-.5l.5-.2h-1.8zM32.3 45.2h1.6c.6-.8 1.2-1.8 1.6-2.6.2-.4.2-.4.3-.7l1.3.4c-.1.1-.1.1-.2.4-.5.9-1 1.7-1.5 2.4 2.3-.1 2.8-.1 4-.2-.5-.6-.8-.9-1.5-1.5l1-.6c1.3 1.2 1.9 1.9 3 3.4l-1.1.8c-.4-.5-.5-.7-.7-1.1-1.8.2-3.2.3-6.9.4-.2 0-.4 0-.6.1l-.3-1.2zm1.1 6.6c0-.4.1-.7.1-1.2v-2.4c0-.4 0-.7-.1-1H40.7c0 .3-.1.6-.1 1v2.4c0 .5 0 .8.1 1.2h-1.2v-.6h-4.9v.6h-1.2zm1.2-1.6h4.9v-1.9h-4.9v1.9z"/></g><path fill="#35A7D5" d="M170 58.5c-15.9 0-28.8-12.9-28.8-28.8S154.2.9 170 .9s28.8 12.9 28.8 28.8-12.9 28.8-28.8 28.8zM170 4c-14.2 0-25.8 11.6-25.8 25.8s11.6 25.8 25.8 25.8c14.2 0 25.8-11.6 25.8-25.8S184.2 4 170 4z"/><defs><circle id="e" cx="170" cy="29.7" r="27.3"/></defs><clipPath id="f"><use xlink:href="#e" overflow="visible"/></clipPath><g clip-path="url(#f)" fill="#35A7D5"><path d="M179.2 31.4c0 .4-.4 3-.4 3s-.4-2.7-.4-3c0-.4.2-.7.4-.7s.4.3.4.7zM178.8 35.7l-.2-1.2c0-.3-.4-2.7-.4-3.1 0-.5.3-.9.6-.9s.6.4.6.9c0 .4-.4 2.8-.4 3.1l-.2 1.2zm0-4.8c-.1 0-.2.2-.2.5 0 .2.1 1 .2 1.7.1-.8.2-1.6.2-1.7 0-.3-.2-.5-.2-.5zM177 31.6c.1.3.7 3 .7 3s-1.3-2.4-1.4-2.7c-.1-.3-.1-.7.2-.8.1-.1.4.1.5.5zM178.1 35.8l-.6-1.1c-.1-.2-1.3-2.4-1.4-2.7-.1-.2-.1-.4-.1-.6 0-.2.2-.4.3-.4.3-.1.7.2.9.6.1.4.6 2.7.7 3l.2 1.2zm-1.6-4.5c-.1 0-.1.1-.1.1v.4c.1.2.4.9.8 1.6-.2-.8-.3-1.5-.4-1.7 0-.3-.2-.4-.3-.4zM175.1 32.5c.2.3 1.6 2.6 1.6 2.6s-2-1.8-2.3-2.1c-.2-.3-.3-.6-.1-.8.2-.1.6.1.8.3zM177.6 36.1l-.9-.8c-.2-.2-2-1.8-2.3-2.1-.2-.2-.3-.5-.3-.7 0-.1.1-.3.2-.3.2-.2.7-.1 1 .3.2.3 1.5 2.4 1.7 2.6l.6 1zm-3-3.7c-.1 0-.1 0 0 0-.1 0-.1.1 0 0-.1.2-.1.4.1.5.1.1.7.7 1.3 1.2-.4-.7-.8-1.3-.9-1.5-.3-.1-.4-.2-.5-.2zM173.6 34.1c.3.2 2.4 1.9 2.4 1.9s-2.5-1-2.8-1.2c-.3-.2-.5-.5-.4-.7.2-.2.5-.2.8 0zM177.2 36.6l-1.2-.5c-.3-.1-2.5-1-2.9-1.2-.2-.1-.4-.4-.5-.6v-.4c.2-.3.6-.3 1-.1.3.2 2.2 1.7 2.4 1.9l1.2.9zm-4-2.5c-.1 0-.1 0-.2.1v.1c0 .1.1.2.3.3.2.1.9.4 1.6.7-.6-.5-1.2-1-1.4-1.1-.1 0-.2-.1-.3-.1zM172.8 36c.4.1 2.9.9 2.9.9s-2.7-.1-3.1-.1c-.4-.1-.6-.3-.6-.5.1-.2.4-.3.8-.3zM176.9 37.2h-1.2c-.3 0-2.7-.1-3.1-.1-.3 0-.5-.2-.7-.4-.1-.1-.1-.2-.1-.4.1-.3.5-.5 1-.4.4.1 2.7.8 2.9.9l1.2.4zm-4.3-1c-.2 0-.3.1-.4.1v.1c.1.1.2.2.4.2s1 .1 1.7.1c-.7-.2-1.5-.5-1.7-.5.1 0 0 0 0 0zM172.6 38.2c.4-.1 3.1-.1 3.1-.1s-2.6.9-2.9.9c-.4.1-.7-.1-.7-.3-.1-.2.2-.5.5-.5zM172.6 39.2c-.4 0-.7-.2-.7-.5 0-.1 0-.2.1-.4s.4-.3.7-.4c.4-.1 2.8-.1 3.1-.1h1.2l-1.2.4c-.3.1-2.6.9-2.9.9-.2.1-.2.1-.3.1zm1.8-.9c-.8 0-1.6.1-1.7.1-.2 0-.4.1-.4.2v.1c0 .1.2.2.5.1.1-.1.9-.3 1.6-.5zM173.2 40.2c.3-.2 2.8-1.2 2.8-1.2s-2.1 1.7-2.4 1.9c-.3.2-.7.2-.8 0-.1-.2.1-.5.4-.7zM173.2 41.2c-.2 0-.4-.1-.5-.2-.1-.1-.1-.2 0-.4s.2-.4.5-.6c.3-.2 2.6-1.1 2.9-1.2l1.2-.5-1 .8c-.2.2-2.1 1.7-2.4 1.9-.3.2-.5.2-.7.2zm1.7-1.5c-.7.3-1.5.6-1.6.7-.2.1-.3.3-.3.3v.1c0 .1.3.1.5-.1.2 0 .8-.5 1.4-1zM174.5 41.9c.2-.3 2.3-2.1 2.3-2.1s-1.4 2.3-1.6 2.6c-.2.3-.6.4-.7.3-.3-.1-.2-.5 0-.8zM174.6 43c-.1 0-.2 0-.3-.1-.1-.1-.2-.2-.2-.3 0-.2.1-.5.3-.7.2-.3 2.1-1.9 2.3-2.1l.9-.8-.7 1.1c-.1.2-1.4 2.3-1.7 2.6-.1.1-.4.3-.6.3zm1.3-2.1c-.6.5-1.2 1.1-1.3 1.2-.1.2-.2.3-.2.4v.1c.1.1.3 0 .5-.2s.6-.9 1-1.5zM176.3 43.1c.1-.3 1.4-2.7 1.4-2.7s-.5 2.6-.7 3c-.1.3-.4.6-.6.5-.2-.1-.3-.4-.1-.8zM176.5 44.1h-.2c-.2-.1-.3-.2-.3-.4s0-.4.1-.6c.1-.4 1.3-2.5 1.4-2.7l.6-1.1-.2 1.2c-.1.3-.5 2.7-.7 3-.1.3-.4.6-.7.6zm.7-2.5c-.4.7-.7 1.4-.8 1.6 0 .1-.1.3 0 .4 0 .1 0 .1.1.1s.2-.1.3-.4c.1-.1.3-.9.4-1.7zM178.3 43.6c0-.4.4-3 .4-3s.4 2.7.4 3c0 .4-.2.7-.4.7s-.4-.3-.4-.7zM178.8 44.5c-.3 0-.6-.4-.6-.9 0-.4.4-2.8.4-3.1l.2-1.2.2 1.2c0 .3.4 2.7.4 3.1-.1.5-.3.9-.6.9zm0-2.6c-.1.8-.2 1.6-.2 1.7 0 .3.1.5.2.5s.2-.2.2-.5c0-.1-.1-.9-.2-1.7zM180.5 43.4c-.1-.3-.7-3-.7-3s1.3 2.4 1.4 2.7c.1.3.1.7-.1.8-.2.1-.5-.2-.6-.5zM181 44.1c-.3 0-.6-.3-.7-.6-.1-.4-.6-2.7-.7-3l-.2-1.2.6 1.1c.1.2 1.3 2.4 1.4 2.7.1.2.1.4.1.6 0 .2-.2.4-.3.4h-.2zm-.7-2.5c.2.8.3 1.5.4 1.7.1.3.3.4.4.4l.1-.1v-.4c-.2-.2-.6-.9-.9-1.6zM182.4 42.5c-.2-.3-1.6-2.6-1.6-2.6s2 1.8 2.3 2.1c.2.3.3.6.1.8-.2.1-.6-.1-.8-.3zM182.9 43c-.2 0-.5-.1-.7-.4-.2-.3-1.5-2.4-1.7-2.6l-.6-1.1.9.8c.2.2 2 1.8 2.3 2.1.2.2.3.5.3.7 0 .1-.1.3-.2.3 0 .1-.1.2-.3.2zm-1.3-2.1c.4.7.8 1.3.9 1.5.2.2.4.3.5.2v-.1c0-.1 0-.3-.2-.4-.1-.2-.6-.7-1.2-1.2zM183.9 40.9c-.3-.2-2.4-1.9-2.4-1.9s2.5 1 2.8 1.2c.3.2.5.5.4.7-.2.2-.5.2-.8 0zM184.3 41.2c-.2 0-.4-.1-.6-.2-.3-.2-2.2-1.7-2.4-1.9l-1-.8 1.2.5c.3.1 2.5 1 2.9 1.2.2.1.4.4.5.6v.4c-.2.1-.4.2-.6.2zm-1.7-1.5c.6.5 1.2 1 1.4 1.1.2.1.5.1.5.1v-.1c0-.1-.1-.2-.3-.3-.2-.2-.9-.5-1.6-.8zM184.7 39c-.4-.1-2.9-.9-2.9-.9s2.7.1 3.1.1c.4.1.6.3.6.5-.1.2-.4.3-.8.3zM184.9 39.2h-.2c-.4-.1-2.7-.8-2.9-.9l-1.2-.4h1.2c.3 0 2.7.1 3.1.1.3 0 .5.2.7.4.1.1.1.2.1.4-.1.2-.4.4-.8.4zm-1.8-.9c.7.2 1.5.5 1.7.5.3 0 .5-.1.5-.1v-.1c-.1-.1-.2-.2-.4-.2-.2-.1-1-.1-1.8-.1zM184.9 36.8c-.4.1-3.1.1-3.1.1s2.6-.9 2.9-.9c.4-.1.7.1.7.3.1.2-.2.5-.5.5zM180.6 37.2l1.2-.4c.3-.1 2.6-.9 2.9-.9.5-.1.9.1 1 .4 0 .1 0 .2-.1.4s-.4.3-.7.4c-.4.1-2.8.1-3.1.1h-1.2zm4.3-1h-.2c-.2 0-.9.3-1.7.5.8 0 1.6-.1 1.7-.1.2 0 .4-.1.4-.2v-.1c.2 0 0-.1-.2-.1zM184.3 34.8c-.3.2-2.8 1.2-2.8 1.2s2.1-1.7 2.4-1.9c.3-.2.7-.2.8 0 .1.2-.1.5-.4.7zM180.3 36.6l1-.8c.2-.2 2.1-1.7 2.4-1.9.4-.2.9-.2 1 .1.1.1.1.2 0 .4s-.2.4-.5.6c-.3.2-2.6 1.1-2.9 1.2l-1 .4zm4-2.5c-.1 0-.2 0-.4.1s-.8.6-1.4 1.1c.7-.3 1.5-.6 1.6-.7.2-.1.3-.3.3-.3v-.1c.1 0 0-.1-.1-.1zM183 33.1c-.2.3-2.3 2.1-2.3 2.1s1.4-2.3 1.6-2.6c.2-.3.6-.4.7-.3.3.1.2.5 0 .8zM179.9 36.1l.6-1.1c.1-.2 1.4-2.3 1.7-2.6.3-.4.8-.5 1-.3.1.1.2.2.2.3 0 .2-.1.5-.3.7-.2.3-2.1 1.9-2.3 2.1l-.9.9zm3-3.7c-.1 0-.3.1-.4.2-.1.1-.5.8-.9 1.5.6-.5 1.2-1.1 1.3-1.2.1-.1.1-.3 0-.5.1.1.1 0 0 0 .1 0 .1 0 0 0zM181.2 31.9c-.1.3-1.4 2.7-1.4 2.7s.5-2.6.7-3c.1-.3.4-.6.6-.5.2.1.3.4.1.8zM179.4 35.8l.2-1.2c.1-.3.5-2.7.7-3 .2-.4.5-.7.9-.6.2.1.3.2.3.4s0 .4-.1.6c-.1.4-1.3 2.5-1.4 2.7l-.6 1.1zm1.6-4.5c-.1 0-.3.1-.4.4-.1.2-.2.9-.4 1.7.4-.7.7-1.4.8-1.6 0-.1.1-.3 0-.4.1-.1 0-.1 0-.1zM179.2 31.4c0 .4-.4 3-.4 3s-.4-2.7-.4-3c0-.4.2-.7.4-.7s.4.3.4.7zM178.8 35.7l-.2-1.2c0-.3-.4-2.7-.4-3.1 0-.5.3-.9.6-.9s.6.4.6.9c0 .4-.4 2.8-.4 3.1l-.2 1.2zm0-4.8c-.1 0-.2.2-.2.5 0 .2.1 1 .2 1.7.1-.8.2-1.6.2-1.7 0-.3-.2-.5-.2-.5zM177 31.6c.1.3.7 3 .7 3s-1.3-2.4-1.4-2.7c-.1-.3-.1-.7.2-.8.1-.1.4.1.5.5zM178.1 35.8l-.6-1.1c-.1-.2-1.3-2.4-1.4-2.7-.1-.2-.1-.4-.1-.6 0-.2.2-.4.3-.4.3-.1.7.2.9.6.1.4.6 2.7.7 3l.2 1.2zm-1.6-4.5c-.1 0-.1.1-.1.1v.4c.1.2.4.9.8 1.6-.2-.8-.3-1.5-.4-1.7 0-.3-.2-.4-.3-.4zM175.1 32.5c.2.3 1.6 2.6 1.6 2.6s-2-1.8-2.3-2.1c-.2-.3-.3-.6-.1-.8.2-.1.6.1.8.3zM177.6 36.1l-.9-.8c-.2-.2-2-1.8-2.3-2.1-.2-.2-.3-.5-.3-.7 0-.1.1-.3.2-.3.2-.2.7-.1 1 .3.2.3 1.5 2.4 1.7 2.6l.6 1zm-3-3.7c-.1 0-.1 0 0 0-.1 0-.1.1 0 0-.1.2-.1.4.1.5.1.1.7.7 1.3 1.2-.4-.7-.8-1.3-.9-1.5-.3-.1-.4-.2-.5-.2zM173.6 34.1c.3.2 2.4 1.9 2.4 1.9s-2.5-1-2.8-1.2c-.3-.2-.5-.5-.4-.7.2-.2.5-.2.8 0zM177.2 36.6l-1.2-.5c-.3-.1-2.5-1-2.9-1.2-.2-.1-.4-.4-.5-.6v-.4c.2-.3.6-.3 1-.1.3.2 2.2 1.7 2.4 1.9l1.2.9zm-4-2.5c-.1 0-.1 0-.2.1v.1c0 .1.1.2.3.3.2.1.9.4 1.6.7-.6-.5-1.2-1-1.4-1.1-.1 0-.2-.1-.3-.1zM172.8 36c.4.1 2.9.9 2.9.9s-2.7-.1-3.1-.1c-.4-.1-.6-.3-.6-.5.1-.2.4-.3.8-.3zM176.9 37.2h-1.2c-.3 0-2.7-.1-3.1-.1-.3 0-.5-.2-.7-.4-.1-.1-.1-.2-.1-.4.1-.3.5-.5 1-.4.4.1 2.7.8 2.9.9l1.2.4zm-4.3-1c-.2 0-.3.1-.4.1v.1c.1.1.2.2.4.2s1 .1 1.7.1c-.7-.2-1.5-.5-1.7-.5.1 0 0 0 0 0zM172.6 38.2c.4-.1 3.1-.1 3.1-.1s-2.6.9-2.9.9c-.4.1-.7-.1-.7-.3-.1-.2.2-.5.5-.5zM172.6 39.2c-.4 0-.7-.2-.7-.5 0-.1 0-.2.1-.4s.4-.3.7-.4c.4-.1 2.8-.1 3.1-.1h1.2l-1.2.4c-.3.1-2.6.9-2.9.9-.2.1-.2.1-.3.1zm1.8-.9c-.8 0-1.6.1-1.7.1-.2 0-.4.1-.4.2v.1c0 .1.2.2.5.1.1-.1.9-.3 1.6-.5zM173.2 40.2c.3-.2 2.8-1.2 2.8-1.2s-2.1 1.7-2.4 1.9c-.3.2-.7.2-.8 0-.1-.2.1-.5.4-.7zM173.2 41.2c-.2 0-.4-.1-.5-.2-.1-.1-.1-.2 0-.4s.2-.4.5-.6c.3-.2 2.6-1.1 2.9-1.2l1.2-.5-1 .8c-.2.2-2.1 1.7-2.4 1.9-.3.2-.5.2-.7.2zm1.7-1.5c-.7.3-1.5.6-1.6.7-.2.1-.3.3-.3.3v.1c0 .1.3.1.5-.1.2 0 .8-.5 1.4-1zM174.5 41.9c.2-.3 2.3-2.1 2.3-2.1s-1.4 2.3-1.6 2.6c-.2.3-.6.4-.7.3-.3-.1-.2-.5 0-.8zM174.6 43c-.1 0-.2 0-.3-.1-.1-.1-.2-.2-.2-.3 0-.2.1-.5.3-.7.2-.3 2.1-1.9 2.3-2.1l.9-.8-.7 1.1c-.1.2-1.4 2.3-1.7 2.6-.1.1-.4.3-.6.3zm1.3-2.1c-.6.5-1.2 1.1-1.3 1.2-.1.2-.2.3-.2.4v.1c.1.1.3 0 .5-.2s.6-.9 1-1.5zM176.3 43.1c.1-.3 1.4-2.7 1.4-2.7s-.5 2.6-.7 3c-.1.3-.4.6-.6.5-.2-.1-.3-.4-.1-.8zM176.5 44.1h-.2c-.2-.1-.3-.2-.3-.4s0-.4.1-.6c.1-.4 1.3-2.5 1.4-2.7l.6-1.1-.2 1.2c-.1.3-.5 2.7-.7 3-.1.3-.4.6-.7.6zm.7-2.5c-.4.7-.7 1.4-.8 1.6 0 .1-.1.3 0 .4 0 .1 0 .1.1.1s.2-.1.3-.4c.1-.1.3-.9.4-1.7zM178.3 43.6c0-.4.4-3 .4-3s.4 2.7.4 3c0 .4-.2.7-.4.7s-.4-.3-.4-.7zM178.8 44.5c-.3 0-.6-.4-.6-.9 0-.4.4-2.8.4-3.1l.2-1.2.2 1.2c0 .3.4 2.7.4 3.1-.1.5-.3.9-.6.9zm0-2.6c-.1.8-.2 1.6-.2 1.7 0 .3.1.5.2.5s.2-.2.2-.5c0-.1-.1-.9-.2-1.7zM180.5 43.4c-.1-.3-.7-3-.7-3s1.3 2.4 1.4 2.7c.1.3.1.7-.1.8-.2.1-.5-.2-.6-.5zM181 44.1c-.3 0-.6-.3-.7-.6-.1-.4-.6-2.7-.7-3l-.2-1.2.6 1.1c.1.2 1.3 2.4 1.4 2.7.1.2.1.4.1.6 0 .2-.2.4-.3.4h-.2zm-.7-2.5c.2.8.3 1.5.4 1.7.1.3.3.4.4.4l.1-.1v-.4c-.2-.2-.6-.9-.9-1.6zM182.4 42.5c-.2-.3-1.6-2.6-1.6-2.6s2 1.8 2.3 2.1c.2.3.3.6.1.8-.2.1-.6-.1-.8-.3zM182.9 43c-.2 0-.5-.1-.7-.4-.2-.3-1.5-2.4-1.7-2.6l-.6-1.1.9.8c.2.2 2 1.8 2.3 2.1.2.2.3.5.3.7 0 .1-.1.3-.2.3 0 .1-.1.2-.3.2zm-1.3-2.1c.4.7.8 1.3.9 1.5.2.2.4.3.5.2v-.1c0-.1 0-.3-.2-.4-.1-.2-.6-.7-1.2-1.2zM183.9 40.9c-.3-.2-2.4-1.9-2.4-1.9s2.5 1 2.8 1.2c.3.2.5.5.4.7-.2.2-.5.2-.8 0zM184.3 41.2c-.2 0-.4-.1-.6-.2-.3-.2-2.2-1.7-2.4-1.9l-1-.8 1.2.5c.3.1 2.5 1 2.9 1.2.2.1.4.4.5.6v.4c-.2.1-.4.2-.6.2zm-1.7-1.5c.6.5 1.2 1 1.4 1.1.2.1.5.1.5.1v-.1c0-.1-.1-.2-.3-.3-.2-.2-.9-.5-1.6-.8zM184.7 39c-.4-.1-2.9-.9-2.9-.9s2.7.1 3.1.1c.4.1.6.3.6.5-.1.2-.4.3-.8.3zM184.9 39.2h-.2c-.4-.1-2.7-.8-2.9-.9l-1.2-.4h1.2c.3 0 2.7.1 3.1.1.3 0 .5.2.7.4.1.1.1.2.1.4-.1.2-.4.4-.8.4zm-1.8-.9c.7.2 1.5.5 1.7.5.3 0 .5-.1.5-.1v-.1c-.1-.1-.2-.2-.4-.2-.2-.1-1-.1-1.8-.1zM184.9 36.8c-.4.1-3.1.1-3.1.1s2.6-.9 2.9-.9c.4-.1.7.1.7.3.1.2-.2.5-.5.5zM180.6 37.2l1.2-.4c.3-.1 2.6-.9 2.9-.9.5-.1.9.1 1 .4 0 .1 0 .2-.1.4s-.4.3-.7.4c-.4.1-2.8.1-3.1.1h-1.2zm4.3-1h-.2c-.2 0-.9.3-1.7.5.8 0 1.6-.1 1.7-.1.2 0 .4-.1.4-.2v-.1c.2 0 0-.1-.2-.1zM184.3 34.8c-.3.2-2.8 1.2-2.8 1.2s2.1-1.7 2.4-1.9c.3-.2.7-.2.8 0 .1.2-.1.5-.4.7zM180.3 36.6l1-.8c.2-.2 2.1-1.7 2.4-1.9.4-.2.9-.2 1 .1.1.1.1.2 0 .4s-.2.4-.5.6c-.3.2-2.6 1.1-2.9 1.2l-1 .4zm4-2.5c-.1 0-.2 0-.4.1s-.8.6-1.4 1.1c.7-.3 1.5-.6 1.6-.7.2-.1.3-.3.3-.3v-.1c.1 0 0-.1-.1-.1zM183 33.1c-.2.3-2.3 2.1-2.3 2.1s1.4-2.3 1.6-2.6c.2-.3.6-.4.7-.3.3.1.2.5 0 .8zM179.9 36.1l.6-1.1c.1-.2 1.4-2.3 1.7-2.6.3-.4.8-.5 1-.3.1.1.2.2.2.3 0 .2-.1.5-.3.7-.2.3-2.1 1.9-2.3 2.1l-.9.9zm3-3.7c-.1 0-.3.1-.4.2-.1.1-.5.8-.9 1.5.6-.5 1.2-1.1 1.3-1.2.1-.1.1-.3 0-.5.1.1.1 0 0 0 .1 0 .1 0 0 0zM181.2 31.9c-.1.3-1.4 2.7-1.4 2.7s.5-2.6.7-3c.1-.3.4-.6.6-.5.2.1.3.4.1.8zM179.4 35.8l.2-1.2c.1-.3.5-2.7.7-3 .2-.4.5-.7.9-.6.2.1.3.2.3.4s0 .4-.1.6c-.1.4-1.3 2.5-1.4 2.7l-.6 1.1zm1.6-4.5c-.1 0-.3.1-.4.4-.1.2-.2.9-.4 1.7.4-.7.7-1.4.8-1.6 0-.1.1-.3 0-.4.1-.1 0-.1 0-.1zM179.2 19.9c0 .4-.4 3-.4 3s-.4-2.7-.4-3c0-.4.2-.7.4-.7.2.1.4.4.4.7zM178.8 24.2l-.2-1.2c0-.3-.4-2.7-.4-3.1 0-.5.3-.9.6-.9s.6.4.6.9c0 .4-.4 2.8-.4 3.1l-.2 1.2zm0-4.8c-.1 0-.2.2-.2.5 0 .2.1 1 .2 1.7.1-.8.2-1.6.2-1.7 0-.3-.2-.5-.2-.5zM176.1 20.1c.1.4.1 3.1.1 3.1s-.9-2.6-.9-2.9c-.1-.4.1-.7.3-.7.2-.1.4.2.5.5zM176.4 24.4l-.4-1.2c-.1-.3-.9-2.6-.9-2.9 0-.3 0-.6.1-.7.1-.1.2-.2.3-.2h.1c.3 0 .6.3.7.8.1.4.1 2.8.1 3.1v1.1zm-.8-4.7s0 .1 0 0c-.1.1-.2.3-.1.5 0 .2.3.9.5 1.7 0-.8-.1-1.6-.1-1.7 0-.3-.2-.5-.3-.5zM173.1 20.9c.1.3.7 3 .7 3s-1.3-2.4-1.4-2.7c-.1-.3-.1-.7.2-.8.1-.1.4.1.5.5zM174.2 25l-.6-1.1c-.1-.2-1.3-2.4-1.4-2.7-.2-.5 0-.9.3-1 .3-.1.7.2.9.6.1.4.6 2.7.7 3l.1 1.2zm-1.6-4.5c-.1 0-.2.3-.1.5s.4.9.8 1.6c-.2-.8-.3-1.5-.4-1.7 0-.2-.2-.4-.3-.4zM170.3 22.1c.2.3 1.2 2.8 1.2 2.8s-1.7-2.1-1.9-2.4c-.2-.3-.2-.7 0-.8.2-.1.5.1.7.4zM172.1 26l-.8-1c-.2-.2-1.7-2.1-1.9-2.4-.2-.4-.2-.9.1-1 .3-.2.7 0 .9.4.2.3 1.1 2.6 1.2 2.9l.5 1.1zm-2.3-4.1c-.1.1-.1.3 0 .5s.6.8 1.1 1.4c-.3-.7-.6-1.5-.7-1.6-.2-.2-.3-.3-.4-.3zM167.8 23.8c.2.3 1.6 2.6 1.6 2.6s-2-1.8-2.3-2.1c-.2-.3-.3-.6-.1-.8.2-.1.5 0 .8.3zM170.2 27.3l-.9-.8c-.2-.2-2-1.8-2.3-2.1-.3-.4-.4-.8-.1-1 .2-.2.7-.1 1 .3.2.3 1.5 2.4 1.7 2.6l.6 1zm-3-3.6c-.1.1-.1.3.1.5.1.1.7.7 1.3 1.2-.4-.7-.8-1.3-.9-1.5-.2-.2-.4-.2-.5-.2zM165.6 25.9c.3.2 2.1 2.3 2.1 2.3s-2.3-1.4-2.6-1.6c-.3-.2-.4-.6-.3-.7.1-.3.5-.2.8 0zM168.6 29l-1.1-.6c-.2-.1-2.3-1.4-2.6-1.7-.2-.1-.3-.3-.3-.5-.1-.2 0-.4.1-.5.2-.2.7-.2 1 .1.3.2 1.9 2.1 2.1 2.3l.8.9zm-3.6-3.1h-.1v.2c0 .1.1.2.2.3.1.1.8.5 1.5.9-.5-.6-1.1-1.2-1.2-1.3-.1-.1-.3-.1-.4-.1zM163.7 28.4c.3.2 2.4 1.9 2.4 1.9s-2.5-1-2.8-1.2c-.3-.2-.5-.5-.4-.7.2-.2.5-.2.8 0zM167.3 30.9l-1.2-.5c-.3-.1-2.5-1-2.9-1.2-.4-.2-.6-.7-.4-.9.2-.3.6-.3 1-.1.3.2 2.2 1.7 2.4 1.9l1.1.8zm-4-2.5c-.1 0-.1 0-.2.1 0 .1.1.3.3.4.2.1.9.4 1.6.7-.6-.5-1.2-1-1.4-1.1-.1 0-.2-.1-.3-.1zM162.4 31.1c.3.1 2.7 1.4 2.7 1.4s-2.6-.5-3-.7c-.3-.1-.6-.4-.5-.6.1-.2.4-.2.8-.1zM166.3 33l-1.2-.2c-.3-.1-2.7-.5-3-.7-.3-.1-.5-.3-.6-.5-.1-.1-.1-.3 0-.4.1-.3.6-.4 1-.3.4.1 2.5 1.3 2.7 1.4l1.1.7zm-4.3-1.8c-.1 0-.2 0-.2.1v.1c0 .1.2.2.4.3.2.1.9.2 1.7.4-.7-.4-1.4-.7-1.6-.8-.1 0-.2-.1-.3-.1zM161.5 34c.4.1 2.9.9 2.9.9s-2.7-.1-3.1-.1c-.4-.1-.6-.3-.6-.5.1-.2.5-.3.8-.3zM165.7 35.2h-1.2c-.3 0-2.7-.1-3.1-.1-.2 0-.4-.1-.5-.2-.2-.1-.2-.3-.2-.5.1-.3.5-.5 1-.4.4.1 2.7.8 2.9.9l1.1.3zm-4.4-1c-.2 0-.3.1-.4.1 0 0 0 .1.1.1.1.1.2.1.4.2.2 0 1 .1 1.7.1-.7-.2-1.5-.5-1.7-.5h-.1zM161.2 37.1c.4 0 3 .4 3 .4s-2.7.4-3 .4c-.4 0-.7-.2-.7-.4s.3-.4.7-.4zM161.2 38.1c-.5 0-.9-.3-.9-.6s.4-.6.9-.6c.4 0 2.8.4 3.1.4l1.2.2-1.2.2c-.3 0-2.7.4-3.1.4zm0-.8c-.3 0-.5.1-.5.2s.2.2.5.2c.2 0 1-.1 1.7-.2-.7-.1-1.5-.2-1.7-.2zM161.4 40.1c.4-.1 3.1-.1 3.1-.1s-2.6.9-2.9.9c-.4.1-.7-.1-.7-.3-.1-.2.1-.4.5-.5zM161.3 41.2c-.4 0-.7-.2-.7-.5 0-.2 0-.4.2-.5.1-.1.3-.2.5-.2.4-.1 2.8-.1 3.1-.1h1.2l-1.2.4c-.3.1-2.6.9-2.9.9 0-.1-.1 0-.2 0zm1.9-1c-.8 0-1.6.1-1.7.1-.1 0-.3.1-.4.2-.1 0-.1.1-.1.1 0 .1.2.2.5.1.2 0 .9-.2 1.7-.5zM162.1 43.1c.3-.1 3-.7 3-.7s-2.4 1.3-2.7 1.4c-.3.1-.7.1-.8-.1-.1-.2.2-.4.5-.6zM162 44.1c-.3 0-.5-.1-.6-.3v-.4c.1-.2.3-.4.6-.5.4-.1 2.7-.6 3-.7l1.2-.2-1.1.6c-.2.1-2.4 1.3-2.7 1.4-.1.1-.2.1-.4.1zm1.9-1.2c-.8.2-1.5.3-1.7.4-.2.1-.3.2-.4.3v.1c0 .1.3.1.5 0s.9-.4 1.6-.8zM163.3 45.9c.3-.2 2.8-1.2 2.8-1.2s-2.1 1.7-2.4 1.9c-.3.2-.7.2-.8 0-.1-.2.1-.5.4-.7zM163.3 47c-.2 0-.4-.1-.5-.2-.2-.3 0-.7.4-.9.3-.2 2.6-1.1 2.9-1.2l1.2-.5-1 .8c-.2.2-2.1 1.7-2.4 1.9-.2 0-.4.1-.6.1zm1.7-1.6c-.7.3-1.5.6-1.6.7-.3.1-.4.4-.3.4 0 .1.3.1.5-.1.2 0 .8-.5 1.4-1zM165 48.5c.3-.2 2.6-1.6 2.6-1.6s-1.8 2-2.1 2.3c-.3.2-.6.3-.8.1-.1-.3.1-.6.3-.8zM165 49.5c-.2 0-.3-.1-.4-.2-.2-.3-.1-.7.3-1 .3-.2 2.4-1.5 2.6-1.7l1.1-.6-.8.9c-.2.2-1.8 2-2.1 2.3-.2.2-.5.3-.7.3zm1.6-1.8c-.7.4-1.3.8-1.5.9-.2.2-.3.4-.2.5h.1c.1 0 .3-.1.4-.2.2-.1.7-.7 1.2-1.2zM167.2 50.7c.2-.3 2.3-2.1 2.3-2.1s-1.4 2.3-1.6 2.6c-.2.3-.6.4-.7.3-.3-.2-.3-.5 0-.8zM167.2 51.7c-.1 0-.2 0-.3-.1-.1-.1-.2-.2-.2-.3 0-.2.1-.5.3-.7.2-.3 2.1-1.9 2.3-2.1l.9-.8-.7 1.1c-.1.2-1.4 2.3-1.7 2.6-.1.2-.3.3-.6.3zm1.4-2.1c-.6.5-1.2 1.1-1.3 1.2-.1.2-.2.3-.2.4v.1c.1.1.3 0 .5-.2.1-.1.6-.8 1-1.5zM169.6 52.5c.2-.3 1.9-2.4 1.9-2.4s-1 2.5-1.2 2.8c-.2.3-.5.5-.7.4-.2-.1-.2-.5 0-.8zM169.8 53.5c-.1 0-.2 0-.2-.1-.1-.1-.2-.2-.2-.3-.1-.2 0-.5.1-.7.2-.3 1.7-2.2 1.9-2.4l.8-1-.5 1.2c-.1.3-1 2.5-1.2 2.9-.2.2-.5.4-.7.4zm1-2.3c-.5.6-1 1.2-1.1 1.4-.1.2-.1.4-.1.5v.1c.1 0 .3-.1.4-.3.2-.2.5-1 .8-1.7zM172.4 53.9c.1-.3 1.4-2.7 1.4-2.7s-.5 2.6-.7 3c-.1.3-.4.6-.6.5s-.3-.5-.1-.8zM172.6 54.8h-.2c-.1 0-.2-.1-.3-.3-.1-.2-.1-.5 0-.8.1-.4 1.3-2.5 1.4-2.7l.6-1.1-.2 1.2c-.1.3-.5 2.7-.7 3 0 .5-.3.7-.6.7zm.7-2.4c-.4.7-.7 1.4-.8 1.6-.1.2-.1.4 0 .5 0 0 0 .1.1.1s.2-.1.3-.4c.1-.3.3-1.1.4-1.8zM175.3 54.7c.1-.4.9-2.9.9-2.9s-.1 2.7-.1 3.1c-.1.4-.3.6-.5.6-.2-.1-.4-.4-.3-.8zM175.6 55.6c-.2 0-.4-.2-.5-.4-.1-.2-.1-.4 0-.6.1-.4.8-2.7.9-2.9l.4-1.2v1.2c0 .3-.1 2.7-.1 3.1-.1.5-.4.8-.7.8zm.4-2.5c-.2.7-.5 1.5-.5 1.7v.4c0 .1.1.1.1.1.1 0 .2-.2.3-.4 0-.2.1-1 .1-1.8zM178.3 55.1c0-.4.4-3 .4-3s.4 2.7.4 3c0 .4-.2.7-.4.7-.2-.1-.4-.4-.4-.7zM178.8 55.9c-.3 0-.6-.4-.6-.9 0-.4.4-2.8.4-3.1l.2-1.2.2 1.2c0 .3.4 2.7.4 3.1-.1.5-.3.9-.6.9zm0-2.6c-.1.8-.2 1.6-.2 1.7 0 .3.1.5.2.5s.2-.2.2-.5c0-.1-.1-.9-.2-1.7zM181.4 54.9c-.1-.4-.1-3.1-.1-3.1s.9 2.6.9 2.9c.1.4-.1.7-.3.7-.2.1-.4-.2-.5-.5zM181.9 55.6c-.3 0-.6-.3-.7-.8-.1-.4-.1-2.8-.1-3.1v-1.2l.4 1.2c.1.3.9 2.6.9 2.9.1.3 0 .6-.1.7-.1.2-.2.3-.4.3zm-.4-2.5c0 .8.1 1.6.1 1.7 0 .3.2.4.3.4v.2-.2s.1 0 .1-.1c.1-.1.1-.2.1-.5-.1 0-.4-.8-.6-1.5zM184.4 54.1c-.1-.3-.7-3-.7-3s1.3 2.4 1.4 2.7c.1.3.1.7-.2.8-.1.1-.4-.1-.5-.5zM184.9 54.8c-.3 0-.6-.3-.7-.6-.1-.4-.6-2.7-.7-3l-.2-1.2.6 1.1c.1.2 1.3 2.4 1.4 2.7.1.2.1.4.1.6 0 .2-.2.4-.3.4h-.2zm-.7-2.4c.2.8.3 1.5.4 1.7.1.3.3.4.4.4l.1-.1V54c-.2-.2-.6-.9-.9-1.6zM187.2 52.9c-.2-.3-1.2-2.8-1.2-2.8s1.7 2.1 1.9 2.4c.2.3.2.7 0 .8-.2.1-.5-.1-.7-.4zM187.7 53.5c-.3 0-.5-.2-.7-.5-.2-.3-1.1-2.6-1.2-2.9l-.5-1.2.8 1c.2.2 1.7 2.1 1.9 2.4.1.2.2.5.1.7 0 .1-.1.2-.2.3 0 .2-.1.2-.2.2zm-1-2.3c.3.7.6 1.5.7 1.6.1.2.4.4.4.3V53c0-.1 0-.3-.1-.5-.1-.1-.6-.7-1-1.3zM189.7 51.2c-.2-.3-1.6-2.6-1.6-2.6s2 1.8 2.3 2.1c.2.3.3.6.1.8-.2.1-.5 0-.8-.3zM190.3 51.7c-.2 0-.5-.1-.7-.4-.2-.3-1.5-2.4-1.7-2.6l-.6-1.1.9.8c.2.2 2 1.8 2.3 2.1.1.2.2.4.3.5 0 .2 0 .4-.2.5-.1.2-.2.2-.3.2zm-1.4-2.1c.4.7.8 1.3.9 1.5.2.2.4.3.5.2v-.2c0-.1-.1-.2-.2-.3 0-.1-.6-.7-1.2-1.2zM191.9 49.1c-.3-.2-2.1-2.3-2.1-2.3s2.3 1.4 2.6 1.6c.3.2.4.6.3.7-.1.3-.5.2-.8 0zM192.5 49.5c-.2 0-.4-.1-.6-.3-.3-.2-1.9-2.1-2.1-2.3l-.8-.9 1.1.6c.2.1 2.3 1.4 2.6 1.7.2.2.4.4.4.6 0 .1 0 .3-.1.4-.2.1-.4.2-.5.2zm-1.6-1.8c.5.6 1.1 1.2 1.2 1.3.1.1.3.2.4.2h.1v-.1c0-.1-.1-.2-.2-.4-.2-.2-.9-.6-1.5-1zM193.8 46.6c-.3-.2-2.4-1.9-2.4-1.9s2.5 1 2.8 1.2c.3.2.5.5.4.7-.2.2-.5.2-.8 0zM194.2 47c-.2 0-.4-.1-.6-.2-.3-.2-2.2-1.7-2.4-1.9l-1-.8 1.2.5c.3.1 2.5 1 2.9 1.2.2.1.4.4.5.6v.4c-.2.1-.4.2-.6.2zm-1.7-1.6c.6.5 1.2 1 1.4 1.1.2.1.5.1.5.1v-.1c0-.1-.1-.2-.3-.3-.2-.2-.9-.5-1.6-.8zM195.1 43.9c-.3-.1-2.7-1.4-2.7-1.4s2.6.5 3 .7c.3.1.6.4.5.6-.1.1-.4.2-.8.1zM195.5 44.1c-.1 0-.3 0-.4-.1-.4-.1-2.5-1.3-2.7-1.4l-1.1-.6 1.2.2c.3.1 2.7.5 3 .7.3.1.5.3.6.5.1.1.1.3 0 .4-.1.2-.3.3-.6.3zm-1.9-1.2c.7.4 1.4.7 1.6.8.2.1.5 0 .5 0v-.1c0-.1-.2-.2-.4-.3-.1-.1-.9-.2-1.7-.4zM196 40.9c-.4-.1-2.9-.9-2.9-.9s2.7.1 3.1.1c.4.1.6.3.6.5-.1.3-.5.4-.8.3zM196.2 41.2h-.2c-.4-.1-2.7-.8-2.9-.9l-1.2-.4h1.2c.3 0 2.7.1 3.1.1.5.1.8.4.7.7 0 .3-.3.5-.7.5zm-1.9-1c.7.2 1.5.5 1.7.5.3.1.5-.1.5-.1 0-.1-.2-.2-.4-.3-.2 0-1 0-1.8-.1zM196.3 37.9c-.4 0-3-.4-3-.4s2.7-.4 3-.4c.4 0 .7.2.7.4s-.3.4-.7.4zM196.3 38.1c-.4 0-2.8-.4-3.1-.4l-1.2-.2 1.2-.2c.3 0 2.7-.4 3.1-.4.5 0 .9.3.9.6 0 .1-.1.2-.2.3-.1.2-.4.3-.7.3zm-1.7-.6c.8.1 1.6.2 1.7.2.2 0 .4-.1.4-.1v-.1c0-.1-.2-.2-.5-.2-.1 0-.9.1-1.6.2zM196.1 34.8c-.4.1-3.1.1-3.1.1s2.6-.9 2.9-.9c.4-.1.7.1.7.3.2.2-.1.5-.5.5zM191.8 35.2l1.2-.4c.3-.1 2.6-.9 2.9-.9.5-.1.9.1 1 .4 0 .1 0 .2-.1.4s-.4.3-.7.4c-.4.1-2.8.1-3.1.1h-1.2zm4.4-1h-.2c-.2 0-.9.3-1.7.5.8 0 1.6-.1 1.7-.1.2 0 .4-.1.4-.2v-.1c.1 0 0-.1-.2-.1zM195.4 31.9c-.3.1-3 .7-3 .7s2.4-1.3 2.7-1.4c.3-.1.7-.1.8.2.1.1-.2.3-.5.5zM191.2 33l1.1-.6c.2-.1 2.4-1.3 2.7-1.4.4-.2.9 0 1 .3v.4c-.1.2-.3.4-.6.5-.4.1-2.7.6-3 .7l-1.2.1zm4.3-1.8c-.1 0-.2 0-.3.1-.2.1-.9.4-1.6.8.8-.2 1.5-.3 1.7-.4.2-.1.3-.2.4-.3v-.1s-.1-.1-.2-.1zM194.2 29.1c-.3.2-2.8 1.2-2.8 1.2s2.1-1.7 2.4-1.9c.3-.2.7-.2.8 0 .1.2-.1.5-.4.7zM190.2 30.9l1-.8c.2-.2 2.1-1.7 2.4-1.9.4-.2.9-.2 1 .1.1.2.1.3 0 .5s-.2.3-.4.4c-.3.2-2.6 1.1-2.9 1.2l-1.1.5zm4-2.5c-.1 0-.2 0-.4.1s-.8.6-1.4 1.1c.7-.3 1.5-.6 1.6-.7l.3-.3v-.2h-.1zM192.5 26.5c-.3.2-2.6 1.6-2.6 1.6s1.8-2 2.1-2.3c.3-.2.6-.3.8-.1.1.2 0 .6-.3.8zM188.9 29l.8-.9c.2-.2 1.8-2 2.1-2.3.4-.3.8-.3 1-.1.1.1.1.2.1.4s-.2.5-.4.6c-.3.2-2.4 1.5-2.6 1.7l-1 .6zm3.6-3.1c-.1 0-.3.1-.4.2-.1.1-.7.7-1.2 1.3.7-.4 1.3-.8 1.5-.9.2-.1.2-.3.2-.4V26c0-.1-.1-.1-.1-.1zM190.4 24.3c-.2.3-2.3 2.1-2.3 2.1s1.4-2.3 1.6-2.6c.2-.3.6-.4.7-.3.2.2.2.5 0 .8zM187.3 27.3l.6-1.1c.1-.2 1.4-2.3 1.7-2.6.3-.4.8-.5 1-.3.1.1.2.2.2.3 0 .2-.1.5-.3.7-.2.3-2.1 1.9-2.3 2.1l-.9.9zm3-3.6c-.1 0-.3.1-.4.2-.1.1-.5.8-.9 1.5.6-.5 1.2-1.1 1.3-1.2.1-.2.1-.4 0-.5.1 0 .1 0 0 0zM187.9 22.5c-.2.3-1.9 2.4-1.9 2.4s1-2.5 1.2-2.8c.2-.3.5-.5.7-.4.2.1.2.5 0 .8zM185.4 26l.5-1.2c.1-.3 1-2.5 1.2-2.9.2-.4.7-.6.9-.4.1.1.2.2.2.3.1.2 0 .5-.1.7-.2.3-1.7 2.2-1.9 2.4l-.8 1.1zm2.4-4.1c-.1 0-.3.1-.4.3-.1.2-.4.9-.7 1.6.5-.6 1-1.2 1.1-1.4v-.5zM185.1 21.1c-.1.3-1.4 2.7-1.4 2.7s.5-2.6.7-3c.1-.3.4-.6.6-.5.2.1.3.5.1.8zM183.3 25l.2-1.2c.1-.3.5-2.7.7-3 .2-.4.5-.7.9-.6.2.1.3.2.3.4s0 .4-.1.6c-.1.4-1.3 2.5-1.4 2.7l-.6 1.1zm1.6-4.5c-.1 0-.3.1-.4.4-.1.2-.2.9-.4 1.7.4-.7.7-1.4.8-1.6 0-.1.1-.3 0-.4.1 0 .1 0 0-.1zM182.2 20.3c-.1.4-.9 2.9-.9 2.9s.1-2.7.1-3.1c.1-.4.3-.6.5-.6.2.1.4.4.3.8zM181.1 24.4v-1.2c0-.3.1-2.7.1-3.1.1-.4.4-.8.7-.8h.1c.3.1.5.5.4 1-.1.4-.8 2.7-.9 2.9l-.4 1.2zm.8-4.7c-.1 0-.2.2-.3.4 0 .2-.1 1-.1 1.7.2-.7.5-1.5.5-1.7.1-.1 0-.4-.1-.4zM179.2 26.1c0 .4-.4 3-.4 3s-.4-2.7-.4-3c0-.4.2-.7.4-.7s.4.3.4.7zM178.8 30.4l-.2-1.2c0-.3-.4-2.7-.4-3.1 0-.5.3-.9.6-.9s.6.4.6.9c0 .4-.4 2.8-.4 3.1l-.2 1.2zm0-4.8c-.1 0-.2.2-.2.5 0 .2.1 1 .2 1.7.1-.8.2-1.6.2-1.7 0-.3-.2-.5-.2-.5zM176.2 26.3c.1.4.4 3 .4 3s-1.1-2.5-1.2-2.8c-.1-.4 0-.7.2-.8.2 0 .5.3.6.6zM176.9 30.6l-.5-1.1c-.1-.3-1.1-2.5-1.2-2.9-.1-.2-.1-.4 0-.6.1-.2.2-.3.4-.4.3-.1.7.2.8.7.1.4.4 2.8.4 3.1l.1 1.2zm-1.2-4.6c-.1 0-.1.1-.1.1v.4c0 .2.4.9.7 1.6-.1-.8-.2-1.6-.2-1.7-.2-.3-.3-.4-.4-.4zM173.4 27.4c.2.3 1.2 2.8 1.2 2.8s-1.7-2.1-1.9-2.4c-.2-.3-.2-.7 0-.8.2-.1.5.1.7.4zM175.2 31.3l-.8-1c-.2-.2-1.7-2.1-1.9-2.4-.1-.2-.2-.4-.2-.6 0-.2.1-.4.2-.5.3-.2.7 0 .9.4.2.3 1.1 2.6 1.2 2.9l.6 1.2zm-2.4-4.1c-.1 0-.1.1-.1.2s0 .2.1.4.6.8 1.1 1.4c-.3-.7-.6-1.5-.7-1.6-.1-.3-.3-.4-.4-.4zM171 29.1c.3.3 1.9 2.4 1.9 2.4s-2.2-1.6-2.4-1.9c-.3-.3-.3-.6-.2-.8 0 0 .4.1.7.3zM173.7 32.4l-1-.7c-.2-.2-2.2-1.6-2.5-1.9-.2-.2-.3-.5-.3-.7 0-.1 0-.3.1-.3.2-.2.7-.1 1 .2.3.3 1.7 2.2 1.9 2.5l.8.9zm-3.3-3.4s-.1.1 0 0c-.1 0-.1.1-.1.1 0 .1.1.3.2.4.1.1.8.6 1.4 1.1-.5-.6-.9-1.3-1.1-1.4-.1-.1-.3-.2-.4-.2zM169.1 31.4c.3.2 2.4 1.9 2.4 1.9s-2.5-1-2.8-1.2c-.3-.2-.5-.5-.4-.7.1-.2.4-.2.8 0zM172.6 33.9l-1.2-.5c-.3-.1-2.5-1-2.9-1.2-.4-.2-.6-.7-.4-.9.2-.3.6-.3 1-.1.3.2 2.2 1.7 2.5 1.9l1 .8zm-4-2.4c-.1 0-.1 0-.2.1 0 .1.1.3.3.4.2.1.9.4 1.6.7-.6-.5-1.2-1-1.4-1.1-.1-.1-.2-.1-.3-.1zM167.8 34.1c.4.1 2.8 1.2 2.8 1.2s-2.7-.3-3-.4c-.4-.1-.6-.3-.5-.6 0-.2.4-.2.7-.2zM171.9 35.6l-1.2-.1c-.3 0-2.7-.3-3.1-.4-.3-.1-.5-.2-.6-.4-.1-.1-.1-.2-.1-.4.1-.3.5-.5 1-.3.4.1 2.6 1.1 2.9 1.2l1.1.4zm-4.4-1.3c-.2 0-.3.1-.3.1v.1c0 .1.2.2.4.3.2 0 1 .1 1.7.2-.7-.3-1.4-.6-1.6-.7h-.2zM167.3 37.1c.4 0 3 .4 3 .4s-2.7.4-3 .4c-.4 0-.7-.2-.7-.4s.3-.4.7-.4zM167.3 38.1c-.5 0-.9-.3-.9-.6s.4-.6.9-.6c.4 0 2.8.4 3.1.4l1.2.2-1.2.2c-.3 0-2.7.4-3.1.4zm0-.8c-.3 0-.5.1-.5.2s.2.2.5.2c.2 0 1-.1 1.7-.2-.7-.1-1.5-.2-1.7-.2zM167.6 40.1c.4-.1 3-.4 3-.4s-2.5 1.1-2.8 1.2c-.4.1-.7 0-.8-.2 0-.3.2-.5.6-.6zM167.5 41.1c-.3 0-.6-.2-.7-.4 0-.2 0-.4.2-.5.1-.1.3-.2.5-.3.4-.1 2.8-.4 3.1-.4l1.2-.1-1.1.5c-.3.1-2.5 1.1-2.9 1.2h-.3zm1.9-1.1c-.8.1-1.6.2-1.7.2-.1 0-.3.1-.3.2l-.1.1c0 .1.3.1.5.1.1 0 .9-.3 1.6-.6zM168.6 42.9c.3-.2 2.8-1.2 2.8-1.2s-2.1 1.7-2.4 1.9c-.3.2-.7.2-.8 0 0-.2.1-.6.4-.7zM168.6 43.9c-.2 0-.4-.1-.5-.2-.2-.3 0-.7.4-.9.3-.2 2.6-1.1 2.9-1.2l1.2-.5-1 .8c-.2.2-2.1 1.7-2.4 1.9-.2 0-.4.1-.6.1zm1.7-1.6c-.7.3-1.5.6-1.6.7-.3.1-.3.4-.3.4 0 .1.3.1.5-.1.2 0 .8-.5 1.4-1zM170.4 45.3c.3-.3 2.4-1.9 2.4-1.9s-1.6 2.2-1.9 2.4c-.3.3-.6.3-.8.2-.1-.1 0-.4.3-.7zM170.4 46.3c-.1 0-.3 0-.3-.1-.1-.1-.1-.2-.1-.3 0-.2.1-.5.3-.7.3-.3 2.2-1.7 2.5-1.9l1-.7-.7 1c-.2.2-1.6 2.2-1.9 2.5-.3.1-.6.2-.8.2zm1.5-1.9c-.6.5-1.3.9-1.4 1.1-.2.2-.2.3-.2.4v.1h.1c.1 0 .3-.1.4-.2.1-.2.6-.8 1.1-1.4zM172.7 47.2c.2-.3 1.9-2.4 1.9-2.4s-1 2.5-1.2 2.8c-.2.3-.5.5-.7.4-.2-.1-.2-.5 0-.8zM172.8 48.2c-.1 0-.2 0-.2-.1-.2-.1-.2-.3-.2-.5s.1-.4.2-.6c.2-.3 1.7-2.2 1.9-2.4l.8-1-.5 1.2c-.1.3-1 2.5-1.2 2.9-.2.3-.5.5-.8.5zm1.1-2.3c-.5.6-1 1.2-1.1 1.4-.1.1-.1.3-.1.4 0 .1 0 .1.1.2.1 0 .3-.1.4-.3.1-.2.4-1 .7-1.7zM175.4 48.4c.1-.4 1.2-2.8 1.2-2.8s-.3 2.7-.4 3c-.1.4-.3.6-.6.5-.2 0-.3-.3-.2-.7zM175.7 49.4h-.1c-.1 0-.2-.1-.3-.2-.1-.2-.1-.5-.1-.8.1-.4 1.1-2.6 1.2-2.9l.5-1.1-.1 1.2c0 .3-.3 2.7-.4 3.1-.1.4-.4.7-.7.7zm.5-2.5c-.3.7-.6 1.4-.7 1.6-.1.2 0 .4 0 .5l.1.1c.1 0 .2-.1.3-.4.1-.3.2-1.1.3-1.8zM178.3 48.9c0-.4.4-3 .4-3s.4 2.7.4 3c0 .4-.2.7-.4.7s-.4-.3-.4-.7zM178.8 49.8c-.1 0-.2-.1-.3-.2-.2-.2-.3-.4-.3-.7 0-.4.4-2.8.4-3.1l.2-1.2.2 1.2c0 .3.4 2.7.4 3.1-.1.5-.3.9-.6.9zm0-2.6c-.1.8-.2 1.6-.2 1.7 0 .2.1.4.1.4h.1c.1 0 .2-.2.2-.5l-.2-1.6zM181.3 48.6c-.1-.4-.4-3-.4-3s1.1 2.5 1.2 2.8c.1.4 0 .7-.2.8-.2 0-.5-.2-.6-.6zM181.8 49.4c-.3 0-.6-.3-.7-.7-.1-.4-.4-2.8-.4-3.1l-.1-1.2.5 1.1c.1.3 1.1 2.5 1.2 2.9.1.3.1.6-.1.8-.1.1-.2.2-.3.2h-.1zm-.5-2.5c.1.8.2 1.6.2 1.7.1.3.3.4.3.4l.1-.1c0-.1.1-.2 0-.5 0-.1-.3-.8-.6-1.5zM184.1 47.6c-.2-.3-1.2-2.8-1.2-2.8s1.7 2.1 1.9 2.4c.2.3.2.7 0 .8-.2.1-.5-.1-.7-.4zM184.7 48.2c-.3 0-.5-.2-.7-.5-.2-.3-1.1-2.6-1.2-2.9l-.5-1.2.8 1c.2.2 1.7 2.1 1.9 2.4.1.2.2.5.1.7 0 .1-.1.2-.2.3-.1.2-.1.2-.2.2zm-1.1-2.3c.3.7.6 1.5.7 1.6.1.2.4.4.4.3v-.1c0-.1 0-.3-.1-.5 0-.1-.5-.7-1-1.3zM186.6 45.9c-.3-.3-1.9-2.4-1.9-2.4s2.2 1.6 2.4 1.9c.3.3.3.6.2.8-.1 0-.5-.1-.7-.3zM187.1 46.3c-.2 0-.5-.1-.7-.3-.3-.3-1.7-2.2-1.9-2.5l-.7-1 1 .7c.2.2 2.2 1.6 2.5 1.9.3.3.4.8.2 1-.1.2-.3.2-.4.2zm-1.5-1.9c.5.6.9 1.3 1.1 1.4.2.2.3.2.4.2h.1c.1-.1 0-.3-.2-.5-.1-.2-.8-.7-1.4-1.1zM188.5 43.6c-.3-.2-2.4-1.9-2.4-1.9s2.5 1 2.8 1.2c.3.2.5.5.4.7-.2.1-.5.1-.8 0zM188.9 43.9c-.2 0-.4-.1-.6-.2-.3-.2-2.2-1.7-2.4-1.9l-1-.8 1.2.5c.3.1 2.5 1 2.9 1.2.2.1.3.3.4.4.1.2.1.4 0 .5-.1.2-.3.3-.5.3zm-1.7-1.6c.6.5 1.2 1 1.4 1.1.2.1.5.1.5.1v-.2l-.3-.3c-.2-.1-.9-.4-1.6-.7zM189.7 40.8c-.4-.1-2.8-1.2-2.8-1.2s2.7.3 3 .4c.4.1.6.3.5.6 0 .2-.4.3-.7.2zM190 41.1h-.3c-.4-.1-2.6-1.1-2.9-1.2l-1.1-.5 1.2.1c.3 0 2.7.3 3.1.4.5.1.8.5.7.8-.1.2-.4.4-.7.4zm-1.9-1.1c.7.3 1.4.6 1.6.7.3.1.5 0 .5-.1s-.1-.3-.4-.3c-.1-.1-.9-.2-1.7-.3zM190.2 37.9c-.4 0-3-.4-3-.4s2.7-.4 3-.4c.4 0 .7.2.7.4s-.3.4-.7.4zM190.2 38.1c-.4 0-2.8-.4-3.1-.4l-1.2-.2 1.2-.2c.3 0 2.7-.4 3.1-.4.5 0 .9.3.9.6-.1.3-.4.6-.9.6zm-1.7-.6c.8.1 1.6.2 1.7.2.3 0 .5-.1.5-.2s-.2-.2-.5-.2c-.2 0-1 .1-1.7.2zM189.9 34.9c-.4.1-3 .4-3 .4s2.5-1.1 2.8-1.2c.4-.1.7 0 .8.2 0 .3-.2.5-.6.6zM185.6 35.6l1.1-.5c.3-.1 2.5-1.1 2.9-1.2.4-.1.9 0 1 .3.1.3-.2.7-.7.8-.4.1-2.8.4-3.1.4l-1.2.2zm4.4-1.3h-.2c-.2 0-.9.4-1.6.7.8-.1 1.6-.2 1.7-.2.3-.1.4-.2.4-.3-.1-.1-.2-.2-.3-.2zM188.9 32.1c-.3.2-2.8 1.2-2.8 1.2s2.1-1.7 2.4-1.9c.3-.2.7-.2.8 0 0 .2-.1.5-.4.7zM184.9 33.9l1-.8c.2-.2 2.1-1.7 2.5-1.9.4-.2.9-.2 1 .1.2.3 0 .7-.4.9-.3.2-2.6 1.1-2.9 1.2l-1.2.5zm4-2.4c-.1 0-.2 0-.4.1s-.8.6-1.4 1.1c.7-.3 1.5-.6 1.6-.7.3-.1.4-.4.3-.4.1-.1 0-.1-.1-.1zM187.1 29.7c-.3.3-2.4 1.9-2.4 1.9s1.6-2.2 1.9-2.4c.3-.3.6-.3.8-.2.1.1 0 .4-.3.7zM183.8 32.5l.7-1c.2-.2 1.6-2.2 1.9-2.5.3-.3.8-.4 1-.2.2.2.2.7-.2 1-.3.3-2.2 1.7-2.5 1.9l-.9.8zm3.3-3.5c-.1 0-.3.1-.4.2-.1.1-.6.8-1.1 1.4.6-.5 1.3-.9 1.4-1.1.2-.1.2-.4.1-.5.1.1 0 0 0 0zM184.8 27.8c-.2.3-1.9 2.4-1.9 2.4s1-2.5 1.2-2.8c.2-.3.5-.5.7-.4.2.1.2.5 0 .8zM182.3 31.3l.5-1.2c.1-.3 1-2.5 1.2-2.9.2-.4.7-.6.9-.4.1.1.2.2.2.3.1.2 0 .5-.1.7-.2.3-1.7 2.2-1.9 2.4l-.8 1.1zm2.4-4.1c-.1 0-.3.1-.4.3-.1.2-.4.9-.7 1.6.5-.6 1-1.2 1.1-1.4.1-.2.1-.4 0-.5zM182.1 26.6c-.1.4-1.2 2.8-1.2 2.8s.3-2.7.4-3c.1-.4.3-.6.6-.5.2 0 .3.3.2.7zM180.6 30.6l.1-1.2c0-.3.3-2.7.4-3.1.1-.5.5-.8.8-.7.2 0 .3.2.4.4.1.2 0 .4 0 .6-.1.4-1.1 2.6-1.2 2.9l-.5 1.1zm1.2-4.6c-.1 0-.3.1-.3.4 0 .2-.1 1-.2 1.7.3-.7.6-1.4.7-1.6v-.4c-.1-.1-.1-.1-.2-.1z"/><circle cx="178.8" cy="37.5" r=".8"/><path d="M178.8 38.5c-.5 0-1-.4-1-1 0-.5.4-1 1-1s1 .4 1 1c-.1.5-.5 1-1 1zm0-1.6c-.3 0-.6.3-.6.6s.3.6.6.6.6-.3.6-.6-.3-.6-.6-.6zM156.3 10.5c.2.9.4 3.3.4 3.3s-.6-2.3-.7-3.3c-.2-.9-.2-1.1-.1-1.2.2 0 .3.2.4 1.2zM156.4 13.9c0-.1-.6-2.3-.7-3.3-.2-.9-.2-1.2-.1-1.4l.1-.1.2-.1h.1c.4 0 .5.4.7 1.4.2.9.4 3.2.4 3.3l-.7.2zM153.9 11.3c.5.8 1.5 3 1.5 3s-1.3-2-1.8-2.8c-.5-.8-.6-1-.5-1.1.2-.1.3.1.8.9zM155.1 14.5c-.1-.1-1.3-2-1.8-2.8-.5-.8-.6-1.1-.5-1.3v-.2l.2-.1c.1 0 .1-.1.2-.1.3 0 .5.3 1 1.1s1.5 2.9 1.6 3l-.7.4zM151.8 13c.7.6 2.5 2.2 2.5 2.2s-1.9-1.4-2.6-2c-.7-.6-.9-.8-.8-.9 0-.1.2.1.9.7zM154 15.5c-.1-.1-1.9-1.4-2.7-2-.8-.7-1.2-1-.8-1.4l.1-.1h.2c.2 0 .5.2 1.2.8.7.6 2.4 2.2 2.5 2.3l-.5.4zM150.5 15.2c.9.3 3.1 1.3 3.1 1.3s-2.3-.7-3.2-1c-.9-.3-1.1-.4-1-.5 0-.2.2-.1 1.1.2zM153.4 16.9c-.1 0-2.3-.7-3.2-1-.9-.3-1.1-.4-1.3-.7l-.1-.1.1-.2c.1-.2.2-.3.5-.3.2 0 .4.1 1.2.3.9.3 3 1.2 3.1 1.3l-.3.7zM150 17.8c1 0 3.3.1 3.3.1s-2.4.1-3.3.1c-1 0-1.2 0-1.2-.1s.2-.1 1.2-.1zM150 18.5c-1.1 0-1.5 0-1.5-.5s.5-.5 1.5-.5 3.3.1 3.4.1v.8c-.2-.1-2.5.1-3.4.1zM150.4 20.4c.9-.3 3.2-1 3.2-1s-2.2.9-3.1 1.3c-.9.3-1.1.4-1.1.3-.1-.2.1-.3 1-.6zM149.4 21.4c-.2 0-.4-.1-.5-.3l-.1-.1.1-.2c.1-.2.4-.3 1.3-.7.9-.3 3.1-1 3.2-1l.3.7c-.1 0-2.2 1-3.1 1.3-.7.2-1 .3-1.2.3zM151.6 22.7c.7-.6 2.6-2 2.6-2s-1.7 1.6-2.5 2.2c-.7.6-.9.7-1 .6.1 0 .2-.2.9-.8zM150.9 24h-.2l-.3-.3v-.2c0-.3.2-.4 1-1.1.7-.6 2.6-2 2.7-2l.5.6c-.1.1-1.7 1.6-2.5 2.3-.7.5-1 .7-1.2.7zM153.6 24.4c.5-.8 1.8-2.8 1.8-2.8s-1.1 2.1-1.5 3c-.5.8-.6 1-.7.9-.2-.1-.1-.2.4-1.1zM153.2 25.9h-.1l-.3-.1-.1-.2c-.1-.3.1-.5.5-1.3.5-.8 1.7-2.8 1.8-2.8l.7.4c0 .1-1.1 2.1-1.6 3-.4.7-.6 1-.9 1zM156.1 25.4c.2-.9.7-3.3.7-3.3s-.3 2.4-.4 3.3c-.2.9-.2 1.1-.3 1.1-.2 0-.2-.2 0-1.1zM156 26.9h-.2l-.1-.2c-.2-.2-.1-.5.1-1.4s.7-3.2.7-3.3l.7.1c0 .1-.3 2.4-.4 3.3-.3 1.2-.3 1.5-.8 1.5zM158.7 25.4c-.2-.9-.4-3.3-.4-3.3s.6 2.3.7 3.3c.2.9.2 1.1.1 1.2-.2 0-.2-.2-.4-1.2zM159 26.9c-.4 0-.5-.4-.7-1.4-.2-.9-.4-3.2-.4-3.3l.7-.1c0 .1.6 2.3.7 3.3.2.9.2 1.2.1 1.4l-.1.1h-.3c.1 0 0 0 0 0zM161.2 24.6c-.5-.8-1.5-3-1.5-3s1.3 2 1.8 2.8c.5.8.6 1 .5 1.1-.2.1-.3-.1-.8-.9zM161.8 25.9c-.3 0-.5-.3-1-1.1s-1.5-2.9-1.6-3l.7-.4c.1.1 1.3 2 1.8 2.8.5.8.6 1.1.5 1.3v.2l-.2.1c0 .1-.1.1-.2.1zM163.2 22.9c-.7-.6-2.5-2.2-2.5-2.2s1.9 1.4 2.6 2c.7.6.9.8.8.9 0 0-.1-.1-.9-.7zM164.1 24c-.2 0-.5-.2-1.2-.8-.7-.6-2.4-2.2-2.5-2.3l.5-.6c.1.1 1.9 1.4 2.7 2 .7.6.9.8 1 1.1v.2l-.1.2c-.1.1-.2.2-.4.2zM164.6 20.7c-.9-.3-3.1-1.3-3.1-1.3s2.3.7 3.2 1c.9.3 1.1.4 1 .5 0 .1-.2.1-1.1-.2zM165.6 21.4c-.2 0-.4-.1-1.2-.3-.9-.3-3-1.2-3.1-1.3l.3-.7c.1 0 2.3.7 3.2 1 .5.2.7.3.9.4.4.2.4.5.4.7-.1 0-.3.2-.5.2zM165.1 18.1c-1 0-3.3-.1-3.3-.1s2.4-.1 3.3-.1c1 0 1.2 0 1.2.1-.1.1-.3.1-1.2.1zM165.1 18.5c-1 0-3.3-.1-3.4-.1v-.8c.1 0 2.4-.1 3.4-.1 1.1 0 1.5 0 1.5.5s-.4.5-1.5.5zM164.7 15.5c-.9.3-3.2 1-3.2 1s2.2-.9 3.1-1.3c.9-.3 1.1-.4 1.1-.3.1.2-.1.3-1 .6zM161.6 16.9l-.3-.7c.1 0 2.2-1 3.1-1.3.7-.3 1-.3 1.2-.3.2 0 .4.1.5.3.2.5-.2.6-1.3 1-.9.3-3.1.9-3.2 1zM163.4 13.2c-.7.6-2.6 2-2.6 2s1.7-1.6 2.5-2.2c.7-.6.9-.7 1-.6 0 0-.2.2-.9.8zM161 15.5l-.5-.6c.1-.1 1.7-1.6 2.5-2.3.7-.6.9-.8 1.2-.8h.2l.2.2c.1.1.1.2.1.3 0 .3-.2.4-1 1.1-.8.7-2.6 2.1-2.7 2.1zM161.4 11.5c-.5.8-1.8 2.8-1.8 2.8s1.1-2.1 1.5-3c.5-.8.6-1 .7-.9.2 0 .1.2-.4 1.1zM160 14.5l-.7-.4c0-.1 1.1-2.1 1.6-3 .5-.9.7-1.1 1-1.1h.1l.1.1c.1.1.2.2.2.3.1.3-.1.5-.5 1.3-.5.8-1.8 2.7-1.8 2.8zM159 10.5c-.2.9-.7 3.3-.7 3.3s.3-2.4.4-3.3c.2-.9.2-1.1.3-1.1.2 0 .1.2 0 1.1zM158.6 13.9l-.7-.1c0-.1.3-2.4.4-3.3.2-1 .3-1.4.7-1.4h.1c.1 0 .2.1.3.2.2.2.1.5-.1 1.4-.1.8-.7 3.1-.7 3.2zM157.7 13.7c0 1-.1 3.3-.1 3.3s-.1-2.4-.1-3.3c0-1 0-1.2.1-1.2 0 0 .1.2.1 1.2zM157.9 17.1h-.8c0-.1-.1-2.4-.1-3.4 0-1.1 0-1.5.5-1.5s.5.5.5 1.5-.1 3.3-.1 3.4zM156.2 13.9c.3.9 1 3.2 1 3.2s-.9-2.2-1.3-3.1c-.3-.9-.4-1.1-.3-1.1.2-.1.3.1.6 1zM156.9 17.2c0-.1-1-2.2-1.3-3.1-.3-.9-.4-1.1-.3-1.4l.1-.1.2-.1h.2c.4 0 .5.3.9 1.3.3.9 1 3.1 1 3.2l-.8.2zM154.9 14.6c.6.7 2 2.6 2 2.6s-1.6-1.7-2.2-2.5c-.6-.7-.7-.9-.6-1 0 0 .2.2.8.9zM156.7 17.5c-.1-.1-1.6-1.7-2.3-2.5-.7-.8-1-1.2-.6-1.5l.1-.1h.2c.3 0 .5.2 1.1 1 .6.7 2 2.6 2 2.7l-.5.4zM153.9 15.7c.8.5 2.8 1.8 2.8 1.8s-2.1-1.1-3-1.5c-.8-.5-1-.6-.9-.7.1-.2.3-.1 1.1.4zM156.6 17.8c-.1 0-2.1-1.1-3-1.6-.8-.5-1.1-.6-1.1-.9v-.2l.1-.2c.1-.1.2-.2.4-.2s.4.1 1.2.6c.8.5 2.8 1.7 2.8 1.8l-.4.7zM153.4 17.1c.9.2 3.3.7 3.3.7s-2.4-.3-3.3-.4c-.9-.2-1.1-.2-1.1-.3-.1-.2.1-.2 1.1 0zM156.6 18.2c-.1 0-2.4-.3-3.3-.4-1.1-.2-1.5-.3-1.4-.8 0-.1.1-.4.5-.4.2 0 .5 0 1.1.1.9.2 3.2.7 3.3.7l-.2.8zM153.3 18.5c.9-.2 3.3-.4 3.3-.4s-2.3.6-3.3.7c-.9.2-1.1.2-1.2.1.1-.1.3-.2 1.2-.4zM152.4 19.3c-.4 0-.5-.3-.5-.4 0-.2 0-.4.5-.6.2-.1.5-.1 1-.2.9-.2 3.2-.4 3.3-.4l.1.7c-.1 0-2.3.6-3.3.7-.6.2-.9.2-1.1.2zM153.8 19.9c.8-.5 3-1.5 3-1.5s-2 1.3-2.8 1.8c-.8.5-1 .6-1.1.5-.1-.2 0-.3.9-.8zM152.9 21.1c-.2 0-.3-.1-.4-.2-.1-.1-.2-.4.2-.7.2-.1.4-.3.8-.5.8-.5 2.9-1.5 3-1.6l.4.7c-.1.1-2 1.3-2.8 1.8-.7.3-1 .5-1.2.5zM154.7 21.1c.6-.7 2.2-2.5 2.2-2.5s-1.4 1.9-2 2.6c-.6.7-.8.9-.9.8 0 0 .1-.2.7-.9zM154.1 22.5h-.1l-.2-.1c-.4-.3-.1-.7.6-1.5.6-.7 2.2-2.4 2.3-2.5l.6.5c-.1.1-1.4 1.9-2 2.7-.7.7-.9.9-1.2.9zM155.9 21.9c.3-.9 1.3-3.1 1.3-3.1s-.7 2.3-1 3.2c-.3.9-.4 1.1-.5 1-.1 0-.1-.2.2-1.1zM155.7 23.4h-.2c-.2-.1-.4-.2-.3-.7 0-.2.1-.5.3-.9.3-.9 1.2-3 1.3-3.1l.7.3c0 .1-.7 2.3-1 3.2-.3.9-.4 1.2-.8 1.2zM157.4 22.2c0-1 .1-3.3.1-3.3s.1 2.4.1 3.3c0 1 0 1.2-.1 1.2-.1-.1-.1-.3-.1-1.2zM157.5 23.7c-.5 0-.5-.5-.5-1.5s.1-3.3.1-3.4h.8c0 .1.1 2.4.1 3.4 0 1.1 0 1.5-.5 1.5zM158.8 22c-.3-.9-1-3.2-1-3.2s.9 2.2 1.3 3.1c.3.9.4 1.1.3 1.1-.2.1-.2-.1-.6-1zM159.3 23.4c-.4 0-.5-.3-.9-1.3-.3-.9-1-3.1-1-3.2l.7-.3c0 .1 1 2.2 1.3 3.1.4 1 .5 1.4 0 1.6l-.1.1zM160.1 21.3c-.6-.7-2-2.6-2-2.6s1.6 1.7 2.2 2.5c.6.7.7.9.6 1 0 0-.1-.2-.8-.9zM160.9 22.5c-.3 0-.5-.2-1.1-1-.6-.7-2-2.6-2-2.7l.6-.5c.1.1 1.6 1.7 2.3 2.5.7.8 1 1.2.6 1.5l-.1.1-.3.1zM161.1 20.2c-.8-.5-2.8-1.8-2.8-1.8s2.1 1.1 3 1.5c.8.5 1 .6.9.7-.1.1-.3.1-1.1-.4zM162.1 21.1c-.2 0-.4-.1-1.2-.6-.8-.5-2.8-1.7-2.8-1.8l.4-.7c.1 0 2.1 1.1 3 1.6.9.5 1.3.8 1.1 1.2-.2.2-.3.3-.5.3zM161.7 18.8c-.9-.2-3.3-.7-3.3-.7s2.4.3 3.3.4c.9.2 1.1.2 1.1.3 0 .2-.2.2-1.1 0zM162.7 19.3c-.2 0-.5 0-1.1-.1-.9-.2-3.2-.7-3.3-.7l.1-.7c.1 0 2.4.3 3.3.4 1.1.2 1.5.3 1.4.8.1 0 0 .3-.4.3zm0-.7v.4-.4zM161.7 17.3c-.9.2-3.3.4-3.3.4s2.3-.5 3.3-.7c.9-.2 1.1-.2 1.2-.1 0 .2-.2.3-1.2.4zM158.5 18.2l-.1-.7c.1 0 2.3-.6 3.3-.7.6-.1.9-.1 1.1-.1.4 0 .5.3.5.4.1.5-.4.6-1.4.8-1.1 0-3.3.3-3.4.3zM161.3 15.9c-.8.5-3 1.5-3 1.5s2-1.3 2.8-1.8c.8-.5 1-.6 1.1-.5.1.3-.1.4-.9.8zM158.5 17.8l-.4-.7c.1-.1 2-1.3 2.8-1.8.8-.4 1-.6 1.2-.6.2 0 .3.1.4.2l.1.1v.2c-.1.3-.3.4-1.1.9-.9.7-2.9 1.7-3 1.7zM160.4 14.8c-.6.7-2.2 2.5-2.2 2.5s1.4-1.9 2-2.6c.6-.7.8-.9.9-.8 0 0-.1.2-.7.9zM158.4 17.5l-.6-.5c.1-.1 1.4-1.9 2-2.7.6-.8.8-1 1.1-1h.1l.2.1c.1.1.3.3 0 .7-.1.2-.3.4-.6.8-.6.9-2.2 2.5-2.2 2.6zM159.1 14c-.3.9-1.3 3.1-1.3 3.1s.7-2.3 1-3.2c.3-.9.4-1.1.5-1 .2 0 .1.2-.2 1.1zM158.2 17.2l-.7-.3c0-.1.7-2.3 1-3.2.4-1 .5-1.3.9-1.3h.2c.2.1.4.2.3.7 0 .2-.1.5-.3.9-.5 1-1.4 3.2-1.4 3.2zM170.1 13.5c-.9.3-3.2 1-3.2 1s2.2-.9 3.1-1.3c.9-.3 1.1-.4 1.1-.3 0 .2-.1.3-1 .6zM167 14.9l-.3-.7c.1 0 2.2-1 3.1-1.3.7-.3 1-.3 1.2-.3.2 0 .4.1.5.3.2.5-.2.6-1.3 1-.9.3-3.1 1-3.2 1zM167.8 9.5c-.7.6-2.6 2-2.6 2s1.7-1.6 2.5-2.2c.7-.6.9-.7 1-.6 0 0-.2.2-.9.8zM165.4 11.8l-.5-.6c.1-.1 1.7-1.6 2.5-2.3.7-.6.9-.8 1.2-.8h.2l.2.2c.1.1.1.2.1.3 0 .3-.2.4-1 1.1-.8.7-2.6 2.1-2.7 2.1zM164.3 6.5c-.5.8-1.8 2.8-1.8 2.8s1.1-2.1 1.5-3c.5-.8.6-1 .7-.9.2.1.1.3-.4 1.1zM162.8 9.5l-.7-.4c0-.1 1.1-2.1 1.6-3 .5-.9.7-1.1 1-1.1h.1l.1.1c.4.3.2.6-.3 1.6-.5.8-1.7 2.7-1.8 2.8zM155.4 4.8c.2.9.4 3.3.4 3.3s-.6-2.3-.7-3.3c-.2-.9-.2-1.1-.1-1.2.1.1.2.3.4 1.2zM155.4 8.2c0-.1-.6-2.3-.7-3.3-.1-.5-.1-.8-.1-1 0-.5.2-.6.4-.6h.1c.4 0 .5.4.7 1.4.2.9.4 3.2.4 3.3l-.8.2zM151 6.4c.5.8 1.5 3 1.5 3s-1.3-2-1.8-2.8c-.5-.8-.6-1-.5-1.1.2-.1.3 0 .8.9zM152.2 9.5c-.1-.1-1.3-2-1.8-2.8-.5-.8-.6-1.1-.5-1.3v-.2l.2-.1c.1 0 .1-.1.2-.1.3 0 .5.3 1 1.1s1.5 2.9 1.6 3l-.7.4zM147.4 9.3c.7.6 2.5 2.2 2.5 2.2s-1.9-1.4-2.6-2c-.7-.6-.9-.8-.8-.9 0 0 .2.1.9.7zM149.7 11.8c-.1-.1-1.9-1.4-2.7-2-.8-.7-1.2-1-.8-1.4l.1-.1h.2c.2 0 .4.2 1.2.8.7.6 2.4 2.2 2.5 2.3l-.5.4zM145.1 13.3c.9.3 3.1 1.3 3.1 1.3s-2.3-.7-3.2-1c-.9-.3-1.1-.4-1-.5 0-.2.2-.2 1.1.2zM148.1 14.9c-.1 0-2.3-.7-3.2-1-.9-.3-1.1-.4-1.3-.7l-.1-.1.1-.2c.1-.2.2-.3.5-.3.2 0 .4.1 1.2.3.9.3 3 1.2 3.1 1.3l-.3.7zM144.2 17.8c1 0 3.3.1 3.3.1s-2.4.1-3.3.1c-1 0-1.2 0-1.2-.1.1-.1.3-.1 1.2-.1zM144.2 18.5c-1.1 0-1.5 0-1.5-.5s.5-.5 1.5-.5 3.3.1 3.4.1v.8c-.1-.1-2.4.1-3.4.1zM145 22.4c.9-.3 3.2-1 3.2-1s-2.2.9-3.1 1.3c-.9.3-1.1.4-1.1.3-.1-.2.1-.3 1-.6zM144 23.3c-.2 0-.4-.1-.5-.3l-.1-.1.1-.2c.1-.2.4-.3 1.3-.7.9-.3 3.1-1 3.2-1l.3.7c-.1 0-2.2 1-3.1 1.3-.7.2-1 .3-1.2.3zM147.2 26.4c.7-.6 2.6-2 2.6-2s-1.7 1.6-2.5 2.2c-.7.6-.9.7-1 .6.1-.1.2-.2.9-.8zM146.5 27.6h-.2l-.2-.2c-.3-.4 0-.7.8-1.4.7-.6 2.6-2 2.7-2l.5.6c-.1.1-1.7 1.6-2.5 2.3-.6.6-.8.7-1.1.7zM150.8 29.4c.5-.8 1.8-2.8 1.8-2.8s-1.1 2.1-1.5 3c-.5.8-.6 1-.7.9-.2-.1-.1-.3.4-1.1zM150.3 30.8h-.1l-.3-.1-.1-.2c-.1-.3.1-.5.5-1.3.5-.8 1.7-2.8 1.8-2.8l.7.4c0 .1-1.1 2.1-1.6 3-.4.8-.5 1-.9 1zM155.1 31c.2-.9.7-3.3.7-3.3s-.3 2.4-.4 3.3c-.2.9-.2 1.1-.3 1.1-.2.1-.2-.1 0-1.1zM155 32.6h-.2l-.1-.2c-.2-.2-.1-.5.1-1.4.2-.9.7-3.2.7-3.3l.7.1c0 .1-.3 2.4-.4 3.3-.3 1.1-.3 1.5-.8 1.5zM159.7 31.1c-.2-.9-.4-3.3-.4-3.3s.6 2.3.7 3.3c.2.9.2 1.1.1 1.2-.2-.1-.2-.3-.4-1.2zM160 32.6c-.4 0-.5-.4-.7-1.4-.2-.9-.4-3.2-.4-3.3l.7-.1c0 .1.6 2.3.7 3.3.2.9.2 1.2.1 1.4l-.1.1h-.3c.1 0 0 0 0 0zM164 29.5c-.5-.8-1.5-3-1.5-3s1.3 2 1.8 2.8c.5.8.6 1 .5 1.1-.2.1-.3 0-.8-.9zM164.7 30.8c-.3 0-.5-.3-1-1.1s-1.5-2.9-1.6-3l.7-.4c.1.1 1.3 2 1.8 2.8.5.8.6 1.1.5 1.3v.2l-.2.1c0 .1-.1.1-.2.1zM167.6 26.6c-.7-.6-2.5-2.2-2.5-2.2s1.9 1.4 2.6 2c.7.6.9.8.8.9 0 0-.2-.1-.9-.7zM168.5 27.6c-.2 0-.5-.2-1.2-.8-.7-.6-2.4-2.2-2.5-2.3l.5-.6c.1.1 1.9 1.4 2.7 2 .7.6.9.8 1 1.1v.2l-.1.2c-.1.2-.2.2-.4.2zM170 22.6c-.9-.3-3.1-1.3-3.1-1.3s2.3.7 3.2 1c.9.3 1.1.4 1 .5 0 .2-.2.1-1.1-.2zM171 23.3c-.2 0-.4-.1-1.2-.3-.9-.3-3-1.2-3.1-1.3l.3-.7c.1 0 2.3.7 3.2 1 .5.2.7.3.9.4.4.2.4.5.4.7-.1.1-.3.2-.5.2zM170.8 18.1c-1 0-3.3-.1-3.3-.1s2.4-.1 3.3-.1c1 0 1.2 0 1.2.1s-.2.1-1.2.1zM170.8 18.5c-1 0-3.3-.1-3.4-.1v-.8c.1 0 2.4-.1 3.4-.1 1.1 0 1.5 0 1.5.5.1.5-.4.5-1.5.5zM160 4.9c-.2.9-.7 3.3-.7 3.3s.3-2.4.4-3.3c.2-.9.2-1.1.3-1.1.2-.1.1.1 0 1.1zM159.6 8.2l-.7-.1c0-.1.3-2.4.4-3.3.2-1.1.3-1.4.7-1.4h.1c.1 0 .2.1.3.2.2.2.1.5-.1 1.4-.1.9-.7 3.1-.7 3.2zM157.7 7.6c0 1-.1 3.3-.1 3.3s-.1-2.4-.1-3.3c0-1 0-1.2.1-1.2 0 .1.1.3.1 1.2zM157.9 11h-.8c0-.1-.1-2.4-.1-3.4 0-1.1 0-1.5.5-1.5s.5.5.5 1.5-.1 3.3-.1 3.4zM154.1 8.2c.3.9 1 3.2 1 3.2s-.9-2.2-1.3-3.1c-.3-.9-.4-1.1-.3-1.1.2-.1.3.1.6 1zM154.8 11.5c0-.1-1-2.2-1.3-3.1-.2-.5-.3-.7-.3-.9-.1-.5.1-.6.3-.7h.2c.4 0 .5.3.9 1.3.3.9 1 3.1 1 3.2l-.8.2zM151 10c.6.7 2 2.6 2 2.6s-1.6-1.7-2.2-2.5c-.6-.7-.7-.9-.6-1 0 0 .2.1.8.9zM152.8 12.9c-.1-.1-1.6-1.7-2.3-2.5-.7-.8-1-1.2-.6-1.5l.1-.1h.2c.3 0 .5.2 1.1 1 .6.7 2 2.6 2 2.7l-.5.4zM148.7 12.7c.8.5 2.8 1.8 2.8 1.8s-2.1-1.1-3-1.5c-.8-.5-1-.6-.9-.7 0-.2.2-.1 1.1.4zM151.3 14.8c-.1 0-2.1-1.1-3-1.6-.9-.5-1.3-.8-1.1-1.2.1-.1.2-.2.4-.2s.4.1 1.2.6c.8.5 2.8 1.7 2.8 1.8l-.3.6zM147.4 16c.9.2 3.3.7 3.3.7s-2.4-.3-3.3-.4c-.9-.2-1.1-.2-1.1-.3-.1-.2.1-.2 1.1 0zM150.6 17.1c-.1 0-2.4-.3-3.3-.4-1.1-.2-1.5-.3-1.4-.8 0-.1.1-.4.5-.4.2 0 .5 0 1.1.1.9.2 3.2.7 3.3.7l-.2.8zM147.3 19.6c.9-.2 3.3-.4 3.3-.4s-2.3.6-3.3.7c-.9.2-1.1.2-1.2.1.1-.2.3-.2 1.2-.4zM146.4 20.4c-.4 0-.5-.3-.5-.4-.1-.5.4-.6 1.4-.8.9-.2 3.2-.4 3.3-.4l.1.7c-.1 0-2.3.6-3.3.7-.5.1-.8.2-1 .2zM148.5 23c.8-.5 3-1.5 3-1.5s-2 1.3-2.8 1.8c-.8.5-1 .6-1.1.5-.1-.2.1-.3.9-.8zM147.7 24.1c-.2 0-.3-.1-.4-.2-.3-.5.1-.7 1.1-1.2.8-.5 2.9-1.5 3-1.6l.4.7c-.1.1-2 1.3-2.8 1.8-.9.4-1.1.5-1.3.5zM150.8 25.7c.6-.7 2.2-2.5 2.2-2.5s-1.4 1.9-2 2.6c-.6.7-.8.9-.9.8-.1 0 .1-.1.7-.9zM150.2 27.1h-.1l-.2-.1c-.4-.3-.1-.7.6-1.5.6-.7 2.2-2.4 2.3-2.5l.6.5c-.1.1-1.4 1.9-2 2.7-.7.7-.9.9-1.2.9zM153.9 27.6c.3-.9 1.3-3.1 1.3-3.1s-.7 2.3-1 3.2c-.3.9-.4 1.1-.5 1-.2 0-.2-.2.2-1.1zM153.6 29.1h-.2c-.5-.2-.3-.6 0-1.6.3-.9 1.2-3 1.3-3.1l.7.3c0 .1-.7 2.3-1 3.2-.3.9-.4 1.2-.8 1.2zM157.4 28.3c0-1 .1-3.3.1-3.3s.1 2.4.1 3.3c0 1 0 1.2-.1 1.2-.1-.1-.1-.3-.1-1.2zM157.5 29.8c-.5 0-.5-.5-.5-1.5s.1-3.3.1-3.4h.8c0 .1.1 2.4.1 3.4s0 1.5-.5 1.5zM160.9 27.7c-.3-.9-1-3.2-1-3.2s.9 2.2 1.3 3.1c.3.9.4 1.1.3 1.1-.2.1-.3-.1-.6-1zM161.4 29.1c-.4 0-.5-.3-.9-1.3-.3-.9-1-3.1-1-3.2l.7-.3c0 .1 1 2.2 1.3 3.1.4 1 .5 1.4 0 1.6l-.1.1zM164 25.9c-.6-.7-2-2.6-2-2.6s1.6 1.7 2.2 2.5c.6.7.7.9.6 1 0 0-.1-.1-.8-.9zM164.8 27.1c-.3 0-.5-.2-1.1-1-.6-.7-2-2.6-2-2.7l.6-.5c.1.1 1.6 1.7 2.3 2.5.7.8 1 1.2.6 1.5l-.1.1-.3.1zM166.4 23.2c-.8-.5-2.8-1.8-2.8-1.8s2.1 1.1 3 1.5c.8.5 1 .6.9.7-.1.2-.3.1-1.1-.4zM167.4 24.1c-.2 0-.4-.1-1.2-.6-.8-.5-2.8-1.7-2.8-1.8l.4-.7c.1 0 2.1 1.1 3 1.6.9.5 1.3.8 1.1 1.2-.2.2-.4.3-.5.3zM167.6 19.9c-.9-.2-3.3-.7-3.3-.7s2.4.3 3.3.4c.9.2 1.1.2 1.1.3.1.2-.1.1-1.1 0zM168.6 20.4c-.2 0-.5 0-1.1-.1-.9-.2-3.2-.7-3.3-.7l.1-.7c.1 0 2.4.3 3.3.4 1.1.2 1.5.3 1.4.8.2 0 .1.3-.4.3zm0-.8v.4-.4c.1 0 .1 0 0 0zM167.7 16.3c-.9.2-3.3.4-3.3.4s2.3-.6 3.3-.7c.9-.2 1.1-.2 1.2-.1-.1.2-.3.2-1.2.4zM164.4 17.1l-.1-.7c.1 0 2.3-.6 3.3-.7.6-.1.9-.1 1.1-.1.4 0 .5.3.5.4.1.5-.4.6-1.4.8-1 0-3.3.3-3.4.3zM166.5 12.9c-.8.5-3 1.5-3 1.5s2-1.3 2.8-1.8c.8-.5 1-.6 1.1-.5.1.2 0 .3-.9.8zM163.7 14.8l-.4-.7c.1-.1 2-1.3 2.8-1.8.8-.4 1-.6 1.2-.6.2 0 .3.1.4.2.3.4-.1.7-1.1 1.2-.7.6-2.8 1.6-2.9 1.7zM164.3 10.1c-.6.7-2.2 2.5-2.2 2.5s1.4-1.9 2-2.6c.6-.7.8-.9.9-.8 0 0-.1.2-.7.9zM162.3 12.9l-.6-.5c.1-.1 1.4-1.9 2-2.7.6-.7.8-1 1.1-1h.1l.2.1c.4.3.1.7-.6 1.5-.6.8-2.2 2.5-2.2 2.6zM161.2 8.3c-.3.9-1.3 3.1-1.3 3.1s.7-2.3 1-3.2c.3-.9.4-1.1.5-1 .2 0 .1.2-.2 1.1zM160.3 11.5l-.7-.3c0-.1.7-2.3 1-3.2.4-1 .5-1.3.9-1.3h.2c.5.2.3.6 0 1.6-.5 1-1.4 3.1-1.4 3.2z"/><circle cx="157.5" cy="17.9" r=".4"/><circle cx="157.5" cy="17.9" r=".8"/></g><path fill="#35A7D5" d="M154.9 37.4c0 1.8-1 15.1-1 15.1s-1-13.2-1-15.1c0-1.8.5-3.3 1-3.3.5-.1 1 1.4 1 3.3z"/><path fill="#fff" d="M161.4 42.7c0-.2 0-.4-.1-.6h1.2c0 .2-.1.4-.1.6v.3h2.2v-.3c0-.2 0-.4-.1-.6h1.2c0 .2-.1.4-.1.6v.3h1.4c.6 0 .9 0 1.2-.1v1.2c-.3 0-.7-.1-1.2-.1h-1.4v.8h-1.2V43.9h-2.2v.8h-1.1l1 .4c-.1.1-.1.1-.1.2-.2.5-.4.7-.6 1.1v4c0 .4 0 .8.1 1.2h-1.3c.1-.4.1-.7.1-1.2v-2.5c-.4.5-.7.8-1.3 1.2-.1-.4-.3-.7-.6-1.1 1.2-.7 2.3-2 2.7-3.2v-.7h-1.2c-.6 0-.9 0-1.2.1V43c.3 0 .7.1 1.2.1h1.2v-.4zm3.3 7.5c0 .1 0 .2.1.2.1.1.5.1.9.1.9 0 1.3-.1 1.4-.2.1-.2.2-.6.2-1.7.4.2.6.3 1.1.4-.2 1.4-.2 1.7-.4 2-.3.4-.8.5-2.5.5s-2-.2-2-1.1v-4.3c0-.5 0-.8-.1-1.1h1.3c0 .4-.1.6-.1 1.1v1.1c1-.5 2-1.2 2.5-1.7l.9.8c-.2.1-.2.1-.5.4-.4.3-1.2.8-1.6 1-.5.3-.5.3-1.4.7v1.8z"/><path fill="#003693" d="M163 52.9h-3.9l.2-1.3c0-.4.1-.6.1-1v-.2l-.7.5-.5-1.5c-.1-.3-.2-.5-.4-.8l-.8-1 1-.6c.6-.4 1.3-1 1.7-1.6l-.4-.2h-.3l-1.3.2v-.9l-1.9-.8h1.9v-2.1l1.3.2c.3 0 .6.1 1.1.1l-.1-.9h7.2l-.2.9h.1c.5 0 .8 0 1.1-.1l1.3-.2v3.8l-.9-.1 1.4 1.3-1.3.8c-.1.1-.1.1-.4.3-.1 0-.1.1-.2.2.2.1.3.1.6.2l1 .2-.1 1c-.2 1.5-.2 1.9-.6 2.5-.7.9-1.8 1-3.5 1-.9 0-2 0-2.6-.7l.1.8zm2.9-3.7v.2h.3V49c-.1.1-.2.1-.3.2z"/><path fill="#fff" d="M177.1 42.2c-.1.3-.1.5-.1 1.5 0 1.7.2 2.7.6 3.6.5 1 1.2 1.9 2.1 2.5.5.4 1 .6 1.7.8-.4.4-.5.7-.8 1.2-1-.5-1.8-1-2.6-1.7-.8-.8-1.3-1.7-1.6-2.8-.3 1.3-.9 2.3-1.8 3.1-.6.6-1.3 1-2.3 1.5-.2-.5-.4-.7-.8-1.1 1.4-.5 2.4-1.2 3.1-2.2.4-.6.8-1.5.9-2.4.1-.8.2-1.6.2-2.8 0-.6 0-.8-.1-1.1h1.5zm-5.2 4.7c.4-.6.6-.9.8-1.5.2-.5.3-.9.4-1.6l1.2.4c-.2.8-.3 1.1-.5 1.8-.3.7-.4 1-.8 1.6l-1.1-.7zm6.1-.3c.7-1 1.1-1.8 1.5-2.9l1.2.5c-.6 1.4-.9 1.9-1.7 3l-1-.6z"/><path fill="#003693" d="M171.7 53.3l-.5-1.1c-.1-.3-.2-.5-.5-.8l-1.3-1.3 1.7-.6c.7-.3 1.3-.6 1.7-.9l-2.6-1.5.7-1c.4-.5.5-.7.7-1.2.2-.4.2-.7.4-1.4l.2-1.3 2.3.8v-.7l-.2-1.3h4.1l-.2 1.3v1.9c.1-.3.2-.6.4-.9l.4-1.2 3.3 1.5-.5 1c-.7 1.5-1 2-1.8 3.2l-.3.4c.2.2.4.4.6.5.4.3.8.5 1.4.7l1.5.6-1.1 1.2c-.3.4-.4.5-.6.9l-.5 1-1-.4c-1.2-.5-2.1-1.1-2.9-2-.3-.3-.5-.6-.8-.9-.3.4-.6.8-1 1.2-.7.7-1.5 1.2-2.6 1.7l-1 .6z"/><g fill="#fff"><path d="M161.4 42.7c0-.2 0-.4-.1-.6h1.2c0 .2-.1.4-.1.6v.3h2.2v-.3c0-.2 0-.4-.1-.6h1.2c0 .2-.1.4-.1.6v.3h1.4c.6 0 .9 0 1.2-.1v1.2c-.3 0-.7-.1-1.2-.1h-1.4v.8h-1.2V43.9h-2.2v.8h-1.1l1 .4c-.1.1-.1.1-.1.2-.2.5-.4.7-.6 1.1v4c0 .4 0 .8.1 1.2h-1.3c.1-.4.1-.7.1-1.2v-2.5c-.4.5-.7.8-1.3 1.2-.1-.4-.3-.7-.6-1.1 1.2-.7 2.3-2 2.7-3.2v-.7h-1.2c-.6 0-.9 0-1.2.1V43c.3 0 .7.1 1.2.1h1.2v-.4zm3.3 7.5c0 .1 0 .2.1.2.1.1.5.1.9.1.9 0 1.3-.1 1.4-.2.1-.2.2-.6.2-1.7.4.2.6.3 1.1.4-.2 1.4-.2 1.7-.4 2-.3.4-.8.5-2.5.5s-2-.2-2-1.1v-4.3c0-.5 0-.8-.1-1.1h1.3c0 .4-.1.6-.1 1.1v1.1c1-.5 2-1.2 2.5-1.7l.9.8c-.2.1-.2.1-.5.4-.4.3-1.2.8-1.6 1-.5.3-.5.3-1.4.7v1.8zM177.1 42.2c-.1.3-.1.5-.1 1.5 0 1.7.2 2.7.6 3.6.5 1 1.2 1.9 2.1 2.5.5.4 1 .6 1.7.8-.4.4-.5.7-.8 1.2-1-.5-1.8-1-2.6-1.7-.8-.8-1.3-1.7-1.6-2.8-.3 1.3-.9 2.3-1.8 3.1-.6.6-1.3 1-2.3 1.5-.2-.5-.4-.7-.8-1.1 1.4-.5 2.4-1.2 3.1-2.2.4-.6.8-1.5.9-2.4.1-.8.2-1.6.2-2.8 0-.6 0-.8-.1-1.1h1.5zm-5.2 4.7c.4-.6.6-.9.8-1.5.2-.5.3-.9.4-1.6l1.2.4c-.2.8-.3 1.1-.5 1.8-.3.7-.4 1-.8 1.6l-1.1-.7zm6.1-.3c.7-1 1.1-1.8 1.5-2.9l1.2.5c-.6 1.4-.9 1.9-1.7 3l-1-.6z"/></g></g></svg>