<svg xmlns="http://www.w3.org/2000/svg" xmlns:xlink="http://www.w3.org/1999/xlink" viewBox="0 0 61.2 59" enable-background="new 0 0 61.2 59"><path fill="#fff" d="M.1 0h61.2v59H.1z"/><g><path fill="#35A7D5" d="M30.6 58.5c-15.9 0-28.8-12.9-28.8-28.8S14.7.9 30.6.9s28.8 12.9 28.8 28.8-12.9 28.8-28.8 28.8zm0-54.5C16.4 4 4.9 15.5 4.9 29.7s11.6 25.8 25.8 25.8c14.2 0 25.8-11.6 25.8-25.8S44.8 4 30.6 4z"/><defs><circle id="a" cx="30.6" cy="29.7" r="27.3"/></defs><clipPath id="b"><use xlink:href="#a" overflow="visible"/></clipPath><g clip-path="url(#b)" fill="#35A7D5"><path d="M39.8 31.4c0 .4-.4 3-.4 3s-.4-2.7-.4-3c0-.4.2-.7.4-.7s.4.3.4.7zM39.3 35.7l-.2-1.2c0-.3-.4-2.7-.4-3.1 0-.5.3-.9.6-.9s.6.4.6.9c0 .4-.4 2.8-.4 3.1l-.2 1.2zm0-4.8c-.1 0-.2.2-.2.5 0 .2.1 1 .2 1.7.1-.8.2-1.6.2-1.7.1-.3-.1-.5-.2-.5zM37.6 31.6c.1.3.7 3 .7 3s-1.3-2.4-1.4-2.7c-.1-.3-.1-.7.2-.8.1-.1.4.1.5.5zM38.7 35.8l-.6-1.1c-.1-.2-1.3-2.4-1.4-2.7-.1-.2-.1-.4-.1-.6 0-.2.2-.4.3-.4.3-.1.7.2.9.6.1.4.6 2.7.7 3l.2 1.2zm-1.6-4.5c-.1 0-.1.1-.1.1v.4c.1.2.4.9.8 1.6-.2-.8-.3-1.5-.4-1.7 0-.3-.2-.4-.3-.4zM35.7 32.5c.2.3 1.6 2.6 1.6 2.6s-2-1.8-2.3-2.1c-.2-.3-.3-.6-.1-.8.2-.1.6.1.8.3zM38.2 36.1l-.9-.8c-.2-.2-2-1.8-2.3-2.1-.2-.2-.3-.5-.3-.7 0-.1.1-.3.2-.3.2-.2.7-.1 1 .3.2.3 1.5 2.4 1.7 2.6l.6 1zm-3-3.7c-.1 0-.1 0 0 0-.1 0-.1.1 0 0-.1.2-.1.4.1.5.1.1.7.7 1.3 1.2-.4-.7-.8-1.3-.9-1.5-.3-.1-.4-.2-.5-.2zM34.2 34.1c.3.2 2.4 1.9 2.4 1.9s-2.5-1-2.8-1.2c-.3-.2-.5-.5-.4-.7.2-.2.5-.2.8 0zM37.8 36.6l-1.2-.5c-.3-.1-2.5-1-2.9-1.2-.2-.1-.4-.4-.5-.6v-.4c.2-.3.6-.3 1-.1.3.2 2.2 1.7 2.4 1.9l1.2.9zm-4-2.5c-.1 0-.1 0-.2.1v.1c0 .1.1.2.3.3.2.1.9.4 1.6.7-.6-.5-1.2-1-1.4-1.1-.1 0-.2-.1-.3-.1zM33.4 36c.4.1 2.9.9 2.9.9s-2.7-.1-3.1-.1c-.4-.1-.6-.3-.6-.5.1-.2.4-.3.8-.3zM37.5 37.2h-1.2c-.3 0-2.7-.1-3.1-.1-.3 0-.5-.2-.7-.4-.1-.1-.1-.2-.1-.4.1-.3.5-.5 1-.4.4.1 2.7.8 2.9.9l1.2.4zm-4.3-1c-.2 0-.3.1-.4.1v.1c.1.1.2.2.4.2s1 .1 1.7.1c-.7-.2-1.5-.5-1.7-.5.1 0 0 0 0 0zM33.2 38.2c.4-.1 3.1-.1 3.1-.1s-2.6.9-2.9.9c-.4.1-.7-.1-.7-.3-.1-.2.2-.5.5-.5zM33.2 39.2c-.4 0-.7-.2-.7-.5 0-.1 0-.2.1-.4s.4-.3.7-.4c.4-.1 2.8-.1 3.1-.1h1.2l-1.2.4c-.3.1-2.6.9-2.9.9-.2.1-.2.1-.3.1zm1.8-.9c-.8 0-1.6.1-1.7.1-.2 0-.4.1-.4.2v.1c0 .1.2.2.5.1.1-.1.9-.3 1.6-.5zM33.8 40.2c.3-.2 2.8-1.2 2.8-1.2s-2.1 1.7-2.4 1.9c-.3.2-.7.2-.8 0-.1-.2.1-.5.4-.7zM33.8 41.2c-.2 0-.4-.1-.5-.2-.1-.1-.1-.2 0-.4s.2-.4.5-.6c.3-.2 2.6-1.1 2.9-1.2l1.2-.5-1 .8c-.2.2-2.1 1.7-2.4 1.9-.3.2-.5.2-.7.2zm1.7-1.5c-.7.3-1.5.6-1.6.7-.2.1-.3.3-.3.3v.1c0 .1.3.1.5-.1.2 0 .8-.5 1.4-1zM35.1 41.9c.2-.3 2.3-2.1 2.3-2.1s-1.4 2.3-1.6 2.6c-.2.3-.6.4-.7.3-.3-.1-.2-.5 0-.8zM35.2 43c-.1 0-.2 0-.3-.1-.1-.1-.2-.2-.2-.3 0-.2.1-.5.3-.7.2-.3 2.1-1.9 2.3-2.1l.9-.8-.7 1c-.1.2-1.4 2.3-1.7 2.6-.1.2-.4.4-.6.4zm1.3-2.1c-.6.5-1.2 1.1-1.3 1.2-.1.2-.2.3-.2.4v.1c.1.1.3 0 .5-.2s.6-.9 1-1.5zM36.9 43.1c.1-.3 1.4-2.7 1.4-2.7s-.5 2.6-.7 3c-.1.3-.4.6-.6.5-.2-.1-.3-.4-.1-.8zM37.1 44.1h-.2c-.2-.1-.3-.2-.3-.4s0-.4.1-.6c.1-.4 1.3-2.5 1.4-2.7l.6-1.1-.2 1.2c-.1.3-.5 2.7-.7 3-.1.3-.4.6-.7.6zm.7-2.5c-.4.7-.7 1.4-.8 1.6 0 .1-.1.3 0 .4 0 .1 0 .1.1.1s.2-.1.3-.4c.1-.1.3-.9.4-1.7zM38.9 43.6c0-.4.4-3 .4-3s.4 2.7.4 3c0 .4-.2.7-.4.7s-.4-.3-.4-.7zM39.3 44.5c-.3 0-.6-.4-.6-.9 0-.4.4-2.8.4-3.1l.2-1.2.2 1.2c0 .3.4 2.7.4 3.1 0 .5-.2.9-.6.9zm0-2.6c-.1.8-.2 1.6-.2 1.7 0 .3.1.5.2.5s.2-.2.2-.5c.1-.1 0-.9-.2-1.7zM41.1 43.4c-.1-.3-.7-3-.7-3s1.3 2.4 1.4 2.7c.1.3.1.7-.1.8-.2.1-.5-.2-.6-.5zM41.6 44.1c-.3 0-.6-.3-.7-.6-.1-.4-.6-2.7-.7-3l-.2-1.3.6 1.1c.1.2 1.3 2.4 1.4 2.7.1.2.1.4.1.6 0 .2-.2.4-.3.4-.1.1-.2.1-.2.1zm-.7-2.5c.2.8.3 1.5.4 1.7.1.3.3.4.4.4l.1-.1v-.4c-.2-.2-.6-.9-.9-1.6zM43 42.5c-.2-.3-1.6-2.6-1.6-2.6s2 1.8 2.3 2.1c.2.3.3.6.1.8-.2.1-.6-.1-.8-.3zM43.5 43c-.2 0-.5-.1-.7-.4-.2-.3-1.5-2.4-1.7-2.6l-.6-1.1.9.8c.2.2 2 1.8 2.3 2.1.2.2.3.5.3.7 0 .1-.1.3-.2.3 0 .1-.1.2-.3.2zm-1.3-2.1c.4.7.8 1.3.9 1.5.2.2.4.3.5.2v-.1c0-.1 0-.3-.2-.4-.1-.2-.7-.7-1.2-1.2zM44.5 40.9C44.1 40.7 42 39 42 39s2.5 1 2.8 1.2c.3.2.5.5.4.7-.1.2-.4.2-.7 0zM44.9 41.2c-.2 0-.4-.1-.6-.2-.3-.2-2.2-1.7-2.4-1.9l-1-.8 1.2.5c.3.1 2.5 1 2.9 1.2.2.1.4.4.5.6v.4c-.2.1-.4.2-.6.2zm-1.7-1.5c.6.5 1.2 1 1.4 1.1.2.1.5.1.5.1v-.1c0-.1-.1-.2-.3-.3-.2-.2-.9-.5-1.6-.8zM45.3 39c-.3-.1-2.9-1-2.9-1s2.7.1 3.1.1c.4.1.6.3.6.5-.1.3-.4.4-.8.4zM45.5 39.2h-.2c-.4-.1-2.7-.8-2.9-.9l-1.2-.4h1.2c.3 0 2.7.1 3.1.1.3 0 .5.2.7.4.1.1.1.2.1.4-.1.2-.4.4-.8.4zm-1.8-.9c.7.2 1.5.5 1.7.5.3 0 .5-.1.5-.1v-.1c-.1-.1-.2-.2-.4-.2-.3-.1-1-.1-1.8-.1zM45.5 36.8c-.4.1-3.1.1-3.1.1s2.6-.9 2.9-.9c.4-.1.7.1.7.3.1.2-.2.5-.5.5zM41.2 37.2l1.2-.4c.3-.1 2.6-.9 2.9-.9.5-.1.9.1 1 .4 0 .1 0 .2-.1.4-.2.1-.4.3-.7.3-.4.1-2.8.1-3.1.1l-1.2.1zm4.3-1h-.2c-.2 0-.9.3-1.7.5.8 0 1.6-.1 1.7-.1.2 0 .4-.1.4-.2v-.1c.2 0 0-.1-.2-.1zM44.9 34.8c-.4.2-2.9 1.1-2.9 1.1s2.1-1.7 2.4-1.9c.3-.2.7-.2.8 0 .2.3 0 .6-.3.8zM40.9 36.6l1-.8c.2-.2 2.1-1.7 2.4-1.9.4-.2.9-.2 1 .1.1.1.1.2 0 .4s-.2.4-.5.6c-.3.2-2.6 1.1-2.9 1.2l-1 .4zm4-2.5c-.1 0-.2 0-.4.1s-.8.6-1.4 1.1c.7-.3 1.5-.6 1.6-.7.2-.1.3-.3.3-.3v-.1c.1 0 0-.1-.1-.1zM43.6 33.1c-.2.3-2.3 2.1-2.3 2.1s1.4-2.3 1.6-2.6c.2-.3.6-.4.7-.3.3.1.2.5 0 .8zM40.5 36.1l.6-1.1c.1-.2 1.4-2.3 1.7-2.6.3-.4.8-.5 1-.3.1.1.2.2.2.3 0 .2-.1.5-.3.7-.2.3-2.1 1.9-2.3 2.1l-.9.9zm3-3.7c-.1 0-.3.1-.4.2-.1.1-.5.8-.9 1.5.6-.5 1.2-1.1 1.3-1.2.1-.1.1-.3 0-.5.1.1.1 0 0 0 .1 0 .1 0 0 0zM41.8 31.9c-.1.3-1.4 2.7-1.4 2.7s.5-2.6.7-3c.1-.3.4-.6.6-.5.2.1.3.4.1.8zM40 35.8l.2-1.2c.1-.3.5-2.7.7-3 .2-.4.5-.7.9-.6.2.1.3.2.3.4s0 .4-.1.6c-.1.4-1.3 2.5-1.4 2.7l-.6 1.1zm1.6-4.5c-.1 0-.3.1-.4.4-.1.2-.2.9-.4 1.7.4-.7.7-1.4.8-1.6 0-.1.1-.3 0-.4.1-.1 0-.1 0-.1zM39.8 31.4c0 .4-.4 3-.4 3s-.4-2.7-.4-3c0-.4.2-.7.4-.7s.4.3.4.7zM39.3 35.7l-.2-1.2c0-.3-.4-2.7-.4-3.1 0-.5.3-.9.6-.9s.6.4.6.9c0 .4-.4 2.8-.4 3.1l-.2 1.2zm0-4.8c-.1 0-.2.2-.2.5 0 .2.1 1 .2 1.7.1-.8.2-1.6.2-1.7.1-.3-.1-.5-.2-.5zM37.6 31.6c.1.3.7 3 .7 3s-1.3-2.4-1.4-2.7c-.1-.3-.1-.7.2-.8.1-.1.4.1.5.5zM38.7 35.8l-.6-1.1c-.1-.2-1.3-2.4-1.4-2.7-.1-.2-.1-.4-.1-.6 0-.2.2-.4.3-.4.3-.1.7.2.9.6.1.4.6 2.7.7 3l.2 1.2zm-1.6-4.5c-.1 0-.1.1-.1.1v.4c.1.2.4.9.8 1.6-.2-.8-.3-1.5-.4-1.7 0-.3-.2-.4-.3-.4zM35.7 32.5c.2.3 1.6 2.6 1.6 2.6s-2-1.8-2.3-2.1c-.2-.3-.3-.6-.1-.8.2-.1.6.1.8.3zM38.2 36.1l-.9-.8c-.2-.2-2-1.8-2.3-2.1-.2-.2-.3-.5-.3-.7 0-.1.1-.3.2-.3.2-.2.7-.1 1 .3.2.3 1.5 2.4 1.7 2.6l.6 1zm-3-3.7c-.1 0-.1 0 0 0-.1 0-.1.1 0 0-.1.2-.1.4.1.5.1.1.7.7 1.3 1.2-.4-.7-.8-1.3-.9-1.5-.3-.1-.4-.2-.5-.2zM34.2 34.1c.3.2 2.4 1.9 2.4 1.9s-2.5-1-2.8-1.2c-.3-.2-.5-.5-.4-.7.2-.2.5-.2.8 0zM37.8 36.6l-1.2-.5c-.3-.1-2.5-1-2.9-1.2-.2-.1-.4-.4-.5-.6v-.4c.2-.3.6-.3 1-.1.3.2 2.2 1.7 2.4 1.9l1.2.9zm-4-2.5c-.1 0-.1 0-.2.1v.1c0 .1.1.2.3.3.2.1.9.4 1.6.7-.6-.5-1.2-1-1.4-1.1-.1 0-.2-.1-.3-.1zM33.4 36c.4.1 2.9.9 2.9.9s-2.7-.1-3.1-.1c-.4-.1-.6-.3-.6-.5.1-.2.4-.3.8-.3zM37.5 37.2h-1.2c-.3 0-2.7-.1-3.1-.1-.3 0-.5-.2-.7-.4-.1-.1-.1-.2-.1-.4.1-.3.5-.5 1-.4.4.1 2.7.8 2.9.9l1.2.4zm-4.3-1c-.2 0-.3.1-.4.1v.1c.1.1.2.2.4.2s1 .1 1.7.1c-.7-.2-1.5-.5-1.7-.5.1 0 0 0 0 0zM33.2 38.2c.4-.1 3.1-.1 3.1-.1s-2.6.9-2.9.9c-.4.1-.7-.1-.7-.3-.1-.2.2-.5.5-.5zM33.2 39.2c-.4 0-.7-.2-.7-.5 0-.1 0-.2.1-.4s.4-.3.7-.4c.4-.1 2.8-.1 3.1-.1h1.2l-1.2.4c-.3.1-2.6.9-2.9.9-.2.1-.2.1-.3.1zm1.8-.9c-.8 0-1.6.1-1.7.1-.2 0-.4.1-.4.2v.1c0 .1.2.2.5.1.1-.1.9-.3 1.6-.5zM33.8 40.2c.3-.2 2.8-1.2 2.8-1.2s-2.1 1.7-2.4 1.9c-.3.2-.7.2-.8 0-.1-.2.1-.5.4-.7zM33.8 41.2c-.2 0-.4-.1-.5-.2-.1-.1-.1-.2 0-.4s.2-.4.5-.6c.3-.2 2.6-1.1 2.9-1.2l1.2-.5-1 .8c-.2.2-2.1 1.7-2.4 1.9-.3.2-.5.2-.7.2zm1.7-1.5c-.7.3-1.5.6-1.6.7-.2.1-.3.3-.3.3v.1c0 .1.3.1.5-.1.2 0 .8-.5 1.4-1zM35.1 41.9c.2-.3 2.3-2.1 2.3-2.1s-1.4 2.3-1.6 2.6c-.2.3-.6.4-.7.3-.3-.1-.2-.5 0-.8zM35.2 43c-.1 0-.2 0-.3-.1-.1-.1-.2-.2-.2-.3 0-.2.1-.5.3-.7.2-.3 2.1-1.9 2.3-2.1l.9-.8-.7 1c-.1.2-1.4 2.3-1.7 2.6-.1.2-.4.4-.6.4zm1.3-2.1c-.6.5-1.2 1.1-1.3 1.2-.1.2-.2.3-.2.4v.1c.1.1.3 0 .5-.2s.6-.9 1-1.5zM36.9 43.1c.1-.3 1.4-2.7 1.4-2.7s-.5 2.6-.7 3c-.1.3-.4.6-.6.5-.2-.1-.3-.4-.1-.8zM37.1 44.1h-.2c-.2-.1-.3-.2-.3-.4s0-.4.1-.6c.1-.4 1.3-2.5 1.4-2.7l.6-1.1-.2 1.2c-.1.3-.5 2.7-.7 3-.1.3-.4.6-.7.6zm.7-2.5c-.4.7-.7 1.4-.8 1.6 0 .1-.1.3 0 .4 0 .1 0 .1.1.1s.2-.1.3-.4c.1-.1.3-.9.4-1.7zM38.9 43.6c0-.4.4-3 .4-3s.4 2.7.4 3c0 .4-.2.7-.4.7s-.4-.3-.4-.7zM39.3 44.5c-.3 0-.6-.4-.6-.9 0-.4.4-2.8.4-3.1l.2-1.2.2 1.2c0 .3.4 2.7.4 3.1 0 .5-.2.9-.6.9zm0-2.6c-.1.8-.2 1.6-.2 1.7 0 .3.1.5.2.5s.2-.2.2-.5c.1-.1 0-.9-.2-1.7zM41.1 43.4c-.1-.3-.7-3-.7-3s1.3 2.4 1.4 2.7c.1.3.1.7-.1.8-.2.1-.5-.2-.6-.5zM41.6 44.1c-.3 0-.6-.3-.7-.6-.1-.4-.6-2.7-.7-3l-.2-1.3.6 1.1c.1.2 1.3 2.4 1.4 2.7.1.2.1.4.1.6 0 .2-.2.4-.3.4-.1.1-.2.1-.2.1zm-.7-2.5c.2.8.3 1.5.4 1.7.1.3.3.4.4.4l.1-.1v-.4c-.2-.2-.6-.9-.9-1.6zM43 42.5c-.2-.3-1.6-2.6-1.6-2.6s2 1.8 2.3 2.1c.2.3.3.6.1.8-.2.1-.6-.1-.8-.3zM43.5 43c-.2 0-.5-.1-.7-.4-.2-.3-1.5-2.4-1.7-2.6l-.6-1.1.9.8c.2.2 2 1.8 2.3 2.1.2.2.3.5.3.7 0 .1-.1.3-.2.3 0 .1-.1.2-.3.2zm-1.3-2.1c.4.7.8 1.3.9 1.5.2.2.4.3.5.2v-.1c0-.1 0-.3-.2-.4-.1-.2-.7-.7-1.2-1.2zM44.5 40.9C44.1 40.7 42 39 42 39s2.5 1 2.8 1.2c.3.2.5.5.4.7-.1.2-.4.2-.7 0zM44.9 41.2c-.2 0-.4-.1-.6-.2-.3-.2-2.2-1.7-2.4-1.9l-1-.8 1.2.5c.3.1 2.5 1 2.9 1.2.2.1.4.4.5.6v.4c-.2.1-.4.2-.6.2zm-1.7-1.5c.6.5 1.2 1 1.4 1.1.2.1.5.1.5.1v-.1c0-.1-.1-.2-.3-.3-.2-.2-.9-.5-1.6-.8zM45.3 39c-.3-.1-2.9-1-2.9-1s2.7.1 3.1.1c.4.1.6.3.6.5-.1.3-.4.4-.8.4zM45.5 39.2h-.2c-.4-.1-2.7-.8-2.9-.9l-1.2-.4h1.2c.3 0 2.7.1 3.1.1.3 0 .5.2.7.4.1.1.1.2.1.4-.1.2-.4.4-.8.4zm-1.8-.9c.7.2 1.5.5 1.7.5.3 0 .5-.1.5-.1v-.1c-.1-.1-.2-.2-.4-.2-.3-.1-1-.1-1.8-.1zM45.5 36.8c-.4.1-3.1.1-3.1.1s2.6-.9 2.9-.9c.4-.1.7.1.7.3.1.2-.2.5-.5.5zM41.2 37.2l1.2-.4c.3-.1 2.6-.9 2.9-.9.5-.1.9.1 1 .4 0 .1 0 .2-.1.4-.2.1-.4.3-.7.3-.4.1-2.8.1-3.1.1l-1.2.1zm4.3-1h-.2c-.2 0-.9.3-1.7.5.8 0 1.6-.1 1.7-.1.2 0 .4-.1.4-.2v-.1c.2 0 0-.1-.2-.1zM44.9 34.8c-.4.2-2.9 1.1-2.9 1.1s2.1-1.7 2.4-1.9c.3-.2.7-.2.8 0 .2.3 0 .6-.3.8zM40.9 36.6l1-.8c.2-.2 2.1-1.7 2.4-1.9.4-.2.9-.2 1 .1.1.1.1.2 0 .4s-.2.4-.5.6c-.3.2-2.6 1.1-2.9 1.2l-1 .4zm4-2.5c-.1 0-.2 0-.4.1s-.8.6-1.4 1.1c.7-.3 1.5-.6 1.6-.7.2-.1.3-.3.3-.3v-.1c.1 0 0-.1-.1-.1zM43.6 33.1c-.2.3-2.3 2.1-2.3 2.1s1.4-2.3 1.6-2.6c.2-.3.6-.4.7-.3.3.1.2.5 0 .8zM40.5 36.1l.6-1.1c.1-.2 1.4-2.3 1.7-2.6.3-.4.8-.5 1-.3.1.1.2.2.2.3 0 .2-.1.5-.3.7-.2.3-2.1 1.9-2.3 2.1l-.9.9zm3-3.7c-.1 0-.3.1-.4.2-.1.1-.5.8-.9 1.5.6-.5 1.2-1.1 1.3-1.2.1-.1.1-.3 0-.5.1.1.1 0 0 0 .1 0 .1 0 0 0zM41.8 31.9c-.1.3-1.4 2.7-1.4 2.7s.5-2.6.7-3c.1-.3.4-.6.6-.5.2.1.3.4.1.8zM40 35.8l.2-1.2c.1-.3.5-2.7.7-3 .2-.4.5-.7.9-.6.2.1.3.2.3.4s0 .4-.1.6c-.1.4-1.3 2.5-1.4 2.7l-.6 1.1zm1.6-4.5c-.1 0-.3.1-.4.4-.1.2-.2.9-.4 1.7.4-.7.7-1.4.8-1.6 0-.1.1-.3 0-.4.1-.1 0-.1 0-.1zM39.8 19.9c0 .4-.4 3-.4 3s-.4-2.7-.4-3c0-.4.2-.7.4-.7.2.1.4.4.4.7zM39.3 24.2l-.1-1.2c0-.3-.4-2.7-.4-3.1 0-.5.3-.9.6-.9s.6.4.6.9c0 .4-.4 2.8-.4 3.1l-.3 1.2zm0-4.8c-.1 0-.2.2-.2.5 0 .2.1 1 .2 1.7.1-.8.2-1.6.2-1.7.1-.3-.1-.5-.2-.5zM36.7 20.1c.1.4.1 3.1.1 3.1s-.9-2.6-.9-2.9c-.1-.4.1-.7.3-.7.2-.1.4.2.5.5zM37 24.4l-.4-1.2c-.1-.3-.9-2.6-.9-2.9 0-.3 0-.6.1-.7.1-.1.2-.2.3-.2h.1c.3 0 .6.3.7.8.1.4.1 2.8.1 3.1v1.1zm-.8-4.7s0 .1 0 0c-.1.1-.2.3-.1.5 0 .2.3.9.5 1.7 0-.8-.1-1.6-.1-1.7 0-.3-.2-.5-.3-.5zM33.7 20.9c.1.3.7 3 .7 3s-1.3-2.4-1.4-2.7c-.1-.3-.1-.7.2-.8.1-.1.4.1.5.5zM34.8 25l-.6-1.1c-.1-.2-1.3-2.4-1.4-2.7-.2-.5 0-.9.3-1 .3-.1.7.2.9.6.1.4.6 2.7.7 3l.1 1.2zm-1.6-4.5c-.1 0-.2.3-.1.5s.4.9.8 1.6c-.2-.8-.3-1.5-.4-1.7-.1-.2-.2-.4-.3-.4zM30.9 22.1c.2.3 1.2 2.8 1.2 2.8s-1.7-2.1-1.9-2.4c-.2-.3-.2-.7 0-.8.2-.1.5.1.7.4zM32.7 26l-.8-1c-.2-.2-1.7-2.1-1.9-2.4-.2-.4-.2-.9.1-1 .3-.2.7 0 .9.4.2.3 1.1 2.6 1.2 2.9l.5 1.1zm-2.3-4.1c-.1.1-.1.3 0 .5s.6.8 1.1 1.4c-.3-.7-.6-1.5-.7-1.6-.2-.2-.3-.3-.4-.3zM28.4 23.8c.2.3 1.6 2.6 1.6 2.6s-2-1.8-2.3-2.1c-.2-.3-.3-.6-.1-.8.2-.1.5 0 .8.3zM30.8 27.3l-.9-.8c-.2-.2-2-1.8-2.3-2.1-.3-.4-.4-.8-.1-1 .2-.2.7-.1 1 .3.2.3 1.5 2.4 1.7 2.6l.6 1zm-3-3.6c-.1.1-.1.3.1.5.1.1.7.7 1.3 1.2-.4-.7-.8-1.3-.9-1.5-.2-.2-.4-.2-.5-.2zM26.2 25.9c.3.2 2.1 2.3 2.1 2.3s-2.3-1.4-2.6-1.6c-.3-.2-.4-.6-.3-.7.1-.3.5-.2.8 0zM29.2 29l-1.1-.6c-.2-.1-2.3-1.4-2.6-1.7-.2-.1-.3-.3-.3-.5-.1-.2 0-.4.1-.5.2-.2.7-.2 1 .1.3.2 1.9 2.1 2.1 2.3l.8.9zm-3.6-3.1h-.1v.2c0 .1.1.2.2.3.1.1.8.5 1.5.9-.5-.6-1.1-1.2-1.2-1.3-.1-.1-.3-.1-.4-.1zM24.3 28.4c.3.2 2.4 1.9 2.4 1.9s-2.5-1-2.8-1.2c-.3-.2-.5-.5-.4-.7.2-.2.5-.2.8 0zM27.9 30.9l-1.2-.5c-.3-.1-2.5-1-2.9-1.2-.4-.2-.6-.7-.4-.9.2-.3.6-.3 1-.1.3.2 2.2 1.7 2.4 1.9l1.1.8zm-4-2.5c-.1 0-.1 0-.2.1 0 .1.1.3.3.4.2.1.9.4 1.6.7-.6-.5-1.2-1-1.4-1.1-.1 0-.2-.1-.3-.1zM23 31.1c.3.1 2.7 1.4 2.7 1.4s-2.6-.5-3-.7c-.3-.1-.6-.4-.5-.6.1-.2.4-.2.8-.1zM26.9 33l-1.2-.2c-.3-.1-2.7-.5-3-.7-.3-.1-.5-.3-.6-.5-.1-.1-.1-.3 0-.4.1-.3.6-.4 1-.3.4.1 2.5 1.3 2.7 1.4l1.1.7zm-4.3-1.8c-.1 0-.2 0-.2.1v.1c0 .1.2.2.4.3.2.1.9.2 1.7.4-.7-.4-1.4-.7-1.6-.8-.1 0-.2-.1-.3-.1zM22.1 34c.4.1 2.9 1 2.9 1s-2.7-.1-3.1-.1c-.4-.1-.6-.3-.6-.5.1-.3.5-.4.8-.4zM26.3 35.2h-1.2c-.3 0-2.7-.1-3.1-.1-.2 0-.4-.1-.5-.2-.2-.1-.2-.3-.2-.5.1-.3.5-.5 1-.4.4.1 2.7.8 2.9.9l1.1.3zm-4.4-1c-.2 0-.3.1-.4.1 0 0 0 .1.1.1.1.1.2.1.4.2.2 0 1 .1 1.7.1-.7-.2-1.5-.5-1.7-.5h-.1zM21.8 37.1c.4 0 3 .4 3 .4s-2.7.4-3 .4c-.4 0-.7-.2-.7-.4s.3-.4.7-.4zM21.8 38.1c-.5 0-.9-.3-.9-.6s.4-.6.9-.6c.4 0 2.8.4 3.1.4l1.2.2-1.2.2c-.3 0-2.7.4-3.1.4zm0-.8c-.3 0-.5.1-.5.2s.2.2.5.2c.2 0 1-.1 1.7-.2-.7-.1-1.5-.2-1.7-.2zM22 40.1c.3 0 3-.1 3-.1s-2.6.9-2.9.9c-.4.1-.7-.1-.7-.3-.1-.2.2-.4.6-.5zM21.9 41.2c-.4 0-.7-.2-.7-.5 0-.2 0-.4.2-.5.1-.1.3-.2.5-.2.4-.1 2.8-.1 3.1-.1h1.2l-1.2.4c-.3.1-2.6.9-2.9.9 0-.1-.1 0-.2 0zm1.9-1c-.8 0-1.6.1-1.7.1-.1 0-.3.1-.4.2-.1 0-.1.1-.1.1 0 .1.2.2.5.1.2 0 .9-.2 1.7-.5zM22.7 43.1c.3-.1 3-.7 3-.7s-2.4 1.3-2.7 1.4c-.3.1-.7.1-.8-.1-.1-.2.2-.4.5-.6zM22.6 44.1c-.3 0-.5-.1-.6-.3v-.4c.1-.2.3-.4.6-.5.4-.1 2.7-.6 3-.7l1.2-.2-1.1.6c-.2.1-2.4 1.3-2.7 1.4-.1.1-.2.1-.4.1zm1.9-1.2c-.8.2-1.5.3-1.7.4-.2.1-.3.2-.4.3v.1c0 .1.3.1.5 0s.9-.4 1.6-.8zM23.9 45.9c.3-.2 2.8-1.2 2.8-1.2s-2.1 1.7-2.4 1.9c-.3.2-.7.2-.8 0-.1-.2.1-.5.4-.7zM23.9 47c-.2 0-.4-.1-.5-.2-.2-.3 0-.7.4-.9.3-.2 2.6-1.1 2.9-1.2l1.2-.5-1 .8c-.2.2-2.1 1.7-2.4 1.9-.2 0-.4.1-.6.1zm1.7-1.6c-.7.3-1.5.6-1.6.7-.3.1-.4.4-.3.4 0 .1.3.1.5-.1.2 0 .8-.5 1.4-1zM25.6 48.5c.3-.2 2.6-1.6 2.6-1.6s-1.8 2-2.1 2.3c-.3.2-.6.3-.8.1-.1-.3 0-.6.3-.8zM25.6 49.5c-.2 0-.3-.1-.4-.2-.2-.3-.1-.7.3-1 .3-.2 2.4-1.5 2.6-1.7l1.1-.6-.8 1c-.2.2-1.8 2-2.1 2.3-.2.1-.5.2-.7.2zm1.6-1.8c-.7.4-1.3.8-1.5.9-.2.2-.3.4-.2.5h.1c.1 0 .3-.1.4-.2.2-.1.7-.7 1.2-1.2zM27.7 50.7c.2-.3 2.3-2.1 2.3-2.1s-1.4 2.3-1.6 2.6c-.2.3-.6.4-.7.3-.2-.2-.2-.5 0-.8zM27.8 51.7c-.1 0-.2 0-.3-.1-.1-.1-.2-.2-.2-.3 0-.2.1-.5.3-.7.2-.3 2.1-1.9 2.3-2.1l.9-.8-.7 1.1c-.1.2-1.3 2.2-1.6 2.5-.2.3-.5.4-.7.4zm1.4-2.1c-.6.5-1.2 1.1-1.3 1.2-.1.2-.2.3-.2.4v.1c.1.1.3 0 .5-.2.1-.1.6-.8 1-1.5zM30.2 52.5c.2-.3 1.9-2.4 1.9-2.4s-1 2.5-1.2 2.8c-.2.3-.5.5-.7.4-.2-.1-.2-.5 0-.8zM30.4 53.5c-.1 0-.2 0-.2-.1-.1-.1-.2-.2-.2-.3-.1-.2 0-.5.1-.7.2-.3 1.7-2.2 1.9-2.4l.8-1-.5 1.2c-.1.3-1 2.5-1.2 2.9-.2.2-.5.4-.7.4zm1-2.3c-.5.6-1 1.2-1.1 1.4-.1.2-.1.4-.1.5v.1c.1 0 .3-.1.4-.3.2-.2.5-1 .8-1.7zM33 53.9c.1-.3 1.4-2.7 1.4-2.7s-.5 2.6-.7 3c-.1.3-.4.6-.6.5s-.3-.5-.1-.8zM33.2 54.8H33c-.1 0-.2-.1-.3-.3-.1-.2-.1-.5 0-.8.1-.4 1.3-2.5 1.4-2.7l.6-1.1-.2 1.2c-.1.3-.5 2.7-.7 3 0 .5-.3.7-.6.7zm.7-2.4c-.4.7-.7 1.4-.8 1.6-.1.2-.1.4 0 .5 0 0 0 .1.1.1s.2-.1.3-.4c.1-.3.3-1.1.4-1.8zM35.9 54.7c.1-.4.9-2.9.9-2.9s-.1 2.7-.1 3.1c-.1.4-.3.6-.5.6-.2-.1-.4-.4-.3-.8zM36.2 55.6c-.2 0-.4-.2-.5-.4-.1-.2-.1-.4 0-.6.1-.4.8-2.7.9-2.9l.4-1.2v1.2c0 .3-.1 2.7-.1 3.1-.1.5-.4.8-.7.8zm.4-2.5c-.2.7-.5 1.5-.5 1.7v.4c0 .1.1.1.1.1.1 0 .2-.2.3-.4 0-.2.1-1 .1-1.8zM38.9 55.1c0-.4.4-3 .4-3s.4 2.7.4 3c0 .4-.2.7-.4.7-.2-.1-.4-.4-.4-.7zM39.3 55.9c-.3 0-.6-.4-.6-.9 0-.4.4-2.8.4-3.1l.2-1.2.2 1.2c0 .3.4 2.7.4 3.1 0 .5-.2.9-.6.9zm0-2.6c-.1.8-.2 1.6-.2 1.7 0 .3.1.5.2.5s.2-.2.2-.5c.1-.1 0-.9-.2-1.7zM42 54.9c-.1-.4-.1-3.1-.1-3.1s.9 2.6.9 2.9c.1.4-.1.7-.3.7-.2.1-.4-.2-.5-.5zM42.5 55.6c-.3 0-.6-.3-.7-.8-.1-.4-.1-2.8-.1-3.1v-1.2l.4 1.2c.1.3.9 2.6.9 2.9.1.3 0 .6-.1.7-.1.2-.2.3-.4.3zm-.4-2.5c0 .8.1 1.6.1 1.7 0 .3.2.4.3.4v.2-.2s.1 0 .1-.1c.1-.1.1-.2.1-.5-.1 0-.4-.8-.6-1.5zM45 54.1c-.1-.3-.7-3-.7-3s1.3 2.4 1.4 2.7c.1.3.1.7-.2.8-.1.1-.4-.1-.5-.5zM45.5 54.8c-.3 0-.6-.3-.7-.6-.1-.4-.6-2.7-.7-3l-.2-1.2.6 1.1c.1.2 1.3 2.4 1.4 2.7.1.2.1.4.1.6 0 .2-.2.4-.3.4h-.2zm-.7-2.4c.2.8.3 1.5.4 1.7.1.3.3.4.4.4l.1-.1V54c-.2-.2-.6-.9-.9-1.6zM47.8 52.9c-.2-.3-1.2-2.8-1.2-2.8s1.7 2.1 1.9 2.4c.2.3.2.7 0 .8-.2.1-.5-.1-.7-.4zM48.3 53.5c-.3 0-.5-.2-.7-.5-.2-.3-1.1-2.6-1.2-2.9L46 49l.8 1c.2.2 1.7 2.1 1.9 2.4.1.2.2.5.1.7 0 .1-.1.2-.2.3-.1.1-.2.1-.3.1zm-1-2.3c.3.7.6 1.5.7 1.6.1.2.4.4.4.3V53c0-.1 0-.3-.1-.5-.1-.1-.6-.7-1-1.3zM50.3 51.2c-.2-.3-1.6-2.6-1.6-2.6s2 1.8 2.3 2.1c.2.3.3.6.1.8-.2.1-.5 0-.8-.3zM50.9 51.7c-.2 0-.5-.1-.7-.4-.2-.3-1.5-2.4-1.7-2.6l-.6-1.1.9.8c.2.2 2 1.8 2.3 2.1.1.2.2.4.3.5 0 .2 0 .4-.2.5-.1.2-.2.2-.3.2zm-1.4-2.1c.4.7.8 1.3.9 1.5.2.2.4.3.5.2v-.2c0-.1-.1-.2-.2-.3 0-.1-.6-.7-1.2-1.2zM52.5 49.1c-.3-.2-2.1-2.3-2.1-2.3s2.3 1.4 2.6 1.6c.3.2.4.6.3.7-.1.3-.5.2-.8 0zM53.1 49.5c-.2 0-.4-.1-.6-.3-.3-.2-1.9-2.1-2.1-2.3l-.9-.9 1.1.6c.2.1 2.3 1.4 2.6 1.7.2.2.4.4.4.6 0 .1 0 .3-.1.4-.1.1-.3.2-.4.2zm-1.6-1.8c.5.6 1.1 1.2 1.2 1.3.1.1.3.2.4.2h.1v-.1c0-.1-.1-.2-.2-.4-.2-.2-.9-.6-1.5-1zM54.4 46.6c-.3-.2-2.4-1.9-2.4-1.9s2.5 1 2.8 1.2c.3.2.5.5.4.7-.2.2-.5.2-.8 0zM54.8 47c-.2 0-.4-.1-.6-.2-.3-.2-2.2-1.7-2.4-1.9l-1-.8 1.2.5c.3.1 2.5 1 2.9 1.2.2.1.4.4.5.6v.4c-.2.1-.4.2-.6.2zm-1.7-1.6c.6.5 1.2 1 1.4 1.1.2.1.5.1.5.1v-.1c0-.1-.1-.2-.3-.3-.2-.2-.9-.5-1.6-.8zM55.7 43.9c-.3-.1-2.7-1.4-2.7-1.4s2.6.5 3 .7c.3.1.6.4.5.6-.1.1-.4.2-.8.1zM56.1 44.1c-.1 0-.3 0-.4-.1-.4-.1-2.5-1.3-2.7-1.4l-1.2-.6 1.2.2c.3.1 2.7.5 3 .7.3.1.5.3.6.5.1.1.1.3 0 .4 0 .2-.2.3-.5.3zm-1.9-1.2c.7.4 1.4.7 1.6.8.2.1.5 0 .5 0v-.1c0-.1-.2-.2-.4-.3-.1-.1-.9-.2-1.7-.4zM56.6 40.9c-.4-.1-2.9-.9-2.9-.9s2.7.1 3.1.1c.4.1.6.3.6.5-.1.3-.5.4-.8.3zM56.8 41.2h-.2c-.4-.1-2.7-.8-2.9-.9l-1.2-.4h1.2c.3 0 2.7.1 3.1.1.5.1.8.4.7.7-.1.3-.3.5-.7.5zm-1.9-1c.7.2 1.5.5 1.7.5.3.1.5-.1.5-.1 0-.1-.2-.2-.4-.3-.2 0-1 0-1.8-.1zM56.9 37.9c-.4 0-3-.4-3-.4s2.7-.4 3-.4c.4 0 .7.2.7.4s-.3.4-.7.4zM56.9 38.1c-.4 0-2.8-.4-3.1-.4l-1.2-.2 1.2-.2c.3 0 2.7-.4 3.1-.4.5 0 .9.3.9.6 0 .1-.1.2-.2.3-.1.2-.4.3-.7.3zm-1.7-.6c.8.1 1.6.2 1.7.2.2 0 .4-.1.4-.1v-.1c0-.1-.2-.2-.5-.2-.1 0-.9.1-1.6.2zM56.7 34.8c-.4.1-3.1.1-3.1.1s2.6-.9 2.9-.9c.4-.1.7.1.7.3.1.2-.1.5-.5.5zM52.4 35.2l1.2-.4c.3-.1 2.6-.9 2.9-.9.5-.1.9.1 1 .4 0 .1 0 .2-.1.4-.1.1-.4.3-.7.3-.4.1-2.8.1-3.1.1l-1.2.1zm4.4-1h-.2c-.2 0-.9.3-1.7.5.8 0 1.6-.1 1.7-.1.2 0 .4-.1.4-.2v-.1c.1 0 0-.1-.2-.1zM56 31.9c-.3.1-3 .7-3 .7s2.4-1.3 2.7-1.4c.3-.1.7-.1.8.2.1.1-.2.3-.5.5zM51.8 33l1.1-.6c.2-.1 2.4-1.3 2.7-1.4.4-.2.9 0 1 .3v.4c-.1.2-.3.4-.6.5-.4.1-2.7.6-3 .7l-1.2.1zm4.3-1.8c-.1 0-.2 0-.3.1-.2.1-.9.4-1.6.8.8-.2 1.5-.3 1.7-.4.2-.1.3-.2.4-.3v-.1s-.1-.1-.2-.1zM54.8 29.1c-.3.2-2.8 1.2-2.8 1.2s2.1-1.7 2.4-1.9c.3-.2.7-.2.8 0 .1.2-.1.5-.4.7zM50.8 30.9l1-.8c.2-.2 2.1-1.7 2.4-1.9.4-.2.9-.2 1 .1.1.2.1.3 0 .5s-.2.3-.4.4c-.3.2-2.6 1.1-2.9 1.2l-1.1.5zm4-2.5c-.1 0-.2 0-.4.1s-.8.6-1.4 1.1c.7-.3 1.5-.6 1.6-.7l.3-.3v-.2h-.1zM53.1 26.5c-.3.2-2.6 1.6-2.6 1.6s1.8-2 2.1-2.3c.3-.2.6-.3.8-.1.1.2-.1.6-.3.8zM49.5 29l.8-.9c.2-.2 1.8-2 2.1-2.3.4-.3.8-.3 1-.1.1.1.1.2.1.4s-.2.5-.4.6c-.3.2-2.4 1.5-2.6 1.7l-1 .6zm3.6-3.1c-.1 0-.3.1-.4.2-.1.1-.7.7-1.2 1.3.7-.4 1.3-.8 1.5-.9.2-.1.2-.3.2-.4V26l-.1-.1zM50.9 24.3c-.2.3-2.3 2.1-2.3 2.1s1.4-2.3 1.6-2.6c.2-.3.6-.4.7-.3.3.2.3.5 0 .8zM47.9 27.3l.6-1.1c.1-.2 1.4-2.3 1.7-2.6.3-.4.8-.5 1-.3.1.1.2.2.2.3 0 .2-.1.5-.3.7-.2.3-2.1 1.9-2.3 2.1l-.9.9zm3-3.6c-.1 0-.3.1-.4.2-.1.1-.5.8-.9 1.5.6-.5 1.2-1.1 1.3-1.2 0-.2.1-.4 0-.5.1 0 .1 0 0 0zM48.5 22.5c-.2.3-1.9 2.4-1.9 2.4s1-2.5 1.2-2.8c.2-.3.5-.5.7-.4.2.1.2.5 0 .8zM46 26l.5-1.2c.1-.3 1-2.5 1.2-2.9.2-.4.7-.6.9-.4.1.1.2.2.2.3.1.2 0 .5-.1.7-.2.3-1.7 2.2-1.9 2.4L46 26zm2.4-4.1c-.1 0-.3.1-.4.3-.1.2-.4.9-.7 1.6.5-.6 1-1.2 1.1-1.4v-.5zM45.7 21.1c-.1.3-1.4 2.7-1.4 2.7s.5-2.6.7-3c.1-.3.4-.6.6-.5.2.1.3.5.1.8zM43.9 25l.2-1.2c.1-.3.5-2.7.7-3 .2-.4.5-.7.9-.6.2.1.3.2.3.4s0 .4-.1.6c-.1.4-1.3 2.5-1.4 2.7l-.6 1.1zm1.6-4.5c-.1 0-.3.1-.4.4-.1.2-.2.9-.4 1.7.4-.7.7-1.4.8-1.6 0-.1.1-.3 0-.4.1 0 .1 0 0-.1zM42.8 20.3c-.1.4-.9 2.9-.9 2.9s.1-2.7.1-3.1c.1-.4.3-.6.5-.6.2.1.4.4.3.8zM41.7 24.4v-1.2c0-.3.1-2.7.1-3.1.1-.4.4-.8.7-.8h.1c.3.1.5.5.4 1-.1.4-.8 2.7-.9 2.9l-.4 1.2zm.8-4.7c-.1 0-.2.2-.3.4 0 .2-.1 1-.1 1.7.2-.7.5-1.5.5-1.7.1-.1 0-.4-.1-.4zM39.8 26.1c0 .4-.4 3-.4 3s-.4-2.7-.4-3c0-.4.2-.7.4-.7s.4.3.4.7zM39.3 30.4l-.2-1.2c0-.3-.4-2.7-.4-3.1 0-.5.3-.9.6-.9s.6.4.6.9c0 .4-.4 2.8-.4 3.1l-.2 1.2zm0-4.8c-.1 0-.2.2-.2.5 0 .2.1 1 .2 1.7.1-.8.2-1.6.2-1.7.1-.3-.1-.5-.2-.5zM36.8 26.3c.1.4.4 3 .4 3s-1.1-2.5-1.2-2.8c-.1-.4 0-.7.2-.8.2 0 .5.3.6.6zM37.5 30.6l-.5-1.1c-.1-.3-1.1-2.5-1.2-2.9-.1-.2-.1-.4 0-.6.1-.2.2-.3.4-.4.3-.1.7.2.8.7.1.4.4 2.8.4 3.1l.1 1.2zM36.3 26c-.1 0-.1.1-.1.1v.4c0 .2.4.9.7 1.6-.1-.8-.2-1.6-.2-1.7-.2-.3-.3-.4-.4-.4zM34 27.4c.2.3 1.2 2.8 1.2 2.8s-1.7-2.1-1.9-2.4c-.2-.3-.2-.7 0-.8.2-.1.5.1.7.4zM35.8 31.3l-.8-1c-.2-.2-1.7-2.1-1.9-2.4-.1-.2-.1-.4-.1-.6 0-.2.1-.4.2-.5.3-.2.7 0 .9.4.2.3 1.1 2.6 1.2 2.9l.5 1.2zm-2.4-4.1c-.1 0-.1.1-.1.2s0 .2.1.4.6.8 1.1 1.4c-.3-.7-.6-1.5-.7-1.6-.1-.3-.3-.4-.4-.4zM31.5 29.1c.3.3 1.9 2.4 1.9 2.4S31.2 30 31 29.7c-.3-.3-.3-.6-.2-.8.1-.1.5 0 .7.2zM34.3 32.4l-1-.7c-.2-.2-2.2-1.6-2.5-1.9-.2-.2-.3-.5-.3-.7 0-.1 0-.3.1-.3.2-.2.7-.1 1 .2.3.3 1.7 2.2 1.9 2.5l.8.9zM31 29s-.1.1 0 0c-.1 0-.1.1-.1.1 0 .1.1.3.2.4.1.1.8.6 1.4 1.1-.5-.6-.9-1.3-1.1-1.4-.1-.1-.3-.2-.4-.2zM29.6 31.4c.3.2 2.4 1.9 2.4 1.9s-2.5-1-2.8-1.2c-.3-.2-.5-.5-.4-.7.2-.2.5-.2.8 0zM33.2 33.9l-1.2-.4c-.3-.1-2.5-1-2.9-1.2-.4-.2-.6-.7-.4-.9.2-.3.6-.3 1-.1.3.2 2.2 1.7 2.5 1.9l1 .7zm-4-2.4c-.1 0-.1 0-.2.1 0 .1.1.3.3.4.2.1.9.4 1.6.7-.6-.5-1.2-1-1.4-1.1-.1-.1-.2-.1-.3-.1zM28.4 34.1c.4.1 2.8 1.2 2.8 1.2s-2.7-.3-3-.4c-.4-.1-.6-.3-.5-.6 0-.2.3-.2.7-.2zM32.5 35.6l-1.2-.1c-.3 0-2.7-.3-3.1-.4-.3-.1-.5-.2-.6-.4-.1-.1-.1-.2-.1-.4.1-.3.5-.5 1-.3.4.1 2.6 1.1 2.9 1.2l1.1.4zm-4.4-1.3c-.2 0-.3.1-.3.1v.1c0 .1.2.2.4.3.2 0 1 .1 1.7.2-.7-.3-1.4-.6-1.6-.7h-.2zM27.9 37.1c.4 0 3 .4 3 .4s-2.7.4-3 .4c-.4 0-.7-.2-.7-.4s.3-.4.7-.4zM27.9 38.1c-.5 0-.9-.3-.9-.6s.4-.6.9-.6c.4 0 2.8.4 3.1.4l1.2.2-1.2.2c-.3 0-2.7.4-3.1.4zm0-.8c-.3 0-.5.1-.5.2s.2.2.5.2c.2 0 1-.1 1.7-.2-.7-.1-1.5-.2-1.7-.2zM28.2 40.1c.4-.1 3-.4 3-.4s-2.5 1.1-2.8 1.2c-.4.1-.7 0-.8-.2 0-.3.2-.5.6-.6zM28.1 41.1c-.3 0-.6-.2-.7-.4 0-.2 0-.4.2-.5.1-.1.3-.2.5-.3.4-.1 2.8-.4 3.1-.4l1.2-.1-1.1.5c-.3.1-2.5 1.1-2.9 1.2h-.3zM30 40c-.8.1-1.6.2-1.7.2-.1 0-.3.1-.3.2l-.1.1c0 .1.3.1.5.1.1 0 .9-.3 1.6-.6zM29.2 42.9c.3-.2 2.8-1.2 2.8-1.2s-2.1 1.7-2.4 1.9c-.3.2-.7.2-.8 0 0-.2.1-.6.4-.7zM29.2 43.9c-.2 0-.4-.1-.5-.2-.2-.3 0-.7.4-.9.3-.2 2.6-1.1 2.9-1.2l1.2-.5-1 .8c-.2.2-2.1 1.7-2.4 1.9-.2 0-.4.1-.6.1zm1.7-1.6c-.7.3-1.5.6-1.6.7-.3.1-.3.4-.3.4 0 .1.3.1.5-.1.2 0 .8-.5 1.4-1zM31 45.3c.3-.3 2.4-1.9 2.4-1.9s-1.6 2.2-1.9 2.4c-.3.3-.6.3-.8.2-.1-.1 0-.4.3-.7zM31 46.3c-.1 0-.3 0-.3-.1-.1-.1-.1-.2-.1-.3 0-.2.1-.5.3-.7.3-.3 2.2-1.7 2.5-1.9l1-.7-.7 1c-.2.2-1.6 2.2-1.9 2.5-.3.1-.6.2-.8.2zm1.5-1.9c-.6.5-1.3.9-1.4 1.1-.2.2-.2.3-.2.4v.1h.1c.1 0 .3-.1.4-.2.1-.2.6-.8 1.1-1.4zM33.3 47.2c.2-.3 1.9-2.4 1.9-2.4s-1 2.5-1.2 2.8c-.2.3-.5.5-.7.4-.2-.1-.2-.5 0-.8zM33.4 48.2c-.1 0-.2 0-.2-.1-.2 0-.2-.2-.2-.4s.1-.4.2-.6c.2-.3 1.7-2.2 1.9-2.4l.8-1-.5 1.2c-.1.3-1 2.5-1.2 2.9-.2.2-.5.4-.8.4zm1.1-2.3c-.5.6-1 1.2-1.1 1.4-.1.1-.1.3-.1.4 0 .1 0 .1.1.2.1 0 .3-.1.4-.3.1-.2.4-1 .7-1.7zM36 48.4c.1-.4 1.2-2.8 1.2-2.8s-.3 2.7-.4 3c-.1.4-.3.6-.6.5-.2 0-.3-.3-.2-.7zM36.3 49.4h-.1c-.1 0-.2-.1-.3-.2-.1-.2-.1-.5-.1-.8.1-.4 1.1-2.6 1.2-2.9l.5-1.1-.1 1.2c0 .3-.3 2.7-.4 3.1-.1.4-.4.7-.7.7zm.5-2.5c-.3.7-.6 1.4-.7 1.6-.1.2 0 .4 0 .5l.1.1c.1 0 .2-.1.3-.4.1-.3.2-1.1.3-1.8zM38.9 48.9c0-.4.4-3 .4-3s.4 2.7.4 3c0 .4-.2.7-.4.7s-.4-.3-.4-.7zM39.3 49.8c-.1 0-.2-.1-.3-.2-.2-.2-.3-.4-.3-.7 0-.4.4-2.8.4-3.1l.2-1.2.2 1.2c0 .3.4 2.7.4 3.1 0 .5-.2.9-.6.9zm0-2.6c-.1.8-.2 1.6-.2 1.7 0 .2.1.4.1.4h.1c.1 0 .2-.2.2-.5.1 0 0-.8-.2-1.6zM41.9 48.6c-.1-.4-.4-3-.4-3s1.1 2.5 1.2 2.8c.1.4 0 .7-.2.8-.2 0-.5-.2-.6-.6zM42.4 49.4c-.3 0-.6-.3-.7-.7-.1-.4-.4-2.8-.4-3.1l-.1-1.2.5 1.1c.1.3 1.1 2.5 1.2 2.9.1.3.1.6-.1.8-.1.1-.2.2-.3.2h-.1zm-.5-2.5c.1.8.2 1.6.2 1.7.1.3.3.4.3.4l.1-.1c0-.1.1-.2 0-.5 0-.1-.3-.8-.6-1.5zM44.7 47.6c-.2-.3-1.2-2.8-1.2-2.8s1.7 2.1 1.9 2.4c.2.3.2.7 0 .8-.2.1-.5-.1-.7-.4zM45.3 48.2c-.3 0-.5-.2-.7-.5-.2-.3-1.1-2.6-1.2-2.9l-.5-1.2.8 1c.2.2 1.7 2.1 1.9 2.4.1.2.2.5.1.7 0 .1-.1.2-.2.3-.1.2-.2.2-.2.2zm-1.1-2.3c.3.7.6 1.5.7 1.6.1.2.4.4.4.3v-.1c0-.1 0-.3-.1-.5 0-.1-.5-.7-1-1.3zM47.1 45.9c-.3-.3-1.9-2.4-1.9-2.4s2.2 1.6 2.4 1.9c.3.3.3.6.2.8 0 0-.4-.1-.7-.3zM47.7 46.3c-.2 0-.5-.1-.7-.3-.3-.3-1.7-2.2-1.9-2.5l-.7-1 1 .7c.2.2 2.2 1.6 2.5 1.9.3.3.4.8.2 1-.1.2-.3.2-.4.2zm-1.5-1.9c.5.6.9 1.3 1.1 1.4.2.2.3.2.4.2h.1c.1-.1 0-.3-.2-.5-.1-.2-.8-.7-1.4-1.1zM49 43.6c-.3-.2-2.4-1.9-2.4-1.9s2.5 1 2.8 1.2c.3.2.5.5.4.7-.1.1-.4.1-.8 0zM49.5 43.9c-.2 0-.4-.1-.6-.2-.3-.2-2.2-1.7-2.4-1.9l-1-.8 1.2.5c.3.1 2.5 1 2.9 1.2.2.1.3.3.4.4.1.2.1.4 0 .5-.1.2-.3.3-.5.3zm-1.8-1.6c.6.5 1.2 1 1.4 1.1.2.1.5.1.5.1v-.2l-.3-.3c-.1-.1-.8-.4-1.6-.7zM50.3 40.8c-.4-.1-2.8-1.2-2.8-1.2s2.7.3 3 .4c.4.1.6.3.5.6 0 .2-.4.3-.7.2zM50.6 41.1h-.3c-.4-.1-2.6-1.1-2.9-1.2l-1.1-.5 1.2.1c.3 0 2.7.3 3.1.4.5.1.8.5.7.8-.1.2-.4.4-.7.4zM48.7 40c.7.3 1.4.6 1.6.7.3.1.5 0 .5-.1s-.1-.3-.4-.3c-.1-.1-.9-.2-1.7-.3zM50.8 37.9c-.4 0-3-.4-3-.4s2.7-.4 3-.4c.4 0 .7.2.7.4s-.3.4-.7.4zM50.8 38.1c-.4 0-2.8-.4-3.1-.4l-1.2-.2 1.2-.2c.3 0 2.7-.4 3.1-.4.5 0 .9.3.9.6-.1.3-.4.6-.9.6zm-1.7-.6c.8.1 1.6.2 1.7.2.3 0 .5-.1.5-.2s-.2-.2-.5-.2c-.2 0-1 .1-1.7.2zM50.5 34.9c-.4.1-3 .4-3 .4s2.5-1.1 2.8-1.2c.4-.1.7 0 .8.2 0 .3-.2.5-.6.6zM46.2 35.6l1.1-.5c.3-.1 2.5-1.1 2.9-1.2.4-.1.9 0 1 .3.1.3-.2.7-.7.8-.4.1-2.8.4-3.1.4l-1.2.2zm4.4-1.3h-.2c-.2 0-.9.4-1.6.7.8-.1 1.6-.2 1.7-.2.3-.1.4-.2.4-.3-.1-.1-.2-.2-.3-.2zM49.5 32.1c-.3.2-2.8 1.2-2.8 1.2s2.1-1.7 2.4-1.9c.3-.2.7-.2.8 0 0 .2-.1.5-.4.7zM45.5 33.9l1-.8c.2-.2 2.1-1.7 2.5-1.9.4-.2.9-.2 1 .1.2.3 0 .7-.4.9-.3.2-2.6 1.1-2.9 1.2l-1.2.5zm4-2.4c-.1 0-.2 0-.4.1s-.8.6-1.4 1.1c.7-.3 1.5-.6 1.6-.7.3-.1.4-.4.3-.4 0-.1 0-.1-.1-.1zM47.7 29.7c-.3.3-2.4 1.9-2.4 1.9s1.6-2.2 1.9-2.4c.3-.3.6-.3.8-.2.1.1 0 .4-.3.7zM44.4 32.5l.7-1c.2-.2 1.6-2.2 1.9-2.5.3-.3.8-.4 1-.2.2.2.2.7-.2 1-.3.3-2.2 1.7-2.5 1.9l-.9.8zm3.3-3.5c-.1 0-.3.1-.4.2-.1.1-.6.8-1.1 1.4.6-.5 1.3-.9 1.4-1.1.2-.1.2-.4.1-.5.1.1 0 0 0 0zM45.4 27.8c-.2.3-1.9 2.4-1.9 2.4s1-2.5 1.2-2.8c.2-.3.5-.5.7-.4.2.1.2.5 0 .8zM42.9 31.3l.5-1.2c.1-.3 1-2.5 1.2-2.9.2-.4.7-.6.9-.4.1.1.2.2.2.3.1.2 0 .5-.1.7-.2.3-1.7 2.2-1.9 2.4l-.8 1.1zm2.4-4.1c-.1 0-.3.1-.4.3-.1.2-.4.9-.7 1.6.5-.6 1-1.2 1.1-1.4.1-.2.1-.4 0-.5zM42.7 26.6c-.1.4-1.2 2.8-1.2 2.8s.3-2.7.4-3c.1-.4.3-.6.6-.5.2 0 .3.3.2.7zM41.2 30.6l.1-1.2c0-.3.3-2.7.4-3.1.1-.5.5-.8.8-.7.2 0 .3.2.4.4.1.2 0 .4 0 .6-.1.4-1.1 2.6-1.2 2.9l-.5 1.1zm1.2-4.6c-.1 0-.3.1-.3.4 0 .2-.1 1-.2 1.7.3-.7.6-1.4.7-1.6v-.4c-.1-.1-.1-.1-.2-.1z"/><circle cx="39.3" cy="37.5" r=".8"/><path d="M39.3 38.5c-.5 0-1-.4-1-1 0-.5.4-1 1-1 .5 0 1 .4 1 1 0 .5-.4 1-1 1zm0-1.6c-.3 0-.6.3-.6.6s.3.6.6.6.6-.3.6-.6-.2-.6-.6-.6zM16.9 10.5c.2.9.4 3.3.4 3.3s-.6-2.3-.7-3.3c-.2-.9-.2-1.1-.1-1.2.2 0 .3.2.4 1.2zM17 13.9c0-.1-.6-2.3-.7-3.3-.2-.9-.2-1.2-.1-1.4l.1-.2H16.6c.4 0 .5.4.7 1.4.2.9.4 3.2.4 3.3l-.7.2zM14.5 11.3c.5.8 1.5 3 1.5 3s-1.3-2-1.8-2.8c-.5-.8-.6-1-.5-1.1.2-.1.3.1.8.9zM15.7 14.5c-.1-.1-1.3-2-1.8-2.8-.5-.8-.6-1.1-.5-1.3v-.2l.2-.1c.1 0 .1-.1.2-.1.3 0 .5.3 1 1.1s1.5 2.9 1.6 3l-.7.4zM12.4 13c.7.6 2.5 2.2 2.5 2.2s-1.9-1.4-2.6-2c-.7-.6-.9-.8-.8-.9 0-.1.2.1.9.7zM14.6 15.5c-.1-.1-1.9-1.4-2.7-2-.8-.7-1.2-1-.8-1.4l.1-.1h.2c.2 0 .5.2 1.2.8.7.6 2.4 2.2 2.5 2.3l-.5.4zM11.1 15.2c.9.3 3.1 1.3 3.1 1.3s-2.3-.7-3.2-1c-.9-.3-1.1-.4-1-.5 0-.2.1-.1 1.1.2zM14 16.9c-.1 0-2.3-.7-3.2-1-.9-.3-1.1-.4-1.3-.7V15l.1-.2c.1-.2.2-.3.5-.3.2 0 .4.1 1.2.3.9.3 3 1.2 3.1 1.3l-.4.8zM10.5 17.8c1 0 3.3.1 3.3.1s-2.4.1-3.3.1c-1 0-1.2 0-1.2-.1.1-.1.3-.1 1.2-.1zM10.5 18.5c-1.1 0-1.5 0-1.5-.5s.5-.5 1.5-.5 3.3.1 3.4.1v.8c-.1-.1-2.4.1-3.4.1zM11 20.4c.9-.3 3.2-1 3.2-1s-2.2.9-3.1 1.3c-1 .3-1.1.3-1.2.2 0-.1.2-.2 1.1-.5zM10 21.4c-.2 0-.4-.1-.5-.3l-.1-.1.1-.2c.1-.2.4-.3 1.3-.7.9-.3 3.1-1 3.2-1l.3.7c-.1 0-2.2 1-3.1 1.3-.8.2-1 .3-1.2.3zM12.2 22.7c.7-.6 2.6-2 2.6-2s-1.7 1.6-2.5 2.2c-.7.6-.9.7-1 .6 0 0 .2-.2.9-.8zM11.5 24h-.2l-.3-.3v-.2c0-.3.2-.4 1-1.1.7-.6 2.6-2 2.7-2l.5.6c-.1.1-1.7 1.6-2.5 2.3-.7.5-1 .7-1.2.7zM14.2 24.4c.5-.8 1.8-2.8 1.8-2.8s-1.1 2.1-1.5 3c-.5.8-.6 1-.7.9-.2-.1-.1-.2.4-1.1zM13.8 25.9h-.1l-.3-.1-.1-.2c-.1-.3.1-.5.5-1.3.5-.8 1.7-2.8 1.8-2.8l.7.4c0 .1-1.1 2.1-1.6 3-.4.7-.6 1-.9 1zM16.7 25.4c.2-.9.7-3.3.7-3.3s-.3 2.4-.4 3.3c-.2.9-.2 1.1-.3 1.1-.2 0-.2-.2 0-1.1zM16.6 26.9h-.2l-.1-.2c-.2-.2-.1-.5.1-1.4.2-.9.7-3.2.7-3.3l.7.1c0 .1-.3 2.4-.4 3.3-.3 1.2-.3 1.5-.8 1.5zM19.3 25.4c-.2-.9-.4-3.3-.4-3.3s.6 2.3.7 3.3c.2.9.2 1.1.1 1.2-.2 0-.2-.2-.4-1.2zM19.6 26.9c-.4 0-.5-.4-.7-1.4-.2-.9-.4-3.2-.4-3.3l.7-.1c0 .1.6 2.3.7 3.3.2.9.2 1.2.1 1.4l-.1.1h-.3c.1 0 0 0 0 0zM21.8 24.6c-.5-.8-1.5-3-1.5-3s1.3 2 1.8 2.8c.5.8.6 1 .5 1.1-.2.1-.3-.1-.8-.9zM22.4 25.9c-.3 0-.5-.3-1-1.1s-1.5-2.9-1.6-3l.7-.4c.1.1 1.3 2 1.8 2.8.5.8.6 1.1.5 1.3v.2l-.2.1c0 .1-.1.1-.2.1zM23.8 22.9c-.7-.6-2.5-2.2-2.5-2.2s1.9 1.4 2.6 2c.7.6.9.8.8.9 0 0-.1-.1-.9-.7zM24.7 24c-.2 0-.5-.2-1.2-.8-.7-.6-2.4-2.2-2.5-2.3l.5-.6c.1.1 1.9 1.4 2.7 2 .7.6.9.8 1 1.1v.2l-.1.2c-.1.1-.2.2-.4.2zM25.2 20.7c-.9-.3-3.1-1.3-3.1-1.3s2.3.7 3.2 1c.9.3 1.1.4 1 .5 0 .1-.2.1-1.1-.2zM26.2 21.4c-.2 0-.4-.1-1.2-.3-.9-.3-3-1.2-3.1-1.3l.3-.7c.1 0 2.3.7 3.2 1 .5.2.7.3.9.4.4.2.4.5.4.7-.1 0-.3.2-.5.2zM25.7 18.1c-1 0-3.3-.1-3.3-.1s2.4-.1 3.3-.1c1 0 1.2 0 1.2.1-.1.1-.3.1-1.2.1zM25.7 18.5c-1 0-3.3-.1-3.4-.1v-.8c.1 0 2.4-.1 3.4-.1 1.1 0 1.5 0 1.5.5s-.4.5-1.5.5zM25.3 15.5c-.9.3-3.2 1-3.2 1s2.2-.9 3.1-1.3c.9-.3 1.1-.4 1.1-.3.1.2-.1.3-1 .6zM22.2 16.9l-.3-.7c.1 0 2.2-1 3.1-1.3.7-.3 1-.3 1.2-.3.2 0 .4.1.5.3.2.5-.2.6-1.3 1-.9.3-3.1.9-3.2 1zM24 13.2c-.7.6-2.6 2-2.6 2s1.7-1.6 2.5-2.2c.7-.6.9-.7 1-.6 0 0-.2.2-.9.8zM21.6 15.5l-.5-.6c.1-.1 1.7-1.6 2.5-2.3.7-.6.9-.8 1.2-.8h.2l.2.2c.1.1.1.2.1.3 0 .3-.2.4-1 1.1-.8.7-2.6 2.1-2.7 2.1zM22 11.5c-.5.8-1.8 2.8-1.8 2.8s1.1-2.1 1.5-3c.5-.8.6-1 .7-.9.2 0 .1.2-.4 1.1zM20.6 14.5l-.7-.4c0-.1 1.1-2.1 1.6-3 .5-.9.7-1.1 1-1.1h.1l.1.1c.1.1.2.2.2.3.1.3-.1.5-.5 1.3-.5.8-1.8 2.7-1.8 2.8zM19.6 10.5c-.2.9-.7 3.3-.7 3.3s.3-2.4.4-3.3c.2-.9.2-1.1.3-1.1.2 0 .1.2 0 1.1zM19.2 13.9l-.7-.1c0-.1.3-2.4.4-3.3.2-1 .3-1.4.7-1.4h.1c.1 0 .2.1.3.2.2.2.1.5-.1 1.4-.1.8-.7 3.1-.7 3.2zM18.3 13.7c0 1-.1 3.3-.1 3.3s-.2-2.3-.2-3.3 0-1.2.1-1.2.2.2.2 1.2zM18.5 17.1h-.8c0-.1-.1-2.4-.1-3.4 0-1.1 0-1.5.5-1.5s.5.5.5 1.5-.1 3.3-.1 3.4zM16.8 13.9c.3.9 1 3.2 1 3.2s-.9-2.2-1.3-3.1c-.3-.9-.4-1.1-.3-1.1.2-.1.3.1.6 1zM17.5 17.2c0-.1-1-2.2-1.3-3.1-.3-.9-.4-1.1-.3-1.4l.1-.1.2-.1h.2c.4 0 .5.3.9 1.3.3.9 1 3.1 1 3.2l-.8.2zM15.5 14.6c.6.7 2 2.6 2 2.6s-1.6-1.7-2.2-2.5c-.6-.7-.7-.9-.6-1 0 0 .2.2.8.9zM17.3 17.5c-.1-.1-1.6-1.7-2.3-2.5-.7-.8-1-1.2-.6-1.5l.1-.1h.2c.3 0 .5.2 1.1 1 .6.7 2 2.6 2 2.7l-.5.4zM14.5 15.7c.8.5 2.8 1.8 2.8 1.8s-2.1-1.1-3-1.5c-.8-.5-1-.6-.9-.7.1-.2.3-.1 1.1.4zM17.2 17.8c-.1 0-2.1-1.1-3-1.6-.8-.5-1.1-.6-1.1-.9v-.2l.1-.2c.1-.1.2-.2.4-.2s.4.1 1.2.6c.8.5 2.8 1.7 2.8 1.8l-.4.7zM14 17.1c.9.2 3.3.7 3.3.7s-2.4-.3-3.3-.4c-.9-.2-1.1-.2-1.1-.3-.1-.2.1-.2 1.1 0zM17.2 18.2c-.1 0-2.4-.3-3.3-.4-1.1-.2-1.5-.3-1.4-.8 0-.1.1-.4.5-.4.2 0 .5 0 1.1.1.9.2 3.2.7 3.3.7l-.2.8zM13.9 18.5c.9-.2 3.3-.4 3.3-.4s-2.3.6-3.3.7c-.9.2-1.1.2-1.1.1s.2-.2 1.1-.4zM13 19.3c-.4 0-.5-.3-.5-.4 0-.2 0-.4.5-.6.2-.1.5-.1 1-.2.9-.2 3.2-.4 3.3-.4l.1.7c-.1 0-2.3.6-3.3.7-.6.2-.9.2-1.1.2zM14.4 19.9c.8-.5 3-1.5 3-1.5s-2 1.3-2.8 1.8c-.8.5-1 .6-1.1.5-.1-.2 0-.3.9-.8zM13.5 21.1c-.2 0-.3-.1-.4-.2-.1-.1-.2-.4.2-.7.2-.1.4-.3.8-.5.8-.5 2.9-1.5 3-1.6l.4.7c-.1.1-2 1.3-2.8 1.8-.8.3-1 .5-1.2.5zM15.3 21.1c.6-.7 2.2-2.5 2.2-2.5s-1.4 1.9-2 2.6c-.6.7-.8.9-.9.8 0 0 .1-.2.7-.9zM14.7 22.5h-.1l-.2-.1c-.4-.4-.1-.7.6-1.5.6-.7 2.2-2.4 2.3-2.5l.6.5c-.1.1-1.4 1.9-2 2.7-.7.7-.9.9-1.2.9zM16.5 21.9c.3-.9 1.3-3.1 1.3-3.1s-.7 2.3-1 3.2c-.3.9-.4 1.1-.5 1-.1 0-.1-.2.2-1.1zM16.3 23.4h-.2c-.2-.1-.4-.2-.3-.7 0-.2.1-.5.3-.9.3-.9 1.2-3 1.3-3.1l.7.3c0 .1-.7 2.3-1 3.2-.3.9-.4 1.2-.8 1.2zM18 22.2c0-1 .1-3.3.1-3.3s.1 2.4.1 3.3c0 1 0 1.2-.1 1.2-.1-.1-.1-.3-.1-1.2zM18.1 23.7c-.5 0-.5-.5-.5-1.5s.1-3.3.1-3.4h.8c0 .1.1 2.4.1 3.4 0 1.1 0 1.5-.5 1.5zM19.4 22c-.3-.9-1-3.2-1-3.2s.9 2.2 1.3 3.1c.3.9.4 1.1.3 1.1-.2.1-.2-.1-.6-1zM19.9 23.4c-.4 0-.5-.3-.9-1.3-.3-.9-1-3.1-1-3.2l.7-.3c0 .1 1 2.2 1.3 3.1.4 1 .5 1.4 0 1.6l-.1.1zM20.7 21.3c-.6-.7-2-2.6-2-2.6s1.6 1.7 2.2 2.5c.6.7.7.9.6 1 0 0-.2-.2-.8-.9zM21.5 22.5c-.3 0-.5-.2-1.1-1-.6-.7-2-2.6-2-2.7l.6-.5c.1.1 1.6 1.7 2.3 2.5.7.8 1 1.2.6 1.5l-.1.1-.3.1zM21.7 20.2c-.8-.5-2.8-1.8-2.8-1.8s2.1 1.1 3 1.5c.8.5 1 .6.9.7-.1.1-.3.1-1.1-.4zM22.7 21.1c-.2 0-.4-.1-1.2-.6-.8-.5-2.8-1.7-2.8-1.8l.4-.7c.1 0 2.1 1.1 3 1.6.9.5 1.3.8 1.1 1.2-.2.2-.3.3-.5.3zM22.3 18.8c-.9-.2-3.3-.7-3.3-.7s2.4.3 3.3.4c.9.2 1.1.2 1.1.3 0 .2-.2.2-1.1 0zM23.3 19.3c-.2 0-.5 0-1.1-.1-.9-.2-3.2-.7-3.3-.7l.1-.7c.1 0 2.4.3 3.3.4 1.1.2 1.5.3 1.4.8.1 0 0 .3-.4.3zm0-.7v.4-.4zM22.3 17.3c-.9.2-3.3.4-3.3.4s2.3-.5 3.3-.7c.9-.2 1.1-.2 1.2-.1 0 .2-.2.3-1.2.4zM19.1 18.2l-.1-.7c.1 0 2.3-.6 3.3-.7.6-.1.9-.1 1.1-.1.4 0 .5.3.5.4.1.5-.4.6-1.4.8-1.1 0-3.4.3-3.4.3zM21.9 15.9c-.8.5-3 1.5-3 1.5s2-1.3 2.8-1.8c.8-.5 1-.6 1.1-.5.1.3-.1.4-.9.8zM19.1 17.8l-.4-.7c.1-.1 2-1.3 2.8-1.8.8-.4 1-.6 1.2-.6.2 0 .3.1.4.2l.1.1v.2c-.1.3-.3.4-1.1.9-.9.7-2.9 1.7-3 1.7zM20.9 14.8c-.6.7-2.2 2.5-2.2 2.5s1.4-1.9 2-2.6c.6-.7.8-.9.9-.8.1 0 0 .2-.7.9zM19 17.5l-.6-.5c.1-.1 1.4-1.9 2-2.7.6-.8.8-1 1.1-1h.1l.2.1c.1.1.3.3 0 .7-.1.2-.3.4-.6.8-.6.9-2.2 2.5-2.2 2.6zM19.7 14c-.3.9-1.3 3.1-1.3 3.1s.7-2.3 1-3.2c.3-.9.4-1.1.5-1 .2 0 .1.2-.2 1.1zM18.8 17.2l-.7-.2c0-.1.7-2.3 1-3.2.4-1 .5-1.3.9-1.3h.2c.2.1.4.2.3.7 0 .2-.1.5-.3.9-.5.9-1.4 3.1-1.4 3.1zM30.7 13.5c-.9.3-3.2 1-3.2 1s2.2-.9 3.1-1.3c.9-.3 1.1-.4 1.1-.3 0 .2-.1.3-1 .6zM27.6 14.9l-.3-.7c.1 0 2.2-1 3.1-1.3.7-.3 1-.3 1.2-.3.2 0 .4.1.5.3.2.5-.2.6-1.3 1-.9.3-3.1 1-3.2 1zM28.4 9.5c-.7.6-2.6 2-2.6 2s1.7-1.6 2.5-2.2c.7-.6.9-.7 1-.6 0 0-.2.2-.9.8zM26 11.8l-.5-.6c.1-.1 1.7-1.6 2.5-2.3.7-.6.9-.8 1.2-.8h.2l.2.2c.1.1.1.2.1.3 0 .3-.2.4-1 1.1-.8.7-2.7 2.1-2.7 2.1zM24.9 6.5c-.5.8-1.8 2.8-1.8 2.8s1.1-2.1 1.5-3c.5-.8.6-1 .7-.9.2.1.1.3-.4 1.1zM23.4 9.5l-.7-.4c0-.1 1.1-2.1 1.6-3 .5-.8.7-1.1 1-1.1h.1l.1.1c.4.3.2.6-.3 1.6-.5.8-1.7 2.7-1.8 2.8zM15.9 4.8c.2.9.4 3.3.4 3.3s-.6-2.3-.7-3.3c-.2-.9-.2-1.1-.1-1.2.2.1.3.3.4 1.2zM16 8.2c0-.1-.6-2.3-.7-3.3-.1-.5-.1-.8-.1-1 0-.5.2-.6.4-.6h.1c.4 0 .5.4.7 1.4.2.9.4 3.2.4 3.3l-.8.2zM11.6 6.4c.5.8 1.5 3 1.5 3s-1.3-2-1.8-2.8c-.5-.8-.6-1-.5-1.1.2-.1.3 0 .8.9zM12.8 9.5c-.1-.1-1.3-2-1.8-2.8-.5-.8-.6-1.1-.5-1.3v-.2l.2-.1c.1 0 .1-.1.2-.1.3 0 .5.3 1 1.1s1.5 2.9 1.6 3l-.7.4zM8 9.3c.7.6 2.5 2.2 2.5 2.2s-1.9-1.4-2.6-2c-.8-.6-.9-.8-.9-.8.1-.1.3 0 1 .6zM10.3 11.8c-.1-.1-1.9-1.4-2.7-2-.8-.7-1.2-1-.8-1.4l.1-.1h.2c.2 0 .4.2 1.2.8.7.6 2.4 2.2 2.5 2.3l-.5.4zM5.7 13.3c.9.3 3.1 1.3 3.1 1.3s-2.3-.7-3.2-1c-.9-.3-1.1-.4-1-.5 0-.2.2-.2 1.1.2zM8.6 14.9c-.1 0-2.3-.7-3.2-1-.9-.3-1.1-.4-1.3-.7l-.1-.1.1-.2c.1-.2.2-.3.5-.3.2 0 .4.1 1.2.3.9.3 3 1.2 3.1 1.3l-.3.7zM4.8 17.8c1 0 3.3.1 3.3.1s-2.4.1-3.3.1c-1 0-1.2 0-1.2-.1.1-.1.3-.1 1.2-.1zM4.8 18.5c-1.1 0-1.5 0-1.5-.5s.5-.5 1.5-.5 3.3.1 3.4.1v.8c-.1-.1-2.4.1-3.4.1zM5.6 22.4c.9-.3 3.2-1 3.2-1s-2.2.9-3.1 1.3c-.9.3-1.1.4-1.1.3-.1-.2.1-.3 1-.6zM4.6 23.3c-.2 0-.4-.1-.5-.3l-.1-.1.1-.2c.1-.2.4-.3 1.3-.7.9-.3 3.1-1 3.2-1l.3.7c-.1 0-2.2 1-3.1 1.3-.7.2-1 .3-1.2.3zM7.8 26.4c.7-.6 2.6-2 2.6-2S8.8 26 8 26.6c-.7.6-.9.7-1 .6 0-.1.1-.2.8-.8zM7.1 27.6h-.2l-.2-.2c-.3-.4 0-.7.8-1.4.7-.6 2.6-2 2.7-2l.5.6c-.1.1-1.7 1.6-2.5 2.3-.6.6-.8.7-1.1.7zM11.3 29.4c.5-.8 1.8-2.8 1.8-2.8s-1.1 2.1-1.5 3c-.5.8-.6 1-.7.9-.1-.1 0-.3.4-1.1zM10.9 30.8h-.1l-.3-.1-.1-.2c-.1-.3.1-.5.5-1.3.5-.8 1.7-2.8 1.8-2.8l.7.4c0 .1-1.1 2.1-1.6 3-.4.8-.5 1-.9 1zM15.7 31c.2-.9.7-3.3.7-3.3s-.3 2.4-.4 3.3c-.2.9-.2 1.1-.3 1.1-.2.1-.2-.1 0-1.1zM15.6 32.6h-.2l-.1-.2c-.2-.2-.1-.5.1-1.4.2-.9.7-3.2.7-3.3l.7.1c0 .1-.3 2.4-.4 3.3-.3 1.1-.3 1.5-.8 1.5zM20.3 31.1c-.2-.9-.4-3.3-.4-3.3s.6 2.3.7 3.3c.2.9.2 1.1.1 1.2-.2-.1-.2-.3-.4-1.2zM20.6 32.6c-.4 0-.5-.4-.7-1.4-.2-.9-.4-3.2-.4-3.3l.7-.1c0 .1.6 2.3.7 3.3.2.9.2 1.2.1 1.4l-.1.1h-.3c.1 0 0 0 0 0zM24.6 29.5c-.5-.8-1.5-3-1.5-3s1.3 2 1.8 2.8c.5.8.6 1 .5 1.1-.2.1-.3 0-.8-.9zM25.3 30.8c-.3 0-.5-.3-1-1.1s-1.5-2.9-1.6-3l.7-.4c.1.1 1.3 2 1.8 2.8.5.8.6 1.1.5 1.3v.2l-.2.1c0 .1-.1.1-.2.1zM28.2 26.6c-.7-.6-2.5-2.2-2.5-2.2s1.9 1.4 2.6 2c.7.6.9.8.8.9 0 0-.2-.1-.9-.7zM29.1 27.6c-.2 0-.5-.2-1.2-.8-.7-.6-2.4-2.2-2.5-2.3l.6-.5c.1.1 1.9 1.4 2.7 2 .7.6.9.8 1 1.1v.2l-.1.2c-.2.1-.3.1-.5.1zM30.6 22.6c-.9-.3-3.1-1.3-3.1-1.3s2.3.7 3.2 1c.9.3 1.1.4 1 .5 0 .2-.2.1-1.1-.2zM31.6 23.3c-.2 0-.4-.1-1.2-.3-.9-.3-3-1.2-3.1-1.3l.3-.7c.1 0 2.3.7 3.2 1 .5.2.7.3.9.4.4.2.4.5.4.7-.1.1-.3.2-.5.2zM31.4 18.1c-1 0-3.3-.1-3.3-.1s2.4-.1 3.3-.1c1 0 1.2 0 1.2.1s-.2.1-1.2.1zM31.4 18.5c-1 0-3.3-.1-3.4-.1v-.8c.1 0 2.4-.1 3.4-.1 1.1 0 1.5 0 1.5.5s-.4.5-1.5.5zM20.6 4.9c-.2.9-.7 3.3-.7 3.3s.3-2.4.4-3.3c.2-.9.2-1.1.3-1.1.1-.1.1.1 0 1.1zM20.2 8.2l-.7-.1c0-.1.3-2.4.4-3.3.2-1.1.3-1.4.7-1.4h.1c.1 0 .2.1.3.2.2.2.1.5-.1 1.4-.1.9-.7 3.1-.7 3.2zM18.3 7.6c0 1-.1 3.3-.1 3.3S18 8.6 18 7.6s0-1.2.1-1.2c.1.1.2.3.2 1.2zM18.5 11h-.8c0-.1-.1-2.4-.1-3.4 0-1.1 0-1.5.5-1.5s.5.5.5 1.5-.1 3.3-.1 3.4zM14.7 8.2c.3.9 1 3.2 1 3.2s-.9-2.2-1.3-3.1c-.3-.9-.4-1.1-.3-1.1.2-.1.3.1.6 1zM15.4 11.5c0-.1-1-2.2-1.3-3.1-.2-.5-.3-.7-.3-.9-.1-.5.1-.6.3-.7h.2c.4 0 .5.3.9 1.3.3.9 1 3.1 1 3.2l-.8.2zM11.6 10c.6.7 2 2.6 2 2.6s-1.6-1.7-2.2-2.5c-.6-.7-.7-.9-.6-1 0 0 .2.1.8.9zM13.4 12.9c-.1-.1-1.6-1.7-2.3-2.5-.7-.8-1-1.2-.6-1.5l.1-.1h.2c.3 0 .5.2 1.1 1 .6.7 2 2.6 2 2.7l-.5.4zM9.3 12.7c.8.5 2.8 1.8 2.8 1.8s-2.1-1.1-3-1.5c-.8-.5-1-.6-.9-.7 0-.2.2-.1 1.1.4zM11.9 14.8c-.1 0-2.1-1.1-3-1.6-.9-.5-1.3-.7-1.1-1.2.1-.1.2-.2.4-.2s.4.1 1.2.6c.8.5 2.8 1.7 2.8 1.8l-.3.6zM8 16c.9.2 3.3.7 3.3.7s-2.4-.3-3.3-.4c-.9-.2-1.1-.2-1.1-.3-.1-.2.1-.2 1.1 0zM11.2 17.1c-.1 0-2.4-.3-3.3-.4-1.1-.2-1.5-.3-1.4-.8 0-.1.1-.4.5-.4.2 0 .5 0 1.1.1.9.2 3.2.7 3.3.7l-.2.8zM7.9 19.6c.9-.2 3.3-.4 3.3-.4s-2.3.5-3.2.7c-1 .1-1.2.2-1.2 0 0-.1.2-.1 1.1-.3zM7 20.4c-.4 0-.5-.3-.5-.4-.1-.5.4-.6 1.4-.8.9-.2 3.2-.4 3.3-.4l.1.7c-.1 0-2.3.6-3.3.7-.5.1-.8.2-1 .2zM9.1 23c.8-.5 3-1.5 3-1.5s-2 1.3-2.8 1.8c-.8.5-1 .6-1.1.5-.1-.2.1-.3.9-.8zM8.3 24.1c-.2 0-.3-.1-.4-.2-.3-.5.1-.7 1.1-1.2.8-.5 2.9-1.5 3-1.6l.4.7c-.1.1-2 1.3-2.8 1.8-.9.4-1.1.5-1.3.5zM11.4 25.7c.6-.7 2.2-2.5 2.2-2.5s-1.4 1.9-2 2.6c-.6.7-.8.9-.9.8-.1 0 .1-.1.7-.9zM10.8 27.1h-.1l-.2-.1c-.4-.3-.1-.7.6-1.5.6-.7 2.2-2.4 2.3-2.5l.6.5c-.1.1-1.4 1.9-2 2.7-.7.7-.9.9-1.2.9zM14.5 27.6c.3-.9 1.3-3.1 1.3-3.1s-.7 2.3-1 3.2c-.3.9-.4 1.1-.5 1-.2 0-.2-.2.2-1.1zM14.2 29.1H14c-.5-.2-.3-.6 0-1.6.3-.9 1.2-3 1.3-3.1l.7.3c0 .1-.7 2.3-1 3.2-.3.9-.4 1.2-.8 1.2zM18 28.3c0-1 .1-3.3.1-3.3s.1 2.4.1 3.3c0 1 0 1.2-.1 1.2-.1-.1-.1-.3-.1-1.2zM18.1 29.8c-.5 0-.5-.5-.5-1.5s.1-3.3.1-3.4h.8c0 .1.1 2.4.1 3.4s0 1.5-.5 1.5zM21.5 27.7c-.3-.9-1-3.2-1-3.2s.9 2.2 1.3 3.1c.3.9.4 1.1.3 1.1-.2.1-.3-.1-.6-1zM22 29.1c-.4 0-.5-.3-.9-1.3-.3-.9-1-3.1-1-3.2l.7-.3c0 .1 1 2.2 1.3 3.1.4 1 .5 1.4 0 1.6l-.1.1zM24.6 25.9c-.6-.7-2-2.6-2-2.6s1.6 1.7 2.2 2.5c.6.7.7.9.6 1 0 0-.1-.1-.8-.9zM25.4 27.1c-.3 0-.5-.2-1.1-1-.6-.7-2-2.6-2-2.7l.6-.5c.1.1 1.6 1.7 2.3 2.5.7.8 1 1.2.6 1.5l-.1.1-.3.1zM27 23.2c-.8-.5-2.8-1.8-2.8-1.8s2.1 1.1 3 1.5c.8.5 1 .6.9.7-.1.2-.3.1-1.1-.4zM28 24.1c-.2 0-.4-.1-1.2-.6-.8-.4-2.8-1.7-2.8-1.8l.4-.7c.1 0 2.1 1.1 3 1.6.9.5 1.3.8 1.1 1.2-.2.2-.4.3-.5.3zM28.2 19.9c-.9-.2-3.3-.7-3.3-.7s2.4.3 3.3.4c.9.2 1.1.2 1.1.3.1.2-.1.1-1.1 0zM29.2 20.4c-.2 0-.5 0-1.1-.1-.9-.2-3.2-.7-3.3-.7l.1-.7c.1 0 2.4.3 3.3.4 1.1.2 1.5.3 1.4.8.2 0 .1.3-.4.3zm0-.8v.4-.4c.1 0 0 0 0 0zM28.3 16.3c-.9.2-3.3.4-3.3.4s2.3-.6 3.3-.7c.9-.2 1.1-.2 1.2-.1-.1.2-.3.2-1.2.4zM25 17.1l-.1-.7c.1 0 2.3-.6 3.3-.7.6-.1.9-.1 1.1-.1.4 0 .5.3.5.4.1.5-.4.6-1.4.8-1 0-3.3.3-3.4.3zM27.1 12.9c-.8.5-3 1.5-3 1.5s2-1.3 2.8-1.8c.8-.5 1-.6 1.1-.5.1.2-.1.3-.9.8zM24.3 14.8l-.3-.7c.1-.1 2-1.3 2.8-1.8.8-.4 1-.6 1.2-.6.2 0 .3.1.4.2.3.4-.1.7-1.1 1.2-.8.6-2.9 1.6-3 1.7zM24.9 10.1c-.6.7-2.2 2.5-2.2 2.5s1.4-1.9 2-2.6c.6-.7.8-.9.9-.8 0 0-.1.2-.7.9zM22.9 12.9l-.6-.5c.1-.1 1.4-1.9 2-2.7.6-.7.8-1 1.1-1h.1l.2.1c.4.3.1.7-.6 1.5-.6.8-2.2 2.5-2.2 2.6zM21.8 8.3c-.3.9-1.3 3.1-1.3 3.1s.7-2.3 1-3.2c.3-.9.4-1.1.5-1 .2 0 .1.2-.2 1.1zM20.9 11.5l-.7-.3c0-.1.7-2.3 1-3.2.4-1 .5-1.3.9-1.3h.2c.5.2.3.6 0 1.6-.5 1-1.4 3.1-1.4 3.2z"/><circle cx="18.1" cy="17.9" r=".4"/><circle cx="18.1" cy="17.9" r=".8"/></g><path fill="#35A7D5" d="M15.5 37.4c0 1.8-1 15.1-1 15.1s-1-13.2-1-15.1c0-1.8.5-3.3 1-3.3.5-.1 1 1.4 1 3.3z"/><path fill="#fff" d="M22 42.7c0-.2 0-.4-.1-.6h1.2c0 .2-.1.4-.1.6v.3h2.2v-.3c0-.2 0-.4-.1-.6h1.2c0 .2-.1.4-.1.6v.3h1.4c.6 0 .9 0 1.2-.1v1.2c-.3 0-.7-.1-1.2-.1h-1.4v.8H25V43.9h-2.2v.8H22l1 .4c-.1.1-.1.1-.1.2-.2.5-.4.7-.6 1.1v4c0 .4 0 .8.1 1.2h-1.3c.1-.4.1-.7.1-1.2v-2.5c-.4.5-.7.8-1.3 1.2-.1-.4-.3-.7-.6-1.1 1.2-.7 2.3-2 2.7-3.2v-.7h-1.2c-.6 0-.9 0-1.2.1V43c.3 0 .7.1 1.2.1H22v-.4zm3.3 7.5c0 .1 0 .2.1.2.1.1.5.1.9.1.9 0 1.3-.1 1.4-.2.1-.2.2-.6.2-1.7.4.2.6.3 1.1.4-.2 1.4-.2 1.7-.4 2-.3.4-.8.5-2.5.5s-2-.2-2-1.1v-4.3c0-.5 0-.8-.1-1.1h1.3c0 .4-.1.6-.1 1.1v1.1c1-.5 2-1.2 2.5-1.7l.9.8c-.2.1-.2.1-.5.4-.4.3-1.2.8-1.6 1-.5.3-.5.3-1.4.7v1.8z"/><path fill="#003693" d="M23.6 52.9h-3.9l.2-1.3c0-.4.1-.6.1-1v-.2l-.7.5-.5-1.5c-.1-.3-.2-.5-.4-.8l-.8-1 1.1-.7c.6-.4 1.3-1 1.7-1.6l-.4-.2h-.3l-1.3.2v-.9l-1.9-.8h1.9v-2.1l1.3.2c.3 0 .6.1 1.1.1l-.2-.8h7.2l-.2.9h.1c.5 0 .8 0 1.1-.1l1.3-.2v3.8l-.9-.1 1.4 1.3-1.3.8c-.1.1-.1.1-.4.3-.1 0-.1.1-.2.2.2.1.3.1.6.2l1 .2-.1 1c-.2 1.5-.2 1.9-.6 2.5-.7.9-1.8 1-3.5 1-.9 0-2 0-2.6-.7l.1.8zm2.9-3.7v.2h.3V49c-.1.1-.2.1-.3.2z"/><path fill="#fff" d="M37.6 42.2c-.1.3-.1.5-.1 1.5 0 1.7.2 2.7.6 3.6.5 1 1.2 1.9 2.1 2.5.5.4 1 .6 1.7.8-.4.4-.5.7-.8 1.2-1-.5-1.8-1-2.6-1.7-.8-.8-1.3-1.7-1.6-2.8-.3 1.3-.9 2.3-1.8 3.1-.6.6-1.3 1-2.3 1.5-.2-.5-.4-.7-.8-1.1 1.4-.5 2.4-1.2 3.1-2.2.4-.6.8-1.5.9-2.4.1-.8.2-1.6.2-2.8 0-.6 0-.8-.1-1.1h1.5zm-5.1 4.7c.4-.6.6-.9.8-1.5.2-.5.3-.9.4-1.6l1.2.4c-.2.8-.3 1.1-.5 1.8-.3.7-.4 1-.8 1.6l-1.1-.7zm6.1-.3c.7-1 1.1-1.8 1.5-2.9l1.2.5c-.6 1.4-.9 1.9-1.7 3l-1-.6z"/><path fill="#003693" d="M32.3 53.3l-.5-1.1c-.1-.3-.2-.5-.5-.8L30 50.2l1.7-.6c.7-.3 1.3-.6 1.7-.9l-2.6-1.5.7-1c.4-.5.5-.7.7-1.2.2-.4.2-.7.4-1.4l.2-1.3 2.3.8v-.7l-.2-1.3H39l-.2 1.3v1.9c.1-.3.2-.6.4-.9l.4-1.2 3.3 1.5-.5 1c-.7 1.5-1 2-1.8 3.2l-.3.4c.2.2.4.4.6.5.4.3.8.5 1.4.7l1.5.6-1.1 1.2c-.3.4-.4.5-.6.9l-.5 1-1-.4c-1.2-.5-2.1-1.1-2.9-2-.3-.3-.5-.6-.8-.9-.3.4-.6.8-1 1.2-.7.7-1.5 1.2-2.6 1.7l-1 .5z"/><g fill="#fff"><path d="M22 42.7c0-.2 0-.4-.1-.6h1.2c0 .2-.1.4-.1.6v.3h2.2v-.3c0-.2 0-.4-.1-.6h1.2c0 .2-.1.4-.1.6v.3h1.4c.6 0 .9 0 1.2-.1v1.2c-.3 0-.7-.1-1.2-.1h-1.4v.8H25V43.9h-2.2v.8H22l1 .4c-.1.1-.1.1-.1.2-.2.5-.4.7-.6 1.1v4c0 .4 0 .8.1 1.2h-1.3c.1-.4.1-.7.1-1.2v-2.5c-.4.5-.7.8-1.3 1.2-.1-.4-.3-.7-.6-1.1 1.2-.7 2.3-2 2.7-3.2v-.7h-1.2c-.6 0-.9 0-1.2.1V43c.3 0 .7.1 1.2.1H22v-.4zm3.3 7.5c0 .1 0 .2.1.2.1.1.5.1.9.1.9 0 1.3-.1 1.4-.2.1-.2.2-.6.2-1.7.4.2.6.3 1.1.4-.2 1.4-.2 1.7-.4 2-.3.4-.8.5-2.5.5s-2-.2-2-1.1v-4.3c0-.5 0-.8-.1-1.1h1.3c0 .4-.1.6-.1 1.1v1.1c1-.5 2-1.2 2.5-1.7l.9.8c-.2.1-.2.1-.5.4-.4.3-1.2.8-1.6 1-.5.3-.5.3-1.4.7v1.8zM37.6 42.2c-.1.3-.1.5-.1 1.5 0 1.7.2 2.7.6 3.6.5 1 1.2 1.9 2.1 2.5.5.4 1 .6 1.7.8-.4.4-.5.7-.8 1.2-1-.5-1.8-1-2.6-1.7-.8-.8-1.3-1.7-1.6-2.8-.3 1.3-.9 2.3-1.8 3.1-.6.6-1.3 1-2.3 1.5-.2-.5-.4-.7-.8-1.1 1.4-.5 2.4-1.2 3.1-2.2.4-.6.8-1.5.9-2.4.1-.8.2-1.6.2-2.8 0-.6 0-.8-.1-1.1h1.5zm-5.1 4.7c.4-.6.6-.9.8-1.5.2-.5.3-.9.4-1.6l1.2.4c-.2.8-.3 1.1-.5 1.8-.3.7-.4 1-.8 1.6l-1.1-.7zm6.1-.3c.7-1 1.1-1.8 1.5-2.9l1.2.5c-.6 1.4-.9 1.9-1.7 3l-1-.6z"/></g></g></svg>